<?xml version="1.0" standalone="no"?>
<!DOCTYPE svg PUBLIC "-//W3C//DTD SVG 1.1//EN" "http://www.w3.org/Graphics/SVG/1.1/DTD/svg11.dtd" >
<svg>
<metadata>
Created by FontForge 20120731 at Thu Jul 26 02:15:29 2018
 By www-data
Copyright (c) 2009 Linotype Corp., www.linotype.com. All rights reserved. This font software may not be reproduced, modified, disclosed or transferred without the express written approval of Linotype Corp. Francker is a trademark of Linotype Corp. registered in the U.S. Patent and Trademark Office and may be registered in certain other jurisdictions in the name of Linotype Corp. or its licensee Linotype GmbH. This typeface is original artwork of Anders Francker. The design may be protected in certain jurisdictions.
</metadata>
<defs>
<font id="FranckerW06-Semibold" horiz-adv-x="647" >
  <font-face 
    font-family="FranckerW06-Semibold"
    font-weight="600"
    font-stretch="normal"
    units-per-em="1000"
    panose-1="2 11 7 4 5 7 4 4 2 3"
    ascent="800"
    descent="-200"
    x-height="499"
    cap-height="680"
    bbox="-148 -326 1493 961"
    underline-thickness="50"
    underline-position="-75"
    unicode-range="U+0020-FB04"
  />
<missing-glyph horiz-adv-x="500" 
d="M453 46v587h-407v-587h407zM500 680v-680h-500v680h500z" />
    <glyph glyph-name="IJ" unicode="IJ" horiz-adv-x="895" 
d="M75 0v680h182v-680h-182zM821 227q0 -60 -5.5 -105t-29 -75t-71 -45t-132.5 -15q-56 0 -99.5 3t-74.5 8q-36 4 -63 11v110q19 -2 44 -4q21 -2 51.5 -3t68.5 -1q41 0 66 3t39 14.5t18.5 34.5t4.5 64v453h183v-453z" />
    <glyph glyph-name="ij" unicode="ij" horiz-adv-x="610" 
d="M59 0v499h167v-499h-167zM59 584v141h167v-141h-167zM550 -60q0 -50 -9 -84.5t-30 -55.5t-55 -30.5t-83 -9.5q-42 0 -74.5 3t-55.5 8q-27 5 -47 12v79q13 -2 29 -3q27 -3 77 -3q26 0 42 3.5t25 12.5t12 25.5t3 42.5v559h166v-559zM384 584v141h166v-141h-166z" />
    <glyph glyph-name="napostrophe" unicode="&#x22;n" horiz-adv-x="834" 
d="M607 0v333q0 31 -5.5 48t-17.5 24.5t-30.5 9t-44.5 1.5q-23 0 -41 -1t-31 -2q-15 -1 -26 -2v-411h-167v490q31 6 71 10q35 4 83.5 7.5t110.5 3.5q67 0 117 -4.5t83 -22.5t49 -53.5t16 -97.5v-333h-167zM140 445h-108l65 131h-38v149h154v-149z" />
    <glyph glyph-name="uniFB00" unicode="ff" horiz-adv-x="1008" 
d="M500 634q-15 2 -33 4q-16 2 -38 3.5t-50 1.5q-34 0 -52.5 -2.5t-27.5 -11.5t-11 -25.5t-2 -44.5v-60h184v-96h-184v-403h-166v403h-100v96h100v60q0 50 10.5 84t33.5 55t58.5 30.5t86.5 9.5q45 0 80 -3.5t60 -7.5q29 -5 51 -11v-82zM1004 634q-15 2 -33 4q-16 2 -38 3.5
t-50 1.5q-34 0 -52.5 -2.5t-27.5 -11.5t-11 -25.5t-2 -44.5v-60h184v-96h-184v-403h-166v403h-100v96h100v60q0 50 10.5 84t33.5 55t58.5 30.5t86.5 9.5q45 0 80 -3.5t60 -7.5q29 -5 51 -11v-82z" />
    <glyph glyph-name="uniFB01" unicode="fi" horiz-adv-x="790" 
d="M500 634q-15 2 -33 4q-16 2 -38 3.5t-50 1.5q-34 0 -52.5 -2.5t-27.5 -11.5t-11 -25.5t-2 -44.5v-60h184v-96h-184v-403h-166v403h-100v96h100v60q0 50 10.5 84t33.5 55t58.5 30.5t86.5 9.5q45 0 80 -3.5t60 -7.5q29 -5 51 -11v-82zM563 0v499h167v-499h-167zM563 584
v141h167v-141h-167z" />
    <glyph glyph-name="uniFB02" unicode="fl" horiz-adv-x="788" 
d="M500 634q-15 2 -33 4q-16 2 -38 3.5t-50 1.5q-34 0 -52.5 -2.5t-27.5 -11.5t-11 -25.5t-2 -44.5v-60h184v-96h-184v-403h-166v403h-100v96h100v60q0 50 10.5 84t33.5 55t58.5 30.5t86.5 9.5q45 0 80 -3.5t60 -7.5q29 -5 51 -11v-82zM563 0v725h167v-725h-167z" />
    <glyph glyph-name="uniFB03" unicode="ffi" horiz-adv-x="1293" 
d="M500 634q-15 2 -33 4q-16 2 -38 3.5t-50 1.5q-34 0 -52.5 -2.5t-27.5 -11.5t-11 -25.5t-2 -44.5v-60h184v-96h-184v-403h-166v403h-100v96h100v60q0 50 10.5 84t33.5 55t58.5 30.5t86.5 9.5q45 0 80 -3.5t60 -7.5q29 -5 51 -11v-82zM1004 634q-15 2 -33 4q-16 2 -38 3.5
t-50 1.5q-34 0 -52.5 -2.5t-27.5 -11.5t-11 -25.5t-2 -44.5v-60h184v-96h-184v-403h-166v403h-100v96h100v60q0 50 10.5 84t33.5 55t58.5 30.5t86.5 9.5q45 0 80 -3.5t60 -7.5q29 -5 51 -11v-82zM1068 0v499h167v-499h-167zM1068 584v141h167v-141h-167z" />
    <glyph glyph-name="uniFB04" unicode="ffl" horiz-adv-x="1293" 
d="M500 634q-15 2 -33 4q-16 2 -38 3.5t-50 1.5q-34 0 -52.5 -2.5t-27.5 -11.5t-11 -25.5t-2 -44.5v-60h184v-96h-184v-403h-166v403h-100v96h100v60q0 50 10.5 84t33.5 55t58.5 30.5t86.5 9.5q45 0 80 -3.5t60 -7.5q29 -5 51 -11v-82zM1004 634q-15 2 -33 4q-16 2 -38 3.5
t-50 1.5q-34 0 -52.5 -2.5t-27.5 -11.5t-11 -25.5t-2 -44.5v-60h184v-96h-184v-403h-166v403h-100v96h100v60q0 50 10.5 84t33.5 55t58.5 30.5t86.5 9.5q45 0 80 -3.5t60 -7.5q29 -5 51 -11v-82zM1068 0v725h167v-725h-167z" />
    <glyph glyph-name=".notdef" horiz-adv-x="500" 
d="M453 46v587h-407v-587h407zM500 680v-680h-500v680h500z" />
    <glyph glyph-name=".null" horiz-adv-x="0" 
 />
    <glyph glyph-name="nonmarkingreturn" horiz-adv-x="333" 
 />
    <glyph glyph-name="space" unicode=" " horiz-adv-x="283" 
 />
    <glyph glyph-name="exclam" unicode="!" horiz-adv-x="316" 
d="M82 227v453h152v-453h-152zM75 0v146h167v-146h-167z" />
    <glyph glyph-name="quotedbl" unicode="&#x22;" horiz-adv-x="477" 
d="M59 445v280h129v-280h-129zM290 445v280h129v-280h-129z" />
    <glyph glyph-name="numbersign" unicode="#" horiz-adv-x="684" 
d="M523 414l-26 -147h97v-81h-111l-33 -186h-96l32 186h-143l-32 -186h-97l33 186h-97v81h111l27 147h-98v80h112l32 186h96l-33 -186h144l33 186h95l-32 -186h97v-80h-111zM283 414l-26 -147h143l26 147h-143z" />
    <glyph glyph-name="dollar" unicode="$" horiz-adv-x="717" 
d="M309 -139v127q-52 2 -92 5t-69 7q-33 4 -58 9v98q24 -3 56 -5q27 -2 65.5 -3.5t87.5 -1.5q52 0 83.5 1.5t48.5 10.5t23 27.5t6 52.5q0 26 -1 41.5t-6.5 25t-17 14.5t-33.5 9l-153 27q-59 10 -91 27t-46.5 41.5t-17 55.5t-2.5 70q0 60 16.5 97t45.5 57.5t68.5 28t86.5 9.5
v121h98v-121q48 -2 86 -5.5t64 -6.5q31 -4 55 -8v-98q-23 2 -52 4q-25 2 -60.5 3t-80.5 1q-47 0 -76 -1t-44.5 -8.5t-21 -23.5t-5.5 -46q0 -23 1 -37t6 -22.5t17 -13t33 -8.5l154 -27q58 -10 90 -27t46.5 -42t17 -58.5t2.5 -77.5q0 -66 -14 -105t-42.5 -60.5t-72 -28.5
t-103.5 -8v-127h-98z" />
    <glyph glyph-name="percent" unicode="%" horiz-adv-x="1081" 
d="M390 0h-92l393 680h92zM412 465q0 -72 -6 -114.5t-26 -64t-57.5 -28t-100.5 -6.5t-100 6.5t-57 28t-26 64t-6 114.5q0 75 7.5 119.5t28 67.5t57.5 29.5t96 6.5q60 0 97 -6.5t57.5 -29.5t28 -67.5t7.5 -119.5zM295 468q0 53 -1.5 82t-8.5 42.5t-21 15.5t-39 2h-6
q-24 0 -38 -2t-21 -15.5t-8.5 -42.5t-1.5 -82v-5q0 -50 1 -77.5t7.5 -40t20.5 -14.5t40 -2h6q26 0 40 2t21 14.5t8 40t1 77.5v5zM1048 206q0 -72 -6 -114.5t-26 -64t-57.5 -28t-100.5 -6.5t-100 6.5t-56.5 28t-25.5 64t-6 114.5q0 75 7 119.5t27.5 67t57.5 29t96 6.5
q60 0 97 -6.5t57.5 -29t28 -67t7.5 -119.5zM932 209q0 53 -1.5 82t-8.5 42.5t-21.5 15.5t-39.5 2h-5q-25 0 -39 -2t-21 -15.5t-8.5 -42.5t-1.5 -82v-6q0 -50 1 -77t8 -39.5t21 -14.5t40 -2h5q26 0 40.5 2t21 14.5t8 39.5t1.5 77v6z" />
    <glyph glyph-name="ampersand" unicode="&#x26;" horiz-adv-x="802" 
d="M697 294v-285q-38 -7 -86 -11q-42 -5 -101 -8t-134 -3q-80 0 -139.5 5t-99.5 25t-60 61t-20 112q0 59 12 90t27 46q18 17 40 20v2q-21 2 -38 17q-14 13 -25.5 40t-11.5 78q0 74 21 116t58.5 63t89 26t111.5 5q65 0 116.5 -3.5t87.5 -7.5q42 -4 75 -10v-104q-24 2 -56 5
q-27 2 -66 4t-88 2q-52 0 -83.5 -1.5t-49 -11t-23 -30.5t-5.5 -59q0 -29 4.5 -45t15.5 -23.5t31 -8.5t52 -1h162v73h183v-73h78v-105h-78zM514 294h-164q-33 0 -53.5 -1.5t-32 -10t-16 -26.5t-4.5 -52q0 -39 5.5 -59.5t20.5 -30.5t41 -11.5t68 -1.5q32 0 57 1t42 3
q20 2 36 4v185z" />
    <glyph glyph-name="quotesingle" unicode="'" horiz-adv-x="247" 
d="M59 445v280h129v-280h-129z" />
    <glyph glyph-name="parenleft" unicode="(" horiz-adv-x="451" 
d="M400 -217q-19 -7 -45 -12q-22 -5 -53 -8t-70 -3q-63 0 -97.5 28.5t-50.5 88t-18.5 151t-2.5 217.5q0 129 3.5 222.5t19.5 153.5t50 88.5t96 28.5q39 0 70 -3.5t53 -7.5q26 -5 45 -11v-99q-12 1 -27 3q-14 1 -32.5 2t-41.5 1q-16 0 -28 -1.5t-20.5 -12.5t-14.5 -33.5
t-9 -64.5t-4.5 -107t-1.5 -159q0 -92 1 -155.5t4 -104.5t8.5 -63.5t14.5 -33t21 -12t29 -1.5q47 0 74 3q15 2 27 4v-99v0z" />
    <glyph glyph-name="parenright" unicode=")" horiz-adv-x="451" 
d="M387 245q0 -126 -2.5 -217.5t-18.5 -151t-50.5 -88t-97.5 -28.5q-39 0 -70 3t-53 8q-26 5 -45 12v99q12 -2 27 -4q25 -3 74 -3q16 0 28.5 1.5t21 12t14 33t9 63.5t4.5 104t1 156q0 94 -1.5 159t-4.5 107t-8.5 64.5t-14.5 33.5t-21 12.5t-28 1.5q-24 0 -42.5 -1t-31.5 -2
q-15 -2 -27 -3v99q19 6 45 11q22 4 53 7.5t70 3.5q62 0 96 -28.5t50.5 -88.5t19.5 -153.5t3 -222.5z" />
    <glyph glyph-name="asterisk" unicode="*" horiz-adv-x="549" 
d="M340 477l104 -136l-72 -51l-98 140l-98 -140l-70 51l103 136l-163 50l26 83l162 -55l-4 170h89l-4 -170l162 55l26 -83z" />
    <glyph glyph-name="plus" unicode="+" horiz-adv-x="626" 
d="M364 248v-226h-102v226h-212v94h212v225h102v-225h212v-94h-212z" />
    <glyph glyph-name="comma" unicode="," horiz-adv-x="284" 
d="M148 -139h-117l69 139h-41v160h167v-160z" />
    <glyph glyph-name="hyphen" unicode="-" horiz-adv-x="443" 
d="M50 238v113h343v-113h-343z" />
    <glyph glyph-name="period" unicode="." horiz-adv-x="284" 
d="M59 0v160h167v-160h-167z" />
    <glyph glyph-name="slash" unicode="/" horiz-adv-x="433" 
d="M154 -36h-145l270 739h145z" />
    <glyph glyph-name="zero" unicode="0" horiz-adv-x="717" 
d="M662 333q0 -78 -3.5 -133.5t-15 -94t-32 -62t-54 -36t-82.5 -16.5t-116 -4q-68 0 -116.5 4t-82.5 16.5t-54.5 36t-32 62t-15 94t-3.5 133.5q0 122 11.5 193.5t44.5 108.5t92.5 47.5t155.5 10.5q95 0 154.5 -10.5t92.5 -47.5t44.5 -108.5t11.5 -193.5zM483 338
q0 88 -3 136t-15 70.5t-36 26t-66 3.5h-9q-42 0 -66 -3.5t-36 -26t-15 -70.5t-3 -136v-9q0 -84 2.5 -129t14 -66t35.5 -24.5t68 -3.5h9q44 0 68 3.5t35.5 24.5t14 66t2.5 129v9z" />
    <glyph glyph-name="one" unicode="1" horiz-adv-x="717" 
d="M329 0v558l-210 -76v112l210 86h174v-680h-174z" />
    <glyph glyph-name="two" unicode="2" horiz-adv-x="717" 
d="M86 0v110l309 293q16 15 25 25t13 18t4.5 16.5t0.5 20.5q0 37 -6.5 57t-23.5 29.5t-46 11t-74 1.5q-46 0 -81.5 -1t-61.5 -3q-30 -2 -52 -4v98q30 6 70 10q34 4 82.5 7.5t109.5 3.5q49 0 96.5 -5t84.5 -26t59.5 -63t22.5 -116q0 -23 -1 -40.5t-8.5 -34.5t-23 -37
t-43.5 -47l-221 -214h307v-110h-542z" />
    <glyph glyph-name="three" unicode="3" horiz-adv-x="717" 
d="M627 190q0 -71 -21.5 -112t-58.5 -61t-85.5 -25t-102.5 -5q-63 0 -112 3t-84 8q-40 4 -72 11v98q23 -3 54 -5q26 -2 63 -3.5t85 -1.5t78.5 1.5t47 11.5t22.5 32t6 62q0 34 -4.5 53t-15.5 27.5t-29.5 10t-45.5 1.5h-198v101h196q26 0 44 1.5t28.5 9t15 24t4.5 46.5
q0 39 -6.5 60t-23.5 31t-45.5 11.5t-73.5 1.5q-46 0 -81.5 -1t-61.5 -3q-30 -2 -53 -4v98q30 6 70 10q34 4 82.5 7.5t109.5 3.5q49 0 96.5 -5t84.5 -26t59.5 -63t22.5 -116q0 -51 -12.5 -78t-27.5 -40q-18 -15 -39 -17v-2q24 -3 42 -20q16 -15 29 -46t13 -90z" />
    <glyph glyph-name="four" unicode="4" horiz-adv-x="717" 
d="M582 176v-176h-174v176h-363v110l278 394h259v-394h91v-110h-91zM408 570l-204 -284h204v284z" />
    <glyph glyph-name="five" unicode="5" horiz-adv-x="717" 
d="M637 211q0 -79 -16 -124t-49.5 -67t-86.5 -27.5t-126 -5.5q-65 0 -116 3t-87 8q-42 4 -74 11v98q24 -3 57 -5q28 -2 66.5 -3.5t88.5 -1.5q57 0 89.5 2t49 12.5t20.5 33.5t4 66q0 32 -3 49t-12 25t-26 9.5t-44 1.5h-284v384h504v-110h-329v-173h166q45 0 83 -3t65.5 -20.5
t43.5 -55t16 -107.5z" />
    <glyph glyph-name="six" unicode="6" horiz-adv-x="717" 
d="M662 211q0 -79 -20.5 -124t-59.5 -67t-95.5 -27t-127.5 -5q-68 0 -116.5 4t-82.5 16.5t-54.5 35.5t-32 61.5t-15 94t-3.5 133.5q0 122 12 193.5t43.5 108.5t85.5 47.5t139 10.5q66 0 118 -3.5t89 -7.5q43 -4 76 -10v-98q-31 2 -67 4q-31 2 -70.5 3t-82.5 1h-52.5
t-41.5 -2q-21 -3 -34.5 -10.5t-21 -25.5t-10.5 -49t-3 -80q15 1 33 2q16 1 39 2t52 1q97 0 156.5 -5t92 -26t43.5 -63t11 -115zM483 211q0 41 -3 63t-15 32.5t-37 12t-69 1.5q-29 0 -52.5 -1t-39.5 -2q-19 -1 -33 -2v-34q0 -69 3 -106.5t15.5 -54.5t37.5 -20t69 -3
q38 0 62 2t38 12.5t19 33.5t5 66z" />
    <glyph glyph-name="seven" unicode="7" horiz-adv-x="717" 
d="M363 0h-199l283 562h-362v118h548v-118z" />
    <glyph glyph-name="eight" unicode="8" horiz-adv-x="717" 
d="M662 190q0 -71 -21.5 -112t-61 -61t-95.5 -25t-125 -5q-70 0 -126 5t-95.5 25t-61 61t-21.5 112q0 59 12.5 90t28.5 46q18 17 41 20v2q-22 2 -39 17q-15 13 -27 40t-12 78q0 74 22.5 116t62 63t94.5 26t121 5q65 0 120 -5t94.5 -26t62 -63t22.5 -116q0 -51 -12.5 -78
t-26.5 -40q-18 -15 -39 -17v-2q23 -3 41 -20q15 -15 28 -46t13 -90zM478 478q0 39 -6 60t-20.5 31t-37 11.5t-55.5 1.5q-34 0 -57 -1.5t-37 -11.5t-20 -31t-6 -60q0 -33 5 -51.5t18.5 -26.5t37 -9.5t59.5 -1.5t59 1.5t36.5 9.5t18.5 26.5t5 51.5zM483 204q0 38 -5 58.5
t-19 30t-38 11t-62 1.5t-62.5 -1.5t-38.5 -11t-19 -30t-5 -58.5q0 -40 5.5 -62t19.5 -32t38 -11.5t62 -1.5q37 0 61 1.5t38 11.5t19.5 32t5.5 62z" />
    <glyph glyph-name="nine" unicode="9" horiz-adv-x="717" 
d="M662 333q0 -78 -4 -133.5t-14.5 -94t-30 -62t-50.5 -36t-76 -16.5t-106 -4q-66 0 -117.5 3t-88.5 8q-43 4 -76 11v98q44 -3 91 -6q40 -2 86.5 -3.5t88.5 0.5q39 1 62 4.5t35 19t16 49t4 94.5q-15 -1 -33 -2q-16 -1 -38.5 -1.5t-51.5 -0.5q-98 0 -157.5 5t-92 25.5
t-43.5 61.5t-11 114q0 80 22 125t62.5 67.5t96 28t123.5 5.5q95 0 154.5 -10.5t92.5 -47.5t44.5 -108.5t11.5 -193.5zM483 365q0 81 -3.5 125.5t-16 64.5t-37.5 23.5t-67 3.5q-38 0 -62 -2t-38 -12.5t-19.5 -34t-5.5 -66.5q0 -40 3 -61.5t16 -31.5t37.5 -11.5t68.5 -1.5
q29 0 51 0.5t39 1.5q18 1 34 2z" />
    <glyph glyph-name="colon" unicode=":" horiz-adv-x="284" 
d="M59 339v160h167v-160h-167zM59 0v160h167v-160h-167z" />
    <glyph glyph-name="semicolon" unicode=";" horiz-adv-x="284" 
d="M59 339v160h167v-160h-167zM148 -139h-117l69 139h-41v160h167v-160z" />
    <glyph glyph-name="less" unicode="&#x3c;" horiz-adv-x="626" 
d="M50 248v94l526 228v-101l-403 -175l403 -174v-100z" />
    <glyph glyph-name="equal" unicode="=" horiz-adv-x="626" 
d="M50 345v93h526v-93h-526zM50 151v94h526v-94h-526z" />
    <glyph glyph-name="greater" unicode="&#x3e;" horiz-adv-x="626" 
d="M50 20v100l403 174l-403 175v101l526 -228v-94z" />
    <glyph glyph-name="question" unicode="?" horiz-adv-x="603" 
d="M554 508q0 -59 -6 -93t-19.5 -52.5t-36 -27.5t-56.5 -16l-71 -16v-76h-152v161l134 30q16 3 26 8t15 14.5t6.5 25.5t1.5 42q0 33 -5 51.5t-21 26.5t-45.5 9.5t-78.5 1.5q-46 0 -82 -1.5t-62 -3.5q-30 -3 -52 -5v85q28 6 67 10q32 4 79 7.5t106 3.5q53 0 99 -4.5t80 -23.5
t53.5 -56t19.5 -101zM205 0v146h167v-146h-167z" />
    <glyph glyph-name="at" unicode="@" horiz-adv-x="940" 
d="M888 268q0 -57 -3.5 -96t-16.5 -64t-40 -38.5t-74.5 -20t-118.5 -7.5t-173 -1q-45 0 -85 2.5t-70.5 16t-48.5 43t-18 84.5q0 51 12 78t34 40t53.5 15t69.5 2h144v27q0 29 -4.5 45.5t-15 24.5t-28.5 10t-45 2q-44 1 -79.5 0t-61.5 -3q-30 -2 -54 -5v67q24 5 56 9
q27 4 65.5 7t87.5 3q50 0 89 -4t65.5 -20t40 -48t13.5 -88v-228q45 1 69 4.5t35 17t13 42.5t2 83q0 84 -4 142.5t-15.5 97t-34 60.5t-59 32.5t-90 13t-128.5 2.5q-74 0 -127.5 -2.5t-90.5 -13t-59 -32.5t-34 -60.5t-16 -97t-4 -142.5q0 -80 2.5 -136.5t12.5 -93.5t31 -58
t57.5 -31t92 -12.5t135.5 -2.5q93 0 166.5 2t125.5 4q61 3 107 7v-67q-46 -7 -107 -12q-52 -5 -125.5 -8t-166.5 -3t-160.5 5t-114 20.5t-74.5 43.5t-43.5 73.5t-20.5 111.5t-5 157q0 94 6.5 162.5t24 115.5t47 76t76 44.5t111.5 21t153 5.5t153 -5.5t111.5 -21t76 -44.5
t47 -76t24 -115.5t6.5 -162.5zM553 252h-105q-22 0 -36.5 -1t-23.5 -7t-12.5 -19.5t-3.5 -37.5q0 -26 5 -40t16 -20.5t28.5 -7.5t41.5 -1h66q14 0 24 1v133z" />
    <glyph glyph-name="A" unicode="A" horiz-adv-x="784" 
d="M584 0l-61 173h-265l-61 -173h-188l252 680h262l252 -680h-191zM391 566l-98 -279h197z" />
    <glyph glyph-name="B" unicode="B" horiz-adv-x="753" 
d="M697 190q0 -71 -20 -109.5t-54 -56.5t-78 -21t-92 -3h-378v680h370q44 0 88 -3t79.5 -21.5t57.5 -58.5t22 -114q0 -51 -12 -78t-26 -40q-17 -15 -37 -17v-2q22 -3 40 -20q15 -15 27.5 -46t12.5 -90zM503 477q0 33 -5 51.5t-17.5 26.5t-32.5 9.5t-50 1.5h-141v-167h143
q32 0 52 1t31.5 8.5t15.5 23.5t4 45zM508 204q0 34 -4 52t-16 26.5t-32.5 10t-53.5 1.5h-145v-180h148q29 0 49 1.5t32 10t17 26.5t5 52z" />
    <glyph glyph-name="C" unicode="C" horiz-adv-x="666" 
d="M632 9q-33 -7 -76 -11q-37 -5 -89.5 -8t-118.5 -3q-101 0 -158.5 14t-85.5 52t-34.5 104.5t-6.5 171.5q0 113 9 184t39 111t85.5 54.5t148.5 14.5q65 0 117 -3.5t88 -7.5q42 -4 75 -10v-112q-43 3 -86 5q-37 2 -81 3t-83 0q-42 -2 -66.5 -6t-37 -26.5t-16 -71
t-3.5 -137.5q0 -53 1 -89.5t4.5 -60t11 -36t21.5 -19t35 -8t52 -2.5q40 -2 85 -0.5t83 3.5q44 2 87 5v-111v0z" />
    <glyph glyph-name="D" unicode="D" horiz-adv-x="777" 
d="M714 329q0 -106 -8.5 -170.5t-34.5 -100t-73.5 -47t-125.5 -11.5h-397v680h388q75 0 123.5 -12t77 -49t39.5 -106t11 -184zM526 327q0 86 -4 133t-16 68.5t-33.5 25t-57.5 3.5h-158v-433h165q35 0 55.5 3t31.5 22t14 60.5t3 117.5z" />
    <glyph glyph-name="E" unicode="E" horiz-adv-x="682" 
d="M75 0v680h550v-114h-368v-167h337v-105h-337v-180h375v-114h-557z" />
    <glyph glyph-name="F" unicode="F" horiz-adv-x="660" 
d="M257 566v-178h337v-104h-337v-284h-182v680h550v-114h-368z" />
    <glyph glyph-name="G" unicode="G" horiz-adv-x="771" 
d="M703 9q-38 -7 -86 -11q-42 -5 -100.5 -8t-132.5 -3q-75 0 -127.5 4.5t-88.5 17t-56.5 36t-31.5 61.5t-14 92.5t-3 130.5q0 80 4 138t16 98.5t33.5 65.5t57 38.5t86 18.5t120.5 5q74 0 132 -3.5t100 -7.5q48 -4 85 -10v-104l-106 6q-45 2 -98 3.5t-98 -0.5q-34 -1 -58 -3
t-40 -9t-25 -22t-13.5 -42.5t-5.5 -69.5t-1 -104q0 -85 2.5 -131t15.5 -67t40 -24.5t76 -3.5q31 0 56 1t42 3q20 2 36 4v185h-132v105h315v-390v0z" />
    <glyph glyph-name="H" unicode="H" horiz-adv-x="777" 
d="M520 0v285h-263v-285h-182v680h182v-271h263v271h183v-680h-183z" />
    <glyph glyph-name="I" unicode="I" horiz-adv-x="332" 
d="M75 0v680h182v-680h-182z" />
    <glyph glyph-name="J" unicode="J" horiz-adv-x="576" 
d="M502 227q0 -60 -5.5 -105t-29 -75t-71 -45t-132.5 -15q-56 0 -99.5 3t-74.5 8q-36 4 -63 11v110q19 -2 44 -4q21 -2 51.5 -3t68.5 -1q41 0 66 3t39 14.5t18.5 34.5t4.5 64v453h183v-453v0z" />
    <glyph glyph-name="K" unicode="K" horiz-adv-x="772" 
d="M539 0l-191 285h-91v-285h-182v680h182v-271h91l184 271h207l-230 -333l242 -347h-212z" />
    <glyph glyph-name="L" unicode="L" horiz-adv-x="635" 
d="M75 0v680h182v-556h351v-124h-533z" />
    <glyph glyph-name="M" unicode="M" horiz-adv-x="986" 
d="M743 0v521l-162 -521h-177l-163 521v-521h-166v680h255l163 -521l164 521h254v-680h-168z" />
    <glyph glyph-name="N" unicode="N" horiz-adv-x="824" 
d="M497 0l-256 521v-521h-166v680h252l256 -521v521h166v-680h-252z" />
    <glyph glyph-name="O" unicode="O" horiz-adv-x="777" 
d="M714 333q0 -78 -3 -133.5t-14 -94t-32 -62t-57.5 -36t-90 -16.5t-129.5 -4q-75 0 -128.5 4t-90 16.5t-57.5 36t-32 62t-14 94t-3 133.5q0 81 4.5 139.5t17.5 98.5t35.5 64t58.5 37t87.5 17t121.5 4q106 0 170.5 -10.5t99 -47.5t45.5 -108.5t11 -193.5zM526 338
q0 87 -3.5 133.5t-17 68.5t-40 25.5t-72.5 3.5h-8q-47 0 -73.5 -3.5t-39.5 -25.5t-16.5 -68.5t-3.5 -133.5v-9q0 -82 2.5 -126t15 -64.5t39.5 -24t76 -3.5h8q49 0 76 3.5t39.5 24t15 64.5t2.5 126v9z" />
    <glyph glyph-name="P" unicode="P" horiz-adv-x="735" 
d="M697 459q0 -75 -15 -117t-45.5 -62.5t-77 -25.5t-109.5 -5h-193v-249h-182v680h370q58 0 105 -5t79.5 -27t50 -66t17.5 -123zM508 462q0 39 -4 60t-16 31t-33 11.5t-55 1.5h-143v-203h146q34 0 54.5 1.5t32 11t15 29.5t3.5 57z" />
    <glyph glyph-name="Q" unicode="Q" horiz-adv-x="777" 
d="M714 333q0 -97 -5 -160t-24.5 -101.5t-58.5 -56t-106 -23.5l99 -184h-185l-87 180q-98 1 -155 13.5t-85.5 49t-36 104t-7.5 178.5q0 81 4.5 139.5t17.5 98.5t35.5 64t58.5 37t87.5 17t121.5 4q106 0 170.5 -10.5t99 -47.5t45.5 -108.5t11 -193.5zM526 338
q0 87 -3.5 133.5t-17 68.5t-40 25.5t-72.5 3.5h-8q-47 0 -73.5 -3.5t-39.5 -25.5t-16.5 -68.5t-3.5 -133.5v-9q0 -82 2.5 -126t15 -64.5t39.5 -24t76 -3.5h8q49 0 76 3.5t39.5 24t15 64.5t2.5 126v9z" />
    <glyph glyph-name="R" unicode="R" horiz-adv-x="763" 
d="M522 0l-96 264h-169v-264h-182v680h370q58 0 105 -5t79.5 -26t50 -64.5t17.5 -119.5q0 -89 -23.5 -131.5t-72.5 -56.5l120 -277h-199zM508 468q0 37 -4 57t-16 29t-33 10.5t-55 1.5h-143v-188h146q34 0 54.5 1.5t32 10t15 26.5t3.5 52z" />
    <glyph glyph-name="S" unicode="S" horiz-adv-x="671" 
d="M630 190q0 -71 -17 -112t-52.5 -61t-91 -25t-132.5 -5q-68 0 -121.5 3t-91.5 8q-44 4 -78 11v102q26 -3 60 -5q29 -2 70 -3.5t94 -1.5q56 0 89.5 1.5t51.5 10t24 26t6 50.5q0 25 -1 40t-7 24t-19 14t-37 9l-161 28q-63 11 -97.5 28.5t-50.5 42t-18.5 55.5t-2.5 70
q0 67 21.5 106t59 58t88 24t109.5 5q64 0 115.5 -3.5t87.5 -7.5q42 -4 74 -10v-104q-24 2 -56 5q-27 2 -65.5 4t-86.5 2q-51 0 -82 -1t-48.5 -8.5t-23 -23t-5.5 -43.5q0 -22 1 -35.5t7 -21.5t19.5 -12.5t37.5 -8.5l161 -27q63 -11 97.5 -28.5t50.5 -42.5t18.5 -59t2.5 -78z
" />
    <glyph glyph-name="T" unicode="T" horiz-adv-x="660" 
d="M422 557v-557h-183v557h-212v123h606v-123h-211z" />
    <glyph glyph-name="U" unicode="U" horiz-adv-x="777" 
d="M703 227q0 -75 -8.5 -121.5t-40 -73t-94.5 -36t-172 -9.5t-171.5 9.5t-94 36t-39.5 73t-8 121.5v453h182v-453q0 -44 4 -67.5t17.5 -34t39.5 -12.5t70 -2q45 0 71 2t39.5 12.5t17.5 34t4 67.5v453h183v-453v0z" />
    <glyph glyph-name="V" unicode="V" horiz-adv-x="740" 
d="M511 0h-282l-220 680h190l172 -556l172 556h188z" />
    <glyph glyph-name="W" unicode="W" horiz-adv-x="1063" 
d="M896 0h-253l-112 521l-112 -521h-254l-146 680h174l116 -556l117 556h211l117 -556l117 556h173z" />
    <glyph glyph-name="X" unicode="X" horiz-adv-x="762" 
d="M542 0l-162 285l-163 -285h-197l205 347l-195 333h196l156 -271l156 271h194l-195 -333l204 -347h-199z" />
    <glyph glyph-name="Y" unicode="Y" horiz-adv-x="718" 
d="M484 271h-33v-271h-183v271h-33l-226 409h195l156 -285l156 285h194z" />
    <glyph glyph-name="Z" unicode="Z" horiz-adv-x="665" 
d="M46 0v124l345 433h-339v123h556v-123l-347 -433h363v-124h-578z" />
    <glyph glyph-name="bracketleft" unicode="[" horiz-adv-x="451" 
d="M75 -227v952h325v-114h-172v-723h172v-115h-325z" />
    <glyph glyph-name="backslash" unicode="\" horiz-adv-x="433" 
d="M279 -36l-270 739h145l270 -739h-145z" />
    <glyph glyph-name="bracketright" unicode="]" horiz-adv-x="451" 
d="M50 -227v115h173v723h-173v114h325v-952h-325z" />
    <glyph glyph-name="asciicircum" unicode="^" horiz-adv-x="626" 
d="M444 318l-131 260l-131 -260h-103l180 362h108l179 -362h-102z" />
    <glyph glyph-name="underscore" unicode="_" horiz-adv-x="499" 
d="M0 -146v83h499v-83h-499z" />
    <glyph glyph-name="grave" unicode="`" horiz-adv-x="929" 
d="M423 584l-119 164h127l113 -164h-121z" />
    <glyph glyph-name="a" unicode="a" 
d="M589 9q-32 -7 -73 -11q-35 -5 -84.5 -8t-112.5 -3q-54 0 -103.5 2.5t-87 18t-59.5 48.5t-22 94q0 57 14.5 88.5t41 45.5t64 16.5t83.5 2.5h172v30q0 31 -4.5 49t-16.5 26.5t-32 11t-51 2.5q-54 1 -98 -0.5t-76 -3.5q-38 -3 -67 -6v78q30 6 69 10q33 4 80 7.5t107 3.5
q62 0 110 -4.5t80.5 -22.5t49 -53.5t16.5 -97.5v-324zM422 221h-119q-24 0 -40 -1t-26 -8t-14 -21t-4 -41q0 -28 5.5 -43t18 -22t31.5 -8t46 -1q24 0 42.5 0.5t32.5 1.5q15 1 27 3v140z" />
    <glyph glyph-name="b" unicode="b" 
d="M600 245q0 -84 -7.5 -134.5t-35 -78t-81.5 -36.5t-147 -9q-63 0 -113 3t-85 8q-41 4 -72 11v716h167v-219q12 1 28 2q14 1 32.5 2t42.5 1q87 0 140.5 -9t82.5 -37t38.5 -80.5t9.5 -139.5zM427 250q0 62 -2.5 96t-12.5 49.5t-31 18t-57 2.5q-23 0 -41 -0.5t-31 -1.5
q-15 -1 -26 -2v-324q11 -2 26 -3q13 -1 31 -1.5t41 -0.5q38 0 59 2.5t30.5 17.5t11.5 47t2 91v9z" />
    <glyph glyph-name="c" unicode="c" horiz-adv-x="571" 
d="M540 9q-29 -7 -66 -11q-32 -5 -77.5 -8t-102.5 -3q-86 0 -135 10.5t-74 39t-31.5 79t-6.5 129.5q0 82 8.5 134t34 81t73.5 40t128 11q57 0 101 -3.5t76 -7.5q37 -4 65 -10v-83q-37 3 -74 5q-32 2 -69.5 3t-69.5 -1q-35 -1 -55.5 -4t-30.5 -19t-12.5 -50.5t-2.5 -98.5
q0 -58 2 -89.5t11.5 -46t30.5 -17.5t59 -4q34 -2 72.5 -1t70.5 3q38 2 75 5v-83v0z" />
    <glyph glyph-name="d" unicode="d" 
d="M589 9q-32 -7 -73 -11q-35 -5 -84.5 -8t-112.5 -3q-93 0 -147 9t-82 36.5t-35.5 78t-7.5 134.5q0 87 9.5 139.5t38.5 80.5t82.5 37t141.5 9q24 0 42.5 -1t32.5 -2q16 -1 28 -2v219h167v-716zM422 412q-11 1 -26 2q-13 1 -31.5 1.5t-41.5 0.5q-36 0 -57 -2.5t-31.5 -18
t-13 -49.5t-2.5 -96v-9q0 -59 2 -91t12 -47t31 -17.5t59 -2.5q23 0 41.5 0.5t31.5 1.5q15 1 26 3v324z" />
    <glyph glyph-name="e" unicode="e" 
d="M220 210q0 -49 2 -75.5t12.5 -39.5t32.5 -15.5t63 -2.5q57 -1 103 0.5t79 3.5q39 3 69 6v-78q-31 -7 -71 -11q-35 -5 -84 -8t-111 -3q-91 0 -144.5 9t-81 36.5t-35 78t-7.5 134.5q0 87 9.5 139.5t39 80.5t84 37t144.5 9t144.5 -9t83.5 -37t38.5 -80.5t9.5 -139.5v-35
h-380zM427 291q0 49 -2.5 76t-13 39.5t-31 14.5t-56.5 2t-56.5 -2t-31 -14.5t-13.5 -39.5t-3 -76h207z" />
    <glyph glyph-name="f" unicode="f" horiz-adv-x="504" 
d="M500 634q-15 2 -33 4q-16 2 -38 3.5t-50 1.5q-34 0 -52.5 -2.5t-27.5 -11.5t-11 -25.5t-2 -44.5v-60h184v-96h-184v-403h-166v403h-100v96h100v60q0 50 10.5 84t33.5 55t58.5 30.5t86.5 9.5q45 0 80 -3.5t60 -7.5q29 -5 51 -11v-82v0z" />
    <glyph glyph-name="g" unicode="g" 
d="M589 -60q0 -63 -15.5 -99t-47 -54t-79.5 -22.5t-114 -4.5q-60 0 -107 3t-80 8q-39 5 -69 12v83q29 -3 67 -5q32 -2 76 -3.5t98 -0.5q33 0 53 2.5t31.5 10.5t15.5 24.5t4 45.5v80q-12 -2 -28 -3q-14 -1 -32.5 -1.5t-42.5 -0.5q-88 0 -141.5 7t-82.5 32t-38.5 73.5
t-9.5 130.5q0 86 12 136.5t42.5 76.5t83.5 33t134 7q63 0 112.5 -3.5t84.5 -7.5q41 -4 73 -10v-550zM422 411q-11 1 -26 2q-13 1 -31.5 2t-41.5 1q-36 0 -56.5 -2.5t-31 -16.5t-13.5 -45.5t-3 -88.5v-9q0 -54 2 -83t12.5 -42.5t31 -15.5t58.5 -2q23 0 41.5 0.5t31.5 1.5
q15 1 26 2v296z" />
    <glyph glyph-name="h" unicode="h" 
d="M422 0v333q0 31 -5.5 48t-17.5 24.5t-30.5 9t-44.5 1.5q-23 0 -41 -1t-31 -2q-15 -1 -26 -2v-411h-167v725h167v-219q11 1 26 2q13 1 31 2t41 1q67 0 117 -4.5t83 -22.5t49 -53.5t16 -97.5v-333h-167z" />
    <glyph glyph-name="i" unicode="i" horiz-adv-x="284" 
d="M59 0v499h167v-499h-167zM59 584v141h167v-141h-167z" />
    <glyph glyph-name="j" unicode="j" horiz-adv-x="380" 
d="M320 -60q0 -50 -9 -84.5t-30 -55.5t-55 -30.5t-83 -9.5q-42 0 -74.5 3t-55.5 8q-27 5 -47 12v79q13 -2 29 -3q27 -3 77 -3q26 0 42 3.5t25 12.5t12 25.5t3 42.5v559h166v-559zM154 584v141h166v-141h-166z" />
    <glyph glyph-name="k" unicode="k" horiz-adv-x="640" 
d="M431 0l-137 206h-68v-206h-167v725h167v-423h68l132 197h188l-169 -245l176 -254h-190z" />
    <glyph glyph-name="l" unicode="l" horiz-adv-x="284" 
d="M59 0v725h167v-725h-167z" />
    <glyph glyph-name="m" unicode="m" horiz-adv-x="974" 
d="M749 0v333q0 31 -5.5 48t-17 24.5t-28 9t-38.5 1.5q-21 0 -39 -1t-32 -3q-16 -2 -30 -4q2 -6 5 -17q2 -9 4 -23.5t2 -34.5v-333h-166v333q0 31 -5.5 48t-17 24.5t-28 9t-38.5 1.5q-21 0 -38 -1t-28 -2q-13 -1 -23 -2v-411h-167v490q29 6 68 10q33 4 80.5 7.5t107.5 3.5
q34 0 58.5 -2t42.5 -4.5t30.5 -5t20.5 -3.5q19 2 68.5 8.5t124.5 6.5q63 0 111 -4.5t80 -22.5t48 -53.5t16 -97.5v-333h-166z" />
    <glyph glyph-name="n" unicode="n" 
d="M422 0v333q0 31 -5.5 48t-17.5 24.5t-30.5 9t-44.5 1.5q-23 0 -41 -1t-31 -2q-15 -1 -26 -2v-411h-167v490q31 6 71 10q35 4 83.5 7.5t110.5 3.5q67 0 117 -4.5t83 -22.5t49 -53.5t16 -97.5v-333h-167z" />
    <glyph glyph-name="o" unicode="o" 
d="M600 245q0 -84 -7.5 -134.5t-35 -78t-82.5 -36.5t-151 -9t-151 9t-83 36.5t-35.5 78t-7.5 134.5q0 87 9.5 139.5t39 80.5t84 37t144.5 9t144.5 -9t83.5 -37t38.5 -80.5t9.5 -139.5zM427 250q0 62 -2.5 96t-12 49.5t-29.5 18t-54 2.5h-9q-35 0 -55 -2.5t-30.5 -18
t-13 -49.5t-2.5 -96v-9q0 -59 2 -91t11.5 -47t30 -17.5t57.5 -2.5h9q36 0 56 2.5t29 17.5t11 47t2 91v9z" />
    <glyph glyph-name="p" unicode="p" 
d="M600 245q0 -84 -7.5 -134.5t-35 -78t-81.5 -36.5t-147 -9q-48 0 -75 3q-16 1 -28 3v-220h-167v717q31 6 72 10q35 4 85 7.5t113 3.5q87 0 140.5 -9t82.5 -37t38.5 -80.5t9.5 -139.5zM427 250q0 62 -2.5 96t-12.5 49.5t-31 18t-57 2.5q-23 0 -41 -1t-31 -2q-15 -1 -26 -2
v-325q11 -1 26 -2q13 -1 31 -1h41q38 0 59 2.5t30.5 17.5t11.5 47t2 91v9z" />
    <glyph glyph-name="q" unicode="q" 
d="M422 -227v220q-12 -2 -28 -3q-27 -3 -75 -3q-93 0 -147 9t-82 36.5t-35.5 78t-7.5 134.5q0 87 9.5 139.5t38.5 80.5t82.5 37t141.5 9q63 0 112.5 -3.5t84.5 -7.5q41 -4 73 -10v-717h-167zM422 411q-11 1 -26 2q-13 1 -31.5 2t-41.5 1q-36 0 -57 -2.5t-31.5 -18t-13 -49.5
t-2.5 -96v-9q0 -59 2 -91t12 -47t31 -17.5t59 -2.5h41.5t31.5 1q15 1 26 2v325z" />
    <glyph glyph-name="r" unicode="r" horiz-adv-x="471" 
d="M455 408q-16 2 -35 4q-17 2 -41 3t-54 1q-23 0 -41 -1t-31 -2q-15 -1 -27 -2v-411h-167v490q23 6 53 10q26 4 62.5 7.5t82.5 3.5t82.5 -3.5t62.5 -7.5q30 -4 53 -10v-82v0z" />
    <glyph glyph-name="s" unicode="s" horiz-adv-x="585" 
d="M546 139q0 -52 -14 -82.5t-44 -46t-78 -19.5t-116 -4q-59 0 -105.5 3t-78.5 8q-38 4 -67 11v76q22 -3 51 -5q25 -2 59 -3t79 -1q46 0 74 1t43 6.5t20 18t5 35.5q0 18 -1 29t-5.5 17.5t-14.5 9.5t-29 6l-135 17q-54 7 -83 20.5t-42.5 32.5t-15.5 43.5t-2 53.5
q0 50 18.5 79t51 43.5t75.5 18.5t91 4q55 0 98.5 -3.5t74.5 -7.5q36 -4 64 -10v-77q-20 2 -46 5q-23 2 -54.5 3.5t-71.5 1.5q-41 0 -66.5 -1t-39.5 -6t-19 -16t-5 -32q0 -16 1 -25.5t5.5 -15t15 -8.5t29.5 -6l134 -18q54 -7 83 -19t42.5 -31t16 -45.5t2.5 -60.5z" />
    <glyph glyph-name="t" unicode="t" horiz-adv-x="522" 
d="M500 9q-22 -7 -51 -11q-25 -5 -60 -8t-80 -3q-54 0 -90.5 9t-58 30t-31 55.5t-9.5 84.5v237h-100v96h100v170h166v-170h184v-96h-184v-237q0 -27 2 -43.5t11 -25.5t27.5 -11.5t52.5 -2.5q28 0 50 1t38 3q18 2 33 4v-82v0z" />
    <glyph glyph-name="u" unicode="u" 
d="M589 9q-31 -7 -71 -11q-35 -5 -83.5 -8t-110.5 -3q-78 0 -129 5.5t-81.5 24t-42.5 54t-12 95.5v333h167v-333q0 -31 5 -48t16.5 -24.5t30 -9t46.5 -1.5q23 0 41 0.5t31 1.5q15 1 26 3v411h167v-490v0z" />
    <glyph glyph-name="v" unicode="v" horiz-adv-x="617" 
d="M442 0h-268l-163 499h173l125 -403l125 403h171z" />
    <glyph glyph-name="w" unicode="w" horiz-adv-x="931" 
d="M793 0h-239l-89 376l-88 -376h-240l-117 499h159l92 -403l93 403h205l92 -403l92 403h158z" />
    <glyph glyph-name="x" unicode="x" horiz-adv-x="628" 
d="M430 0l-118 206l-117 -206h-176l150 254l-144 245h177l113 -197l112 197h175l-143 -245l150 -254h-179z" />
    <glyph glyph-name="y" unicode="y" horiz-adv-x="620" 
d="M424 -69q-19 -56 -38 -90t-41.5 -52t-49.5 -23.5t-61 -5.5q-45 0 -79.5 3t-58.5 8q-28 5 -50 12v81q15 -2 34 -4q17 -2 40.5 -3t53.5 -1q22 0 36 2t24 10.5t18 27t19 51.5l17 53h-111l-162 499h174l124 -403l125 403h170z" />
    <glyph glyph-name="z" unicode="z" horiz-adv-x="581" 
d="M43 0v96l277 307h-271v96h477v-96l-277 -307h293v-96h-499z" />
    <glyph glyph-name="braceleft" unicode="{" horiz-adv-x="538" 
d="M488 -217q-19 -7 -45 -12q-22 -5 -53 -8t-70 -3q-43 0 -74.5 13.5t-52.5 50t-31.5 101.5t-10.5 168q0 37 -6.5 57t-18.5 29.5t-28.5 11t-36.5 1.5h-36v115h36q20 0 36.5 1.5t28.5 11t18.5 29.5t6.5 57q0 103 11.5 167.5t33 101t53 50t71.5 13.5q39 0 70 -3.5t53 -7.5
q26 -5 45 -11v-99l-27 3q-14 1 -33 2t-42 1q-21 0 -35.5 -4t-24 -29.5t-14 -80t-4.5 -155.5q0 -39 -10 -59.5t-21 -30.5q-13 -11 -30 -13v-3q17 -2 30 -13q11 -10 21 -31t10 -60q0 -101 4 -155.5t13 -80t24 -29.5t37 -4q48 0 75 3q16 2 27 4v-99v0z" />
    <glyph glyph-name="bar" unicode="|" horiz-adv-x="302" 
d="M75 -227v952h153v-952h-153z" />
    <glyph glyph-name="braceright" unicode="}" horiz-adv-x="538" 
d="M476 192q-20 0 -36.5 -1.5t-28.5 -11t-18.5 -29.5t-6.5 -57q0 -103 -10 -168t-31 -101.5t-53 -50t-75 -13.5q-39 0 -69.5 3t-52.5 8q-26 5 -45 12v99q12 -2 27 -4q25 -3 74 -3q22 0 37 4t24 29.5t13 80t4 155.5q0 39 9.5 60t21.5 31q13 11 31 13v3q-18 2 -31 13
q-12 10 -21.5 30.5t-9.5 59.5q0 101 -4.5 155.5t-14 80t-24 29.5t-35.5 4q-24 0 -42.5 -1t-31.5 -2q-15 -2 -27 -3v99q19 6 45 11q22 4 52.5 7.5t69.5 3.5q40 0 71.5 -13.5t53.5 -50t33 -101t11 -167.5q0 -37 6.5 -57t18.5 -29.5t28.5 -11t36.5 -1.5h37v-115h-37z" />
    <glyph glyph-name="asciitilde" unicode="~" horiz-adv-x="626" 
d="M576 280q-15 -18 -35 -32q-17 -12 -41.5 -22t-55.5 -10t-64.5 10t-67 22t-67 22t-64.5 10t-55 -10t-41 -22q-20 -14 -35 -32v93q15 18 35 32q17 12 41 22t55 10t64.5 -10t67 -22t67 -22t64.5 -10t55.5 10t41.5 22q20 14 35 32v-93v0z" />
    <glyph glyph-name="uni00A0" unicode="&#xa0;" horiz-adv-x="283" 
 />
    <glyph glyph-name="exclamdown" unicode="&#xa1;" horiz-adv-x="316" 
d="M75 352v147h167v-147h-167zM82 -181v453h152v-453h-152z" />
    <glyph glyph-name="cent" unicode="&#xa2;" horiz-adv-x="717" 
d="M309 -138v126q-69 2 -109.5 15t-60.5 42t-25.5 77.5t-5.5 122.5q0 76 7 126t28.5 80t61 43t104.5 16v123h98v-123q44 -2 78.5 -5.5t58.5 -6.5q28 -4 50 -8v-83q-37 3 -74 5q-32 2 -69.5 3t-69.5 -1q-36 -1 -56 -4t-30 -19t-12.5 -50.5t-2.5 -98.5q0 -58 1.5 -89.5
t11.5 -46t31 -17.5t59 -4q33 -2 71.5 -1t70.5 3q38 2 75 5v-83q-23 -5 -52 -9q-25 -4 -60.5 -7t-80.5 -5v-126h-98z" />
    <glyph glyph-name="sterling" unicode="&#xa3;" horiz-adv-x="717" 
d="M72 0v118h69v179h-69v95h69v61q0 60 7.5 105t31.5 75t68 45t116 15q52 0 93 -3.5t70 -7.5q33 -4 60 -10v-106q-18 2 -41 4q-20 2 -48.5 3t-63.5 1q-40 0 -63.5 -3t-35.5 -15t-15.5 -36.5t-3.5 -66.5v-61h242v-95h-242v-179h329v-118h-573z" />
    <glyph glyph-name="currency" unicode="&#xa4;" horiz-adv-x="717" 
d="M543 458q17 -26 26 -56t9 -62q0 -33 -9 -63t-26 -55l90 -89l-67 -67l-89 89q-54 -34 -118 -34q-67 0 -118 34l-90 -89l-66 67l89 89q-35 50 -35 118q0 66 35 118l-89 89l66 67l90 -89q25 16 55 25t63 9q32 0 62 -9t56 -25l89 89l67 -67zM483 340q0 26 -10 48.5
t-26.5 39.5t-39.5 26.5t-48 9.5q-26 0 -49 -9.5t-40 -26.5t-27 -39.5t-10 -48.5t10 -48.5t27 -39.5t40 -26.5t49 -9.5q25 0 48 9.5t39.5 26.5t26.5 39.5t10 48.5z" />
    <glyph glyph-name="yen" unicode="&#xa5;" horiz-adv-x="717" 
d="M446 125v-125h-175v125h-182v66h182v64h-182v66h126l-188 359h184l148 -287l149 287h182l-188 -359h126v-66h-182v-64h182v-66h-182z" />
    <glyph glyph-name="brokenbar" unicode="&#xa6;" horiz-adv-x="302" 
d="M75 327v398h153v-398h-153zM75 -227v400h153v-400h-153z" />
    <glyph glyph-name="section" unicode="&#xa7;" horiz-adv-x="717" 
d="M612 -59q0 -63 -17.5 -99t-49.5 -54.5t-77.5 -23t-102.5 -4.5t-103 3t-78 8q-38 5 -66 12v83q22 -3 50 -5q24 -2 57.5 -3.5t76.5 -1.5q42 0 69 1.5t42.5 9.5t21 25t5.5 49q0 24 -1 39.5t-6 24.5t-15.5 14t-29.5 8l-151 27q-33 6 -61 16.5t-49 32.5t-33 58t-12 93
t14.5 98.5t40.5 67.5q-20 20 -26 53.5t-6 84.5q0 63 21.5 99t56 54t76.5 22.5t84 4.5q55 0 99 -3.5t75 -7.5q36 -5 64 -11v-83q-21 2 -47 5q-23 2 -55 3.5t-72 1.5t-65.5 -1.5t-39.5 -9.5t-19.5 -25t-5.5 -49q0 -25 1 -40t6 -24t15.5 -14t29.5 -8l151 -27q33 -6 61 -16.5
t48.5 -32.5t32.5 -58t12 -93t-14.5 -99.5t-40.5 -67.5q21 -20 27 -52.5t6 -84.5zM262 373q-4 -24 -5.5 -53.5t-1.5 -65.5q0 -32 2.5 -50.5t9 -29.5t18.5 -16t31 -8l139 -26q3 25 5.5 54.5t2.5 66.5q0 31 -2.5 50.5t-9.5 30t-19 15.5t-31 8z" />
    <glyph glyph-name="dieresis" unicode="&#xa8;" horiz-adv-x="929" 
d="M277 584v125h138v-125h-138zM514 584v125h138v-125h-138z" />
    <glyph glyph-name="copyright" unicode="&#xa9;" horiz-adv-x="793" 
d="M750 333q0 -76 -4 -131.5t-17 -94t-37 -62t-63 -36.5t-96 -17.5t-136 -4.5t-136 4.5t-96.5 17.5t-63 36.5t-36.5 62t-17 94t-4 131.5q0 80 5.5 137.5t20 97.5t39.5 64.5t64.5 38t94.5 18t129 4.5q111 0 180 -11.5t107.5 -49t52 -108.5t13.5 -191zM673 333q0 71 -3 120.5
t-12.5 82t-28 50.5t-49 26.5t-75.5 10.5t-108 2t-108 -2t-76 -10.5t-49 -26.5t-28 -50.5t-13 -82t-3 -120.5q0 -68 2 -114.5t10 -77.5t25.5 -48t48 -25.5t77.5 -10t114 -1.5t113.5 1.5t77.5 10t48 25.5t25 48t10 77.5t2 114.5zM546 150q-18 -4 -43 -7q-21 -2 -51 -4t-67 -2
q-58 0 -91 8t-49 30t-20 60t-4 98q0 65 5.5 106t22.5 64t49 31.5t85 8.5q37 0 66 -2.5t50 -4.5q24 -3 43 -6v-65q-24 1 -49 3q-21 1 -46 2t-48 0q-24 -1 -38 -3.5t-21 -15t-9 -40t-2 -78.5q0 -45 1 -70t8 -36.5t21.5 -13.5t40.5 -3q23 -1 49 -0.5t48 2.5q26 1 49 3v-65z" />
    <glyph glyph-name="ordfeminine" unicode="&#xaa;" horiz-adv-x="413" 
d="M37 252v62h339v-62h-339zM371 376q-19 -4 -45 -7q-22 -2 -53 -4t-70 -2q-34 0 -64.5 1.5t-54 11t-37 30t-13.5 58.5q0 36 9 55.5t26 28.5t40 10.5t52 1.5h103v16q0 19 -2.5 29.5t-9.5 15.5t-19 6.5t-30 1.5q-33 0 -60.5 -1t-47.5 -3q-24 -2 -42 -4v53q18 3 43 7
q20 2 49.5 4.5t66.5 2.5q39 0 68.5 -3t49.5 -14t30.5 -33.5t10.5 -61.5v-200zM264 505h-71q-14 0 -23 -0.5t-14.5 -4.5t-8 -12.5t-2.5 -23.5q0 -16 3.5 -24.5t10.5 -12.5t18 -4.5t27 -0.5h23t19 1q10 1 18 2v80z" />
    <glyph glyph-name="guillemotleft" unicode="&#xab;" horiz-adv-x="623" 
d="M170 22l-145 228l145 227h148l-142 -227l142 -228h-148zM451 22l-145 228l145 227h148l-142 -227l142 -228h-148z" />
    <glyph glyph-name="logicalnot" unicode="&#xac;" horiz-adv-x="626" 
d="M474 151v194h-424v93h526v-287h-102z" />
    <glyph glyph-name="uni00AD" unicode="&#xad;" horiz-adv-x="443" 
d="M50 238v113h343v-113h-343z" />
    <glyph glyph-name="registered" unicode="&#xae;" horiz-adv-x="490" 
d="M464 471q0 -71 -6.5 -113.5t-29.5 -65t-66.5 -29.5t-116.5 -7t-116.5 7t-66 29.5t-29 65t-6.5 113.5q0 74 8.5 118t32 67t66 30t111.5 7t111.5 -7t66.5 -30t32.5 -67t8.5 -118zM410 471q0 64 -4.5 99.5t-21 51.5t-49.5 19t-90 3t-90 -3t-49.5 -19t-20.5 -51.5t-4 -99.5
q0 -62 3 -95t18.5 -49t48.5 -18.5t94 -2.5t94.5 2.5t49 18.5t18.5 49t3 95zM290 351l-35 94h-54v-94h-69v247h131q21 0 38 -2t29 -9.5t18.5 -23.5t6.5 -44q0 -32 -8.5 -47.5t-25.5 -20.5l45 -100h-76zM283 520q0 23 -6.5 27t-28.5 4h-47v-59h49q22 0 27.5 3.5t5.5 24.5z" />
    <glyph glyph-name="macron" unicode="&#xaf;" horiz-adv-x="929" 
d="M296 584v82h337v-82h-337z" />
    <glyph glyph-name="degree" unicode="&#xb0;" horiz-adv-x="412" 
d="M363 533q0 -33 -12.5 -61.5t-33.5 -49.5t-49.5 -33.5t-61.5 -12.5q-32 0 -60.5 12.5t-49.5 33.5t-33.5 49.5t-12.5 61.5t12.5 61.5t33.5 49.5t49.5 33t60.5 12q33 0 61.5 -12t49.5 -33t33.5 -49.5t12.5 -61.5zM286 533q0 33 -23.5 56t-56.5 23q-32 0 -55.5 -23t-23.5 -56
t23.5 -56.5t55.5 -23.5q33 0 56.5 23.5t23.5 56.5z" />
    <glyph glyph-name="plusminus" unicode="&#xb1;" horiz-adv-x="626" 
d="M364 318v-159h-102v159h-212v94h212v159h102v-159h212v-94h-212zM50 19v93h526v-93h-526z" />
    <glyph glyph-name="uni00B2" unicode="&#xb2;" horiz-adv-x="445" 
d="M53 426v71l189 180q19 18 22.5 26t3.5 22q0 21 -3.5 33t-13.5 17.5t-27.5 6.5t-44.5 1q-28 0 -50 -1t-38 -2q-18 -2 -33 -3v65q19 3 44 7q21 2 50.5 4.5t67.5 2.5q31 0 60.5 -3.5t52.5 -16.5t37 -39t14 -72q0 -15 -0.5 -26t-5 -21.5t-14 -23t-27.5 -29.5l-132 -127h184
v-72h-336z" />
    <glyph glyph-name="uni00B3" unicode="&#xb3;" horiz-adv-x="445" 
d="M389 545q0 -45 -13.5 -70t-36 -37.5t-53 -15.5t-63.5 -3q-38 0 -68.5 2t-52.5 4q-26 3 -45 7v64q15 -2 34 -3q33 -3 91 -3q29 0 47 1t28 7t13.5 19t3.5 37q0 20 -2.5 31t-9 16t-17.5 6t-27 1h-123v65h122q15 0 25.5 1t17 5.5t9 14.5t2.5 28q0 23 -4 35.5t-13.5 18
t-27 6.5t-44.5 1q-28 0 -50 -1t-39 -2q-19 -2 -34 -3v65q18 3 44 7q21 2 51.5 4.5t68.5 2.5q31 0 60 -3.5t52 -16.5t37 -39t14 -72q0 -32 -7 -48.5t-15 -24.5q-10 -9 -22 -10v-2q12 -1 23 -12q9 -9 16.5 -28.5t7.5 -54.5z" />
    <glyph glyph-name="acute" unicode="&#xb4;" horiz-adv-x="929" 
d="M506 584h-121l112 164h127z" />
    <glyph glyph-name="uni00B5" unicode="&#xb5;" 
d="M589 9q-31 -7 -71 -11q-35 -5 -83.5 -8t-110.5 -3q-47 0 -72 3q-15 1 -26 3v-220h-167v726h167v-411q11 -2 26 -3q13 -1 31 -1.5t41 -0.5t41 0.5t31 1.5q15 1 26 3v411h167v-490v0z" />
    <glyph glyph-name="paragraph" unicode="&#xb6;" horiz-adv-x="784" 
d="M621 -227v859h-167v-859h-113v499h-84q-56 0 -95.5 3.5t-64.5 25t-36 67.5t-11 131t13 131t38.5 67t64.5 24.5t91 3.5h477v-952h-113zM341 632h-82q-32 0 -50.5 -2t-27.5 -14.5t-11 -39.5t-2 -77t2 -77t11 -39.5t27.5 -14.5t50.5 -2h82v266z" />
    <glyph glyph-name="periodcentered" unicode="&#xb7;" horiz-adv-x="283" 
d="M76 215v159h131v-159h-131z" />
    <glyph glyph-name="cedilla" unicode="&#xb8;" horiz-adv-x="929" 
d="M608 -142q0 -27 -5.5 -44t-19.5 -26.5t-37.5 -13.5t-59.5 -4q-29 0 -51 3t-38 7q-18 4 -33 11v46q10 -2 24 -4q24 -3 67 -3q20 0 31 0.5t16.5 3t7 8t1.5 16.5q0 20 -3.5 23t-22.5 3h-79v118h88v-57h26q22 0 38.5 -3t27.5 -12t16.5 -26.5t5.5 -45.5z" />
    <glyph glyph-name="uni00B9" unicode="&#xb9;" horiz-adv-x="445" 
d="M202 426v341l-129 -47v74l130 53h111v-421h-112z" />
    <glyph glyph-name="ordmasculine" unicode="&#xba;" horiz-adv-x="413" 
d="M37 252v62h339v-62h-339zM378 522q0 -51 -4.5 -82.5t-22 -48.5t-51.5 -22.5t-94 -5.5q-59 0 -93.5 5.5t-52 22.5t-22 48.5t-4.5 82.5q0 54 6 86.5t24.5 50.5t52 23.5t89.5 5.5t90 -5.5t52 -23.5t24 -50.5t6 -86.5zM268 525q0 37 -1.5 57t-7.5 29.5t-17.5 11t-32.5 1.5h-6
q-20 0 -31.5 -1.5t-17.5 -11t-7.5 -29.5t-1.5 -57v-5q0 -36 1 -55t7 -28t17.5 -10.5t32.5 -1.5h6q22 0 34 1.5t17.5 10.5t6.5 28t1 55v5z" />
    <glyph glyph-name="guillemotright" unicode="&#xbb;" horiz-adv-x="623" 
d="M173 22h-148l140 228l-140 227h148l145 -227zM454 22h-148l140 228l-140 227h148l145 -227z" />
    <glyph glyph-name="onequarter" unicode="&#xbc;" horiz-adv-x="1081" 
d="M390 0h-92l393 680h92zM202 259v341l-129 -47v74l130 53h111v-421h-112zM999 107v-107h-112v107h-223v71l171 243h164v-242h54v-72h-54zM887 346l-118 -167h118v167z" />
    <glyph glyph-name="onehalf" unicode="&#xbd;" horiz-adv-x="1081" 
d="M390 0h-92l393 680h92zM202 259v341l-129 -47v74l130 53h111v-421h-112zM689 0v71l190 180q9 9 14.5 15t8 11t3 9.5t0.5 11.5q0 22 -4 34t-13.5 17.5t-27 6.5t-44.5 1q-28 0 -50.5 -1t-38.5 -3q-18 -2 -33 -3v65q19 3 44 6q21 2 50.5 4.5t67.5 2.5q31 0 60.5 -3t52.5 -16
t37 -39t14 -72q0 -15 -0.5 -26t-5 -21.5t-14 -23t-27.5 -28.5l-131 -127h184v-72h-337z" />
    <glyph glyph-name="threequarters" unicode="&#xbe;" horiz-adv-x="1081" 
d="M390 0h-92l393 680h92zM389 378q0 -45 -13.5 -70t-36 -37.5t-53 -15.5t-63.5 -3q-38 0 -68.5 2t-52.5 4q-26 3 -45 7v64q15 -2 34 -3q33 -3 91 -3q29 0 47 1t28 7t13.5 18.5t3.5 36.5q0 21 -2.5 32t-9 16t-17.5 6t-27 1h-123v65h122q15 0 25.5 1t17 5.5t9 14.5t2.5 28
q0 23 -4 35.5t-13.5 18t-27 6.5t-44.5 1q-28 0 -50 -1t-39 -2q-19 -2 -34 -3v64q18 3 44 7q21 2 51.5 4.5t68.5 2.5q31 0 60 -3t52 -16t37 -39.5t14 -72.5q0 -31 -7 -47.5t-15 -24.5q-10 -9 -22 -10v-2q12 -1 23 -12q9 -9 16.5 -28.5t7.5 -54.5zM999 107v-107h-112v107h-223
v71l171 243h164v-242h54v-72h-54zM887 346l-118 -167h118v167z" />
    <glyph glyph-name="questiondown" unicode="&#xbf;" horiz-adv-x="603" 
d="M231 352v147h167v-147h-167zM554 -173q-29 -7 -68 -11q-33 -4 -79.5 -7t-104.5 -3q-53 0 -99 4.5t-80 23.5t-53.5 55.5t-19.5 101.5q0 58 5.5 92t19 53t36.5 27.5t57 16.5l70 16v76h152v-161l-134 -30q-16 -3 -25.5 -8t-14.5 -14.5t-6.5 -25.5t-1.5 -42q0 -33 5 -51.5
t20.5 -26.5t45 -9.5t78.5 -1.5q45 0 81.5 1.5t62.5 3.5q30 2 53 5v-85z" />
    <glyph glyph-name="Agrave" unicode="&#xc0;" horiz-adv-x="784" 
d="M584 0l-61 173h-265l-61 -173h-188l252 680h262l252 -680h-191zM391 566l-98 -279h197zM351 757l-119 164h127l113 -164h-121z" />
    <glyph glyph-name="Aacute" unicode="&#xc1;" horiz-adv-x="784" 
d="M584 0l-61 173h-265l-61 -173h-188l252 680h262l252 -680h-191zM391 566l-98 -279h197zM434 757h-121l112 164h127z" />
    <glyph glyph-name="Acircumflex" unicode="&#xc2;" horiz-adv-x="784" 
d="M584 0l-61 173h-265l-61 -173h-188l252 680h262l252 -680h-191zM391 566l-98 -279h197zM468 757l-76 104l-76 -104h-111l112 164h151l112 -164h-112z" />
    <glyph glyph-name="Atilde" unicode="&#xc3;" horiz-adv-x="784" 
d="M584 0l-61 173h-265l-61 -173h-188l252 680h262l252 -680h-191zM391 566l-98 -279h197zM600 911q0 -81 -30.5 -119.5t-92.5 -38.5q-31 0 -55 12.5t-43.5 27.5t-37 27.5t-34.5 12.5q-6 0 -13 -1.5t-12.5 -9t-9.5 -23t-4 -42.5h-83q0 82 30 120.5t92 38.5q31 0 55 -13
t43.5 -28t37 -28t34.5 -13q6 0 13 2t13 9.5t10 23t4 42.5h83z" />
    <glyph glyph-name="Adieresis" unicode="&#xc4;" horiz-adv-x="784" 
d="M584 0l-61 173h-265l-61 -173h-188l252 680h262l252 -680h-191zM391 566l-98 -279h197zM205 757v125h138v-125h-138zM442 757v125h138v-125h-138z" />
    <glyph glyph-name="Aring" unicode="&#xc5;" horiz-adv-x="784" 
d="M584 0l-61 173h-265l-61 -173h-188l252 680h262l252 -680h-191zM391 566l-98 -279h197zM528 848q0 -30 -4.5 -49t-19 -29t-41 -13.5t-71.5 -3.5t-71.5 3.5t-40.5 13.5t-18.5 29t-4.5 49q0 32 5.5 52t20.5 30.5t41.5 14t67.5 3.5q42 0 68.5 -3.5t41.5 -14t20.5 -30.5
t5.5 -52zM443 848q0 15 -1 23t-5.5 12t-15 4.5t-29.5 0.5t-29 -0.5t-15 -4.5t-6 -12t-1 -23q0 -14 1 -21.5t6 -11t15 -4t29 -0.5t29.5 0.5t15 4t5.5 11t1 21.5z" />
    <glyph glyph-name="AE" unicode="&#xc6;" horiz-adv-x="1066" 
d="M490 0v173h-220l-70 -173h-191l284 680h717v-114h-337v-167h306v-105h-306v-180h343v-114h-526zM490 566h-66l-114 -279h180v279z" />
    <glyph glyph-name="Ccedilla" unicode="&#xc7;" horiz-adv-x="666" 
d="M494 -142q0 -27 -5.5 -44t-19.5 -26.5t-37.5 -13.5t-59.5 -4q-29 0 -51 3t-38 7q-18 4 -32 11v46q10 -2 24 -4q24 -3 67 -3q20 0 31 0.5t16.5 3t7 8t1.5 16.5q0 20 -3.5 23t-22.5 3h-79v104q-82 3 -128 20.5t-68.5 56.5t-28 103t-5.5 161q0 113 9 184t39 111t85.5 54.5
t148.5 14.5q65 0 117 -3.5t88 -7.5q42 -4 75 -10v-112q-43 3 -86 5q-37 2 -81 3t-83 0q-42 -2 -66.5 -6t-37 -26.5t-16 -71t-3.5 -137.5q0 -53 1 -89.5t4.5 -60t11 -36t21.5 -19t35 -8t52 -2.5q40 -2 85 -0.5t83 3.5q44 2 87 5v-111q-30 -6 -68 -10q-33 -4 -79 -7.5
t-104 -4.5v-42h26q22 0 38 -3t27 -12t16.5 -26.5t5.5 -45.5z" />
    <glyph glyph-name="Egrave" unicode="&#xc8;" horiz-adv-x="682" 
d="M75 0v680h550v-114h-368v-167h337v-105h-337v-180h375v-114h-557zM310 757l-119 164h127l113 -164h-121z" />
    <glyph glyph-name="Eacute" unicode="&#xc9;" horiz-adv-x="682" 
d="M75 0v680h550v-114h-368v-167h337v-105h-337v-180h375v-114h-557zM393 757h-121l112 164h127z" />
    <glyph glyph-name="Ecircumflex" unicode="&#xca;" horiz-adv-x="682" 
d="M75 0v680h550v-114h-368v-167h337v-105h-337v-180h375v-114h-557zM427 757l-76 104l-76 -104h-111l112 164h151l112 -164h-112z" />
    <glyph glyph-name="Edieresis" unicode="&#xcb;" horiz-adv-x="682" 
d="M75 0v680h550v-114h-368v-167h337v-105h-337v-180h375v-114h-557zM164 757v125h138v-125h-138zM401 757v125h138v-125h-138z" />
    <glyph glyph-name="Igrave" unicode="&#xcc;" horiz-adv-x="332" 
d="M75 0v680h182v-680h-182zM125 757l-119 164h127l113 -164h-121z" />
    <glyph glyph-name="Iacute" unicode="&#xcd;" horiz-adv-x="332" 
d="M75 0v680h182v-680h-182zM208 757h-121l112 164h127z" />
    <glyph glyph-name="Icircumflex" unicode="&#xce;" horiz-adv-x="332" 
d="M75 0v680h182v-680h-182zM242 757l-76 104l-76 -104h-111l112 164h151l112 -164h-112z" />
    <glyph glyph-name="Idieresis" unicode="&#xcf;" horiz-adv-x="332" 
d="M75 0v680h182v-680h-182zM-21 757v125h138v-125h-138zM216 757v125h138v-125h-138z" />
    <glyph glyph-name="Eth" unicode="&#xd0;" horiz-adv-x="794" 
d="M731 329q0 -106 -8.5 -170.5t-34.5 -100t-73.5 -47t-125.5 -11.5h-397v305h-86v76h86v299h387q75 0 123.5 -12t77 -49t40 -106t11.5 -184zM542 327q0 86 -4 133t-15.5 68.5t-33 25t-57.5 3.5h-158v-176h138v-76h-138v-181h164q35 0 55.5 3t31.5 22t14 60.5t3 117.5z" />
    <glyph glyph-name="Ntilde" unicode="&#xd1;" horiz-adv-x="824" 
d="M497 0l-256 521v-521h-166v680h252l256 -521v521h166v-680h-252zM619 911q0 -81 -30.5 -119.5t-92.5 -38.5q-31 0 -55 12.5t-43.5 27.5t-37 27.5t-34.5 12.5q-6 0 -13 -1.5t-12.5 -9t-9.5 -23t-4 -42.5h-83q0 82 30 120.5t92 38.5q31 0 55 -13t43.5 -28t37 -28t34.5 -13
q6 0 13 2t13 9.5t10 23t4 42.5h83z" />
    <glyph glyph-name="Ograve" unicode="&#xd2;" horiz-adv-x="777" 
d="M714 333q0 -78 -3 -133.5t-14 -94t-32 -62t-57.5 -36t-90 -16.5t-129.5 -4q-75 0 -128.5 4t-90 16.5t-57.5 36t-32 62t-14 94t-3 133.5q0 81 4.5 139.5t17.5 98.5t35.5 64t58.5 37t87.5 17t121.5 4q106 0 170.5 -10.5t99 -47.5t45.5 -108.5t11 -193.5zM526 338
q0 87 -3.5 133.5t-17 68.5t-40 25.5t-72.5 3.5h-8q-47 0 -73.5 -3.5t-39.5 -25.5t-16.5 -68.5t-3.5 -133.5v-9q0 -82 2.5 -126t15 -64.5t39.5 -24t76 -3.5h8q49 0 76 3.5t39.5 24t15 64.5t2.5 126v9zM348 757l-119 164h127l113 -164h-121z" />
    <glyph glyph-name="Oacute" unicode="&#xd3;" horiz-adv-x="777" 
d="M714 333q0 -78 -3 -133.5t-14 -94t-32 -62t-57.5 -36t-90 -16.5t-129.5 -4q-75 0 -128.5 4t-90 16.5t-57.5 36t-32 62t-14 94t-3 133.5q0 81 4.5 139.5t17.5 98.5t35.5 64t58.5 37t87.5 17t121.5 4q106 0 170.5 -10.5t99 -47.5t45.5 -108.5t11 -193.5zM526 338
q0 87 -3.5 133.5t-17 68.5t-40 25.5t-72.5 3.5h-8q-47 0 -73.5 -3.5t-39.5 -25.5t-16.5 -68.5t-3.5 -133.5v-9q0 -82 2.5 -126t15 -64.5t39.5 -24t76 -3.5h8q49 0 76 3.5t39.5 24t15 64.5t2.5 126v9zM431 757h-121l112 164h127z" />
    <glyph glyph-name="Ocircumflex" unicode="&#xd4;" horiz-adv-x="777" 
d="M714 333q0 -78 -3 -133.5t-14 -94t-32 -62t-57.5 -36t-90 -16.5t-129.5 -4q-75 0 -128.5 4t-90 16.5t-57.5 36t-32 62t-14 94t-3 133.5q0 81 4.5 139.5t17.5 98.5t35.5 64t58.5 37t87.5 17t121.5 4q106 0 170.5 -10.5t99 -47.5t45.5 -108.5t11 -193.5zM526 338
q0 87 -3.5 133.5t-17 68.5t-40 25.5t-72.5 3.5h-8q-47 0 -73.5 -3.5t-39.5 -25.5t-16.5 -68.5t-3.5 -133.5v-9q0 -82 2.5 -126t15 -64.5t39.5 -24t76 -3.5h8q49 0 76 3.5t39.5 24t15 64.5t2.5 126v9zM465 757l-76 104l-76 -104h-111l112 164h151l112 -164h-112z" />
    <glyph glyph-name="Otilde" unicode="&#xd5;" horiz-adv-x="777" 
d="M714 333q0 -78 -3 -133.5t-14 -94t-32 -62t-57.5 -36t-90 -16.5t-129.5 -4q-75 0 -128.5 4t-90 16.5t-57.5 36t-32 62t-14 94t-3 133.5q0 81 4.5 139.5t17.5 98.5t35.5 64t58.5 37t87.5 17t121.5 4q106 0 170.5 -10.5t99 -47.5t45.5 -108.5t11 -193.5zM526 338
q0 87 -3.5 133.5t-17 68.5t-40 25.5t-72.5 3.5h-8q-47 0 -73.5 -3.5t-39.5 -25.5t-16.5 -68.5t-3.5 -133.5v-9q0 -82 2.5 -126t15 -64.5t39.5 -24t76 -3.5h8q49 0 76 3.5t39.5 24t15 64.5t2.5 126v9zM597 911q0 -81 -30.5 -119.5t-92.5 -38.5q-31 0 -55 12.5t-43.5 27.5
t-37 27.5t-34.5 12.5q-6 0 -13 -1.5t-12.5 -9t-9.5 -23t-4 -42.5h-83q0 82 30 120.5t92 38.5q31 0 55 -13t43.5 -28t37 -28t34.5 -13q6 0 13 2t13 9.5t10 23t4 42.5h83z" />
    <glyph glyph-name="Odieresis" unicode="&#xd6;" horiz-adv-x="777" 
d="M714 333q0 -78 -3 -133.5t-14 -94t-32 -62t-57.5 -36t-90 -16.5t-129.5 -4q-75 0 -128.5 4t-90 16.5t-57.5 36t-32 62t-14 94t-3 133.5q0 81 4.5 139.5t17.5 98.5t35.5 64t58.5 37t87.5 17t121.5 4q106 0 170.5 -10.5t99 -47.5t45.5 -108.5t11 -193.5zM526 338
q0 87 -3.5 133.5t-17 68.5t-40 25.5t-72.5 3.5h-8q-47 0 -73.5 -3.5t-39.5 -25.5t-16.5 -68.5t-3.5 -133.5v-9q0 -82 2.5 -126t15 -64.5t39.5 -24t76 -3.5h8q49 0 76 3.5t39.5 24t15 64.5t2.5 126v9zM202 757v125h138v-125h-138zM439 757v125h138v-125h-138z" />
    <glyph glyph-name="multiply" unicode="&#xd7;" horiz-adv-x="626" 
d="M467 71l-154 155l-155 -155l-69 69l154 154l-154 156l69 69l155 -155l154 155l70 -69l-154 -156l154 -154z" />
    <glyph glyph-name="Oslash" unicode="&#xd8;" horiz-adv-x="777" 
d="M714 333q0 -78 -3 -133.5t-14 -94t-32 -62t-57.5 -36t-90 -16.5t-129.5 -4q-51 0 -90 1.5t-71 5.5l-47 -77h-91l60 99q-29 15 -46 39.5t-26 62t-11.5 90.5t-2.5 125q0 81 4.5 139.5t17.5 98.5t35.5 64t58.5 37t87.5 17t121.5 4q51 0 92 -2.5t73 -7.5l44 73h91l-59 -98
q26 -16 42.5 -41.5t26 -64.5t13 -93t3.5 -126zM252 329q0 -47 0.5 -81t2.5 -58l224 372q-14 5 -35.5 6t-50.5 1h-8q-47 0 -73.5 -3.5t-39.5 -25.5t-16.5 -68.5t-3.5 -133.5v-9zM526 338q0 48 -1 83t-4 60l-221 -365q15 -4 35.5 -4.5t49.5 -0.5h8q49 0 76 3.5t39.5 24
t15 64.5t2.5 126v9z" />
    <glyph glyph-name="Ugrave" unicode="&#xd9;" horiz-adv-x="777" 
d="M703 227q0 -75 -8.5 -121.5t-40 -73t-94.5 -36t-172 -9.5t-171.5 9.5t-94 36t-39.5 73t-8 121.5v453h182v-453q0 -44 4 -67.5t17.5 -34t39.5 -12.5t70 -2q45 0 71 2t39.5 12.5t17.5 34t4 67.5v453h183v-453zM348 757l-119 164h127l113 -164h-121z" />
    <glyph glyph-name="Uacute" unicode="&#xda;" horiz-adv-x="777" 
d="M703 227q0 -75 -8.5 -121.5t-40 -73t-94.5 -36t-172 -9.5t-171.5 9.5t-94 36t-39.5 73t-8 121.5v453h182v-453q0 -44 4 -67.5t17.5 -34t39.5 -12.5t70 -2q45 0 71 2t39.5 12.5t17.5 34t4 67.5v453h183v-453zM431 757h-121l112 164h127z" />
    <glyph glyph-name="Ucircumflex" unicode="&#xdb;" horiz-adv-x="777" 
d="M703 227q0 -75 -8.5 -121.5t-40 -73t-94.5 -36t-172 -9.5t-171.5 9.5t-94 36t-39.5 73t-8 121.5v453h182v-453q0 -44 4 -67.5t17.5 -34t39.5 -12.5t70 -2q45 0 71 2t39.5 12.5t17.5 34t4 67.5v453h183v-453zM465 757l-76 104l-76 -104h-111l112 164h151l112 -164h-112z
" />
    <glyph glyph-name="Udieresis" unicode="&#xdc;" horiz-adv-x="777" 
d="M703 227q0 -75 -8.5 -121.5t-40 -73t-94.5 -36t-172 -9.5t-171.5 9.5t-94 36t-39.5 73t-8 121.5v453h182v-453q0 -44 4 -67.5t17.5 -34t39.5 -12.5t70 -2q45 0 71 2t39.5 12.5t17.5 34t4 67.5v453h183v-453zM202 757v125h138v-125h-138zM439 757v125h138v-125h-138z" />
    <glyph glyph-name="Yacute" unicode="&#xdd;" horiz-adv-x="718" 
d="M484 271h-33v-271h-183v271h-33l-226 409h195l156 -285l156 285h194zM401 757h-121l112 164h127z" />
    <glyph glyph-name="Thorn" unicode="&#xde;" horiz-adv-x="735" 
d="M697 342q0 -75 -15 -117t-45.5 -62.5t-77 -25.5t-109.5 -5h-193v-132h-182v680h182v-118h188q58 0 105 -5t79.5 -26.5t50 -66t17.5 -122.5zM508 344q0 39 -4 60t-16 31t-33 11.5t-55 1.5h-143v-202h146q34 0 54.5 1.5t32 10.5t15 29t3.5 57z" />
    <glyph glyph-name="germandbls" unicode="&#xdf;" horiz-adv-x="661" 
d="M614 200q0 -75 -13.5 -117.5t-37 -64t-54.5 -26.5t-66 -5q-40 0 -71.5 3t-54.5 8q-26 4 -46 11v74q11 -2 25 -4q24 -3 68 -3q24 0 39.5 3t23.5 15.5t11 39.5t3 75q0 49 -2.5 76t-10.5 39.5t-22.5 14.5t-39.5 2h-82v89h73q25 0 39 1.5t21 11t8.5 29.5t1.5 57q0 45 -5 69.5
t-16.5 35.5t-31.5 13t-50 2q-27 0 -46 -1.5t-30.5 -9.5t-16.5 -25t-5 -49v-564h-167v559q0 62 15.5 98t48 54t83.5 22.5t123 4.5q60 0 109.5 -5t85.5 -25.5t56 -61.5t20 -113q0 -55 -8.5 -84.5t-19.5 -43.5q-12 -16 -28 -18v-3q19 -3 35 -23q13 -17 24 -54.5t11 -106.5z" />
    <glyph glyph-name="agrave" unicode="&#xe0;" 
d="M589 9q-32 -7 -73 -11q-35 -5 -84.5 -8t-112.5 -3q-54 0 -103.5 2.5t-87 18t-59.5 48.5t-22 94q0 57 14.5 88.5t41 45.5t64 16.5t83.5 2.5h172v30q0 31 -4.5 49t-16.5 26.5t-32 11t-51 2.5q-54 1 -98 -0.5t-76 -3.5q-38 -3 -67 -6v78q30 6 69 10q33 4 80 7.5t107 3.5
q62 0 110 -4.5t80.5 -22.5t49 -53.5t16.5 -97.5v-324zM422 221h-119q-24 0 -40 -1t-26 -8t-14 -21t-4 -41q0 -28 5.5 -43t18 -22t31.5 -8t46 -1q24 0 42.5 0.5t32.5 1.5q15 1 27 3v140zM283 584l-119 164h127l113 -164h-121z" />
    <glyph glyph-name="aacute" unicode="&#xe1;" 
d="M589 9q-32 -7 -73 -11q-35 -5 -84.5 -8t-112.5 -3q-54 0 -103.5 2.5t-87 18t-59.5 48.5t-22 94q0 57 14.5 88.5t41 45.5t64 16.5t83.5 2.5h172v30q0 31 -4.5 49t-16.5 26.5t-32 11t-51 2.5q-54 1 -98 -0.5t-76 -3.5q-38 -3 -67 -6v78q30 6 69 10q33 4 80 7.5t107 3.5
q62 0 110 -4.5t80.5 -22.5t49 -53.5t16.5 -97.5v-324zM422 221h-119q-24 0 -40 -1t-26 -8t-14 -21t-4 -41q0 -28 5.5 -43t18 -22t31.5 -8t46 -1q24 0 42.5 0.5t32.5 1.5q15 1 27 3v140zM366 584h-121l112 164h127z" />
    <glyph glyph-name="acircumflex" unicode="&#xe2;" 
d="M589 9q-32 -7 -73 -11q-35 -5 -84.5 -8t-112.5 -3q-54 0 -103.5 2.5t-87 18t-59.5 48.5t-22 94q0 57 14.5 88.5t41 45.5t64 16.5t83.5 2.5h172v30q0 31 -4.5 49t-16.5 26.5t-32 11t-51 2.5q-54 1 -98 -0.5t-76 -3.5q-38 -3 -67 -6v78q30 6 69 10q33 4 80 7.5t107 3.5
q62 0 110 -4.5t80.5 -22.5t49 -53.5t16.5 -97.5v-324zM422 221h-119q-24 0 -40 -1t-26 -8t-14 -21t-4 -41q0 -28 5.5 -43t18 -22t31.5 -8t46 -1q24 0 42.5 0.5t32.5 1.5q15 1 27 3v140zM400 584l-76 104l-76 -104h-111l112 164h151l112 -164h-112z" />
    <glyph glyph-name="atilde" unicode="&#xe3;" 
d="M589 9q-32 -7 -73 -11q-35 -5 -84.5 -8t-112.5 -3q-54 0 -103.5 2.5t-87 18t-59.5 48.5t-22 94q0 57 14.5 88.5t41 45.5t64 16.5t83.5 2.5h172v30q0 31 -4.5 49t-16.5 26.5t-32 11t-51 2.5q-54 1 -98 -0.5t-76 -3.5q-38 -3 -67 -6v78q30 6 69 10q33 4 80 7.5t107 3.5
q62 0 110 -4.5t80.5 -22.5t49 -53.5t16.5 -97.5v-324zM422 221h-119q-24 0 -40 -1t-26 -8t-14 -21t-4 -41q0 -28 5.5 -43t18 -22t31.5 -8t46 -1q24 0 42.5 0.5t32.5 1.5q15 1 27 3v140zM532 738q0 -81 -30.5 -119.5t-92.5 -38.5q-31 0 -55 12.5t-43.5 27.5t-37 27.5
t-34.5 12.5q-6 0 -13 -1.5t-12.5 -9t-9.5 -23t-4 -42.5h-83q0 82 30 120.5t92 38.5q31 0 55 -13t43.5 -28t37 -28t34.5 -13q6 0 13 2t13 9.5t10 23t4 42.5h83z" />
    <glyph glyph-name="adieresis" unicode="&#xe4;" 
d="M589 9q-32 -7 -73 -11q-35 -5 -84.5 -8t-112.5 -3q-54 0 -103.5 2.5t-87 18t-59.5 48.5t-22 94q0 57 14.5 88.5t41 45.5t64 16.5t83.5 2.5h172v30q0 31 -4.5 49t-16.5 26.5t-32 11t-51 2.5q-54 1 -98 -0.5t-76 -3.5q-38 -3 -67 -6v78q30 6 69 10q33 4 80 7.5t107 3.5
q62 0 110 -4.5t80.5 -22.5t49 -53.5t16.5 -97.5v-324zM422 221h-119q-24 0 -40 -1t-26 -8t-14 -21t-4 -41q0 -28 5.5 -43t18 -22t31.5 -8t46 -1q24 0 42.5 0.5t32.5 1.5q15 1 27 3v140zM137 584v125h138v-125h-138zM374 584v125h138v-125h-138z" />
    <glyph glyph-name="aring" unicode="&#xe5;" 
d="M589 9q-32 -7 -73 -11q-35 -5 -84.5 -8t-112.5 -3q-54 0 -103.5 2.5t-87 18t-59.5 48.5t-22 94q0 57 14.5 88.5t41 45.5t64 16.5t83.5 2.5h172v30q0 31 -4.5 49t-16.5 26.5t-32 11t-51 2.5q-54 1 -98 -0.5t-76 -3.5q-38 -3 -67 -6v78q30 6 69 10q33 4 80 7.5t107 3.5
q62 0 110 -4.5t80.5 -22.5t49 -53.5t16.5 -97.5v-324zM422 221h-119q-24 0 -40 -1t-26 -8t-14 -21t-4 -41q0 -28 5.5 -43t18 -22t31.5 -8t46 -1q24 0 42.5 0.5t32.5 1.5q15 1 27 3v140zM460 675q0 -30 -4.5 -49t-19 -29t-41 -13.5t-71.5 -3.5t-71.5 3.5t-40.5 13.5t-18.5 29
t-4.5 49q0 32 5.5 52t20.5 30.5t41.5 14t67.5 3.5q42 0 68.5 -3.5t41.5 -14t20.5 -30.5t5.5 -52zM375 675q0 15 -1 23t-5.5 12t-15 4.5t-29.5 0.5t-29 -0.5t-15 -4.5t-6 -12t-1 -23q0 -14 1 -21.5t6 -11t15 -4t29 -0.5t29.5 0.5t15 4t5.5 11t1 21.5z" />
    <glyph glyph-name="ae" unicode="&#xe6;" horiz-adv-x="997" 
d="M580 210q0 -49 2 -75.5t12 -39.5t31 -15.5t60 -2.5q55 -1 101 0.5t78 3.5q38 3 68 6v-78q-30 -7 -70 -11q-34 -5 -82.5 -8t-109.5 -3t-102 6t-67 23q-30 -19 -77 -24t-110 -5q-52 0 -100.5 2.5t-85.5 18t-59 48.5t-22 94q0 57 14.5 88.5t40.5 45.5t62.5 16.5t80.5 2.5
h167v30q0 31 -4.5 49t-16 26.5t-31 11t-48.5 2.5q-52 1 -95 -0.5t-74 -3.5q-37 -3 -66 -6v78q28 6 67 10q32 4 79 7.5t106 3.5q53 0 97 -5t74 -27q28 20 71 26t107 6q88 0 141.5 -9t82.5 -37t38.5 -80.5t9.5 -139.5v-35h-370zM412 221h-114q-22 0 -37 -1t-24.5 -8t-13.5 -21
t-4 -41q0 -28 5.5 -43t17.5 -22t30.5 -8t43.5 -1q30 0 48.5 1.5t29 10t14.5 26.5t4 52v55zM777 291q0 49 -2.5 76t-12.5 39.5t-30 14.5t-54 2q-33 0 -52.5 -2t-29.5 -14.5t-13 -39.5t-3 -76h197z" />
    <glyph glyph-name="ccedilla" unicode="&#xe7;" horiz-adv-x="571" 
d="M441 -142q0 -27 -5.5 -44t-19.5 -26.5t-37.5 -13.5t-58.5 -4q-29 0 -51.5 3t-38.5 7q-18 4 -32 11v46q10 -2 24 -4q24 -3 67 -3q20 0 31 0.5t16.5 3t7 8t1.5 16.5q0 20 -3.5 23t-22.5 3h-79v104q-67 3 -105.5 16.5t-58 42.5t-24.5 77.5t-5 120.5q0 82 8.5 134t34 81
t73.5 40t128 11q57 0 101 -3.5t76 -7.5q37 -4 65 -10v-83q-37 3 -74 5q-32 2 -69.5 3t-69.5 -1q-35 -1 -55.5 -4t-30.5 -19t-12.5 -50.5t-2.5 -98.5q0 -58 2 -89.5t11.5 -46t30.5 -17.5t59 -4q34 -2 72.5 -1t70.5 3q38 2 75 5v-83q-24 -5 -57 -9q-28 -4 -67 -7.5t-88 -4.5
v-43h26q22 0 38 -3t27 -12t16.5 -26.5t5.5 -45.5z" />
    <glyph glyph-name="egrave" unicode="&#xe8;" 
d="M220 210q0 -49 2 -75.5t12.5 -39.5t32.5 -15.5t63 -2.5q57 -1 103 0.5t79 3.5q39 3 69 6v-78q-31 -7 -71 -11q-35 -5 -84 -8t-111 -3q-91 0 -144.5 9t-81 36.5t-35 78t-7.5 134.5q0 87 9.5 139.5t39 80.5t84 37t144.5 9t144.5 -9t83.5 -37t38.5 -80.5t9.5 -139.5v-35
h-380zM427 291q0 49 -2.5 76t-13 39.5t-31 14.5t-56.5 2t-56.5 -2t-31 -14.5t-13.5 -39.5t-3 -76h207zM283 584l-119 164h127l113 -164h-121z" />
    <glyph glyph-name="eacute" unicode="&#xe9;" 
d="M220 210q0 -49 2 -75.5t12.5 -39.5t32.5 -15.5t63 -2.5q57 -1 103 0.5t79 3.5q39 3 69 6v-78q-31 -7 -71 -11q-35 -5 -84 -8t-111 -3q-91 0 -144.5 9t-81 36.5t-35 78t-7.5 134.5q0 87 9.5 139.5t39 80.5t84 37t144.5 9t144.5 -9t83.5 -37t38.5 -80.5t9.5 -139.5v-35
h-380zM427 291q0 49 -2.5 76t-13 39.5t-31 14.5t-56.5 2t-56.5 -2t-31 -14.5t-13.5 -39.5t-3 -76h207zM366 584h-121l112 164h127z" />
    <glyph glyph-name="ecircumflex" unicode="&#xea;" 
d="M220 210q0 -49 2 -75.5t12.5 -39.5t32.5 -15.5t63 -2.5q57 -1 103 0.5t79 3.5q39 3 69 6v-78q-31 -7 -71 -11q-35 -5 -84 -8t-111 -3q-91 0 -144.5 9t-81 36.5t-35 78t-7.5 134.5q0 87 9.5 139.5t39 80.5t84 37t144.5 9t144.5 -9t83.5 -37t38.5 -80.5t9.5 -139.5v-35
h-380zM427 291q0 49 -2.5 76t-13 39.5t-31 14.5t-56.5 2t-56.5 -2t-31 -14.5t-13.5 -39.5t-3 -76h207zM400 584l-76 104l-76 -104h-111l112 164h151l112 -164h-112z" />
    <glyph glyph-name="edieresis" unicode="&#xeb;" 
d="M220 210q0 -49 2 -75.5t12.5 -39.5t32.5 -15.5t63 -2.5q57 -1 103 0.5t79 3.5q39 3 69 6v-78q-31 -7 -71 -11q-35 -5 -84 -8t-111 -3q-91 0 -144.5 9t-81 36.5t-35 78t-7.5 134.5q0 87 9.5 139.5t39 80.5t84 37t144.5 9t144.5 -9t83.5 -37t38.5 -80.5t9.5 -139.5v-35
h-380zM427 291q0 49 -2.5 76t-13 39.5t-31 14.5t-56.5 2t-56.5 -2t-31 -14.5t-13.5 -39.5t-3 -76h207zM137 584v125h138v-125h-138zM374 584v125h138v-125h-138z" />
    <glyph glyph-name="igrave" unicode="&#xec;" horiz-adv-x="284" 
d="M59 0v499h167v-499h-167zM101 584l-119 164h127l113 -164h-121z" />
    <glyph glyph-name="iacute" unicode="&#xed;" horiz-adv-x="284" 
d="M59 0v499h167v-499h-167zM184 584h-121l112 164h127z" />
    <glyph glyph-name="icircumflex" unicode="&#xee;" horiz-adv-x="284" 
d="M59 0v499h167v-499h-167zM218 584l-76 104l-76 -104h-111l112 164h151l112 -164h-112z" />
    <glyph glyph-name="idieresis" unicode="&#xef;" horiz-adv-x="284" 
d="M59 0v499h167v-499h-167zM-45 584v125h138v-125h-138zM192 584v125h138v-125h-138z" />
    <glyph glyph-name="eth" unicode="&#xf0;" horiz-adv-x="657" 
d="M548 583q20 -62 36 -149.5t16 -202.5q0 -78 -8 -126t-36.5 -74.5t-83.5 -35t-148 -8.5t-148 8.5t-83.5 35t-37 74.5t-8.5 126q0 82 10 131.5t40 76.5t84 36t143 9q23 0 39.5 -1t27.5 -2l21 -3q-1 20 -4.5 42t-8.5 43l-115 -16v66l99 13q-7 21 -13.5 39t-11.5 32
q-6 16 -12 28h139q6 -9 12 -20q5 -10 12.5 -24.5t15.5 -34.5l126 17v-66zM427 231q0 59 -2.5 91t-12.5 46.5t-29.5 17t-53.5 2.5h-9q-35 0 -55 -2.5t-30 -17t-13 -46.5t-3 -91q0 -56 2 -86t11.5 -43.5t30 -16t57.5 -2.5h9q36 0 56 2.5t29 16t11 43.5t2 86z" />
    <glyph glyph-name="ntilde" unicode="&#xf1;" 
d="M422 0v333q0 31 -5.5 48t-17.5 24.5t-30.5 9t-44.5 1.5q-23 0 -41 -1t-31 -2q-15 -1 -26 -2v-411h-167v490q31 6 71 10q35 4 83.5 7.5t110.5 3.5q67 0 117 -4.5t83 -22.5t49 -53.5t16 -97.5v-333h-167zM532 738q0 -81 -30.5 -119.5t-92.5 -38.5q-31 0 -55 12.5
t-43.5 27.5t-37 27.5t-34.5 12.5q-6 0 -13 -1.5t-12.5 -9t-9.5 -23t-4 -42.5h-83q0 82 30 120.5t92 38.5q31 0 55 -13t43.5 -28t37 -28t34.5 -13q6 0 13 2t13 9.5t10 23t4 42.5h83z" />
    <glyph glyph-name="ograve" unicode="&#xf2;" 
d="M600 245q0 -84 -7.5 -134.5t-35 -78t-82.5 -36.5t-151 -9t-151 9t-83 36.5t-35.5 78t-7.5 134.5q0 87 9.5 139.5t39 80.5t84 37t144.5 9t144.5 -9t83.5 -37t38.5 -80.5t9.5 -139.5zM427 250q0 62 -2.5 96t-12 49.5t-29.5 18t-54 2.5h-9q-35 0 -55 -2.5t-30.5 -18
t-13 -49.5t-2.5 -96v-9q0 -59 2 -91t11.5 -47t30 -17.5t57.5 -2.5h9q36 0 56 2.5t29 17.5t11 47t2 91v9zM283 584l-119 164h127l113 -164h-121z" />
    <glyph glyph-name="oacute" unicode="&#xf3;" 
d="M600 245q0 -84 -7.5 -134.5t-35 -78t-82.5 -36.5t-151 -9t-151 9t-83 36.5t-35.5 78t-7.5 134.5q0 87 9.5 139.5t39 80.5t84 37t144.5 9t144.5 -9t83.5 -37t38.5 -80.5t9.5 -139.5zM427 250q0 62 -2.5 96t-12 49.5t-29.5 18t-54 2.5h-9q-35 0 -55 -2.5t-30.5 -18
t-13 -49.5t-2.5 -96v-9q0 -59 2 -91t11.5 -47t30 -17.5t57.5 -2.5h9q36 0 56 2.5t29 17.5t11 47t2 91v9zM366 584h-121l112 164h127z" />
    <glyph glyph-name="ocircumflex" unicode="&#xf4;" 
d="M600 245q0 -84 -7.5 -134.5t-35 -78t-82.5 -36.5t-151 -9t-151 9t-83 36.5t-35.5 78t-7.5 134.5q0 87 9.5 139.5t39 80.5t84 37t144.5 9t144.5 -9t83.5 -37t38.5 -80.5t9.5 -139.5zM427 250q0 62 -2.5 96t-12 49.5t-29.5 18t-54 2.5h-9q-35 0 -55 -2.5t-30.5 -18
t-13 -49.5t-2.5 -96v-9q0 -59 2 -91t11.5 -47t30 -17.5t57.5 -2.5h9q36 0 56 2.5t29 17.5t11 47t2 91v9zM400 584l-76 104l-76 -104h-111l112 164h151l112 -164h-112z" />
    <glyph glyph-name="otilde" unicode="&#xf5;" 
d="M600 245q0 -84 -7.5 -134.5t-35 -78t-82.5 -36.5t-151 -9t-151 9t-83 36.5t-35.5 78t-7.5 134.5q0 87 9.5 139.5t39 80.5t84 37t144.5 9t144.5 -9t83.5 -37t38.5 -80.5t9.5 -139.5zM427 250q0 62 -2.5 96t-12 49.5t-29.5 18t-54 2.5h-9q-35 0 -55 -2.5t-30.5 -18
t-13 -49.5t-2.5 -96v-9q0 -59 2 -91t11.5 -47t30 -17.5t57.5 -2.5h9q36 0 56 2.5t29 17.5t11 47t2 91v9zM532 738q0 -81 -30.5 -119.5t-92.5 -38.5q-31 0 -55 12.5t-43.5 27.5t-37 27.5t-34.5 12.5q-6 0 -13 -1.5t-12.5 -9t-9.5 -23t-4 -42.5h-83q0 82 30 120.5t92 38.5
q31 0 55 -13t43.5 -28t37 -28t34.5 -13q6 0 13 2t13 9.5t10 23t4 42.5h83z" />
    <glyph glyph-name="odieresis" unicode="&#xf6;" 
d="M600 245q0 -84 -7.5 -134.5t-35 -78t-82.5 -36.5t-151 -9t-151 9t-83 36.5t-35.5 78t-7.5 134.5q0 87 9.5 139.5t39 80.5t84 37t144.5 9t144.5 -9t83.5 -37t38.5 -80.5t9.5 -139.5zM427 250q0 62 -2.5 96t-12 49.5t-29.5 18t-54 2.5h-9q-35 0 -55 -2.5t-30.5 -18
t-13 -49.5t-2.5 -96v-9q0 -59 2 -91t11.5 -47t30 -17.5t57.5 -2.5h9q36 0 56 2.5t29 17.5t11 47t2 91v9zM137 584v125h138v-125h-138zM374 584v125h138v-125h-138z" />
    <glyph glyph-name="divide" unicode="&#xf7;" horiz-adv-x="626" 
d="M50 248v94h526v-94h-526zM254 418v149h118v-149h-118zM254 22v149h118v-149h-118z" />
    <glyph glyph-name="oslash" unicode="&#xf8;" 
d="M600 245q0 -84 -7.5 -134.5t-35 -78t-82.5 -36.5t-151 -9q-75 0 -124 6l-48 -75h-79l57 89q-28 11 -44.5 29t-25 46.5t-11 68.5t-2.5 94q0 87 9.5 139.5t39 80.5t84 37t144.5 9q38 0 69 -1.5t57 -5.5l45 72h79l-57 -88q26 -12 42 -31t25 -48t12.5 -69.5t3.5 -94.5z
M219 241v-52.5t2 -39.5l169 263q-11 3 -26 3.5t-35 0.5h-9q-35 0 -55 -2.5t-30.5 -18t-13 -49.5t-2.5 -96v-9zM427 250q0 30 -0.5 53t-1.5 41l-166 -259q11 -2 26 -2h35h9q36 0 56 2.5t29 17.5t11 47t2 91v9z" />
    <glyph glyph-name="ugrave" unicode="&#xf9;" 
d="M589 9q-31 -7 -71 -11q-35 -5 -83.5 -8t-110.5 -3q-78 0 -129 5.5t-81.5 24t-42.5 54t-12 95.5v333h167v-333q0 -31 5 -48t16.5 -24.5t30 -9t46.5 -1.5q23 0 41 0.5t31 1.5q15 1 26 3v411h167v-490zM283 584l-119 164h127l113 -164h-121z" />
    <glyph glyph-name="uacute" unicode="&#xfa;" 
d="M589 9q-31 -7 -71 -11q-35 -5 -83.5 -8t-110.5 -3q-78 0 -129 5.5t-81.5 24t-42.5 54t-12 95.5v333h167v-333q0 -31 5 -48t16.5 -24.5t30 -9t46.5 -1.5q23 0 41 0.5t31 1.5q15 1 26 3v411h167v-490zM366 584h-121l112 164h127z" />
    <glyph glyph-name="ucircumflex" unicode="&#xfb;" 
d="M589 9q-31 -7 -71 -11q-35 -5 -83.5 -8t-110.5 -3q-78 0 -129 5.5t-81.5 24t-42.5 54t-12 95.5v333h167v-333q0 -31 5 -48t16.5 -24.5t30 -9t46.5 -1.5q23 0 41 0.5t31 1.5q15 1 26 3v411h167v-490zM400 584l-76 104l-76 -104h-111l112 164h151l112 -164h-112z" />
    <glyph glyph-name="udieresis" unicode="&#xfc;" 
d="M589 9q-31 -7 -71 -11q-35 -5 -83.5 -8t-110.5 -3q-78 0 -129 5.5t-81.5 24t-42.5 54t-12 95.5v333h167v-333q0 -31 5 -48t16.5 -24.5t30 -9t46.5 -1.5q23 0 41 0.5t31 1.5q15 1 26 3v411h167v-490zM137 584v125h138v-125h-138zM374 584v125h138v-125h-138z" />
    <glyph glyph-name="yacute" unicode="&#xfd;" horiz-adv-x="620" 
d="M424 -69q-19 -56 -38 -90t-41.5 -52t-49.5 -23.5t-61 -5.5q-45 0 -79.5 3t-58.5 8q-28 5 -50 12v81q15 -2 34 -4q17 -2 40.5 -3t53.5 -1q22 0 36 2t24 10.5t18 27t19 51.5l17 53h-111l-162 499h174l124 -403l125 403h170zM354 584h-121l112 164h127z" />
    <glyph glyph-name="thorn" unicode="&#xfe;" 
d="M600 245q0 -84 -7.5 -134.5t-35 -78t-81.5 -36.5t-147 -9q-48 0 -75 3q-16 1 -28 3v-220h-167v952h167v-219q12 1 28 2q14 1 32.5 2t42.5 1q87 0 140.5 -9t82.5 -37t38.5 -80.5t9.5 -139.5zM427 250q0 62 -2.5 96t-12.5 49.5t-31 18t-57 2.5q-23 0 -41 -0.5t-31 -1.5
q-15 -1 -26 -2v-326q11 -1 26 -2q13 -1 31 -1h41q38 0 59 2.5t30.5 17.5t11.5 47t2 91v9z" />
    <glyph glyph-name="ydieresis" unicode="&#xff;" horiz-adv-x="620" 
d="M424 -69q-19 -56 -38 -90t-41.5 -52t-49.5 -23.5t-61 -5.5q-45 0 -79.5 3t-58.5 8q-28 5 -50 12v81q15 -2 34 -4q17 -2 40.5 -3t53.5 -1q22 0 36 2t24 10.5t18 27t19 51.5l17 53h-111l-162 499h174l124 -403l125 403h170zM125 584v125h138v-125h-138zM362 584v125h138
v-125h-138z" />
    <glyph glyph-name="Amacron" unicode="&#x100;" horiz-adv-x="784" 
d="M584 0l-61 173h-265l-61 -173h-188l252 680h262l252 -680h-191zM391 566l-98 -279h197zM224 757v82h337v-82h-337z" />
    <glyph glyph-name="amacron" unicode="&#x101;" 
d="M589 9q-32 -7 -73 -11q-35 -5 -84.5 -8t-112.5 -3q-54 0 -103.5 2.5t-87 18t-59.5 48.5t-22 94q0 57 14.5 88.5t41 45.5t64 16.5t83.5 2.5h172v30q0 31 -4.5 49t-16.5 26.5t-32 11t-51 2.5q-54 1 -98 -0.5t-76 -3.5q-38 -3 -67 -6v78q30 6 69 10q33 4 80 7.5t107 3.5
q62 0 110 -4.5t80.5 -22.5t49 -53.5t16.5 -97.5v-324zM422 221h-119q-24 0 -40 -1t-26 -8t-14 -21t-4 -41q0 -28 5.5 -43t18 -22t31.5 -8t46 -1q24 0 42.5 0.5t32.5 1.5q15 1 27 3v140zM156 584v82h337v-82h-337z" />
    <glyph glyph-name="Abreve" unicode="&#x102;" horiz-adv-x="784" 
d="M584 0l-61 173h-265l-61 -173h-188l252 680h262l252 -680h-191zM391 566l-98 -279h197zM557 921q0 -38 -2.5 -69t-18 -53t-49 -34t-95.5 -12t-95 12t-48.5 34t-18 53t-2.5 69h82q0 -30 2 -47.5t10.5 -26.5t24.5 -11.5t45 -2.5t45.5 2.5t25 11.5t10.5 26.5t2 47.5h82z" />
    <glyph glyph-name="abreve" unicode="&#x103;" 
d="M589 9q-32 -7 -73 -11q-35 -5 -84.5 -8t-112.5 -3q-54 0 -103.5 2.5t-87 18t-59.5 48.5t-22 94q0 57 14.5 88.5t41 45.5t64 16.5t83.5 2.5h172v30q0 31 -4.5 49t-16.5 26.5t-32 11t-51 2.5q-54 1 -98 -0.5t-76 -3.5q-38 -3 -67 -6v78q30 6 69 10q33 4 80 7.5t107 3.5
q62 0 110 -4.5t80.5 -22.5t49 -53.5t16.5 -97.5v-324zM422 221h-119q-24 0 -40 -1t-26 -8t-14 -21t-4 -41q0 -28 5.5 -43t18 -22t31.5 -8t46 -1q24 0 42.5 0.5t32.5 1.5q15 1 27 3v140zM489 748q0 -38 -2.5 -69t-18 -53t-49 -34t-95.5 -12t-95 12t-48.5 34t-18 53t-2.5 69
h82q0 -30 2 -47.5t10.5 -26.5t24.5 -11.5t45 -2.5t45.5 2.5t25 11.5t10.5 26.5t2 47.5h82z" />
    <glyph glyph-name="Aogonek" unicode="&#x104;" horiz-adv-x="784" 
d="M782 -186q-12 -7 -29 -11q-14 -5 -34 -8t-45 -3q-62 0 -87 23t-25 74q0 25 5 44.5t12 33t13.5 22t9.5 11.5h-18l-61 173h-265l-61 -173h-188l252 680h262l252 -680h-83q-2 -2 -7.5 -8.5t-11 -17t-10 -25t-4.5 -33.5q0 -16 1.5 -25.5t7 -15t14.5 -7.5t24 -2q35 0 55 3
q11 2 21 4v-59zM391 566l-98 -279h197z" />
    <glyph glyph-name="aogonek" unicode="&#x105;" 
d="M575 -186q-12 -7 -29 -11q-14 -5 -34 -8t-45 -3q-62 0 -87 23t-25 74q0 38 10 62.5t20 37.5q-16 -1 -32 -1.5t-34 -0.5q-54 0 -103.5 2.5t-87 18t-59.5 48.5t-22 94q0 57 14.5 88.5t41 45.5t64 16.5t83.5 2.5h172v30q0 31 -4.5 49t-16.5 26.5t-32 11t-51 2.5
q-54 1 -98 -0.5t-76 -3.5q-38 -3 -67 -6v78q30 6 69 10q33 4 80 7.5t107 3.5q62 0 110 -4.5t80.5 -22.5t49 -53.5t16.5 -97.5v-324q-13 -2 -30 -5q-14 -2 -34 -5t-46 -5q-8 -8 -18 -27t-10 -51t9 -41t39 -9q35 0 55 3q11 2 21 4v-59zM422 221h-119q-24 0 -40 -1t-26 -8
t-14 -21t-4 -41q0 -28 5.5 -43t18 -22t31.5 -8t46 -1q24 0 42.5 0.5t32.5 1.5q15 1 27 3v140z" />
    <glyph glyph-name="Cacute" unicode="&#x106;" horiz-adv-x="666" 
d="M632 9q-33 -7 -76 -11q-37 -5 -89.5 -8t-118.5 -3q-101 0 -158.5 14t-85.5 52t-34.5 104.5t-6.5 171.5q0 113 9 184t39 111t85.5 54.5t148.5 14.5q65 0 117 -3.5t88 -7.5q42 -4 75 -10v-112q-43 3 -86 5q-37 2 -81 3t-83 0q-42 -2 -66.5 -6t-37 -26.5t-16 -71
t-3.5 -137.5q0 -53 1 -89.5t4.5 -60t11 -36t21.5 -19t35 -8t52 -2.5q40 -2 85 -0.5t83 3.5q44 2 87 5v-111zM393 757h-121l112 164h127z" />
    <glyph glyph-name="cacute" unicode="&#x107;" horiz-adv-x="571" 
d="M540 9q-29 -7 -66 -11q-32 -5 -77.5 -8t-102.5 -3q-86 0 -135 10.5t-74 39t-31.5 79t-6.5 129.5q0 82 8.5 134t34 81t73.5 40t128 11q57 0 101 -3.5t76 -7.5q37 -4 65 -10v-83q-37 3 -74 5q-32 2 -69.5 3t-69.5 -1q-35 -1 -55.5 -4t-30.5 -19t-12.5 -50.5t-2.5 -98.5
q0 -58 2 -89.5t11.5 -46t30.5 -17.5t59 -4q34 -2 72.5 -1t70.5 3q38 2 75 5v-83zM340 584h-121l112 164h127z" />
    <glyph glyph-name="Ccircumflex" unicode="&#x108;" horiz-adv-x="666" 
d="M632 9q-33 -7 -76 -11q-37 -5 -89.5 -8t-118.5 -3q-101 0 -158.5 14t-85.5 52t-34.5 104.5t-6.5 171.5q0 113 9 184t39 111t85.5 54.5t148.5 14.5q65 0 117 -3.5t88 -7.5q42 -4 75 -10v-112q-43 3 -86 5q-37 2 -81 3t-83 0q-42 -2 -66.5 -6t-37 -26.5t-16 -71
t-3.5 -137.5q0 -53 1 -89.5t4.5 -60t11 -36t21.5 -19t35 -8t52 -2.5q40 -2 85 -0.5t83 3.5q44 2 87 5v-111zM427 757l-76 104l-76 -104h-111l112 164h151l112 -164h-112z" />
    <glyph glyph-name="ccircumflex" unicode="&#x109;" horiz-adv-x="571" 
d="M540 9q-29 -7 -66 -11q-32 -5 -77.5 -8t-102.5 -3q-86 0 -135 10.5t-74 39t-31.5 79t-6.5 129.5q0 82 8.5 134t34 81t73.5 40t128 11q57 0 101 -3.5t76 -7.5q37 -4 65 -10v-83q-37 3 -74 5q-32 2 -69.5 3t-69.5 -1q-35 -1 -55.5 -4t-30.5 -19t-12.5 -50.5t-2.5 -98.5
q0 -58 2 -89.5t11.5 -46t30.5 -17.5t59 -4q34 -2 72.5 -1t70.5 3q38 2 75 5v-83zM374 584l-76 104l-76 -104h-111l112 164h151l112 -164h-112z" />
    <glyph glyph-name="Cdotaccent" unicode="&#x10a;" horiz-adv-x="666" 
d="M632 9q-33 -7 -76 -11q-37 -5 -89.5 -8t-118.5 -3q-101 0 -158.5 14t-85.5 52t-34.5 104.5t-6.5 171.5q0 113 9 184t39 111t85.5 54.5t148.5 14.5q65 0 117 -3.5t88 -7.5q42 -4 75 -10v-112q-43 3 -86 5q-37 2 -81 3t-83 0q-42 -2 -66.5 -6t-37 -26.5t-16 -71
t-3.5 -137.5q0 -53 1 -89.5t4.5 -60t11 -36t21.5 -19t35 -8t52 -2.5q40 -2 85 -0.5t83 3.5q44 2 87 5v-111zM269 757v141h166v-141h-166z" />
    <glyph glyph-name="cdotaccent" unicode="&#x10b;" horiz-adv-x="571" 
d="M540 9q-29 -7 -66 -11q-32 -5 -77.5 -8t-102.5 -3q-86 0 -135 10.5t-74 39t-31.5 79t-6.5 129.5q0 82 8.5 134t34 81t73.5 40t128 11q57 0 101 -3.5t76 -7.5q37 -4 65 -10v-83q-37 3 -74 5q-32 2 -69.5 3t-69.5 -1q-35 -1 -55.5 -4t-30.5 -19t-12.5 -50.5t-2.5 -98.5
q0 -58 2 -89.5t11.5 -46t30.5 -17.5t59 -4q34 -2 72.5 -1t70.5 3q38 2 75 5v-83zM215 584v141h166v-141h-166z" />
    <glyph glyph-name="Ccaron" unicode="&#x10c;" horiz-adv-x="666" 
d="M632 9q-33 -7 -76 -11q-37 -5 -89.5 -8t-118.5 -3q-101 0 -158.5 14t-85.5 52t-34.5 104.5t-6.5 171.5q0 113 9 184t39 111t85.5 54.5t148.5 14.5q65 0 117 -3.5t88 -7.5q42 -4 75 -10v-112q-43 3 -86 5q-37 2 -81 3t-83 0q-42 -2 -66.5 -6t-37 -26.5t-16 -71
t-3.5 -137.5q0 -53 1 -89.5t4.5 -60t11 -36t21.5 -19t35 -8t52 -2.5q40 -2 85 -0.5t83 3.5q44 2 87 5v-111zM427 757h-151l-112 164h111l76 -105l76 105h112z" />
    <glyph glyph-name="ccaron" unicode="&#x10d;" horiz-adv-x="571" 
d="M540 9q-29 -7 -66 -11q-32 -5 -77.5 -8t-102.5 -3q-86 0 -135 10.5t-74 39t-31.5 79t-6.5 129.5q0 82 8.5 134t34 81t73.5 40t128 11q57 0 101 -3.5t76 -7.5q37 -4 65 -10v-83q-37 3 -74 5q-32 2 -69.5 3t-69.5 -1q-35 -1 -55.5 -4t-30.5 -19t-12.5 -50.5t-2.5 -98.5
q0 -58 2 -89.5t11.5 -46t30.5 -17.5t59 -4q34 -2 72.5 -1t70.5 3q38 2 75 5v-83zM374 584h-151l-112 164h111l76 -105l76 105h112z" />
    <glyph glyph-name="Dcaron" unicode="&#x10e;" horiz-adv-x="777" 
d="M714 329q0 -106 -8.5 -170.5t-34.5 -100t-73.5 -47t-125.5 -11.5h-397v680h388q75 0 123.5 -12t77 -49t39.5 -106t11 -184zM526 327q0 86 -4 133t-16 68.5t-33.5 25t-57.5 3.5h-158v-433h165q35 0 55.5 3t31.5 22t14 60.5t3 117.5zM465 757h-151l-112 164h111l76 -105
l76 105h112z" />
    <glyph glyph-name="dcaron" unicode="&#x10f;" horiz-adv-x="805" 
d="M589 9q-32 -7 -73 -11q-35 -5 -84.5 -8t-112.5 -3q-93 0 -147 9t-82 36.5t-35.5 78t-7.5 134.5q0 87 9.5 139.5t38.5 80.5t82.5 37t141.5 9q24 0 42.5 -1t32.5 -2q16 -1 28 -2v219h167v-716zM422 412q-11 1 -26 2q-13 1 -31.5 1.5t-41.5 0.5q-36 0 -57 -2.5t-31.5 -18
t-13 -49.5t-2.5 -96v-9q0 -59 2 -91t12 -47t31 -17.5t59 -2.5q23 0 41.5 0.5t31.5 1.5q15 1 26 3v324zM736 485h-88l56 112h-30v129h125v-129z" />
    <glyph glyph-name="Dcroat" unicode="&#x110;" horiz-adv-x="794" 
d="M731 329q0 -106 -8.5 -170.5t-34.5 -100t-73.5 -47t-125.5 -11.5h-397v305h-86v76h86v299h387q75 0 123.5 -12t77 -49t40 -106t11.5 -184zM542 327q0 86 -4 133t-15.5 68.5t-33 25t-57.5 3.5h-158v-176h138v-76h-138v-181h164q35 0 55.5 3t31.5 22t14 60.5t3 117.5z" />
    <glyph glyph-name="dcroat" unicode="&#x111;" horiz-adv-x="684" 
d="M589 9q-32 -7 -73 -11q-35 -5 -84.5 -8t-112.5 -3q-93 0 -147 9t-82 36.5t-35.5 78t-7.5 134.5q0 87 9.5 139.5t38.5 80.5t82.5 37t141.5 9q24 0 42.5 -1t32.5 -2q16 -1 28 -2v75h-145v66h145v78h167v-78h89v-66h-89v-572zM422 412q-11 1 -26 2q-13 1 -31.5 1.5
t-41.5 0.5q-36 0 -57 -2.5t-31.5 -18t-13 -49.5t-2.5 -96v-9q0 -59 2 -91t12 -47t31 -17.5t59 -2.5q23 0 41.5 0.5t31.5 1.5q15 1 26 3v324z" />
    <glyph glyph-name="Emacron" unicode="&#x112;" horiz-adv-x="682" 
d="M75 0v680h550v-114h-368v-167h337v-105h-337v-180h375v-114h-557zM183 757v82h337v-82h-337z" />
    <glyph glyph-name="emacron" unicode="&#x113;" 
d="M220 210q0 -49 2 -75.5t12.5 -39.5t32.5 -15.5t63 -2.5q57 -1 103 0.5t79 3.5q39 3 69 6v-78q-31 -7 -71 -11q-35 -5 -84 -8t-111 -3q-91 0 -144.5 9t-81 36.5t-35 78t-7.5 134.5q0 87 9.5 139.5t39 80.5t84 37t144.5 9t144.5 -9t83.5 -37t38.5 -80.5t9.5 -139.5v-35
h-380zM427 291q0 49 -2.5 76t-13 39.5t-31 14.5t-56.5 2t-56.5 -2t-31 -14.5t-13.5 -39.5t-3 -76h207zM156 584v82h337v-82h-337z" />
    <glyph glyph-name="Ebreve" unicode="&#x114;" horiz-adv-x="682" 
d="M75 0v680h550v-114h-368v-167h337v-105h-337v-180h375v-114h-557zM516 921q0 -38 -2.5 -69t-18 -53t-49 -34t-95.5 -12t-95 12t-48.5 34t-18 53t-2.5 69h82q0 -30 2 -47.5t10.5 -26.5t24.5 -11.5t45 -2.5t45.5 2.5t25 11.5t10.5 26.5t2 47.5h82z" />
    <glyph glyph-name="ebreve" unicode="&#x115;" 
d="M220 210q0 -49 2 -75.5t12.5 -39.5t32.5 -15.5t63 -2.5q57 -1 103 0.5t79 3.5q39 3 69 6v-78q-31 -7 -71 -11q-35 -5 -84 -8t-111 -3q-91 0 -144.5 9t-81 36.5t-35 78t-7.5 134.5q0 87 9.5 139.5t39 80.5t84 37t144.5 9t144.5 -9t83.5 -37t38.5 -80.5t9.5 -139.5v-35
h-380zM427 291q0 49 -2.5 76t-13 39.5t-31 14.5t-56.5 2t-56.5 -2t-31 -14.5t-13.5 -39.5t-3 -76h207zM489 748q0 -38 -2.5 -69t-18 -53t-49 -34t-95.5 -12t-95 12t-48.5 34t-18 53t-2.5 69h82q0 -30 2 -47.5t10.5 -26.5t24.5 -11.5t45 -2.5t45.5 2.5t25 11.5t10.5 26.5
t2 47.5h82z" />
    <glyph glyph-name="Edotaccent" unicode="&#x116;" horiz-adv-x="682" 
d="M75 0v680h550v-114h-368v-167h337v-105h-337v-180h375v-114h-557zM269 757v141h166v-141h-166z" />
    <glyph glyph-name="edotaccent" unicode="&#x117;" 
d="M220 210q0 -49 2 -75.5t12.5 -39.5t32.5 -15.5t63 -2.5q57 -1 103 0.5t79 3.5q39 3 69 6v-78q-31 -7 -71 -11q-35 -5 -84 -8t-111 -3q-91 0 -144.5 9t-81 36.5t-35 78t-7.5 134.5q0 87 9.5 139.5t39 80.5t84 37t144.5 9t144.5 -9t83.5 -37t38.5 -80.5t9.5 -139.5v-35
h-380zM427 291q0 49 -2.5 76t-13 39.5t-31 14.5t-56.5 2t-56.5 -2t-31 -14.5t-13.5 -39.5t-3 -76h207zM241 584v141h166v-141h-166z" />
    <glyph glyph-name="Eogonek" unicode="&#x118;" horiz-adv-x="682" 
d="M616 -186q-12 -7 -29 -11q-14 -5 -34 -8t-45 -3q-63 0 -87.5 23t-24.5 74q0 25 5 44.5t11.5 33t13.5 22t10 11.5h-361v680h550v-114h-368v-167h337v-105h-337v-180h375v-114h-106q-3 -2 -8.5 -8.5t-11 -17t-10 -25t-4.5 -33.5q0 -32 9 -41t39 -9q35 0 55 3q11 2 21 4v-59
v0z" />
    <glyph glyph-name="eogonek" unicode="&#x119;" 
d="M568 -186q-13 -7 -29 -11q-14 -5 -33.5 -8t-44.5 -3q-63 0 -88 23t-25 74q0 38 10.5 62t19.5 37q-15 -1 -30.5 -1h-32.5q-91 0 -144.5 9t-81 36.5t-35 78t-7.5 134.5q0 87 9.5 139.5t39 80.5t84 37t144.5 9t144.5 -9t83.5 -37t38.5 -80.5t9.5 -139.5v-35h-380
q0 -49 2 -75.5t12.5 -39.5t32.5 -15.5t63 -2.5q57 -1 103 0.5t79 3.5q39 3 69 6v-78q-12 -2 -29 -5q-14 -2 -34 -5t-45 -5q-8 -9 -18 -27.5t-10 -50.5q0 -16 1.5 -25.5t7 -15t14.5 -7.5t24 -2q36 0 56 3q11 2 20 4v-59zM427 291q0 49 -2.5 76t-13 39.5t-31 14.5t-56.5 2
t-56.5 -2t-31 -14.5t-13.5 -39.5t-3 -76h207z" />
    <glyph glyph-name="Ecaron" unicode="&#x11a;" horiz-adv-x="682" 
d="M75 0v680h550v-114h-368v-167h337v-105h-337v-180h375v-114h-557zM427 757h-151l-112 164h111l76 -105l76 105h112z" />
    <glyph glyph-name="ecaron" unicode="&#x11b;" 
d="M220 210q0 -49 2 -75.5t12.5 -39.5t32.5 -15.5t63 -2.5q57 -1 103 0.5t79 3.5q39 3 69 6v-78q-31 -7 -71 -11q-35 -5 -84 -8t-111 -3q-91 0 -144.5 9t-81 36.5t-35 78t-7.5 134.5q0 87 9.5 139.5t39 80.5t84 37t144.5 9t144.5 -9t83.5 -37t38.5 -80.5t9.5 -139.5v-35
h-380zM427 291q0 49 -2.5 76t-13 39.5t-31 14.5t-56.5 2t-56.5 -2t-31 -14.5t-13.5 -39.5t-3 -76h207zM400 584h-151l-112 164h111l76 -105l76 105h112z" />
    <glyph glyph-name="Gcircumflex" unicode="&#x11c;" horiz-adv-x="771" 
d="M703 9q-38 -7 -86 -11q-42 -5 -100.5 -8t-132.5 -3q-75 0 -127.5 4.5t-88.5 17t-56.5 36t-31.5 61.5t-14 92.5t-3 130.5q0 80 4 138t16 98.5t33.5 65.5t57 38.5t86 18.5t120.5 5q74 0 132 -3.5t100 -7.5q48 -4 85 -10v-104l-106 6q-45 2 -98 3.5t-98 -0.5q-34 -1 -58 -3
t-40 -9t-25 -22t-13.5 -42.5t-5.5 -69.5t-1 -104q0 -85 2.5 -131t15.5 -67t40 -24.5t76 -3.5q31 0 56 1t42 3q20 2 36 4v185h-132v105h315v-390zM465 757l-76 104l-76 -104h-111l112 164h151l112 -164h-112z" />
    <glyph glyph-name="gcircumflex" unicode="&#x11d;" 
d="M589 -60q0 -63 -15.5 -99t-47 -54t-79.5 -22.5t-114 -4.5q-60 0 -107 3t-80 8q-39 5 -69 12v83q29 -3 67 -5q32 -2 76 -3.5t98 -0.5q33 0 53 2.5t31.5 10.5t15.5 24.5t4 45.5v80q-12 -2 -28 -3q-14 -1 -32.5 -1.5t-42.5 -0.5q-88 0 -141.5 7t-82.5 32t-38.5 73.5
t-9.5 130.5q0 86 12 136.5t42.5 76.5t83.5 33t134 7q63 0 112.5 -3.5t84.5 -7.5q41 -4 73 -10v-550zM422 411q-11 1 -26 2q-13 1 -31.5 2t-41.5 1q-36 0 -56.5 -2.5t-31 -16.5t-13.5 -45.5t-3 -88.5v-9q0 -54 2 -83t12.5 -42.5t31 -15.5t58.5 -2q23 0 41.5 0.5t31.5 1.5
q15 1 26 2v296zM400 584l-76 104l-76 -104h-111l112 164h151l112 -164h-112z" />
    <glyph glyph-name="Gbreve" unicode="&#x11e;" horiz-adv-x="771" 
d="M703 9q-38 -7 -86 -11q-42 -5 -100.5 -8t-132.5 -3q-75 0 -127.5 4.5t-88.5 17t-56.5 36t-31.5 61.5t-14 92.5t-3 130.5q0 80 4 138t16 98.5t33.5 65.5t57 38.5t86 18.5t120.5 5q74 0 132 -3.5t100 -7.5q48 -4 85 -10v-104l-106 6q-45 2 -98 3.5t-98 -0.5q-34 -1 -58 -3
t-40 -9t-25 -22t-13.5 -42.5t-5.5 -69.5t-1 -104q0 -85 2.5 -131t15.5 -67t40 -24.5t76 -3.5q31 0 56 1t42 3q20 2 36 4v185h-132v105h315v-390zM554 921q0 -38 -2.5 -69t-18 -53t-49 -34t-95.5 -12t-95 12t-48.5 34t-18 53t-2.5 69h82q0 -30 2 -47.5t10.5 -26.5t24.5 -11.5
t45 -2.5t45.5 2.5t25 11.5t10.5 26.5t2 47.5h82z" />
    <glyph glyph-name="gbreve" unicode="&#x11f;" 
d="M589 -60q0 -63 -15.5 -99t-47 -54t-79.5 -22.5t-114 -4.5q-60 0 -107 3t-80 8q-39 5 -69 12v83q29 -3 67 -5q32 -2 76 -3.5t98 -0.5q33 0 53 2.5t31.5 10.5t15.5 24.5t4 45.5v80q-12 -2 -28 -3q-14 -1 -32.5 -1.5t-42.5 -0.5q-88 0 -141.5 7t-82.5 32t-38.5 73.5
t-9.5 130.5q0 86 12 136.5t42.5 76.5t83.5 33t134 7q63 0 112.5 -3.5t84.5 -7.5q41 -4 73 -10v-550zM422 411q-11 1 -26 2q-13 1 -31.5 2t-41.5 1q-36 0 -56.5 -2.5t-31 -16.5t-13.5 -45.5t-3 -88.5v-9q0 -54 2 -83t12.5 -42.5t31 -15.5t58.5 -2q23 0 41.5 0.5t31.5 1.5
q15 1 26 2v296zM489 748q0 -38 -2.5 -69t-18 -53t-49 -34t-95.5 -12t-95 12t-48.5 34t-18 53t-2.5 69h82q0 -30 2 -47.5t10.5 -26.5t24.5 -11.5t45 -2.5t45.5 2.5t25 11.5t10.5 26.5t2 47.5h82z" />
    <glyph glyph-name="Gdotaccent" unicode="&#x120;" horiz-adv-x="771" 
d="M703 9q-38 -7 -86 -11q-42 -5 -100.5 -8t-132.5 -3q-75 0 -127.5 4.5t-88.5 17t-56.5 36t-31.5 61.5t-14 92.5t-3 130.5q0 80 4 138t16 98.5t33.5 65.5t57 38.5t86 18.5t120.5 5q74 0 132 -3.5t100 -7.5q48 -4 85 -10v-104l-106 6q-45 2 -98 3.5t-98 -0.5q-34 -1 -58 -3
t-40 -9t-25 -22t-13.5 -42.5t-5.5 -69.5t-1 -104q0 -85 2.5 -131t15.5 -67t40 -24.5t76 -3.5q31 0 56 1t42 3q20 2 36 4v185h-132v105h315v-390zM306 757v141h166v-141h-166z" />
    <glyph glyph-name="gdotaccent" unicode="&#x121;" 
d="M589 -60q0 -63 -15.5 -99t-47 -54t-79.5 -22.5t-114 -4.5q-60 0 -107 3t-80 8q-39 5 -69 12v83q29 -3 67 -5q32 -2 76 -3.5t98 -0.5q33 0 53 2.5t31.5 10.5t15.5 24.5t4 45.5v80q-12 -2 -28 -3q-14 -1 -32.5 -1.5t-42.5 -0.5q-88 0 -141.5 7t-82.5 32t-38.5 73.5
t-9.5 130.5q0 86 12 136.5t42.5 76.5t83.5 33t134 7q63 0 112.5 -3.5t84.5 -7.5q41 -4 73 -10v-550zM422 411q-11 1 -26 2q-13 1 -31.5 2t-41.5 1q-36 0 -56.5 -2.5t-31 -16.5t-13.5 -45.5t-3 -88.5v-9q0 -54 2 -83t12.5 -42.5t31 -15.5t58.5 -2q23 0 41.5 0.5t31.5 1.5
q15 1 26 2v296zM241 584v141h166v-141h-166z" />
    <glyph glyph-name="Gcommaaccent" unicode="&#x122;" horiz-adv-x="771" 
d="M703 9q-38 -7 -86 -11q-42 -5 -100.5 -8t-132.5 -3q-75 0 -127.5 4.5t-88.5 17t-56.5 36t-31.5 61.5t-14 92.5t-3 130.5q0 80 4 138t16 98.5t33.5 65.5t57 38.5t86 18.5t120.5 5q74 0 132 -3.5t100 -7.5q48 -4 85 -10v-104l-106 6q-45 2 -98 3.5t-98 -0.5q-34 -1 -58 -3
t-40 -9t-25 -22t-13.5 -42.5t-5.5 -69.5t-1 -104q0 -85 2.5 -131t15.5 -67t40 -24.5t76 -3.5q31 0 56 1t42 3q20 2 36 4v185h-132v105h315v-390zM389 -326h-88l56 112h-30v129h125v-129z" />
    <glyph glyph-name="gcommaaccent" unicode="&#x123;" 
d="M357 712h29v-128h-125v128l62 112h89zM589 -60q0 -63 -15.5 -99t-47 -54t-79.5 -22.5t-114 -4.5q-60 0 -107 3t-80 8q-39 5 -69 12v83q29 -3 67 -5q32 -2 76 -3.5t98 -0.5q33 0 53 2.5t31.5 10.5t15.5 24.5t4 45.5v80q-12 -2 -28 -3q-14 -1 -32.5 -1.5t-42.5 -0.5
q-88 0 -141.5 7t-82.5 32t-38.5 73.5t-9.5 130.5q0 86 12 136.5t42.5 76.5t83.5 33t134 7q63 0 112.5 -3.5t84.5 -7.5q41 -4 73 -10v-550zM422 411q-11 1 -26 2q-13 1 -31.5 2t-41.5 1q-36 0 -56.5 -2.5t-31 -16.5t-13.5 -45.5t-3 -88.5v-9q0 -54 2 -83t12.5 -42.5t31 -15.5
t58.5 -2q23 0 41.5 0.5t31.5 1.5q15 1 26 2v296z" />
    <glyph glyph-name="Hcircumflex" unicode="&#x124;" horiz-adv-x="777" 
d="M520 0v285h-263v-285h-182v680h182v-271h263v271h183v-680h-183zM465 757l-76 104l-76 -104h-111l112 164h151l112 -164h-112z" />
    <glyph glyph-name="hcircumflex" unicode="&#x125;" 
d="M422 0v333q0 31 -5.5 48t-17.5 24.5t-30.5 9t-44.5 1.5q-23 0 -41 -1t-31 -2q-15 -1 -26 -2v-411h-167v725h167v-219q11 1 26 2q13 1 31 2t41 1q67 0 117 -4.5t83 -22.5t49 -53.5t16 -97.5v-333h-167zM400 797l-76 104l-76 -104h-111l112 164h151l112 -164h-112z" />
    <glyph glyph-name="Hbar" unicode="&#x126;" horiz-adv-x="812" 
d="M537 0v285h-263v-285h-182v499h-86v76h86v105h182v-105h263v105h183v-105h85v-76h-85v-499h-183zM537 409v90h-263v-90h263z" />
    <glyph glyph-name="hbar" unicode="&#x127;" horiz-adv-x="684" 
d="M458 0v333q0 31 -5.5 48t-17.5 24.5t-30.5 9t-44.5 1.5q-23 0 -41 -1t-31 -2q-15 -1 -26 -2v-411h-167v581h-89v66h89v78h167v-78h145v-66h-145v-75q11 1 26 2q13 1 31 2t41 1q67 0 117 -4.5t83 -22.5t49 -53.5t16 -97.5v-333h-167z" />
    <glyph glyph-name="Itilde" unicode="&#x128;" horiz-adv-x="332" 
d="M75 0v680h182v-680h-182zM374 911q0 -81 -30.5 -119.5t-92.5 -38.5q-31 0 -55 12.5t-43.5 27.5t-37 27.5t-34.5 12.5q-6 0 -13 -1.5t-12.5 -9t-9.5 -23t-4 -42.5h-83q0 82 30 120.5t92 38.5q31 0 55 -13t43.5 -28t37 -28t34.5 -13q6 0 13 2t13 9.5t10 23t4 42.5h83z" />
    <glyph glyph-name="itilde" unicode="&#x129;" horiz-adv-x="284" 
d="M59 0v499h167v-499h-167zM350 738q0 -81 -30.5 -119.5t-92.5 -38.5q-31 0 -55 12.5t-43.5 27.5t-37 27.5t-34.5 12.5q-6 0 -13 -1.5t-12.5 -9t-9.5 -23t-4 -42.5h-83q0 82 30 120.5t92 38.5q31 0 55 -13t43.5 -28t37 -28t34.5 -13q6 0 13 2t13 9.5t10 23t4 42.5h83z" />
    <glyph glyph-name="Imacron" unicode="&#x12a;" horiz-adv-x="332" 
d="M75 0v680h182v-680h-182zM-2 757v82h337v-82h-337z" />
    <glyph glyph-name="imacron" unicode="&#x12b;" horiz-adv-x="284" 
d="M59 0v499h167v-499h-167zM-26 584v82h337v-82h-337z" />
    <glyph glyph-name="Ibreve" unicode="&#x12c;" horiz-adv-x="332" 
d="M75 0v680h182v-680h-182zM331 921q0 -38 -2.5 -69t-18 -53t-49 -34t-95.5 -12t-95 12t-48.5 34t-18 53t-2.5 69h82q0 -30 2 -47.5t10.5 -26.5t24.5 -11.5t45 -2.5t45.5 2.5t25 11.5t10.5 26.5t2 47.5h82z" />
    <glyph glyph-name="ibreve" unicode="&#x12d;" horiz-adv-x="284" 
d="M59 0v499h167v-499h-167zM307 748q0 -38 -2.5 -69t-18 -53t-49 -34t-95.5 -12t-95 12t-48.5 34t-18 53t-2.5 69h82q0 -30 2 -47.5t10.5 -26.5t24.5 -11.5t45 -2.5t45.5 2.5t25 11.5t10.5 26.5t2 47.5h82z" />
    <glyph glyph-name="Iogonek" unicode="&#x12e;" horiz-adv-x="332" 
d="M268 -186q-13 -7 -29 -11q-14 -5 -33.5 -8t-44.5 -3q-63 0 -88 23t-25 74q0 25 5 44.5t12 33t13.5 22t9.5 11.5h-13v680h182v-680h-79q-2 -2 -7.5 -8.5t-11 -17t-10 -25t-4.5 -33.5q0 -16 1.5 -25.5t7 -15t14.5 -7.5t24 -2q36 0 56 3q11 2 20 4v-59v0z" />
    <glyph glyph-name="iogonek" unicode="&#x12f;" horiz-adv-x="284" 
d="M244 -186q-13 -7 -29 -11q-14 -5 -33.5 -8t-44.5 -3q-63 0 -88 23t-25 74q0 25 5 44.5t12 33t13.5 22t9.5 11.5h-5v499h167v-499h-72q-2 -2 -7.5 -8.5t-11 -17t-10 -25t-4.5 -33.5q0 -16 1.5 -25.5t7 -15t14.5 -7.5t24 -2q36 0 56 3q11 2 20 4v-59zM59 584v141h167v-141
h-167z" />
    <glyph glyph-name="Idotaccent" unicode="&#x130;" horiz-adv-x="332" 
d="M75 0v680h182v-680h-182zM83 757v141h166v-141h-166z" />
    <glyph glyph-name="dotlessi" unicode="&#x131;" horiz-adv-x="284" 
d="M59 0v499h167v-499h-167z" />
    <glyph glyph-name="Jcircumflex" unicode="&#x134;" horiz-adv-x="576" 
d="M502 227q0 -60 -5.5 -105t-29 -75t-71 -45t-132.5 -15q-56 0 -99.5 3t-74.5 8q-36 4 -63 11v110q19 -2 44 -4q21 -2 51.5 -3t68.5 -1q41 0 66 3t39 14.5t18.5 34.5t4.5 64v453h183v-453zM485 757l-76 104l-76 -104h-111l112 164h151l112 -164h-112z" />
    <glyph glyph-name="jcircumflex" unicode="&#x135;" horiz-adv-x="380" 
d="M320 -60q0 -50 -9 -84.5t-30 -55.5t-55 -30.5t-83 -9.5q-42 0 -74.5 3t-55.5 8q-27 5 -47 12v79q13 -2 29 -3q27 -3 77 -3q26 0 42 3.5t25 12.5t12 25.5t3 42.5v559h166v-559zM312 584l-76 104l-76 -104h-111l112 164h151l112 -164h-112z" />
    <glyph glyph-name="Kcommaaccent" unicode="&#x136;" horiz-adv-x="772" 
d="M539 0l-191 285h-91v-285h-182v680h182v-271h91l184 271h207l-230 -333l242 -347h-212zM389 -326h-88l56 112h-30v129h125v-129z" />
    <glyph glyph-name="kcommaaccent" unicode="&#x137;" horiz-adv-x="640" 
d="M431 0l-137 206h-68v-206h-167v725h167v-423h68l132 197h188l-169 -245l176 -254h-190zM324 -326h-88l56 112h-30v129h125v-129z" />
    <glyph glyph-name="kgreenlandic" unicode="&#x138;" horiz-adv-x="640" 
d="M431 0l-137 206h-68v-206h-167v499h167v-197h68l132 197h188l-169 -245l176 -254h-190z" />
    <glyph glyph-name="Lacute" unicode="&#x139;" horiz-adv-x="635" 
d="M75 0v680h182v-556h351v-124h-533zM208 757h-121l112 164h127z" />
    <glyph glyph-name="lacute" unicode="&#x13a;" horiz-adv-x="284" 
d="M59 0v725h167v-725h-167zM184 797h-121l112 164h127z" />
    <glyph glyph-name="Lcommaaccent" unicode="&#x13b;" horiz-adv-x="635" 
d="M75 0v680h182v-556h351v-124h-533zM341 -326h-88l56 112h-30v129h125v-129z" />
    <glyph glyph-name="lcommaaccent" unicode="&#x13c;" horiz-adv-x="284" 
d="M59 0v725h167v-725h-167zM142 -326h-88l56 112h-30v129h125v-129z" />
    <glyph glyph-name="Lcaron" unicode="&#x13d;" horiz-adv-x="635" 
d="M75 0v680h182v-556h351v-124h-533zM430 439h-88l56 112h-30v129h125v-129z" />
    <glyph glyph-name="lcaron" unicode="&#x13e;" horiz-adv-x="442" 
d="M59 0v725h167v-725h-167zM373 485h-88l56 112h-30v129h125v-129z" />
    <glyph glyph-name="Ldot" unicode="&#x13f;" horiz-adv-x="635" 
d="M413 281v141h142v-141h-142zM75 0v680h182v-556h351v-124h-533z" />
    <glyph glyph-name="ldot" unicode="&#x140;" horiz-adv-x="438" 
d="M290 281v142h142v-142h-142zM59 0v725h167v-725h-167z" />
    <glyph glyph-name="Lslash" unicode="&#x141;" horiz-adv-x="667" 
d="M107 0v254l-101 -38v82l101 38v344h182v-275l217 83v-83l-217 -83v-198h351v-124h-533z" />
    <glyph glyph-name="lslash" unicode="&#x142;" horiz-adv-x="380" 
d="M104 0v306l-98 -35v75l98 35v344h167v-285l103 37v-75l-103 -37v-365h-167z" />
    <glyph glyph-name="Nacute" unicode="&#x143;" horiz-adv-x="824" 
d="M497 0l-256 521v-521h-166v680h252l256 -521v521h166v-680h-252zM453 757h-121l112 164h127z" />
    <glyph glyph-name="nacute" unicode="&#x144;" 
d="M422 0v333q0 31 -5.5 48t-17.5 24.5t-30.5 9t-44.5 1.5q-23 0 -41 -1t-31 -2q-15 -1 -26 -2v-411h-167v490q31 6 71 10q35 4 83.5 7.5t110.5 3.5q67 0 117 -4.5t83 -22.5t49 -53.5t16 -97.5v-333h-167zM366 584h-121l112 164h127z" />
    <glyph glyph-name="Ncommaaccent" unicode="&#x145;" horiz-adv-x="824" 
d="M497 0l-256 521v-521h-166v680h252l256 -521v521h166v-680h-252zM411 -326h-88l56 112h-30v129h125v-129z" />
    <glyph glyph-name="ncommaaccent" unicode="&#x146;" 
d="M422 0v333q0 31 -5.5 48t-17.5 24.5t-30.5 9t-44.5 1.5q-23 0 -41 -1t-31 -2q-15 -1 -26 -2v-411h-167v490q31 6 71 10q35 4 83.5 7.5t110.5 3.5q67 0 117 -4.5t83 -22.5t49 -53.5t16 -97.5v-333h-167zM324 -326h-88l56 112h-30v129h125v-129z" />
    <glyph glyph-name="Ncaron" unicode="&#x147;" horiz-adv-x="824" 
d="M497 0l-256 521v-521h-166v680h252l256 -521v521h166v-680h-252zM487 757h-151l-112 164h111l76 -105l76 105h112z" />
    <glyph glyph-name="ncaron" unicode="&#x148;" 
d="M422 0v333q0 31 -5.5 48t-17.5 24.5t-30.5 9t-44.5 1.5q-23 0 -41 -1t-31 -2q-15 -1 -26 -2v-411h-167v490q31 6 71 10q35 4 83.5 7.5t110.5 3.5q67 0 117 -4.5t83 -22.5t49 -53.5t16 -97.5v-333h-167zM400 584h-151l-112 164h111l76 -105l76 105h112z" />
    <glyph glyph-name="Eng" unicode="&#x14a;" horiz-adv-x="824" 
d="M749 -60q0 -50 -9 -84.5t-30 -55.5t-55 -30.5t-83 -9.5q-42 0 -74.5 3t-55.5 8q-27 5 -48 12v79q12 -2 29 -3q27 -3 78 -3q26 0 42 3.5t24.5 12.5t11.5 25.5t3 42.5v60h-85l-256 521v-521h-166v680h252l256 -521v521h166v-740v0z" />
    <glyph glyph-name="eng" unicode="&#x14b;" 
d="M589 -60q0 -50 -9 -84.5t-30 -55.5t-55 -30.5t-83 -9.5q-42 0 -74.5 3t-55.5 8q-27 5 -48 12v79q12 -2 28 -3q27 -3 78 -3q27 0 43 3.5t24.5 12.5t11.5 25.5t3 42.5v393q0 31 -5.5 48t-17.5 24.5t-30.5 9t-44.5 1.5q-23 0 -41 -1t-31 -2q-15 -1 -26 -2v-411h-167v490
q31 6 71 10q35 4 83.5 7.5t110.5 3.5q67 0 117 -4.5t83 -22.5t49 -53.5t16 -97.5v-393v0z" />
    <glyph glyph-name="Omacron" unicode="&#x14c;" horiz-adv-x="777" 
d="M714 333q0 -78 -3 -133.5t-14 -94t-32 -62t-57.5 -36t-90 -16.5t-129.5 -4q-75 0 -128.5 4t-90 16.5t-57.5 36t-32 62t-14 94t-3 133.5q0 81 4.5 139.5t17.5 98.5t35.5 64t58.5 37t87.5 17t121.5 4q106 0 170.5 -10.5t99 -47.5t45.5 -108.5t11 -193.5zM526 338
q0 87 -3.5 133.5t-17 68.5t-40 25.5t-72.5 3.5h-8q-47 0 -73.5 -3.5t-39.5 -25.5t-16.5 -68.5t-3.5 -133.5v-9q0 -82 2.5 -126t15 -64.5t39.5 -24t76 -3.5h8q49 0 76 3.5t39.5 24t15 64.5t2.5 126v9zM221 757v82h337v-82h-337z" />
    <glyph glyph-name="omacron" unicode="&#x14d;" 
d="M600 245q0 -84 -7.5 -134.5t-35 -78t-82.5 -36.5t-151 -9t-151 9t-83 36.5t-35.5 78t-7.5 134.5q0 87 9.5 139.5t39 80.5t84 37t144.5 9t144.5 -9t83.5 -37t38.5 -80.5t9.5 -139.5zM427 250q0 62 -2.5 96t-12 49.5t-29.5 18t-54 2.5h-9q-35 0 -55 -2.5t-30.5 -18
t-13 -49.5t-2.5 -96v-9q0 -59 2 -91t11.5 -47t30 -17.5t57.5 -2.5h9q36 0 56 2.5t29 17.5t11 47t2 91v9zM156 584v82h337v-82h-337z" />
    <glyph glyph-name="Obreve" unicode="&#x14e;" horiz-adv-x="777" 
d="M714 333q0 -78 -3 -133.5t-14 -94t-32 -62t-57.5 -36t-90 -16.5t-129.5 -4q-75 0 -128.5 4t-90 16.5t-57.5 36t-32 62t-14 94t-3 133.5q0 81 4.5 139.5t17.5 98.5t35.5 64t58.5 37t87.5 17t121.5 4q106 0 170.5 -10.5t99 -47.5t45.5 -108.5t11 -193.5zM526 338
q0 87 -3.5 133.5t-17 68.5t-40 25.5t-72.5 3.5h-8q-47 0 -73.5 -3.5t-39.5 -25.5t-16.5 -68.5t-3.5 -133.5v-9q0 -82 2.5 -126t15 -64.5t39.5 -24t76 -3.5h8q49 0 76 3.5t39.5 24t15 64.5t2.5 126v9zM554 921q0 -38 -2.5 -69t-18 -53t-49 -34t-95.5 -12t-95 12t-48.5 34
t-18 53t-2.5 69h82q0 -30 2 -47.5t10.5 -26.5t24.5 -11.5t45 -2.5t45.5 2.5t25 11.5t10.5 26.5t2 47.5h82z" />
    <glyph glyph-name="obreve" unicode="&#x14f;" 
d="M600 245q0 -84 -7.5 -134.5t-35 -78t-82.5 -36.5t-151 -9t-151 9t-83 36.5t-35.5 78t-7.5 134.5q0 87 9.5 139.5t39 80.5t84 37t144.5 9t144.5 -9t83.5 -37t38.5 -80.5t9.5 -139.5zM427 250q0 62 -2.5 96t-12 49.5t-29.5 18t-54 2.5h-9q-35 0 -55 -2.5t-30.5 -18
t-13 -49.5t-2.5 -96v-9q0 -59 2 -91t11.5 -47t30 -17.5t57.5 -2.5h9q36 0 56 2.5t29 17.5t11 47t2 91v9zM489 748q0 -38 -2.5 -69t-18 -53t-49 -34t-95.5 -12t-95 12t-48.5 34t-18 53t-2.5 69h82q0 -30 2 -47.5t10.5 -26.5t24.5 -11.5t45 -2.5t45.5 2.5t25 11.5t10.5 26.5
t2 47.5h82z" />
    <glyph glyph-name="Ohungarumlaut" unicode="&#x150;" horiz-adv-x="777" 
d="M714 333q0 -78 -3 -133.5t-14 -94t-32 -62t-57.5 -36t-90 -16.5t-129.5 -4q-75 0 -128.5 4t-90 16.5t-57.5 36t-32 62t-14 94t-3 133.5q0 81 4.5 139.5t17.5 98.5t35.5 64t58.5 37t87.5 17t121.5 4q106 0 170.5 -10.5t99 -47.5t45.5 -108.5t11 -193.5zM526 338
q0 87 -3.5 133.5t-17 68.5t-40 25.5t-72.5 3.5h-8q-47 0 -73.5 -3.5t-39.5 -25.5t-16.5 -68.5t-3.5 -133.5v-9q0 -82 2.5 -126t15 -64.5t39.5 -24t76 -3.5h8q49 0 76 3.5t39.5 24t15 64.5t2.5 126v9zM316 757h-111l112 164h118zM534 757h-112l113 164h117z" />
    <glyph glyph-name="ohungarumlaut" unicode="&#x151;" 
d="M600 245q0 -84 -7.5 -134.5t-35 -78t-82.5 -36.5t-151 -9t-151 9t-83 36.5t-35.5 78t-7.5 134.5q0 87 9.5 139.5t39 80.5t84 37t144.5 9t144.5 -9t83.5 -37t38.5 -80.5t9.5 -139.5zM427 250q0 62 -2.5 96t-12 49.5t-29.5 18t-54 2.5h-9q-35 0 -55 -2.5t-30.5 -18
t-13 -49.5t-2.5 -96v-9q0 -59 2 -91t11.5 -47t30 -17.5t57.5 -2.5h9q36 0 56 2.5t29 17.5t11 47t2 91v9zM251 584h-111l112 164h118zM469 584h-112l113 164h117z" />
    <glyph glyph-name="OE" unicode="&#x152;" horiz-adv-x="1056" 
d="M306 0q-52 0 -90 4.5t-65 17.5t-44.5 36t-27 59.5t-13 88.5t-3.5 123q0 115 11.5 184t40 106t77 49t123.5 12h684v-114h-338v-167h308v-105h-308v-180h345v-114h-700zM479 557h-117q-35 0 -56.5 -3.5t-33.5 -25t-16 -68.5t-4 -133q0 -76 3 -117.5t14 -60.5t31.5 -22
t55.5 -3h123v433z" />
    <glyph glyph-name="oe" unicode="&#x153;" horiz-adv-x="1003" 
d="M584 210q0 -49 2 -75.5t12.5 -39.5t32 -15.5t59.5 -2.5q55 -1 101 0.5t78 3.5q38 3 68 6v-78q-30 -7 -70 -11q-34 -5 -82.5 -8t-109.5 -3q-63 0 -105 6t-69 24q-28 -18 -71.5 -24t-109.5 -6q-93 0 -147.5 9t-82.5 36.5t-35.5 78t-7.5 134.5q0 87 9.5 139.5t39 80.5t83 37
t141.5 9q66 0 109.5 -7t72.5 -27q29 20 72.5 27t109.5 7q88 0 141.5 -9t82.5 -37t38.5 -80.5t9.5 -139.5v-35h-372zM419 250q0 62 -2.5 96t-12.5 49.5t-28.5 18t-51.5 2.5h-9q-33 0 -52 -2.5t-28.5 -18t-12.5 -49.5t-3 -96v-9q0 -59 2 -91t11.5 -47t28.5 -17.5t54 -2.5h9
q34 0 53 2.5t28.5 17.5t11.5 47t2 91v9zM783 291q0 49 -3 76t-13 39.5t-29.5 14.5t-53.5 2t-53.5 -2t-30 -14.5t-13.5 -39.5t-3 -76h199z" />
    <glyph glyph-name="Racute" unicode="&#x154;" horiz-adv-x="763" 
d="M522 0l-96 264h-169v-264h-182v680h370q58 0 105 -5t79.5 -26t50 -64.5t17.5 -119.5q0 -89 -23.5 -131.5t-72.5 -56.5l120 -277h-199zM508 468q0 37 -4 57t-16 29t-33 10.5t-55 1.5h-143v-188h146q34 0 54.5 1.5t32 10t15 26.5t3.5 52zM421 757h-121l112 164h127z" />
    <glyph glyph-name="racute" unicode="&#x155;" horiz-adv-x="471" 
d="M455 408q-16 2 -35 4q-17 2 -41 3t-54 1q-23 0 -41 -1t-31 -2q-15 -1 -27 -2v-411h-167v490q23 6 53 10q26 4 62.5 7.5t82.5 3.5t82.5 -3.5t62.5 -7.5q30 -4 53 -10v-82zM299 584h-121l112 164h127z" />
    <glyph glyph-name="Rcommaaccent" unicode="&#x156;" horiz-adv-x="763" 
d="M522 0l-96 264h-169v-264h-182v680h370q58 0 105 -5t79.5 -26t50 -64.5t17.5 -119.5q0 -89 -23.5 -131.5t-72.5 -56.5l120 -277h-199zM508 468q0 37 -4 57t-16 29t-33 10.5t-55 1.5h-143v-188h146q34 0 54.5 1.5t32 10t15 26.5t3.5 52zM379 -326h-88l56 112h-30v129h125
v-129z" />
    <glyph glyph-name="rcommaaccent" unicode="&#x157;" horiz-adv-x="471" 
d="M455 408q-16 2 -35 4q-17 2 -41 3t-54 1q-23 0 -41 -1t-31 -2q-15 -1 -27 -2v-411h-167v490q23 6 53 10q26 4 62.5 7.5t82.5 3.5t82.5 -3.5t62.5 -7.5q30 -4 53 -10v-82zM142 -326h-88l56 112h-30v129h125v-129z" />
    <glyph glyph-name="Rcaron" unicode="&#x158;" horiz-adv-x="763" 
d="M522 0l-96 264h-169v-264h-182v680h370q58 0 105 -5t79.5 -26t50 -64.5t17.5 -119.5q0 -89 -23.5 -131.5t-72.5 -56.5l120 -277h-199zM508 468q0 37 -4 57t-16 29t-33 10.5t-55 1.5h-143v-188h146q34 0 54.5 1.5t32 10t15 26.5t3.5 52zM455 757h-151l-112 164h111
l76 -105l76 105h112z" />
    <glyph glyph-name="rcaron" unicode="&#x159;" horiz-adv-x="471" 
d="M455 408q-16 2 -35 4q-17 2 -41 3t-54 1q-23 0 -41 -1t-31 -2q-15 -1 -27 -2v-411h-167v490q23 6 53 10q26 4 62.5 7.5t82.5 3.5t82.5 -3.5t62.5 -7.5q30 -4 53 -10v-82zM333 584h-151l-112 164h111l76 -105l76 105h112z" />
    <glyph glyph-name="Sacute" unicode="&#x15a;" horiz-adv-x="671" 
d="M630 190q0 -71 -17 -112t-52.5 -61t-91 -25t-132.5 -5q-68 0 -121.5 3t-91.5 8q-44 4 -78 11v102q26 -3 60 -5q29 -2 70 -3.5t94 -1.5q56 0 89.5 1.5t51.5 10t24 26t6 50.5q0 25 -1 40t-7 24t-19 14t-37 9l-161 28q-63 11 -97.5 28.5t-50.5 42t-18.5 55.5t-2.5 70
q0 67 21.5 106t59 58t88 24t109.5 5q64 0 115.5 -3.5t87.5 -7.5q42 -4 74 -10v-104q-24 2 -56 5q-27 2 -65.5 4t-86.5 2q-51 0 -82 -1t-48.5 -8.5t-23 -23t-5.5 -43.5q0 -22 1 -35.5t7 -21.5t19.5 -12.5t37.5 -8.5l161 -27q63 -11 97.5 -28.5t50.5 -42.5t18.5 -59t2.5 -78z
M373 757h-121l112 164h127z" />
    <glyph glyph-name="sacute" unicode="&#x15b;" horiz-adv-x="585" 
d="M546 139q0 -52 -14 -82.5t-44 -46t-78 -19.5t-116 -4q-59 0 -105.5 3t-78.5 8q-38 4 -67 11v76q22 -3 51 -5q25 -2 59 -3t79 -1q46 0 74 1t43 6.5t20 18t5 35.5q0 18 -1 29t-5.5 17.5t-14.5 9.5t-29 6l-135 17q-54 7 -83 20.5t-42.5 32.5t-15.5 43.5t-2 53.5
q0 50 18.5 79t51 43.5t75.5 18.5t91 4q55 0 98.5 -3.5t74.5 -7.5q36 -4 64 -10v-77q-20 2 -46 5q-23 2 -54.5 3.5t-71.5 1.5q-41 0 -66.5 -1t-39.5 -6t-19 -16t-5 -32q0 -16 1 -25.5t5.5 -15t15 -8.5t29.5 -6l134 -18q54 -7 83 -19t42.5 -31t16 -45.5t2.5 -60.5zM330 584
h-121l112 164h127z" />
    <glyph glyph-name="Scircumflex" unicode="&#x15c;" horiz-adv-x="671" 
d="M630 190q0 -71 -17 -112t-52.5 -61t-91 -25t-132.5 -5q-68 0 -121.5 3t-91.5 8q-44 4 -78 11v102q26 -3 60 -5q29 -2 70 -3.5t94 -1.5q56 0 89.5 1.5t51.5 10t24 26t6 50.5q0 25 -1 40t-7 24t-19 14t-37 9l-161 28q-63 11 -97.5 28.5t-50.5 42t-18.5 55.5t-2.5 70
q0 67 21.5 106t59 58t88 24t109.5 5q64 0 115.5 -3.5t87.5 -7.5q42 -4 74 -10v-104q-24 2 -56 5q-27 2 -65.5 4t-86.5 2q-51 0 -82 -1t-48.5 -8.5t-23 -23t-5.5 -43.5q0 -22 1 -35.5t7 -21.5t19.5 -12.5t37.5 -8.5l161 -27q63 -11 97.5 -28.5t50.5 -42.5t18.5 -59t2.5 -78z
M407 757l-76 104l-76 -104h-111l112 164h151l112 -164h-112z" />
    <glyph glyph-name="scircumflex" unicode="&#x15d;" horiz-adv-x="585" 
d="M546 139q0 -52 -14 -82.5t-44 -46t-78 -19.5t-116 -4q-59 0 -105.5 3t-78.5 8q-38 4 -67 11v76q22 -3 51 -5q25 -2 59 -3t79 -1q46 0 74 1t43 6.5t20 18t5 35.5q0 18 -1 29t-5.5 17.5t-14.5 9.5t-29 6l-135 17q-54 7 -83 20.5t-42.5 32.5t-15.5 43.5t-2 53.5
q0 50 18.5 79t51 43.5t75.5 18.5t91 4q55 0 98.5 -3.5t74.5 -7.5q36 -4 64 -10v-77q-20 2 -46 5q-23 2 -54.5 3.5t-71.5 1.5q-41 0 -66.5 -1t-39.5 -6t-19 -16t-5 -32q0 -16 1 -25.5t5.5 -15t15 -8.5t29.5 -6l134 -18q54 -7 83 -19t42.5 -31t16 -45.5t2.5 -60.5zM364 584
l-76 104l-76 -104h-111l112 164h151l112 -164h-112z" />
    <glyph glyph-name="Scedilla" unicode="&#x15e;" horiz-adv-x="671" 
d="M475 -142q0 -27 -5.5 -44t-19.5 -26.5t-37.5 -13.5t-59.5 -4q-29 0 -51 3t-38 7q-18 4 -33 11v46q10 -2 24 -4q24 -3 67 -3q20 0 31 0.5t16.5 3t7 8t1.5 16.5q0 20 -3.5 23t-22.5 3h-79v104q-54 2 -96 5t-71 7q-34 4 -60 9v102q26 -3 60 -5q29 -2 70 -3.5t94 -1.5
q56 0 89.5 1.5t51.5 10t24 26t6 50.5q0 25 -1 40t-7 24t-19 14t-37 9l-161 28q-63 11 -97.5 28.5t-50.5 42t-18.5 55.5t-2.5 70q0 67 21.5 106t59 58t88 24t109.5 5q64 0 115.5 -3.5t87.5 -7.5q42 -4 74 -10v-104q-24 2 -56 5q-27 2 -65.5 4t-86.5 2q-51 0 -82 -1
t-48.5 -8.5t-23 -23t-5.5 -43.5q0 -22 1 -35.5t7 -21.5t19.5 -12.5t37.5 -8.5l161 -27q63 -11 97.5 -28.5t50.5 -42.5t18.5 -59t2.5 -78q0 -69 -15.5 -109t-48.5 -60.5t-84 -26.5t-121 -7v-42h26q22 0 38.5 -3t27.5 -12t16.5 -26.5t5.5 -45.5z" />
    <glyph glyph-name="scedilla" unicode="&#x15f;" horiz-adv-x="585" 
d="M432 -142q0 -27 -5.5 -44t-19.5 -26.5t-37.5 -13.5t-59.5 -4q-29 0 -51 3t-38 7q-18 4 -32 11v46q10 -2 24 -4q24 -3 67 -3q20 0 31 0.5t16.5 3t6.5 8t1 16.5q0 20 -3.5 23t-22.5 3h-79v105q-45 2 -79.5 4.5t-58.5 6.5q-28 4 -49 9v76q22 -3 51 -5q25 -2 59 -3t79 -1
q46 0 74 1t43 6.5t20 18t5 35.5q0 18 -1 29t-5.5 17.5t-14.5 9.5t-29 6l-135 17q-54 7 -83 20.5t-42.5 32.5t-15.5 43.5t-2 53.5q0 50 18.5 79t51 43.5t75.5 18.5t91 4q55 0 98.5 -3.5t74.5 -7.5q36 -4 64 -10v-77q-20 2 -46 5q-23 2 -54.5 3.5t-71.5 1.5q-41 0 -66.5 -1
t-39.5 -6t-19 -16t-5 -32q0 -16 1 -25.5t5.5 -15t15 -8.5t29.5 -6l134 -18q54 -7 83 -19t42.5 -31t16 -45.5t2.5 -60.5q0 -50 -13 -79.5t-40.5 -45.5t-70.5 -21t-103 -6v-42h26q22 0 38 -3t27 -12t16.5 -26.5t5.5 -45.5z" />
    <glyph glyph-name="Scaron" unicode="&#x160;" horiz-adv-x="671" 
d="M630 190q0 -71 -17 -112t-52.5 -61t-91 -25t-132.5 -5q-68 0 -121.5 3t-91.5 8q-44 4 -78 11v102q26 -3 60 -5q29 -2 70 -3.5t94 -1.5q56 0 89.5 1.5t51.5 10t24 26t6 50.5q0 25 -1 40t-7 24t-19 14t-37 9l-161 28q-63 11 -97.5 28.5t-50.5 42t-18.5 55.5t-2.5 70
q0 67 21.5 106t59 58t88 24t109.5 5q64 0 115.5 -3.5t87.5 -7.5q42 -4 74 -10v-104q-24 2 -56 5q-27 2 -65.5 4t-86.5 2q-51 0 -82 -1t-48.5 -8.5t-23 -23t-5.5 -43.5q0 -22 1 -35.5t7 -21.5t19.5 -12.5t37.5 -8.5l161 -27q63 -11 97.5 -28.5t50.5 -42.5t18.5 -59t2.5 -78z
M407 757h-151l-112 164h111l76 -105l76 105h112z" />
    <glyph glyph-name="scaron" unicode="&#x161;" horiz-adv-x="585" 
d="M546 139q0 -52 -14 -82.5t-44 -46t-78 -19.5t-116 -4q-59 0 -105.5 3t-78.5 8q-38 4 -67 11v76q22 -3 51 -5q25 -2 59 -3t79 -1q46 0 74 1t43 6.5t20 18t5 35.5q0 18 -1 29t-5.5 17.5t-14.5 9.5t-29 6l-135 17q-54 7 -83 20.5t-42.5 32.5t-15.5 43.5t-2 53.5
q0 50 18.5 79t51 43.5t75.5 18.5t91 4q55 0 98.5 -3.5t74.5 -7.5q36 -4 64 -10v-77q-20 2 -46 5q-23 2 -54.5 3.5t-71.5 1.5q-41 0 -66.5 -1t-39.5 -6t-19 -16t-5 -32q0 -16 1 -25.5t5.5 -15t15 -8.5t29.5 -6l134 -18q54 -7 83 -19t42.5 -31t16 -45.5t2.5 -60.5zM364 584
h-151l-112 164h111l76 -105l76 105h112z" />
    <glyph glyph-name="Tcommaaccent" unicode="&#x162;" horiz-adv-x="660" 
d="M422 557v-557h-183v557h-212v123h606v-123h-211zM329 -326h-88l56 112h-30v129h125v-129z" />
    <glyph glyph-name="tcommaaccent" unicode="&#x163;" horiz-adv-x="522" 
d="M500 9q-22 -7 -51 -11q-25 -5 -60 -8t-80 -3q-54 0 -90.5 9t-58 30t-31 55.5t-9.5 84.5v237h-100v96h100v170h166v-170h184v-96h-184v-237q0 -27 2 -43.5t11 -25.5t27.5 -11.5t52.5 -2.5q28 0 50 1t38 3q18 2 33 4v-82zM309 -326h-88l56 112h-30v129h125v-129z" />
    <glyph glyph-name="Tcaron" unicode="&#x164;" horiz-adv-x="660" 
d="M422 557v-557h-183v557h-212v123h606v-123h-211zM405 757h-151l-112 164h111l76 -105l76 105h112z" />
    <glyph glyph-name="tcaron" unicode="&#x165;" horiz-adv-x="666" 
d="M500 9q-22 -7 -51 -11q-25 -5 -60 -8t-80 -3q-54 0 -90.5 9t-58 30t-31 55.5t-9.5 84.5v237h-100v96h100v170h166v-170h184v-96h-184v-237q0 -27 2 -43.5t11 -25.5t27.5 -11.5t52.5 -2.5q28 0 50 1t38 3q18 2 33 4v-82zM598 485h-88l56 112h-30v129h125v-129z" />
    <glyph glyph-name="Tbar" unicode="&#x166;" horiz-adv-x="660" 
d="M422 557v-198h146v-76h-146v-283h-183v283h-147v76h147v198h-212v123h606v-123h-211z" />
    <glyph glyph-name="tbar" unicode="&#x167;" horiz-adv-x="522" 
d="M500 9q-22 -7 -51 -11q-25 -5 -60 -8t-80 -3q-54 0 -90.5 9t-58 30t-31 55.5t-9.5 84.5v53h-90v66h90v118h-100v96h100v170h166v-170h184v-96h-184v-118h145v-66h-145v-53q0 -27 2 -43.5t11 -25.5t27.5 -11.5t52.5 -2.5q28 0 50 1t38 3q18 2 33 4v-82v0z" />
    <glyph glyph-name="Utilde" unicode="&#x168;" horiz-adv-x="777" 
d="M703 227q0 -75 -8.5 -121.5t-40 -73t-94.5 -36t-172 -9.5t-171.5 9.5t-94 36t-39.5 73t-8 121.5v453h182v-453q0 -44 4 -67.5t17.5 -34t39.5 -12.5t70 -2q45 0 71 2t39.5 12.5t17.5 34t4 67.5v453h183v-453zM597 911q0 -81 -30.5 -119.5t-92.5 -38.5q-31 0 -55 12.5
t-43.5 27.5t-37 27.5t-34.5 12.5q-6 0 -13 -1.5t-12.5 -9t-9.5 -23t-4 -42.5h-83q0 82 30 120.5t92 38.5q31 0 55 -13t43.5 -28t37 -28t34.5 -13q6 0 13 2t13 9.5t10 23t4 42.5h83z" />
    <glyph glyph-name="utilde" unicode="&#x169;" 
d="M589 9q-31 -7 -71 -11q-35 -5 -83.5 -8t-110.5 -3q-78 0 -129 5.5t-81.5 24t-42.5 54t-12 95.5v333h167v-333q0 -31 5 -48t16.5 -24.5t30 -9t46.5 -1.5q23 0 41 0.5t31 1.5q15 1 26 3v411h167v-490zM532 738q0 -81 -30.5 -119.5t-92.5 -38.5q-31 0 -55 12.5t-43.5 27.5
t-37 27.5t-34.5 12.5q-6 0 -13 -1.5t-12.5 -9t-9.5 -23t-4 -42.5h-83q0 82 30 120.5t92 38.5q31 0 55 -13t43.5 -28t37 -28t34.5 -13q6 0 13 2t13 9.5t10 23t4 42.5h83z" />
    <glyph glyph-name="Umacron" unicode="&#x16a;" horiz-adv-x="777" 
d="M703 227q0 -75 -8.5 -121.5t-40 -73t-94.5 -36t-172 -9.5t-171.5 9.5t-94 36t-39.5 73t-8 121.5v453h182v-453q0 -44 4 -67.5t17.5 -34t39.5 -12.5t70 -2q45 0 71 2t39.5 12.5t17.5 34t4 67.5v453h183v-453zM221 757v82h337v-82h-337z" />
    <glyph glyph-name="umacron" unicode="&#x16b;" 
d="M589 9q-31 -7 -71 -11q-35 -5 -83.5 -8t-110.5 -3q-78 0 -129 5.5t-81.5 24t-42.5 54t-12 95.5v333h167v-333q0 -31 5 -48t16.5 -24.5t30 -9t46.5 -1.5q23 0 41 0.5t31 1.5q15 1 26 3v411h167v-490zM156 584v82h337v-82h-337z" />
    <glyph glyph-name="Ubreve" unicode="&#x16c;" horiz-adv-x="777" 
d="M703 227q0 -75 -8.5 -121.5t-40 -73t-94.5 -36t-172 -9.5t-171.5 9.5t-94 36t-39.5 73t-8 121.5v453h182v-453q0 -44 4 -67.5t17.5 -34t39.5 -12.5t70 -2q45 0 71 2t39.5 12.5t17.5 34t4 67.5v453h183v-453zM554 921q0 -38 -2.5 -69t-18 -53t-49 -34t-95.5 -12t-95 12
t-48.5 34t-18 53t-2.5 69h82q0 -30 2 -47.5t10.5 -26.5t24.5 -11.5t45 -2.5t45.5 2.5t25 11.5t10.5 26.5t2 47.5h82z" />
    <glyph glyph-name="ubreve" unicode="&#x16d;" 
d="M589 9q-31 -7 -71 -11q-35 -5 -83.5 -8t-110.5 -3q-78 0 -129 5.5t-81.5 24t-42.5 54t-12 95.5v333h167v-333q0 -31 5 -48t16.5 -24.5t30 -9t46.5 -1.5q23 0 41 0.5t31 1.5q15 1 26 3v411h167v-490zM489 748q0 -38 -2.5 -69t-18 -53t-49 -34t-95.5 -12t-95 12t-48.5 34
t-18 53t-2.5 69h82q0 -30 2 -47.5t10.5 -26.5t24.5 -11.5t45 -2.5t45.5 2.5t25 11.5t10.5 26.5t2 47.5h82z" />
    <glyph glyph-name="Uring" unicode="&#x16e;" horiz-adv-x="777" 
d="M703 227q0 -75 -8.5 -121.5t-40 -73t-94.5 -36t-172 -9.5t-171.5 9.5t-94 36t-39.5 73t-8 121.5v453h182v-453q0 -44 4 -67.5t17.5 -34t39.5 -12.5t70 -2q45 0 71 2t39.5 12.5t17.5 34t4 67.5v453h183v-453zM525 848q0 -30 -4.5 -49t-19 -29t-41 -13.5t-71.5 -3.5
t-71.5 3.5t-40.5 13.5t-18.5 29t-4.5 49q0 32 5.5 52t20.5 30.5t41.5 14t67.5 3.5q42 0 68.5 -3.5t41.5 -14t20.5 -30.5t5.5 -52zM440 848q0 15 -1 23t-5.5 12t-15 4.5t-29.5 0.5t-29 -0.5t-15 -4.5t-6 -12t-1 -23q0 -14 1 -21.5t6 -11t15 -4t29 -0.5t29.5 0.5t15 4t5.5 11
t1 21.5z" />
    <glyph glyph-name="uring" unicode="&#x16f;" 
d="M589 9q-31 -7 -71 -11q-35 -5 -83.5 -8t-110.5 -3q-78 0 -129 5.5t-81.5 24t-42.5 54t-12 95.5v333h167v-333q0 -31 5 -48t16.5 -24.5t30 -9t46.5 -1.5q23 0 41 0.5t31 1.5q15 1 26 3v411h167v-490zM460 675q0 -30 -4.5 -49t-19 -29t-41 -13.5t-71.5 -3.5t-71.5 3.5
t-40.5 13.5t-18.5 29t-4.5 49q0 32 5.5 52t20.5 30.5t41.5 14t67.5 3.5q42 0 68.5 -3.5t41.5 -14t20.5 -30.5t5.5 -52zM375 675q0 15 -1 23t-5.5 12t-15 4.5t-29.5 0.5t-29 -0.5t-15 -4.5t-6 -12t-1 -23q0 -14 1 -21.5t6 -11t15 -4t29 -0.5t29.5 0.5t15 4t5.5 11t1 21.5z
" />
    <glyph glyph-name="Uhungarumlaut" unicode="&#x170;" horiz-adv-x="777" 
d="M703 227q0 -75 -8.5 -121.5t-40 -73t-94.5 -36t-172 -9.5t-171.5 9.5t-94 36t-39.5 73t-8 121.5v453h182v-453q0 -44 4 -67.5t17.5 -34t39.5 -12.5t70 -2q45 0 71 2t39.5 12.5t17.5 34t4 67.5v453h183v-453zM316 757h-111l112 164h118zM534 757h-112l113 164h117z" />
    <glyph glyph-name="uhungarumlaut" unicode="&#x171;" 
d="M589 9q-31 -7 -71 -11q-35 -5 -83.5 -8t-110.5 -3q-78 0 -129 5.5t-81.5 24t-42.5 54t-12 95.5v333h167v-333q0 -31 5 -48t16.5 -24.5t30 -9t46.5 -1.5q23 0 41 0.5t31 1.5q15 1 26 3v411h167v-490zM251 584h-111l112 164h118zM469 584h-112l113 164h117z" />
    <glyph glyph-name="Uogonek" unicode="&#x172;" horiz-adv-x="777" 
d="M497 -186q-12 -7 -29 -11q-14 -5 -34 -8t-45 -3q-62 0 -87 23t-25 74q0 38 10 62.5t20 37.5q-80 3 -126 15.5t-69.5 39.5t-30 71.5t-6.5 111.5v453h182v-453q0 -44 4 -67.5t17.5 -34t39.5 -12.5t70 -2q45 0 71 2t39.5 12.5t17.5 34t4 67.5v453h183v-453q0 -74 -8 -120.5
t-39 -73t-92.5 -36.5t-167.5 -10q-8 -10 -15.5 -27t-7.5 -44q0 -32 9 -41t39 -9q35 0 55 3q11 2 21 4v-59v0z" />
    <glyph glyph-name="uogonek" unicode="&#x173;" 
d="M575 -186q-12 -7 -29 -11q-14 -5 -34 -8t-45 -3q-62 0 -87 23t-25 74q0 38 10 62t20 37q-15 0 -29.5 -0.5t-31.5 -0.5q-78 0 -129 5.5t-81.5 24t-42.5 54t-12 95.5v333h167v-333q0 -31 5 -48t16.5 -24.5t30 -9t46.5 -1.5q23 0 41 0.5t31 1.5q15 1 26 3v411h167v-490
q-13 -2 -30 -5q-14 -2 -34 -5t-46 -5q-8 -9 -18 -27.5t-10 -50.5t9 -41t39 -9q35 0 55 3q11 2 21 4v-59v0z" />
    <glyph glyph-name="Wcircumflex" unicode="&#x174;" horiz-adv-x="1063" 
d="M896 0h-253l-112 521l-112 -521h-254l-146 680h174l116 -556l117 556h211l117 -556l117 556h173zM607 757l-76 104l-76 -104h-111l112 164h151l112 -164h-112z" />
    <glyph glyph-name="wcircumflex" unicode="&#x175;" horiz-adv-x="931" 
d="M793 0h-239l-89 376l-88 -376h-240l-117 499h159l92 -403l93 403h205l92 -403l92 403h158zM541 584l-76 104l-76 -104h-111l112 164h151l112 -164h-112z" />
    <glyph glyph-name="Ycircumflex" unicode="&#x176;" horiz-adv-x="718" 
d="M484 271h-33v-271h-183v271h-33l-226 409h195l156 -285l156 285h194zM435 757l-76 104l-76 -104h-111l112 164h151l112 -164h-112z" />
    <glyph glyph-name="ycircumflex" unicode="&#x177;" horiz-adv-x="620" 
d="M424 -69q-19 -56 -38 -90t-41.5 -52t-49.5 -23.5t-61 -5.5q-45 0 -79.5 3t-58.5 8q-28 5 -50 12v81q15 -2 34 -4q17 -2 40.5 -3t53.5 -1q22 0 36 2t24 10.5t18 27t19 51.5l17 53h-111l-162 499h174l124 -403l125 403h170zM388 584l-76 104l-76 -104h-111l112 164h151
l112 -164h-112z" />
    <glyph glyph-name="Ydieresis" unicode="&#x178;" horiz-adv-x="718" 
d="M484 271h-33v-271h-183v271h-33l-226 409h195l156 -285l156 285h194zM172 757v125h138v-125h-138zM409 757v125h138v-125h-138z" />
    <glyph glyph-name="Zacute" unicode="&#x179;" horiz-adv-x="665" 
d="M46 0v124l345 433h-339v123h556v-123l-347 -433h363v-124h-578zM373 757h-121l112 164h127z" />
    <glyph glyph-name="zacute" unicode="&#x17a;" horiz-adv-x="581" 
d="M43 0v96l277 307h-271v96h477v-96l-277 -307h293v-96h-499zM331 584h-121l112 164h127z" />
    <glyph glyph-name="Zdotaccent" unicode="&#x17b;" horiz-adv-x="665" 
d="M46 0v124l345 433h-339v123h556v-123l-347 -433h363v-124h-578zM249 757v141h166v-141h-166z" />
    <glyph glyph-name="zdotaccent" unicode="&#x17c;" horiz-adv-x="581" 
d="M43 0v96l277 307h-271v96h477v-96l-277 -307h293v-96h-499zM206 584v141h166v-141h-166z" />
    <glyph glyph-name="Zcaron" unicode="&#x17d;" horiz-adv-x="665" 
d="M46 0v124l345 433h-339v123h556v-123l-347 -433h363v-124h-578zM407 757h-151l-112 164h111l76 -105l76 105h112z" />
    <glyph glyph-name="zcaron" unicode="&#x17e;" horiz-adv-x="581" 
d="M43 0v96l277 307h-271v96h477v-96l-277 -307h293v-96h-499zM365 584h-151l-112 164h111l76 -105l76 105h112z" />
    <glyph glyph-name="florin" unicode="&#x192;" horiz-adv-x="717" 
d="M692 636q-13 1 -31 3q-15 2 -35.5 3t-46.5 1q-24 0 -39.5 -3.5t-24.5 -12.5t-14.5 -25.5t-9.5 -42.5l-29 -167h167v-95h-184l-63 -357q-9 -50 -22.5 -84.5t-35 -55.5t-51.5 -30.5t-70 -9.5q-42 0 -74.5 3t-55.5 8q-27 5 -48 12v80q12 -2 28 -4q27 -3 78 -3q21 0 35 3.5
t23 12.5t14 25.5t10 42.5l63 357h-145v95h162l29 167q9 50 24 84t37 55t52.5 30.5t71.5 9.5q43 0 77 -3.5t58 -7.5q28 -5 50 -11v-80v0z" />
    <glyph glyph-name="Aringacute" unicode="&#x1fa;" horiz-adv-x="784" 
d="M584 0l-61 173h-265l-61 -173h-188l252 680h19q-15 7 -19.5 20.5t-4.5 36.5t5.5 37.5t20.5 22t41.5 10t68.5 2.5t68.5 -2.5t41.5 -10t20.5 -22t5.5 -37.5t-5 -36.5t-20 -20.5h20l252 -680h-191zM391 566l-98 -279h197zM442 737q0 11 -1 17t-5.5 8.5t-14.5 3t-29 0.5
t-29 -0.5t-15 -3t-6 -8.5t-1 -17q0 -10 1 -15.5t6 -8t15 -3t29 -0.5t29 0.5t14.5 3t5.5 8t1 15.5zM434 830h-122l113 117h127z" />
    <glyph glyph-name="aringacute" unicode="&#x1fb;" 
d="M460 613q0 -22 -4.5 -35.5t-19 -21t-41 -10t-71.5 -2.5t-71.5 2.5t-41 10t-18.5 21t-4 35.5q0 23 5.5 37.5t20.5 22.5t41.5 10.5t67.5 2.5q42 0 68.5 -2.5t41.5 -10.5t20.5 -22.5t5.5 -37.5zM374 613q0 11 -1 17t-5.5 9t-14.5 3.5t-29 0.5t-29 -0.5t-15 -3.5t-6 -9
t-1 -17q0 -10 1 -15.5t6 -8t15 -3t29 -0.5t29 0.5t14.5 3t5.5 8t1 15.5zM366 716h-122l113 118h127zM589 9q-32 -7 -73 -11q-35 -5 -84.5 -8t-112.5 -3q-54 0 -103.5 2.5t-87 18t-59.5 48.5t-22 94q0 57 14.5 88.5t41 45.5t64 16.5t83.5 2.5h172v30q0 31 -4.5 49t-16.5 26.5
t-32 11t-51 2.5q-54 1 -98 -0.5t-76 -3.5q-38 -3 -67 -6v78q30 6 69 10q33 4 80 7.5t107 3.5q62 0 110 -4.5t80.5 -22.5t49 -53.5t16.5 -97.5v-324zM422 221h-119q-24 0 -40 -1t-26 -8t-14 -21t-4 -41q0 -28 5.5 -43t18 -22t31.5 -8t46 -1q24 0 42.5 0.5t32.5 1.5q15 1 27 3
v140z" />
    <glyph glyph-name="AEacute" unicode="&#x1fc;" horiz-adv-x="1065" 
d="M490 0v173h-220l-70 -173h-191l284 680h717v-114h-337v-167h306v-105h-306v-180h343v-114h-526zM490 566h-66l-114 -279h180v279zM623 757h-121l112 164h127z" />
    <glyph glyph-name="aeacute" unicode="&#x1fd;" horiz-adv-x="998" 
d="M580 210q0 -49 2 -75.5t12 -39.5t31 -15.5t60 -2.5q55 -1 101 0.5t78 3.5q38 3 68 6v-78q-30 -7 -70 -11q-34 -5 -82.5 -8t-109.5 -3t-102 6t-67 23q-30 -19 -77 -24t-110 -5q-52 0 -100.5 2.5t-85.5 18t-59 48.5t-22 94q0 57 14.5 88.5t40.5 45.5t62.5 16.5t80.5 2.5
h167v30q0 31 -4.5 49t-16 26.5t-31 11t-48.5 2.5q-52 1 -95 -0.5t-74 -3.5q-37 -3 -66 -6v78q28 6 67 10q32 4 79 7.5t106 3.5q53 0 97 -5t74 -27q28 20 71 26t107 6q88 0 141.5 -9t82.5 -37t38.5 -80.5t9.5 -139.5v-35h-370zM412 221h-114q-22 0 -37 -1t-24.5 -8t-13.5 -21
t-4 -41q0 -28 5.5 -43t17.5 -22t30.5 -8t43.5 -1q30 0 48.5 1.5t29 10t14.5 26.5t4 52v55zM777 291q0 49 -2.5 76t-12.5 39.5t-30 14.5t-54 2q-33 0 -52.5 -2t-29.5 -14.5t-13 -39.5t-3 -76h197zM540 584h-121l112 164h127z" />
    <glyph glyph-name="Oslashacute" unicode="&#x1fe;" horiz-adv-x="777" 
d="M714 333q0 -78 -3 -133.5t-14 -94t-32 -62t-57.5 -36t-90 -16.5t-129.5 -4q-51 0 -90 1.5t-71 5.5l-47 -77h-91l60 99q-29 15 -46 39.5t-26 62t-11.5 90.5t-2.5 125q0 81 4.5 139.5t17.5 98.5t35.5 64t58.5 37t87.5 17t121.5 4q51 0 92 -2.5t73 -7.5l44 73h91l-59 -98
q26 -16 42.5 -41.5t26 -64.5t13 -93t3.5 -126zM252 329q0 -47 0.5 -81t2.5 -58l224 372q-14 5 -35.5 6t-50.5 1h-8q-47 0 -73.5 -3.5t-39.5 -25.5t-16.5 -68.5t-3.5 -133.5v-9zM526 338q0 48 -1 83t-4 60l-221 -365q15 -4 35.5 -4.5t49.5 -0.5h8q49 0 76 3.5t39.5 24
t15 64.5t2.5 126v9zM431 758h-122l113 163h127z" />
    <glyph glyph-name="oslashacute" unicode="&#x1ff;" 
d="M600 245q0 -84 -7.5 -134.5t-35 -78t-82.5 -36.5t-151 -9q-75 0 -124 6l-48 -75h-79l57 89q-28 11 -44.5 29t-25 46.5t-11 68.5t-2.5 94q0 87 9.5 139.5t39 80.5t84 37t144.5 9q38 0 69 -1.5t57 -5.5l45 72h79l-57 -88q26 -12 42 -31t25 -48t12.5 -69.5t3.5 -94.5z
M219 241v-52.5t2 -39.5l169 263q-11 3 -26 3.5t-35 0.5h-9q-35 0 -55 -2.5t-30.5 -18t-13 -49.5t-2.5 -96v-9zM427 250q0 30 -0.5 53t-1.5 41l-166 -259q11 -2 26 -2h35h9q36 0 56 2.5t29 17.5t11 47t2 91v9zM366 585h-122l113 164h127z" />
    <glyph glyph-name="Scommaaccent" unicode="&#x218;" horiz-adv-x="671" 
d="M630 190q0 -71 -17 -112t-52.5 -61t-91 -25t-132.5 -5q-68 0 -121.5 3t-91.5 8q-44 4 -78 11v102q26 -3 60 -5q29 -2 70 -3.5t94 -1.5q56 0 89.5 1.5t51.5 10t24 26t6 50.5q0 25 -1 40t-7 24t-19 14t-37 9l-161 28q-63 11 -97.5 28.5t-50.5 42t-18.5 55.5t-2.5 70
q0 67 21.5 106t59 58t88 24t109.5 5q64 0 115.5 -3.5t87.5 -7.5q42 -4 74 -10v-104q-24 2 -56 5q-27 2 -65.5 4t-86.5 2q-51 0 -82 -1t-48.5 -8.5t-23 -23t-5.5 -43.5q0 -22 1 -35.5t7 -21.5t19.5 -12.5t37.5 -8.5l161 -27q63 -11 97.5 -28.5t50.5 -42.5t18.5 -59t2.5 -78z
M331 -326h-88l56 112h-30v129h125v-129z" />
    <glyph glyph-name="scommaaccent" unicode="&#x219;" horiz-adv-x="585" 
d="M546 139q0 -52 -14 -82.5t-44 -46t-78 -19.5t-116 -4q-59 0 -105.5 3t-78.5 8q-38 4 -67 11v76q22 -3 51 -5q25 -2 59 -3t79 -1q46 0 74 1t43 6.5t20 18t5 35.5q0 18 -1 29t-5.5 17.5t-14.5 9.5t-29 6l-135 17q-54 7 -83 20.5t-42.5 32.5t-15.5 43.5t-2 53.5
q0 50 18.5 79t51 43.5t75.5 18.5t91 4q55 0 98.5 -3.5t74.5 -7.5q36 -4 64 -10v-77q-20 2 -46 5q-23 2 -54.5 3.5t-71.5 1.5q-41 0 -66.5 -1t-39.5 -6t-19 -16t-5 -32q0 -16 1 -25.5t5.5 -15t15 -8.5t29.5 -6l134 -18q54 -7 83 -19t42.5 -31t16 -45.5t2.5 -60.5zM288 -326
h-88l56 112h-30v129h125v-129z" />
    <glyph glyph-name="uni021A" unicode="&#x21a;" horiz-adv-x="660" 
d="M422 557v-557h-183v557h-212v123h606v-123h-211zM329 -326h-88l56 112h-30v129h125v-129z" />
    <glyph glyph-name="uni021B" unicode="&#x21b;" horiz-adv-x="522" 
d="M500 9q-22 -7 -51 -11q-25 -5 -60 -8t-80 -3q-54 0 -90.5 9t-58 30t-31 55.5t-9.5 84.5v237h-100v96h100v170h166v-170h184v-96h-184v-237q0 -27 2 -43.5t11 -25.5t27.5 -11.5t52.5 -2.5q28 0 50 1t38 3q18 2 33 4v-82zM309 -326h-88l56 112h-30v129h125v-129z" />
    <glyph glyph-name="uni0237" unicode="&#x237;" horiz-adv-x="380" 
d="M320 -60q0 -50 -9 -84.5t-30 -55.5t-55 -30.5t-83 -9.5q-42 0 -74.5 3t-55.5 8q-27 5 -47 12v79q13 -2 29 -3q27 -3 77 -3q26 0 42 3.5t25 12.5t12 25.5t3 42.5v559h166v-559v0z" />
    <glyph glyph-name="circumflex" unicode="&#x2c6;" horiz-adv-x="929" 
d="M540 584l-76 104l-76 -104h-111l112 164h151l112 -164h-112z" />
    <glyph glyph-name="caron" unicode="&#x2c7;" horiz-adv-x="929" 
d="M540 584h-151l-112 164h111l76 -105l76 105h112z" />
    <glyph glyph-name="uni02C9" unicode="&#x2c9;" horiz-adv-x="929" 
d="M296 584v82h337v-82h-337z" />
    <glyph glyph-name="breve" unicode="&#x2d8;" horiz-adv-x="929" 
d="M629 748q0 -38 -2.5 -69t-18 -53t-49 -34t-95.5 -12t-95 12t-48.5 34t-18 53t-2.5 69h82q0 -30 2 -47.5t10.5 -26.5t24.5 -11.5t45 -2.5t45.5 2.5t25 11.5t10.5 26.5t2 47.5h82v0z" />
    <glyph glyph-name="dotaccent" unicode="&#x2d9;" horiz-adv-x="929" 
d="M381 584v141h166v-141h-166z" />
    <glyph glyph-name="ring" unicode="&#x2da;" horiz-adv-x="929" 
d="M600 675q0 -30 -4.5 -49t-19 -29t-41 -13.5t-71.5 -3.5t-71.5 3.5t-40.5 13.5t-18.5 29t-4.5 49q0 32 5.5 52t20.5 30.5t41.5 14t67.5 3.5q42 0 68.5 -3.5t41.5 -14t20.5 -30.5t5.5 -52zM515 675q0 15 -1 23t-5.5 12t-15 4.5t-29.5 0.5t-29 -0.5t-15 -4.5t-6 -12t-1 -23
q0 -14 1 -21.5t6 -11t15 -4t29 -0.5t29.5 0.5t15 4t5.5 11t1 21.5z" />
    <glyph glyph-name="ogonek" unicode="&#x2db;" horiz-adv-x="929" 
d="M572 -186q-12 -7 -29 -11q-14 -5 -34 -8t-45 -3q-62 0 -87 23t-25 74q0 29 6.5 50.5t14.5 35.5q10 16 22 27h90q-10 -9 -18 -21q-7 -11 -12.5 -27t-5.5 -38q0 -16 1.5 -25.5t7 -15t14.5 -7.5t24 -2q35 0 55 3q11 2 21 4v-59v0z" />
    <glyph glyph-name="tilde" unicode="&#x2dc;" horiz-adv-x="929" 
d="M672 738q0 -81 -30.5 -119.5t-92.5 -38.5q-31 0 -55 12.5t-43.5 27.5t-37 27.5t-34.5 12.5q-6 0 -13 -1.5t-12.5 -9t-9.5 -23t-4 -42.5h-83q0 82 30 120.5t92 38.5q31 0 55 -13t43.5 -28t37 -28t34.5 -13q6 0 13 2t13 9.5t10 23t4 42.5h83v0z" />
    <glyph glyph-name="hungarumlaut" unicode="&#x2dd;" horiz-adv-x="929" 
d="M391 584h-111l112 164h118zM609 584h-112l113 164h117z" />
    <glyph glyph-name="uni0374" unicode="&#x374;" horiz-adv-x="338" 
d="M184 445h-125l90 280h130z" />
    <glyph glyph-name="uni0375" unicode="&#x375;" horiz-adv-x="338" 
d="M184 -131h-125l90 281h130z" />
    <glyph glyph-name="uni037E" unicode="&#x37e;" horiz-adv-x="284" 
d="M59 339v160h167v-160h-167zM148 -139h-117l69 139h-41v160h167v-160z" />
    <glyph glyph-name="tonos" unicode="&#x384;" horiz-adv-x="929" 
d="M516 584h-103l-9 186h120z" />
    <glyph glyph-name="dieresistonos" unicode="&#x385;" horiz-adv-x="929" 
d="M262 584v125h96v-125h-96zM571 584v125h96v-125h-96zM512 584h-96l-9 186h114z" />
    <glyph glyph-name="Alphatonos" unicode="&#x386;" horiz-adv-x="812" 
d="M611 0l-61 173h-265l-61 -173h-188l252 680h262l252 -680h-191zM418 566l-98 -279h197zM131 494h-103l-9 186h120z" />
    <glyph glyph-name="anoteleia" unicode="&#x387;" horiz-adv-x="284" 
d="M59 339v160h167v-160h-167z" />
    <glyph glyph-name="Epsilontonos" unicode="&#x388;" horiz-adv-x="801" 
d="M194 0v680h550v-114h-368v-167h337v-105h-337v-180h375v-114h-557zM118 494h-103l-9 186h120z" />
    <glyph glyph-name="Etatonos" unicode="&#x389;" horiz-adv-x="896" 
d="M639 0v285h-263v-285h-182v680h182v-271h263v271h183v-680h-183zM118 494h-103l-9 186h120z" />
    <glyph glyph-name="Iotatonos" unicode="&#x38a;" horiz-adv-x="451" 
d="M194 0v680h182v-680h-182zM118 494h-103l-9 186h120z" />
    <glyph glyph-name="Omicrontonos" unicode="&#x38c;" horiz-adv-x="885" 
d="M822 333q0 -78 -3 -133.5t-14 -94t-32 -62t-57.5 -36t-90 -16.5t-129.5 -4q-75 0 -128.5 4t-90 16.5t-57.5 36t-32 62t-14 94t-3 133.5q0 81 4.5 139.5t17.5 98.5t35.5 64t58.5 37t87.5 17t121.5 4q106 0 170.5 -10.5t99 -47.5t45.5 -108.5t11 -193.5zM634 338
q0 87 -3.5 133.5t-17 68.5t-40 25.5t-72.5 3.5h-8q-47 0 -73.5 -3.5t-39.5 -25.5t-16.5 -68.5t-3.5 -133.5v-9q0 -82 2.5 -126t15 -64.5t39.5 -24t76 -3.5h8q49 0 76 3.5t39.5 24t15 64.5t2.5 126v9zM118 494h-103l-9 186h120z" />
    <glyph glyph-name="Upsilontonos" unicode="&#x38e;" horiz-adv-x="862" 
d="M628 271h-33v-271h-183v271h-33l-226 409h195l156 -285l156 285h194zM118 494h-103l-9 186h120z" />
    <glyph glyph-name="Omegatonos" unicode="&#x38f;" horiz-adv-x="920" 
d="M554 0v114l68 102q13 19 20 34.5t10.5 36t4 48.5t0.5 73q0 64 -5 99t-20 51t-43 18.5t-74 2.5h-8q-47 0 -74.5 -2.5t-42.5 -18.5t-19.5 -51t-4.5 -99q0 -45 0.5 -73.5t3.5 -49t10 -36t19 -33.5l70 -102v-114h-291v114h109l-51 75q-22 32 -33.5 55.5t-17 49t-6.5 57.5
t-1 80q0 93 14.5 146t51.5 78.5t101.5 31.5t165.5 6q100 0 165 -6t102 -31.5t51.5 -78.5t14.5 -146q0 -48 -1 -79.5t-6.5 -56.5t-17 -49t-33.5 -57l-50 -75h108v-114h-290zM118 494h-103l-9 186h120z" />
    <glyph glyph-name="iotadieresistonos" unicode="&#x390;" horiz-adv-x="284" 
d="M59 0v499h167v-499h-167zM-60 584v125h96v-125h-96zM249 584v125h96v-125h-96zM190 584h-96l-9 186h114z" />
    <glyph glyph-name="Alpha" unicode="&#x391;" horiz-adv-x="784" 
d="M584 0l-61 173h-265l-61 -173h-188l252 680h262l252 -680h-191zM391 566l-98 -279h197z" />
    <glyph glyph-name="Beta" unicode="&#x392;" horiz-adv-x="753" 
d="M697 190q0 -71 -20 -109.5t-54 -56.5t-78 -21t-92 -3h-378v680h370q44 0 88 -3t79.5 -21.5t57.5 -58.5t22 -114q0 -51 -12 -78t-26 -40q-17 -15 -37 -17v-2q22 -3 40 -20q15 -15 27.5 -46t12.5 -90zM503 477q0 33 -5 51.5t-17.5 26.5t-32.5 9.5t-50 1.5h-141v-167h143
q32 0 52 1t31.5 8.5t15.5 23.5t4 45zM508 204q0 34 -4 52t-16 26.5t-32.5 10t-53.5 1.5h-145v-180h148q29 0 49 1.5t32 10t17 26.5t5 52z" />
    <glyph glyph-name="Gamma" unicode="&#x393;" horiz-adv-x="635" 
d="M257 557v-557h-182v680h533v-123h-351z" />
    <glyph glyph-name="Delta" unicode="&#x394;" horiz-adv-x="784" 
d="M9 0l252 680h262l252 -680h-766zM391 566l-160 -452h319z" />
    <glyph glyph-name="Epsilon" unicode="&#x395;" horiz-adv-x="682" 
d="M75 0v680h550v-114h-368v-167h337v-105h-337v-180h375v-114h-557z" />
    <glyph glyph-name="Zeta" unicode="&#x396;" horiz-adv-x="665" 
d="M46 0v124l345 433h-339v123h556v-123l-347 -433h363v-124h-578z" />
    <glyph glyph-name="Eta" unicode="&#x397;" horiz-adv-x="777" 
d="M520 0v285h-263v-285h-182v680h182v-271h263v271h183v-680h-183z" />
    <glyph glyph-name="Theta" unicode="&#x398;" horiz-adv-x="777" 
d="M714 333q0 -78 -3 -133.5t-14 -94t-32 -61.5t-57.5 -35.5t-90 -16.5t-129.5 -4q-75 0 -128.5 4t-90 16.5t-57.5 35.5t-32 61.5t-14 94t-3 133.5q0 81 4.5 139.5t17.5 98.5t35.5 64t58.5 37t87.5 17t121.5 4q106 0 170.5 -10.5t99 -47.5t45.5 -108.5t11 -193.5zM542 338
q0 87 -3.5 133.5t-18 68.5t-44 25.5t-80.5 3.5h-14q-51 0 -80.5 -3.5t-44.5 -25.5t-18.5 -68.5t-3.5 -133.5v-9q0 -82 2.5 -126t17 -64.5t44 -24t83.5 -3.5h14q54 0 83.5 3.5t43.5 24t16.5 64.5t2.5 126v9zM279 286v112h220v-112h-220z" />
    <glyph glyph-name="Iota" unicode="&#x399;" horiz-adv-x="332" 
d="M75 0v680h182v-680h-182z" />
    <glyph glyph-name="Kappa" unicode="&#x39a;" horiz-adv-x="772" 
d="M539 0l-191 285h-91v-285h-182v680h182v-271h91l184 271h207l-230 -333l242 -347h-212z" />
    <glyph glyph-name="Lambda" unicode="&#x39b;" horiz-adv-x="740" 
d="M541 0l-172 557l-172 -557h-188l227 680h267l228 -680h-190z" />
    <glyph glyph-name="Mu" unicode="&#x39c;" horiz-adv-x="986" 
d="M743 0v521l-162 -521h-177l-163 521v-521h-166v680h255l163 -521l164 521h254v-680h-168z" />
    <glyph glyph-name="Nu" unicode="&#x39d;" horiz-adv-x="824" 
d="M497 0l-256 521v-521h-166v680h252l256 -521v521h166v-680h-252z" />
    <glyph glyph-name="Xi" unicode="&#x39e;" horiz-adv-x="653" 
d="M57 557v123h539v-123h-539zM87 286v112h479v-112h-479zM50 0v124h553v-124h-553z" />
    <glyph glyph-name="Omicron" unicode="&#x39f;" horiz-adv-x="777" 
d="M714 333q0 -78 -3 -133.5t-14 -94t-32 -62t-57.5 -36t-90 -16.5t-129.5 -4q-75 0 -128.5 4t-90 16.5t-57.5 36t-32 62t-14 94t-3 133.5q0 81 4.5 139.5t17.5 98.5t35.5 64t58.5 37t87.5 17t121.5 4q106 0 170.5 -10.5t99 -47.5t45.5 -108.5t11 -193.5zM526 338
q0 87 -3.5 133.5t-17 68.5t-40 25.5t-72.5 3.5h-8q-47 0 -73.5 -3.5t-39.5 -25.5t-16.5 -68.5t-3.5 -133.5v-9q0 -82 2.5 -126t15 -64.5t39.5 -24t76 -3.5h8q49 0 76 3.5t39.5 24t15 64.5t2.5 126v9z" />
    <glyph glyph-name="Pi" unicode="&#x3a0;" horiz-adv-x="777" 
d="M520 0v557h-263v-557h-182v680h628v-680h-183z" />
    <glyph glyph-name="Rho" unicode="&#x3a1;" horiz-adv-x="735" 
d="M697 459q0 -75 -15 -117t-45.5 -62.5t-77 -25.5t-109.5 -5h-193v-249h-182v680h370q58 0 105 -5t79.5 -27t50 -66t17.5 -123zM508 462q0 39 -4 60t-16 31t-33 11.5t-55 1.5h-143v-203h146q34 0 54.5 1.5t32 11t15 29.5t3.5 57z" />
    <glyph glyph-name="Sigma" unicode="&#x3a3;" horiz-adv-x="639" 
d="M43 0v114l198 230l-192 222v114h541v-114h-334l192 -222l-197 -230h345v-114h-553z" />
    <glyph glyph-name="Tau" unicode="&#x3a4;" horiz-adv-x="660" 
d="M422 557v-557h-183v557h-212v123h606v-123h-211z" />
    <glyph glyph-name="Upsilon" unicode="&#x3a5;" horiz-adv-x="718" 
d="M484 271h-33v-271h-183v271h-33l-226 409h195l156 -285l156 285h194z" />
    <glyph glyph-name="Phi" unicode="&#x3a6;" horiz-adv-x="1063" 
d="M1014 340q0 -93 -16.5 -143t-51 -73t-88.5 -27t-128 -4h-108v-115h-182v115h-108q-74 0 -127.5 4t-88.5 27t-52 73t-17 143q0 94 20.5 145.5t58 75t90.5 27.5t118 4h106v111h182v-111h106q66 0 118.5 -4t90 -27.5t57.5 -75t20 -145.5zM440 477h-106q-32 0 -51.5 -2
t-30 -15t-14 -41t-3.5 -79q0 -50 3.5 -77t14 -39.5t29.5 -14.5t50 -2h108v270zM827 340q0 51 -3.5 79t-14 41t-30 15t-51.5 2h-106v-270h108q31 0 50 2t29.5 14.5t14 39.5t3.5 77z" />
    <glyph glyph-name="Chi" unicode="&#x3a7;" horiz-adv-x="762" 
d="M542 0l-162 285l-163 -285h-197l205 347l-195 333h196l156 -271l156 271h194l-195 -333l204 -347h-199z" />
    <glyph glyph-name="Psi" unicode="&#x3a8;" horiz-adv-x="1063" 
d="M1003 398q0 -80 -18 -123.5t-53 -63.5t-85.5 -23.5t-116.5 -3.5h-108v-184h-182v184h-108q-66 0 -116.5 3.5t-85.5 23.5t-53 63.5t-18 123.5v282h183v-282q0 -34 6.5 -52.5t18.5 -27t28.5 -10t36.5 -1.5h108v373h182v-373h108q21 0 37.5 1.5t28.5 10t18.5 27t6.5 52.5
v282h182v-282v0z" />
    <glyph glyph-name="Omega" unicode="&#x3a9;" horiz-adv-x="817" 
d="M451 0v114l68 102q13 19 20 34.5t10.5 36t4 48.5t0.5 73q0 64 -5 99t-20 51t-43 18.5t-74 2.5h-8q-47 0 -74.5 -2.5t-42.5 -18.5t-19.5 -51t-4.5 -99q0 -45 0.5 -73.5t3.5 -49t10 -36t19 -33.5l70 -102v-114h-291v114h109l-51 75q-22 32 -33.5 55.5t-17 49t-6.5 57.5
t-1 80q0 93 14.5 146t51.5 78.5t101.5 31.5t165.5 6q100 0 165 -6t102 -31.5t51.5 -78.5t14.5 -146q0 -48 -1 -79.5t-6.5 -56.5t-17 -49t-33.5 -57l-50 -75h108v-114h-290z" />
    <glyph glyph-name="Iotadieresis" unicode="&#x3aa;" horiz-adv-x="332" 
d="M75 0v680h182v-680h-182zM-21 757v125h138v-125h-138zM216 757v125h138v-125h-138z" />
    <glyph glyph-name="Upsilondieresis" unicode="&#x3ab;" horiz-adv-x="718" 
d="M484 271h-33v-271h-183v271h-33l-226 409h195l156 -285l156 285h194zM172 757v125h138v-125h-138zM409 757v125h138v-125h-138z" />
    <glyph glyph-name="alphatonos" unicode="&#x3ac;" 
d="M589 9q-32 -7 -73 -11q-35 -5 -84.5 -8t-112.5 -3q-93 0 -147 9t-82 36.5t-35.5 78t-7.5 134.5q0 87 9.5 139.5t38.5 80.5t82.5 37t141.5 9q63 0 112.5 -3.5t84.5 -7.5q41 -4 73 -10v-481zM422 411q-11 1 -26 2q-13 1 -31.5 2t-41.5 1q-36 0 -57 -2.5t-31.5 -18
t-13 -49.5t-2.5 -96v-9q0 -59 2 -91t12 -47t31 -17.5t59 -2.5q23 0 41.5 0.5t31.5 1.5q15 1 26 3v323zM376 584h-103l-9 186h120z" />
    <glyph glyph-name="epsilontonos" unicode="&#x3ad;" horiz-adv-x="574" 
d="M535 9q-29 -7 -66 -11q-32 -5 -77 -8t-102 -3q-63 0 -109 4t-77 20t-46 46.5t-15 83.5q0 42 10.5 64t23.5 33q15 12 35 14v3q-19 1 -33 12q-12 9 -22 28.5t-10 56.5q0 55 16.5 87t48 48t76 20t101.5 4q56 0 100.5 -3.5t75.5 -7.5q36 -4 64 -10v-77q-21 2 -47 5
q-23 2 -55.5 3.5t-73.5 1.5q-42 0 -68 -1t-41 -8t-20 -22.5t-5 -43.5q0 -20 3.5 -31t12 -16t23 -6t36.5 -1h188v-81h-190q-23 0 -38 -1t-23.5 -7t-12 -18.5t-3.5 -36.5q0 -28 5 -43t20 -22t42 -8t71 -1q42 0 75.5 1t57.5 3q27 2 49 5v-76zM345 584h-103l-9 186h120z" />
    <glyph glyph-name="etatonos" unicode="&#x3ae;" 
d="M422 -227v560q0 31 -5.5 48t-17.5 24.5t-30.5 9t-44.5 1.5q-23 0 -41 -1t-31 -2q-15 -1 -26 -2v-411h-167v490q31 6 71 10q35 4 83.5 7.5t110.5 3.5q67 0 117 -4.5t83 -22.5t49 -53.5t16 -97.5v-560h-167zM376 584h-103l-9 186h120z" />
    <glyph glyph-name="iotatonos" unicode="&#x3af;" horiz-adv-x="284" 
d="M59 0v499h167v-499h-167zM194 584h-103l-9 186h120z" />
    <glyph glyph-name="upsilondieresistonos" unicode="&#x3b0;" 
d="M589 166q0 -60 -12 -95.5t-42.5 -54t-81.5 -24t-129 -5.5t-129 5.5t-81.5 24t-42.5 54t-12 95.5v333h167v-333q0 -31 5 -48t16.5 -24.5t30 -9t46.5 -1.5t46.5 1.5t30 9t16.5 24.5t5 48v333h167v-333zM122 584v125h96v-125h-96zM431 584v125h96v-125h-96zM372 584h-96
l-9 186h114z" />
    <glyph glyph-name="alpha" unicode="&#x3b1;" 
d="M589 9q-32 -7 -73 -11q-35 -5 -84.5 -8t-112.5 -3q-93 0 -147 9t-82 36.5t-35.5 78t-7.5 134.5q0 87 9.5 139.5t38.5 80.5t82.5 37t141.5 9q63 0 112.5 -3.5t84.5 -7.5q41 -4 73 -10v-481zM422 411q-11 1 -26 2q-13 1 -31.5 2t-41.5 1q-36 0 -57 -2.5t-31.5 -18
t-13 -49.5t-2.5 -96v-9q0 -59 2 -91t12 -47t31 -17.5t59 -2.5q23 0 41.5 0.5t31.5 1.5q15 1 26 3v323z" />
    <glyph glyph-name="beta" unicode="&#x3b2;" 
d="M600 195q0 -73 -15 -114.5t-45 -62.5t-75 -26t-105 -5q-64 0 -98 3q-20 1 -36 3v-220h-167v786q0 62 15.5 98t48 54t83 22.5t121.5 4.5q58 0 107.5 -5t85 -26t55.5 -63t20 -115q0 -59 -10 -91t-22 -46q-14 -18 -32 -19v-3q19 -3 34 -22q13 -17 24 -52t11 -101zM427 204
q0 46 -2.5 71.5t-11 37t-23 13.5t-38.5 2h-68v88h68q22 0 36.5 1.5t22 12t10.5 32t3 62.5q0 47 -5 72.5t-17 37t-32 13.5t-49 2q-26 0 -44.5 -1.5t-29.5 -9.5t-16 -25t-5 -49v-484q11 -1 26 -2q13 -1 31 -1.5t41 -0.5q31 0 51 2t31.5 14t16 38t4.5 74z" />
    <glyph glyph-name="gamma" unicode="&#x3b3;" horiz-adv-x="617" 
d="M442 0h-51v-227h-166v227h-51l-163 499h173l125 -403l125 403h171z" />
    <glyph glyph-name="delta" unicode="&#x3b4;" 
d="M600 231q0 -78 -8.5 -126t-37 -74t-83 -34.5t-147.5 -8.5t-148 8.5t-83.5 34.5t-37 74t-8.5 126q0 86 9 136t34 75.5t69.5 32.5t114.5 7h25l-217 155v88h473v-88h-249l168 -122q47 -35 72.5 -61.5t37.5 -56.5t14 -69t2 -97zM427 236q0 60 -2.5 92.5t-13 47.5t-31 17.5
t-56.5 2.5t-57 -2.5t-31.5 -17.5t-13.5 -47.5t-3 -92.5v-9q0 -57 2 -87.5t12 -44.5t31.5 -16.5t59.5 -2.5t59 2.5t30.5 16.5t11.5 44.5t2 87.5v9z" />
    <glyph glyph-name="epsilon" unicode="&#x3b5;" horiz-adv-x="574" 
d="M535 9q-29 -7 -66 -11q-32 -5 -77 -8t-102 -3q-63 0 -109 4t-77 20t-46 46.5t-15 83.5q0 42 10.5 64t23.5 33q15 12 35 14v3q-19 1 -33 12q-12 9 -22 28.5t-10 56.5q0 55 16.5 87t48 48t76 20t101.5 4q56 0 100.5 -3.5t75.5 -7.5q36 -4 64 -10v-77q-21 2 -47 5
q-23 2 -55.5 3.5t-73.5 1.5q-42 0 -68 -1t-41 -8t-20 -22.5t-5 -43.5q0 -20 3.5 -31t12 -16t23 -6t36.5 -1h188v-81h-190q-23 0 -38 -1t-23.5 -7t-12 -18.5t-3.5 -36.5q0 -28 5 -43t20 -22t42 -8t71 -1q42 0 75.5 1t57.5 3q27 2 49 5v-76v0z" />
    <glyph glyph-name="zeta" unicode="&#x3b6;" horiz-adv-x="582" 
d="M551 -66q0 -42 -6 -69.5t-21 -43.5t-40 -22.5t-64 -6.5q-31 0 -55 3t-41 8q-20 4 -35 11v59q10 -2 23 -4q22 -3 62 -3q19 0 29.5 1.5t16 8t7 19t1.5 33.5q0 20 -1.5 31.5t-6.5 17.5t-15.5 9t-29.5 6l-154 22q-54 8 -88 17t-53 30t-26 60.5t-7 107.5q0 50 1.5 81t10 54.5
t27.5 45.5t54 54l188 173h-253v88h458v-88l-266 -254q-18 -17 -28 -28.5t-14.5 -26t-5 -36.5t-0.5 -59q0 -45 2 -69.5t8.5 -37t18.5 -16t32 -6.5l154 -22q32 -5 54 -11t36 -21t20.5 -42.5t6.5 -73.5z" />
    <glyph glyph-name="eta" unicode="&#x3b7;" 
d="M422 -227v560q0 31 -5.5 48t-17.5 24.5t-30.5 9t-44.5 1.5q-23 0 -41 -1t-31 -2q-15 -1 -26 -2v-411h-167v490q31 6 71 10q35 4 83.5 7.5t110.5 3.5q67 0 117 -4.5t83 -22.5t49 -53.5t16 -97.5v-560h-167z" />
    <glyph glyph-name="theta" unicode="&#x3b8;" 
d="M600 359q0 -84 -2.5 -144.5t-11.5 -102t-27 -66t-48.5 -38t-76.5 -17.5t-110 -4q-65 0 -111 4t-76.5 17.5t-48.5 38t-27 66t-11.5 102t-2.5 144.5q0 129 9.5 204.5t39 114t84 49.5t144.5 11t144.5 -11t83.5 -49.5t38.5 -114t9.5 -204.5zM427 410q0 87 -3 134.5t-13 69.5
t-29 25.5t-51 3.5h-14q-33 0 -52 -3.5t-29.5 -25.5t-13.5 -69.5t-3 -134.5h208zM219 320q0 -89 2 -137t11.5 -70.5t29 -26t55.5 -3.5h14q35 0 54.5 3.5t28.5 26t11 70.5t2 137h-208z" />
    <glyph glyph-name="iota" unicode="&#x3b9;" horiz-adv-x="284" 
d="M59 0v499h167v-499h-167z" />
    <glyph glyph-name="kappa" unicode="&#x3ba;" horiz-adv-x="640" 
d="M431 0l-137 206h-68v-206h-167v499h167v-197h68l132 197h188l-169 -245l176 -254h-190z" />
    <glyph glyph-name="lambda" unicode="&#x3bb;" horiz-adv-x="621" 
d="M436 0l-125 403l-124 -403h-171l167 499h103l-17 53q-10 33 -18 51.5t-18 27.5t-23.5 10.5t-35.5 1.5q-29 0 -51.5 -1.5t-39.5 -3.5q-19 -2 -34 -4v82q22 6 50 11q24 4 57.5 7.5t76.5 3.5q31 0 56.5 -5.5t48 -23.5t42 -51.5t38.5 -89.5l191 -568h-173z" />
    <glyph glyph-name="mu" unicode="&#x3bc;" 
d="M589 9q-31 -7 -71 -11q-35 -5 -83.5 -8t-110.5 -3q-47 0 -72 3q-15 1 -26 3v-220h-167v726h167v-411q11 -2 26 -3q13 -1 31 -1.5t41 -0.5t41 0.5t31 1.5q15 1 26 3v411h167v-490v0z" />
    <glyph glyph-name="nu" unicode="&#x3bd;" horiz-adv-x="617" 
d="M442 0h-268l-163 499h173l125 -403l125 403h171z" />
    <glyph glyph-name="xi" unicode="&#x3be;" horiz-adv-x="582" 
d="M551 -66q0 -42 -6 -69.5t-21 -43.5t-40 -22.5t-64 -6.5q-31 0 -55 3t-41 8q-20 4 -35 11v59q10 -2 23 -4q22 -3 62 -3q19 0 29.5 1.5t16 8t7 19t1.5 33.5q0 20 -1.5 31.5t-6.5 17.5t-15.5 9t-29.5 6l-154 22q-54 8 -88 17t-53 30t-26 60.5t-7 107.5q0 53 10.5 81t23.5 42
q15 16 35 18v3q-18 1 -32 19q-12 14 -22 46t-10 91q0 73 19 115t51.5 63t76.5 26t94 5q56 0 100.5 -3.5t75.5 -7.5q36 -5 64 -11v-82q-21 2 -47 4q-23 2 -55 3.5t-73 1.5q-44 0 -70 -2t-40.5 -13t-19 -35t-4.5 -69q0 -41 3 -62.5t11 -32t22.5 -12t37.5 -1.5h189v-88h-191
q-24 0 -39.5 -2.5t-23.5 -12t-11 -28.5t-3 -52q0 -45 2 -69.5t8.5 -37t18.5 -16t32 -6.5l154 -22q32 -5 54 -11t36 -21t20.5 -42.5t6.5 -73.5z" />
    <glyph glyph-name="omicron" unicode="&#x3bf;" 
d="M600 245q0 -84 -7.5 -134.5t-35 -78t-82.5 -36.5t-151 -9t-151 9t-83 36.5t-35.5 78t-7.5 134.5q0 87 9.5 139.5t39 80.5t84 37t144.5 9t144.5 -9t83.5 -37t38.5 -80.5t9.5 -139.5zM427 250q0 62 -2.5 96t-12 49.5t-29.5 18t-54 2.5h-9q-35 0 -55 -2.5t-30.5 -18
t-13 -49.5t-2.5 -96v-9q0 -59 2 -91t11.5 -47t30 -17.5t57.5 -2.5h9q36 0 56 2.5t29 17.5t11 47t2 91v9z" />
    <glyph glyph-name="pi" unicode="&#x3c0;" horiz-adv-x="803" 
d="M666 403v-403h-166v403h-197v-403h-167v403h-116v96h762v-96h-116z" />
    <glyph glyph-name="rho" unicode="&#x3c1;" 
d="M600 245q0 -84 -7.5 -134.5t-35 -78t-81.5 -36.5t-147 -9q-48 0 -75 3q-16 1 -28 3v-220h-167v560q0 62 16.5 97.5t49.5 53.5t84 22.5t120 4.5q87 0 140.5 -9t82.5 -37t38.5 -80.5t9.5 -139.5zM427 250q0 62 -2.5 96t-12.5 49.5t-31 18t-57 2.5q-26 0 -44.5 -1.5
t-30.5 -9t-17.5 -24.5t-5.5 -48v-247q11 -1 26 -2q13 -1 31 -1h41q38 0 59 2.5t30.5 17.5t11.5 47t2 91v9z" />
    <glyph glyph-name="sigma1" unicode="&#x3c2;" horiz-adv-x="582" 
d="M551 -66q0 -42 -6 -69.5t-21 -43.5t-40 -22.5t-64 -6.5q-31 0 -55 3t-41 8q-20 4 -35 11v59q10 -2 23 -4q22 -3 62 -3q19 0 29.5 1.5t16 8t7 19t1.5 33.5q0 20 -1.5 31.5t-6.5 17.5t-15.5 9t-29.5 6l-154 22q-55 8 -89 17t-53 32t-25.5 65.5t-6.5 116.5q0 82 8.5 134
t34 81t73.5 40t128 11q57 0 101 -3.5t76 -7.5q37 -4 65 -10v-83q-37 3 -74 5q-32 2 -69.5 3t-69.5 -1q-35 -1 -55.5 -4.5t-30.5 -19t-12.5 -49t-2.5 -94.5q0 -50 1.5 -77.5t8 -41t18.5 -17.5t33 -7l154 -22q32 -5 54 -11t36 -21t20.5 -42.5t6.5 -73.5z" />
    <glyph glyph-name="sigma" unicode="&#x3c3;" horiz-adv-x="728" 
d="M581 403q5 -12 9 -33q4 -18 7 -48.5t3 -76.5q0 -84 -7.5 -134.5t-35 -78t-82.5 -36.5t-151 -9t-151 9t-83 36.5t-35.5 78t-7.5 134.5q0 87 10.5 137.5t40.5 76.5t84.5 33t141.5 7h384v-96h-127zM427 250q0 57 -2.5 88.5t-13 45.5t-31 16.5t-56.5 2.5t-56.5 -2.5
t-31.5 -16.5t-14 -45.5t-3 -88.5v-9q0 -59 2 -91t11.5 -47t30 -17.5t57.5 -2.5h9q36 0 56 2.5t29 17.5t11 47t2 91v9z" />
    <glyph glyph-name="tau" unicode="&#x3c4;" horiz-adv-x="541" 
d="M354 403v-403h-167v403h-167v96h500v-96h-166z" />
    <glyph glyph-name="upsilon" unicode="&#x3c5;" 
d="M589 166q0 -60 -12 -95.5t-42.5 -54t-81.5 -24t-129 -5.5t-129 5.5t-81.5 24t-42.5 54t-12 95.5v333h167v-333q0 -31 5 -48t16.5 -24.5t30 -9t46.5 -1.5t46.5 1.5t30 9t16.5 24.5t5 48v333h167v-333v0z" />
    <glyph glyph-name="phi" unicode="&#x3c6;" horiz-adv-x="974" 
d="M927 245q0 -83 -7.5 -131.5t-34.5 -73.5t-79 -32.5t-141 -7.5h-95v-227h-166v227h-95q-89 0 -141 7t-79 32t-34.5 73.5t-7.5 132.5q0 87 8 139.5t26 80.5t47.5 37t73.5 9q35 0 63.5 -3.5t48.5 -7.5q23 -4 41 -10v-74q-9 1 -20 3q-10 2 -23.5 3t-30.5 1q-20 0 -32 -3.5
t-18.5 -20t-9 -51.5t-2.5 -98v-9q0 -57 2 -88.5t11 -45.5t28 -16.5t54 -2.5h90v245q0 62 11.5 97.5t41 53.5t80 22.5t128.5 4.5q82 0 133 -9t79.5 -37t39 -80.5t10.5 -139.5zM754 250q0 65 -2.5 100t-12 51.5t-28 19t-51.5 2.5q-30 0 -48 -1.5t-27.5 -10t-12 -26.5t-2.5 -52
v-245h90q34 0 53 2.5t28 16.5t11 45.5t2 88.5v9z" />
    <glyph glyph-name="chi" unicode="&#x3c7;" horiz-adv-x="628" 
d="M432 -227l-120 320l-119 -320h-174l150 367l-144 359h175l115 -310l114 310h173l-143 -359l150 -367h-177z" />
    <glyph glyph-name="psi" unicode="&#x3c8;" horiz-adv-x="974" 
d="M915 176q0 -66 -16.5 -102t-48 -52.5t-78 -19t-105.5 -2.5h-97v-227h-166v227h-97q-59 0 -105 2.5t-78 19t-48.5 52.5t-16.5 102v323h167v-323q0 -30 5 -46.5t15.5 -24t25.5 -8.5t35 -1h97v403h166v-403h97q20 0 35 1t25.5 8.5t16 24t5.5 46.5v323h166v-323v0z" />
    <glyph glyph-name="omega" unicode="&#x3c9;" horiz-adv-x="974" 
d="M927 245q0 -84 -7.5 -134.5t-31.5 -77.5t-70.5 -36t-124.5 -9q-107 0 -153.5 8.5t-52.5 18.5q-3 -5 -15.5 -10t-36.5 -8.5t-62 -6t-92 -2.5q-78 0 -124.5 9t-70.5 36t-31.5 77.5t-7.5 134.5q0 87 8.5 139.5t29 80.5t53.5 37t82 9q40 0 71.5 -3.5t54.5 -7.5q26 -4 46 -10
v-74q-11 1 -26 3q-13 2 -30.5 3t-40.5 1q-25 0 -40 -2.5t-23 -19t-10.5 -51.5t-2.5 -100v-9q0 -62 2 -95.5t11 -49t28 -18t54 -2.5q33 0 51.5 1.5t27 10t10 26.5t1.5 52v167h166v-167q0 -34 1.5 -52t10 -26.5t27 -10t51.5 -1.5q34 0 53 2.5t28 18t11 49t2 95.5v9
q0 65 -2.5 100t-10 51.5t-23 19t-40.5 2.5q-23 0 -40.5 -1t-30.5 -3q-15 -2 -26 -3v74q20 6 46 10q23 4 54.5 7.5t72.5 3.5q49 0 82 -9t53.5 -37t29 -80.5t8.5 -139.5z" />
    <glyph glyph-name="iotadieresis" unicode="&#x3ca;" horiz-adv-x="284" 
d="M59 0v499h167v-499h-167zM-45 584v125h138v-125h-138zM192 584v125h138v-125h-138z" />
    <glyph glyph-name="upsilondieresis" unicode="&#x3cb;" 
d="M589 166q0 -60 -12 -95.5t-42.5 -54t-81.5 -24t-129 -5.5t-129 5.5t-81.5 24t-42.5 54t-12 95.5v333h167v-333q0 -31 5 -48t16.5 -24.5t30 -9t46.5 -1.5t46.5 1.5t30 9t16.5 24.5t5 48v333h167v-333zM137 584v125h138v-125h-138zM374 584v125h138v-125h-138z" />
    <glyph glyph-name="omicrontonos" unicode="&#x3cc;" 
d="M600 245q0 -84 -7.5 -134.5t-35 -78t-82.5 -36.5t-151 -9t-151 9t-83 36.5t-35.5 78t-7.5 134.5q0 87 9.5 139.5t39 80.5t84 37t144.5 9t144.5 -9t83.5 -37t38.5 -80.5t9.5 -139.5zM427 250q0 62 -2.5 96t-12 49.5t-29.5 18t-54 2.5h-9q-35 0 -55 -2.5t-30.5 -18
t-13 -49.5t-2.5 -96v-9q0 -59 2 -91t11.5 -47t30 -17.5t57.5 -2.5h9q36 0 56 2.5t29 17.5t11 47t2 91v9zM376 584h-103l-9 186h120z" />
    <glyph glyph-name="upsilontonos" unicode="&#x3cd;" 
d="M589 166q0 -60 -12 -95.5t-42.5 -54t-81.5 -24t-129 -5.5t-129 5.5t-81.5 24t-42.5 54t-12 95.5v333h167v-333q0 -31 5 -48t16.5 -24.5t30 -9t46.5 -1.5t46.5 1.5t30 9t16.5 24.5t5 48v333h167v-333zM376 584h-103l-9 186h120z" />
    <glyph glyph-name="omegatonos" unicode="&#x3ce;" horiz-adv-x="974" 
d="M927 245q0 -84 -7.5 -134.5t-31.5 -77.5t-70.5 -36t-124.5 -9q-107 0 -153.5 8.5t-52.5 18.5q-3 -5 -15.5 -10t-36.5 -8.5t-62 -6t-92 -2.5q-78 0 -124.5 9t-70.5 36t-31.5 77.5t-7.5 134.5q0 87 8.5 139.5t29 80.5t53.5 37t82 9q40 0 71.5 -3.5t54.5 -7.5q26 -4 46 -10
v-74q-11 1 -26 3q-13 2 -30.5 3t-40.5 1q-25 0 -40 -2.5t-23 -19t-10.5 -51.5t-2.5 -100v-9q0 -62 2 -95.5t11 -49t28 -18t54 -2.5q33 0 51.5 1.5t27 10t10 26.5t1.5 52v167h166v-167q0 -34 1.5 -52t10 -26.5t27 -10t51.5 -1.5q34 0 53 2.5t28 18t11 49t2 95.5v9
q0 65 -2.5 100t-10 51.5t-23 19t-40.5 2.5q-23 0 -40.5 -1t-30.5 -3q-15 -2 -26 -3v74q20 6 46 10q23 4 54.5 7.5t72.5 3.5q49 0 82 -9t53.5 -37t29 -80.5t8.5 -139.5zM538 584h-103l-9 186h120z" />
    <glyph glyph-name="uni0400" unicode="&#x400;" horiz-adv-x="682" 
d="M75 0v680h550v-114h-368v-167h337v-105h-337v-180h375v-114h-557zM310 757l-119 164h127l113 -164h-121z" />
    <glyph glyph-name="afii10023" unicode="&#x401;" horiz-adv-x="682" 
d="M75 0v680h550v-114h-368v-167h337v-105h-337v-180h375v-114h-557zM164 757v125h138v-125h-138zM401 757v125h138v-125h-138z" />
    <glyph glyph-name="afii10051" unicode="&#x402;" horiz-adv-x="908" 
d="M849 -60q0 -50 -9.5 -84.5t-31 -55.5t-57.5 -30.5t-88 -9.5q-43 0 -77 3t-58 8q-28 5 -50 12v79q13 -2 29 -3q27 -3 77 -3q27 0 43 3.5t24.5 12.5t11.5 25.5t3 42.5v255q0 43 -3.5 67t-16.5 34.5t-37 12.5t-66 2q-29 0 -51 -0.5t-38 -1.5q-18 -1 -32 -2v-307h-183v566
h-212v114h606v-114h-211v-145q14 1 32 2q16 1 38 1.5t51 0.5q106 0 167 -9.5t92 -35.5t39 -72.5t8 -120.5v-247v0z" />
    <glyph glyph-name="afii10052" unicode="&#x403;" horiz-adv-x="635" 
d="M257 557v-557h-182v680h533v-123h-351zM383 757h-121l112 164h127z" />
    <glyph glyph-name="afii10053" unicode="&#x404;" horiz-adv-x="682" 
d="M632 9q-33 -7 -76 -11q-37 -5 -89.5 -8t-118.5 -3q-101 0 -158.5 14t-85.5 52t-34.5 104.5t-6.5 171.5q0 113 9 184t39 111t85.5 54.5t148.5 14.5q65 0 117 -3.5t88 -7.5q42 -4 75 -10v-104l-86 6q-37 2 -81 3t-83 0q-40 -2 -64 -5.5t-37 -20t-17 -52t-5 -100.5h342v-105
h-342q0 -70 2.5 -108t15 -56t37.5 -22t70 -5q40 -2 85 -1t83 3q44 2 87 6v-102v0z" />
    <glyph glyph-name="afii10054" unicode="&#x405;" horiz-adv-x="671" 
d="M630 190q0 -71 -17 -112t-52.5 -61t-91 -25t-132.5 -5q-68 0 -121.5 3t-91.5 8q-44 4 -78 11v102q26 -3 60 -5q29 -2 70 -3.5t94 -1.5q56 0 89.5 1.5t51.5 10t24 26t6 50.5q0 25 -1 40t-7 24t-19 14t-37 9l-161 28q-63 11 -97.5 28.5t-50.5 42t-18.5 55.5t-2.5 70
q0 67 21.5 106t59 58t88 24t109.5 5q64 0 115.5 -3.5t87.5 -7.5q42 -4 74 -10v-104q-24 2 -56 5q-27 2 -65.5 4t-86.5 2q-51 0 -82 -1t-48.5 -8.5t-23 -23t-5.5 -43.5q0 -22 1 -35.5t7 -21.5t19.5 -12.5t37.5 -8.5l161 -27q63 -11 97.5 -28.5t50.5 -42.5t18.5 -59t2.5 -78z
" />
    <glyph glyph-name="afii10055" unicode="&#x406;" horiz-adv-x="332" 
d="M75 0v680h182v-680h-182z" />
    <glyph glyph-name="afii10056" unicode="&#x407;" horiz-adv-x="332" 
d="M75 0v680h182v-680h-182zM-21 757v125h138v-125h-138zM216 757v125h138v-125h-138z" />
    <glyph glyph-name="afii10057" unicode="&#x408;" horiz-adv-x="576" 
d="M502 227q0 -60 -5.5 -105t-29 -75t-71 -45t-132.5 -15q-56 0 -99.5 3t-74.5 8q-36 4 -63 11v110q19 -2 44 -4q21 -2 51.5 -3t68.5 -1q41 0 66 3t39 14.5t18.5 34.5t4.5 64v453h183v-453v0z" />
    <glyph glyph-name="afii10058" unicode="&#x409;" horiz-adv-x="1126" 
d="M1088 206q0 -77 -19 -119t-52 -61.5t-77.5 -22.5t-94.5 -3h-361v557h-99l-189 -557h-187l238 680h420v-271h173q53 0 98.5 -3t78.5 -22t52 -60.5t19 -117.5zM900 204q0 34 -4.5 52t-16 26.5t-32 10t-53.5 1.5h-127v-180h130q29 0 48.5 1.5t31.5 10t17.5 26.5t5.5 52z" />
    <glyph glyph-name="afii10059" unicode="&#x40a;" horiz-adv-x="1126" 
d="M1087 206q0 -77 -19 -119t-52 -61.5t-77 -22.5t-94 -3h-361v285h-227v-285h-182v680h182v-271h227v271h183v-271h173q53 0 98 -3t78 -22t52 -60.5t19 -117.5zM899 204q0 34 -4.5 52t-16 26.5t-32 10t-53.5 1.5h-126v-180h129q29 0 49 1.5t32 10t17 26.5t5 52z" />
    <glyph glyph-name="afii10060" unicode="&#x40b;" horiz-adv-x="908" 
d="M666 0v195q0 43 -3.5 67t-16.5 34.5t-37 12.5t-66 2q-29 0 -51 -0.5t-38 -1.5q-18 -1 -32 -2v-307h-183v566h-212v114h606v-114h-211v-145q14 1 32 2q16 1 38 1.5t51 0.5q106 0 167 -9.5t92 -35.5t39 -72.5t8 -120.5v-187h-183z" />
    <glyph glyph-name="afii10061" unicode="&#x40c;" horiz-adv-x="772" 
d="M539 0l-191 285h-91v-285h-182v680h182v-271h91l184 271h207l-230 -333l242 -347h-212zM431 757h-121l112 164h127z" />
    <glyph glyph-name="uni040D" unicode="&#x40d;" horiz-adv-x="777" 
d="M348 757l-119 164h127l113 -164h-121zM529 0v443l-279 -443h-175v680h175v-443l279 443h174v-680h-174z" />
    <glyph glyph-name="afii10062" unicode="&#x40e;" horiz-adv-x="722" 
d="M466 127q-20 -46 -37 -73.5t-37 -42.5t-45 -19.5t-62 -4.5q-42 0 -75.5 3t-56.5 8q-27 4 -49 11v102q13 -3 30 -5q14 -2 34.5 -3.5t46.5 -1.5q20 0 33 1t22 5.5t15 13.5t13 25l27 61h-93l-211 473h192l155 -359l156 359h189zM532 921q0 -38 -2.5 -69t-18 -53t-49 -34
t-95.5 -12t-95 12t-48.5 34t-18 53t-2.5 69h82q0 -30 2 -47.5t10.5 -26.5t24.5 -11.5t45 -2.5t45.5 2.5t25 11.5t10.5 26.5t2 47.5h82z" />
    <glyph glyph-name="afii10145" unicode="&#x40f;" horiz-adv-x="777" 
d="M464 0v-192h-151v192h-238v680h182v-556h263v556h183v-680h-239z" />
    <glyph glyph-name="afii10017" unicode="&#x410;" horiz-adv-x="784" 
d="M584 0l-61 173h-265l-61 -173h-188l252 680h262l252 -680h-191zM391 566l-98 -279h197z" />
    <glyph glyph-name="afii10018" unicode="&#x411;" horiz-adv-x="749" 
d="M697 204q0 -77 -19.5 -118t-52.5 -60.5t-77.5 -22.5t-94.5 -3h-378v680h576v-114h-394v-167h192q53 0 98.5 -3t78.5 -21.5t52 -58t19 -112.5zM508 204q0 34 -4.5 52t-16 26.5t-32 10t-53.5 1.5h-145v-180h148q29 0 49 1.5t32 10t17 26.5t5 52z" />
    <glyph glyph-name="afii10019" unicode="&#x412;" horiz-adv-x="753" 
d="M697 190q0 -71 -20 -109.5t-54 -56.5t-78 -21t-92 -3h-378v680h370q44 0 88 -3t79.5 -21.5t57.5 -58.5t22 -114q0 -51 -12 -78t-26 -40q-17 -15 -37 -17v-2q22 -3 40 -20q15 -15 27.5 -46t12.5 -90zM503 477q0 33 -5 51.5t-17.5 26.5t-32.5 9.5t-50 1.5h-141v-167h143
q32 0 52 1t31.5 8.5t15.5 23.5t4 45zM508 204q0 34 -4 52t-16 26.5t-32.5 10t-53.5 1.5h-145v-180h148q29 0 49 1.5t32 10t17 26.5t5 52z" />
    <glyph glyph-name="afii10020" unicode="&#x413;" horiz-adv-x="635" 
d="M257 557v-557h-182v680h533v-123h-351z" />
    <glyph glyph-name="afii10021" unicode="&#x414;" horiz-adv-x="951" 
d="M751 -192v192h-550v-192h-151v306h98l200 566h456v-566h98v-306h-151zM621 566h-133l-157 -452h290v452z" />
    <glyph glyph-name="afii10022" unicode="&#x415;" horiz-adv-x="682" 
d="M75 0v680h550v-114h-368v-167h337v-105h-337v-180h375v-114h-557z" />
    <glyph glyph-name="afii10024" unicode="&#x416;" horiz-adv-x="1114" 
d="M893 0l-167 285h-78v-285h-183v285h-78l-166 -285h-201l209 347l-198 333h197l159 -271h78v271h183v-271h78l160 271h198l-199 -333l208 -347h-200z" />
    <glyph glyph-name="afii10025" unicode="&#x417;" horiz-adv-x="675" 
d="M619 190q0 -71 -20.5 -112t-58 -61t-90 -25t-116.5 -5q-66 0 -118.5 3t-89.5 8q-43 4 -76 11v102q25 -3 58 -5q28 -2 67.5 -3.5t90.5 -1.5q52 0 84 1.5t50 11.5t24 30.5t6 59.5q0 34 -4 52t-16 26.5t-32.5 10t-53.5 1.5h-215v105h213q32 0 52 1t31.5 8.5t15.5 23.5t4 45
q0 38 -6 59t-23.5 30.5t-48.5 11t-81 1.5q-49 0 -87.5 -2t-65.5 -4q-32 -3 -56 -5v104q32 6 74 10q36 4 87.5 7.5t116.5 3.5q57 0 107.5 -5t89 -26t60.5 -63t22 -116q0 -51 -12 -78t-26 -40q-17 -15 -37 -17v-2q22 -3 40 -20q15 -15 27.5 -46t12.5 -90z" />
    <glyph glyph-name="afii10026" unicode="&#x418;" horiz-adv-x="777" 
d="M529 0v443l-279 -443h-175v680h175v-443l279 443h174v-680h-174z" />
    <glyph glyph-name="afii10027" unicode="&#x419;" horiz-adv-x="777" 
d="M529 0v443l-279 -443h-175v680h175v-443l279 443h174v-680h-174zM554 921q0 -38 -2.5 -69t-18 -53t-49 -34t-95.5 -12t-95 12t-48.5 34t-18 53t-2.5 69h82q0 -30 2 -47.5t10.5 -26.5t24.5 -11.5t45 -2.5t45.5 2.5t25 11.5t10.5 26.5t2 47.5h82z" />
    <glyph glyph-name="afii10028" unicode="&#x41a;" horiz-adv-x="772" 
d="M539 0l-191 285h-91v-285h-182v680h182v-271h91l184 271h207l-230 -333l242 -347h-212z" />
    <glyph glyph-name="afii10029" unicode="&#x41b;" horiz-adv-x="778" 
d="M521 0v557h-136l-189 -557h-187l238 680h456v-680h-182z" />
    <glyph glyph-name="afii10030" unicode="&#x41c;" horiz-adv-x="986" 
d="M743 0v521l-162 -521h-177l-163 521v-521h-166v680h255l163 -521l164 521h254v-680h-168z" />
    <glyph glyph-name="afii10031" unicode="&#x41d;" horiz-adv-x="777" 
d="M520 0v285h-263v-285h-182v680h182v-271h263v271h183v-680h-183z" />
    <glyph glyph-name="afii10032" unicode="&#x41e;" horiz-adv-x="777" 
d="M714 333q0 -78 -3 -133.5t-14 -94t-32 -62t-57.5 -36t-90 -16.5t-129.5 -4q-75 0 -128.5 4t-90 16.5t-57.5 36t-32 62t-14 94t-3 133.5q0 81 4.5 139.5t17.5 98.5t35.5 64t58.5 37t87.5 17t121.5 4q106 0 170.5 -10.5t99 -47.5t45.5 -108.5t11 -193.5zM526 338
q0 87 -3.5 133.5t-17 68.5t-40 25.5t-72.5 3.5h-8q-47 0 -73.5 -3.5t-39.5 -25.5t-16.5 -68.5t-3.5 -133.5v-9q0 -82 2.5 -126t15 -64.5t39.5 -24t76 -3.5h8q49 0 76 3.5t39.5 24t15 64.5t2.5 126v9z" />
    <glyph glyph-name="afii10033" unicode="&#x41f;" horiz-adv-x="777" 
d="M520 0v557h-263v-557h-182v680h628v-680h-183z" />
    <glyph glyph-name="afii10034" unicode="&#x420;" horiz-adv-x="735" 
d="M697 459q0 -75 -15 -117t-45.5 -62.5t-77 -25.5t-109.5 -5h-193v-249h-182v680h370q58 0 105 -5t79.5 -27t50 -66t17.5 -123zM508 462q0 39 -4 60t-16 31t-33 11.5t-55 1.5h-143v-203h146q34 0 54.5 1.5t32 11t15 29.5t3.5 57z" />
    <glyph glyph-name="afii10035" unicode="&#x421;" horiz-adv-x="666" 
d="M632 9q-33 -7 -76 -11q-37 -5 -89.5 -8t-118.5 -3q-101 0 -158.5 14t-85.5 52t-34.5 104.5t-6.5 171.5q0 113 9 184t39 111t85.5 54.5t148.5 14.5q65 0 117 -3.5t88 -7.5q42 -4 75 -10v-112q-43 3 -86 5q-37 2 -81 3t-83 0q-42 -2 -66.5 -6t-37 -26.5t-16 -71
t-3.5 -137.5q0 -53 1 -89.5t4.5 -60t11 -36t21.5 -19t35 -8t52 -2.5q40 -2 85 -0.5t83 3.5q44 2 87 5v-111v0z" />
    <glyph glyph-name="afii10036" unicode="&#x422;" horiz-adv-x="660" 
d="M422 557v-557h-183v557h-212v123h606v-123h-211z" />
    <glyph glyph-name="afii10037" unicode="&#x423;" horiz-adv-x="722" 
d="M466 127q-20 -46 -37 -73.5t-37 -42.5t-45 -19.5t-62 -4.5q-42 0 -75.5 3t-56.5 8q-27 4 -49 11v102q13 -3 30 -5q14 -2 34.5 -3.5t46.5 -1.5q20 0 33 1t22 5.5t15 13.5t13 25l27 61h-93l-211 473h192l155 -359l156 359h189z" />
    <glyph glyph-name="afii10038" unicode="&#x424;" horiz-adv-x="1063" 
d="M1014 340q0 -93 -16.5 -143t-51 -73t-88.5 -27t-128 -4h-108v-115h-182v115h-108q-74 0 -127.5 4t-88.5 27t-52 73t-17 143q0 94 20.5 145.5t58 75t90.5 27.5t118 4h106v111h182v-111h106q66 0 118.5 -4t90 -27.5t57.5 -75t20 -145.5zM440 477h-106q-32 0 -51.5 -2
t-30 -15t-14 -41t-3.5 -79q0 -50 3.5 -77t14 -39.5t29.5 -14.5t50 -2h108v270zM827 340q0 51 -3.5 79t-14 41t-30 15t-51.5 2h-106v-270h108q31 0 50 2t29.5 14.5t14 39.5t3.5 77z" />
    <glyph glyph-name="afii10039" unicode="&#x425;" horiz-adv-x="762" 
d="M542 0l-162 285l-163 -285h-197l205 347l-195 333h196l156 -271l156 271h194l-195 -333l204 -347h-199z" />
    <glyph glyph-name="afii10040" unicode="&#x426;" horiz-adv-x="851" 
d="M650 -192v192h-575v680h182v-556h263v556h183v-566h98v-306h-151z" />
    <glyph glyph-name="afii10041" unicode="&#x427;" horiz-adv-x="744" 
d="M486 0v231q-15 -2 -33 -3q-16 -1 -38.5 -1.5t-50.5 -0.5q-105 0 -166 9.5t-92 35.5t-39 72.5t-8 120.5v216h183v-216q0 -44 3.5 -67.5t16.5 -34t37 -12.5t65 -2q57 0 89 3q18 1 33 3v326h183v-680h-183z" />
    <glyph glyph-name="afii10042" unicode="&#x428;" horiz-adv-x="1151" 
d="M75 0v680h182v-556h227v556h183v-556h227v556h182v-680h-1001z" />
    <glyph glyph-name="afii10043" unicode="&#x429;" horiz-adv-x="1223" 
d="M1023 -192v192h-948v680h182v-556h227v556h183v-556h227v556h182v-566h97v-306h-150z" />
    <glyph glyph-name="afii10044" unicode="&#x42a;" horiz-adv-x="953" 
d="M915 206q0 -77 -19 -119t-52 -61.5t-77 -22.5t-94 -3h-379v557h-267v123h450v-271h190q53 0 98.5 -3t78.5 -22t52 -60.5t19 -117.5zM727 204q0 34 -4.5 52t-16 26.5t-32 10t-53.5 1.5h-144v-180h147q29 0 48.5 1.5t31.5 10t17.5 26.5t5.5 52z" />
    <glyph glyph-name="afii10045" unicode="&#x42b;" horiz-adv-x="1037" 
d="M697 206q0 -77 -19.5 -119t-52.5 -61.5t-77.5 -22.5t-94.5 -3h-378v680h182v-271h192q53 0 98.5 -3t78.5 -22t52 -60.5t19 -117.5zM508 204q0 34 -4.5 52t-16 26.5t-32 10t-53.5 1.5h-145v-180h148q29 0 49 1.5t32 10t17 26.5t5 52zM779 0v680h182v-680h-182z" />
    <glyph glyph-name="afii10046" unicode="&#x42c;" horiz-adv-x="735" 
d="M697 206q0 -77 -19.5 -119t-52.5 -61.5t-77.5 -22.5t-94.5 -3h-378v680h182v-271h192q53 0 98.5 -3t78.5 -22t52 -60.5t19 -117.5zM508 204q0 34 -4.5 52t-16 26.5t-32 10t-53.5 1.5h-145v-180h148q29 0 49 1.5t32 10t17 26.5t5 52z" />
    <glyph glyph-name="afii10047" unicode="&#x42d;" horiz-adv-x="682" 
d="M619 329q0 -105 -6.5 -171.5t-35 -104.5t-86 -52t-158.5 -14q-66 0 -118 3t-89 8q-43 4 -76 11v102q43 -4 87 -6q38 -2 82.5 -3t85.5 1q45 1 70 5t37.5 22t15 56t2.5 108h-343v105h342q0 65 -4.5 100.5t-17 52t-36.5 20t-64 5.5q-40 1 -84 0t-81 -3q-43 -3 -85 -6v104
q33 6 75 10q36 4 87.5 7.5t117.5 3.5q93 0 148.5 -14.5t85.5 -54.5t39 -111t9 -184z" />
    <glyph glyph-name="afii10048" unicode="&#x42e;" horiz-adv-x="1151" 
d="M1087 333q0 -78 -3 -133.5t-14 -94t-32 -62t-57 -36t-89.5 -16.5t-129.5 -4q-71 0 -122.5 3.5t-87 14.5t-58 31t-35 53.5t-17 81t-5.5 114.5h-180v-285h-182v680h182v-271h181q3 95 18 151.5t51 86t97.5 38t157.5 8.5q106 0 170 -10.5t98.5 -47.5t45.5 -108.5t11 -193.5z
M899 338q0 87 -3.5 133.5t-16.5 68.5t-40 25.5t-73 3.5h-9q-46 0 -72.5 -3.5t-40 -25.5t-17 -68.5t-3.5 -133.5v-9q0 -82 2.5 -126t15 -64.5t39.5 -24t76 -3.5h9q49 0 75.5 3.5t39.5 24t15.5 64.5t2.5 126v9z" />
    <glyph glyph-name="afii10049" unicode="&#x42f;" horiz-adv-x="763" 
d="M505 0v264h-169l-95 -264h-199l119 277q-48 14 -71 56.5t-23 131.5q0 76 17.5 119.5t50 64.5t79 26t105.5 5h369v-680h-183zM505 566h-142q-35 0 -56 -1.5t-32.5 -10.5t-15.5 -29t-4 -57q0 -34 3.5 -52t14.5 -26.5t31.5 -10t54.5 -1.5h146v188z" />
    <glyph glyph-name="afii10065" unicode="&#x430;" 
d="M589 9q-32 -7 -73 -11q-35 -5 -84.5 -8t-112.5 -3q-54 0 -103.5 2.5t-87 18t-59.5 48.5t-22 94q0 57 14.5 88.5t41 45.5t64 16.5t83.5 2.5h172v30q0 31 -4.5 49t-16.5 26.5t-32 11t-51 2.5q-54 1 -98 -0.5t-76 -3.5q-38 -3 -67 -6v78q30 6 69 10q33 4 80 7.5t107 3.5
q62 0 110 -4.5t80.5 -22.5t49 -53.5t16.5 -97.5v-324zM422 221h-119q-24 0 -40 -1t-26 -8t-14 -21t-4 -41q0 -28 5.5 -43t18 -22t31.5 -8t46 -1q24 0 42.5 0.5t32.5 1.5q15 1 27 3v140z" />
    <glyph glyph-name="afii10066" unicode="&#x431;" 
d="M600 231q0 -87 -16 -135.5t-50 -72.5t-86 -29.5t-124 -5.5q-65 0 -111 4t-76.5 17t-48.5 38t-27 66t-11.5 101.5t-2.5 144.5q0 129 9.5 204.5t38 114t80 49.5t134.5 11q61 0 109 1t82 3q40 2 70 5v-95q-27 -3 -63 -5q-31 -2 -75 -3t-99 -1q-38 0 -60 -4t-33.5 -20
t-15.5 -48.5t-4 -90.5q12 1 28 2q14 1 32.5 1.5t43.5 0.5q87 0 141 -5.5t84 -30.5t40.5 -76t10.5 -141zM427 231q0 59 -2.5 91t-12.5 46.5t-30.5 17t-57.5 2.5q-25 0 -44 -0.5t-33 -1.5q-16 -1 -28 -1v-70q0 -87 2 -134t12 -69t29.5 -25.5t54.5 -3.5h14q31 0 50 2.5t29 16
t13.5 43.5t3.5 86z" />
    <glyph glyph-name="afii10067" unicode="&#x432;" horiz-adv-x="634" 
d="M591 141q0 -53 -15 -81.5t-43 -42t-67 -15.5t-87 -2h-320v499h311q45 0 84.5 -2.5t69 -16t46 -43.5t16.5 -85q0 -37 -10 -56.5t-22 -28.5q-14 -11 -32 -12v-3q19 -2 34 -14q13 -11 24 -33t11 -64zM414 348q0 23 -4.5 35.5t-13.5 18.5t-23.5 7t-35.5 1h-111v-116h114
q22 0 36 1t22.5 6t12 16t3.5 31zM419 150q0 24 -3.5 36.5t-12 18.5t-23.5 7t-38 1h-116v-125h119q20 0 34 1t23 7t13 18.5t4 35.5z" />
    <glyph glyph-name="afii10068" unicode="&#x433;" horiz-adv-x="522" 
d="M226 403v-403h-167v499h444v-96h-277z" />
    <glyph glyph-name="afii10069" unicode="&#x434;" horiz-adv-x="778" 
d="M604 -141v141h-430v-141h-138v229h72l147 411h416v-411h71v-229h-138zM503 410h-117l-111 -322h228v322z" />
    <glyph glyph-name="afii10070" unicode="&#x435;" 
d="M220 210q0 -49 2 -75.5t12.5 -39.5t32.5 -15.5t63 -2.5q57 -1 103 0.5t79 3.5q39 3 69 6v-78q-31 -7 -71 -11q-35 -5 -84 -8t-111 -3q-91 0 -144.5 9t-81 36.5t-35 78t-7.5 134.5q0 87 9.5 139.5t39 80.5t84 37t144.5 9t144.5 -9t83.5 -37t38.5 -80.5t9.5 -139.5v-35
h-380zM427 291q0 49 -2.5 76t-13 39.5t-31 14.5t-56.5 2t-56.5 -2t-31 -14.5t-13.5 -39.5t-3 -76h207z" />
    <glyph glyph-name="afii10072" unicode="&#x436;" horiz-adv-x="928" 
d="M728 0l-120 206h-61v-206h-166v206h-61l-120 -206h-181l152 254l-146 245h178l117 -197h61v197h166v-197h61l117 197h178l-146 -245l152 -254h-181z" />
    <glyph glyph-name="afii10073" unicode="&#x437;" horiz-adv-x="574" 
d="M530 141q0 -53 -15 -83.5t-45.5 -46.5t-76.5 -20t-109 -4q-57 0 -102 3t-77 8q-37 4 -66 11v76q21 -3 48 -5q23 -2 57 -3t76 -1q44 0 71.5 1t42.5 8t20 22t5 43q0 24 -3.5 36.5t-12.5 18.5t-24 7t-38 1h-189v81h188q22 0 36 1t22.5 6t12 16t3.5 31q0 28 -5 43.5
t-19.5 22.5t-40.5 8t-68 1t-74 -1.5t-55 -3.5q-26 -3 -47 -5v77q27 6 64 10q31 4 75.5 7.5t100.5 3.5q57 0 101.5 -4t75.5 -20t47.5 -48t16.5 -87q0 -37 -10 -56.5t-22 -28.5q-14 -11 -32 -12v-3q19 -2 34 -14q13 -11 23.5 -33t10.5 -64z" />
    <glyph glyph-name="afii10074" unicode="&#x438;" 
d="M429 0v316l-211 -316h-159v499h159v-317l211 317h160v-499h-160z" />
    <glyph glyph-name="afii10075" unicode="&#x439;" 
d="M429 0v316l-211 -316h-159v499h159v-317l211 317h160v-499h-160zM489 748q0 -38 -2.5 -69t-18 -53t-49 -34t-95.5 -12t-95 12t-48.5 34t-18 53t-2.5 69h82q0 -30 2 -47.5t10.5 -26.5t24.5 -11.5t45 -2.5t45.5 2.5t25 11.5t10.5 26.5t2 47.5h82z" />
    <glyph glyph-name="afii10076" unicode="&#x43a;" horiz-adv-x="640" 
d="M431 0l-137 206h-68v-206h-167v499h167v-197h68l132 197h188l-169 -245l176 -254h-190z" />
    <glyph glyph-name="afii10077" unicode="&#x43b;" horiz-adv-x="662" 
d="M438 0v403h-120l-137 -403h-170l178 499h415v-499h-166z" />
    <glyph glyph-name="afii10078" unicode="&#x43c;" horiz-adv-x="848" 
d="M635 0v376l-127 -376h-174l-124 376v-376h-151v499h239l125 -376l126 376h240v-499h-154z" />
    <glyph glyph-name="afii10079" unicode="&#x43d;" 
d="M422 0v206h-196v-206h-167v499h167v-197h196v197h167v-499h-167z" />
    <glyph glyph-name="afii10080" unicode="&#x43e;" 
d="M600 245q0 -84 -7.5 -134.5t-35 -78t-82.5 -36.5t-151 -9t-151 9t-83 36.5t-35.5 78t-7.5 134.5q0 87 9.5 139.5t39 80.5t84 37t144.5 9t144.5 -9t83.5 -37t38.5 -80.5t9.5 -139.5zM427 250q0 62 -2.5 96t-12 49.5t-29.5 18t-54 2.5h-9q-35 0 -55 -2.5t-30.5 -18
t-13 -49.5t-2.5 -96v-9q0 -59 2 -91t11.5 -47t30 -17.5t57.5 -2.5h9q36 0 56 2.5t29 17.5t11 47t2 91v9z" />
    <glyph glyph-name="afii10081" unicode="&#x43f;" 
d="M422 0v403h-196v-403h-167v499h530v-499h-167z" />
    <glyph glyph-name="afii10082" unicode="&#x440;" 
d="M600 245q0 -84 -7.5 -134.5t-35 -78t-81.5 -36.5t-147 -9q-48 0 -75 3q-16 1 -28 3v-220h-167v717q31 6 72 10q35 4 85 7.5t113 3.5q87 0 140.5 -9t82.5 -37t38.5 -80.5t9.5 -139.5zM427 250q0 62 -2.5 96t-12.5 49.5t-31 18t-57 2.5q-23 0 -41 -1t-31 -2q-15 -1 -26 -2
v-325q11 -1 26 -2q13 -1 31 -1h41q38 0 59 2.5t30.5 17.5t11.5 47t2 91v9z" />
    <glyph glyph-name="afii10083" unicode="&#x441;" horiz-adv-x="571" 
d="M540 9q-29 -7 -66 -11q-32 -5 -77.5 -8t-102.5 -3q-86 0 -135 10.5t-74 39t-31.5 79t-6.5 129.5q0 82 8.5 134t34 81t73.5 40t128 11q57 0 101 -3.5t76 -7.5q37 -4 65 -10v-83q-37 3 -74 5q-32 2 -69.5 3t-69.5 -1q-35 -1 -55.5 -4t-30.5 -19t-12.5 -50.5t-2.5 -98.5
q0 -58 2 -89.5t11.5 -46t30.5 -17.5t59 -4q34 -2 72.5 -1t70.5 3q38 2 75 5v-83v0z" />
    <glyph glyph-name="afii10084" unicode="&#x442;" horiz-adv-x="541" 
d="M354 403v-403h-167v403h-167v96h500v-96h-166z" />
    <glyph glyph-name="afii10085" unicode="&#x443;" horiz-adv-x="620" 
d="M424 -69q-19 -56 -38 -90t-41.5 -52t-49.5 -23.5t-61 -5.5q-45 0 -79.5 3t-58.5 8q-28 5 -50 12v81q15 -2 34 -4q17 -2 40.5 -3t53.5 -1q22 0 36 2t24 10.5t18 27t19 51.5l17 53h-111l-162 499h174l124 -403l125 403h170z" />
    <glyph glyph-name="afii10086" unicode="&#x444;" horiz-adv-x="974" 
d="M927 245q0 -84 -7.5 -134.5t-34.5 -78t-79 -36.5t-141 -9q-45 0 -69 3q-15 1 -26 3v-220h-166v220q-11 -2 -25 -3q-24 -3 -70 -3q-89 0 -141 9t-79 36.5t-34.5 78t-7.5 134.5q0 87 9.5 139.5t38 80.5t80 37t134.5 9q22 0 40 -1t30 -2q14 -1 25 -2v219h166v-219q11 1 26 2
q12 1 29.5 2t39.5 1q83 0 134.5 -9t80 -37t38 -80.5t9.5 -139.5zM404 412q-11 1 -24 2q-12 1 -28.5 1.5t-37.5 0.5q-32 0 -51 -2.5t-29 -18t-12.5 -49.5t-2.5 -96v-9q0 -59 2 -91t11.5 -47t28.5 -17.5t53 -2.5h37.5t28.5 1q13 1 24 2v326zM754 250q0 62 -2.5 96t-12 49.5
t-28 18t-51.5 2.5q-21 0 -37.5 -0.5t-28.5 -1.5q-14 -1 -24 -2v-326q10 -1 24 -2q12 -1 28.5 -1h37.5q34 0 53 2.5t28 17.5t11 47t2 91v9z" />
    <glyph glyph-name="afii10087" unicode="&#x445;" horiz-adv-x="628" 
d="M430 0l-118 206l-117 -206h-176l150 254l-144 245h177l113 -197l112 197h175l-143 -245l150 -254h-179z" />
    <glyph glyph-name="afii10088" unicode="&#x446;" horiz-adv-x="697" 
d="M522 -141v141h-463v499h167v-403h196v403h167v-411h71v-229h-138z" />
    <glyph glyph-name="afii10089" unicode="&#x447;" horiz-adv-x="625" 
d="M399 0v167q-11 -2 -25 -3q-12 -1 -29.5 -1.5t-38.5 -0.5q-77 0 -127 4.5t-79.5 22.5t-41.5 53.5t-12 98.5v158h166v-158q0 -32 5 -49t16.5 -24.5t29 -9t43.5 -1.5q44 0 68 3q14 1 25 3v236h167v-499h-167z" />
    <glyph glyph-name="afii10090" unicode="&#x448;" horiz-adv-x="974" 
d="M59 0v499h167v-403h178v403h166v-403h179v403h166v-499h-856z" />
    <glyph glyph-name="afii10091" unicode="&#x449;" horiz-adv-x="1024" 
d="M849 -141v141h-790v499h167v-403h178v403h166v-403h179v403h166v-411h71v-229h-137z" />
    <glyph glyph-name="afii10092" unicode="&#x44a;" horiz-adv-x="796" 
d="M766 152q0 -57 -14.5 -88t-42 -45t-66.5 -16.5t-88 -2.5h-321v403h-214v96h381v-197h148q50 0 90.5 -2.5t68.5 -16.5t43 -44.5t15 -86.5zM594 150q0 24 -3.5 36.5t-12 18.5t-23.5 7t-38 1h-116v-125h119q20 0 34 1t23 7t13 18.5t4 35.5z" />
    <glyph glyph-name="afii10093" unicode="&#x44b;" horiz-adv-x="886" 
d="M591 152q0 -57 -15 -88t-42.5 -45t-66.5 -16.5t-88 -2.5h-320v499h167v-197h147q50 0 90.5 -2.5t69 -16.5t43.5 -44.5t15 -86.5zM419 150q0 24 -3.5 36.5t-12.5 18.5t-24 7t-37 1h-116v-125h119q20 0 34 1t23 7t13 18.5t4 35.5zM661 0v499h167v-499h-167z" />
    <glyph glyph-name="afii10094" unicode="&#x44c;" horiz-adv-x="621" 
d="M591 152q0 -57 -15 -88t-42.5 -45t-66.5 -16.5t-88 -2.5h-320v499h167v-197h147q50 0 90.5 -2.5t69 -16.5t43.5 -44.5t15 -86.5zM419 150q0 24 -3.5 36.5t-12.5 18.5t-24 7t-37 1h-116v-125h119q20 0 34 1t23 7t13 18.5t4 35.5z" />
    <glyph glyph-name="afii10095" unicode="&#x44d;" horiz-adv-x="579" 
d="M530 245q0 -79 -6 -129.5t-31 -79t-74 -39t-135 -10.5q-57 0 -102 3t-77 8q-37 4 -66 11v76q37 -3 75 -5q32 -2 70 -3.5t71 0.5q37 1 58 4t31.5 15.5t12.5 39.5t2 77h-287v81h286q0 46 -3 71.5t-13.5 37.5t-30 14.5t-53.5 4.5q-33 1 -70 0t-69 -3l-74 -6v77q28 6 65 10
q32 4 76.5 7.5t101.5 3.5q79 0 127 -11t73.5 -40t33.5 -81t8 -134z" />
    <glyph glyph-name="afii10096" unicode="&#x44e;" horiz-adv-x="974" 
d="M927 245q0 -84 -7.5 -134.5t-35 -78t-83 -36.5t-151.5 -9q-89 0 -142.5 8t-82.5 31.5t-39 66.5t-12 113h-148v-206h-167v499h167v-197h149q3 67 16 108.5t43.5 63.5t82.5 29.5t133 7.5q90 0 144.5 -9t84 -37t39 -80.5t9.5 -139.5zM754 250q0 62 -2.5 96t-12 49.5
t-29.5 18t-55 2.5h-9q-35 0 -54.5 -2.5t-30 -18t-13 -49.5t-2.5 -96v-9q0 -59 2 -91t11.5 -47t30 -17.5t56.5 -2.5h9q36 0 56 2.5t29.5 17.5t11.5 47t2 91v9z" />
    <glyph glyph-name="afii10097" unicode="&#x44f;" horiz-adv-x="636" 
d="M411 0v180h-138l-63 -180h-183l84 193q-36 14 -50.5 45.5t-14.5 95.5q0 58 15.5 91t44.5 49.5t69.5 20.5t91.5 4h311v-499h-167zM411 404h-115q-24 0 -39.5 -1t-24 -7.5t-12 -20.5t-3.5 -39q0 -23 3 -35.5t11.5 -18t23.5 -6.5t39 -1h117v129z" />
    <glyph glyph-name="uni0450" unicode="&#x450;" 
d="M220 210q0 -49 2 -75.5t12.5 -39.5t32.5 -15.5t63 -2.5q57 -1 103 0.5t79 3.5q39 3 69 6v-78q-31 -7 -71 -11q-35 -5 -84 -8t-111 -3q-91 0 -144.5 9t-81 36.5t-35 78t-7.5 134.5q0 87 9.5 139.5t39 80.5t84 37t144.5 9t144.5 -9t83.5 -37t38.5 -80.5t9.5 -139.5v-35
h-380zM427 291q0 49 -2.5 76t-13 39.5t-31 14.5t-56.5 2t-56.5 -2t-31 -14.5t-13.5 -39.5t-3 -76h207zM283 584l-119 164h127l113 -164h-121z" />
    <glyph glyph-name="afii10071" unicode="&#x451;" 
d="M220 210q0 -49 2 -75.5t12.5 -39.5t32.5 -15.5t63 -2.5q57 -1 103 0.5t79 3.5q39 3 69 6v-78q-31 -7 -71 -11q-35 -5 -84 -8t-111 -3q-91 0 -144.5 9t-81 36.5t-35 78t-7.5 134.5q0 87 9.5 139.5t39 80.5t84 37t144.5 9t144.5 -9t83.5 -37t38.5 -80.5t9.5 -139.5v-35
h-380zM427 291q0 49 -2.5 76t-13 39.5t-31 14.5t-56.5 2t-56.5 -2t-31 -14.5t-13.5 -39.5t-3 -76h207zM137 584v125h138v-125h-138zM374 584v125h138v-125h-138z" />
    <glyph glyph-name="afii10099" unicode="&#x452;" horiz-adv-x="684" 
d="M625 -60q0 -50 -9 -84.5t-30 -55.5t-55 -30.5t-83 -9.5q-42 0 -74.5 3t-55.5 8q-27 5 -48 12v79q12 -2 28 -3q27 -3 78 -3q27 0 43 3.5t24.5 12.5t11.5 25.5t3 42.5v393q0 31 -5.5 48t-17.5 24.5t-30.5 9t-44.5 1.5q-23 0 -41 -1t-31 -2q-15 -1 -26 -2v-411h-166v581h-90
v66h90v78h166v-78h145v-66h-145v-75q11 1 26 2q13 1 31 2t41 1q67 0 117 -4.5t83 -22.5t49 -53.5t16 -97.5v-393v0z" />
    <glyph glyph-name="afii10100" unicode="&#x453;" horiz-adv-x="522" 
d="M226 403v-403h-167v499h444v-96h-277zM322 584h-121l112 164h127z" />
    <glyph glyph-name="afii10101" unicode="&#x454;" horiz-adv-x="579" 
d="M540 9q-29 -7 -66 -11q-32 -5 -77.5 -8t-102.5 -3q-86 0 -135 10.5t-74 39t-31.5 79t-6.5 129.5q0 82 8.5 134t34 81t73.5 40t128 11q57 0 101 -3.5t76 -7.5q37 -4 65 -10v-77l-74 6q-32 2 -69.5 3t-69.5 0q-34 -2 -53.5 -4.5t-29.5 -14.5t-13 -37.5t-4 -71.5h286v-81
h-286q0 -50 2 -77t12 -39.5t30.5 -15.5t57.5 -4q34 -2 72.5 -0.5t70.5 3.5q38 2 75 5v-76v0z" />
    <glyph glyph-name="afii10102" unicode="&#x455;" horiz-adv-x="585" 
d="M546 139q0 -52 -14 -82.5t-44 -46t-78 -19.5t-116 -4q-59 0 -105.5 3t-78.5 8q-38 4 -67 11v76q22 -3 51 -5q25 -2 59 -3t79 -1q46 0 74 1t43 6.5t20 18t5 35.5q0 18 -1 29t-5.5 17.5t-14.5 9.5t-29 6l-135 17q-54 7 -83 20.5t-42.5 32.5t-15.5 43.5t-2 53.5
q0 50 18.5 79t51 43.5t75.5 18.5t91 4q55 0 98.5 -3.5t74.5 -7.5q36 -4 64 -10v-77q-20 2 -46 5q-23 2 -54.5 3.5t-71.5 1.5q-41 0 -66.5 -1t-39.5 -6t-19 -16t-5 -32q0 -16 1 -25.5t5.5 -15t15 -8.5t29.5 -6l134 -18q54 -7 83 -19t42.5 -31t16 -45.5t2.5 -60.5z" />
    <glyph glyph-name="afii10103" unicode="&#x456;" horiz-adv-x="284" 
d="M59 0v499h167v-499h-167zM59 584v141h167v-141h-167z" />
    <glyph glyph-name="afii10104" unicode="&#x457;" horiz-adv-x="284" 
d="M59 0v499h167v-499h-167zM-45 584v125h138v-125h-138zM192 584v125h138v-125h-138z" />
    <glyph glyph-name="afii10105" unicode="&#x458;" horiz-adv-x="380" 
d="M320 -60q0 -50 -9 -84.5t-30 -55.5t-55 -30.5t-83 -9.5q-42 0 -74.5 3t-55.5 8q-27 5 -47 12v79q13 -2 29 -3q27 -3 77 -3q26 0 42 3.5t25 12.5t12 25.5t3 42.5v559h166v-559zM154 584v141h166v-141h-166z" />
    <glyph glyph-name="afii10106" unicode="&#x459;" horiz-adv-x="972" 
d="M942 152q0 -57 -15 -88t-42.5 -45t-66.5 -16.5t-88 -2.5h-311v403h-101l-137 -403h-170l178 499h396v-197h140q50 0 90 -2.5t68.5 -16.5t43.5 -44.5t15 -86.5zM770 150q0 24 -3.5 36.5t-12.5 18.5t-24 7t-37 1h-108v-125h111q20 0 34 1t23 7t13 18.5t4 35.5z" />
    <glyph glyph-name="afii10107" unicode="&#x45a;" horiz-adv-x="956" 
d="M927 152q0 -57 -15 -88t-42.5 -45t-67 -16.5t-88.5 -2.5h-310v206h-178v-206h-167v499h167v-197h178v197h166v-197h140q50 0 90 -2.5t68.5 -16.5t43.5 -44.5t15 -86.5zM754 150q0 24 -3.5 36.5t-12 18.5t-23.5 7t-38 1h-107v-125h110q20 0 34 1t23 7t13 18.5t4 35.5z" />
    <glyph glyph-name="afii10108" unicode="&#x45b;" horiz-adv-x="684" 
d="M458 0v333q0 31 -5.5 48t-17.5 24.5t-30.5 9t-44.5 1.5q-23 0 -41 -1t-31 -2q-15 -1 -26 -2v-411h-167v581h-89v66h89v78h167v-78h145v-66h-145v-75q11 1 26 2q13 1 31 2t41 1q67 0 117 -4.5t83 -22.5t49 -53.5t16 -97.5v-333h-167z" />
    <glyph glyph-name="afii10109" unicode="&#x45c;" horiz-adv-x="640" 
d="M431 0l-137 206h-68v-206h-167v499h167v-197h68l132 197h188l-169 -245l176 -254h-190zM366 584h-121l112 164h127z" />
    <glyph glyph-name="uni045D" unicode="&#x45d;" 
d="M429 0v316l-211 -316h-159v499h159v-317l211 317h160v-499h-160zM283 584l-119 164h127l113 -164h-121z" />
    <glyph glyph-name="afii10110" unicode="&#x45e;" horiz-adv-x="620" 
d="M424 -69q-19 -56 -38 -90t-41.5 -52t-49.5 -23.5t-61 -5.5q-45 0 -79.5 3t-58.5 8q-28 5 -50 12v81q15 -2 34 -4q17 -2 40.5 -3t53.5 -1q22 0 36 2t24 10.5t18 27t19 51.5l17 53h-111l-162 499h174l124 -403l125 403h170zM477 748q0 -38 -2.5 -69t-18 -53t-49 -34
t-95.5 -12t-95 12t-48.5 34t-18 53t-2.5 69h82q0 -30 2 -47.5t10.5 -26.5t24.5 -11.5t45 -2.5t45.5 2.5t25 11.5t10.5 26.5t2 47.5h82z" />
    <glyph glyph-name="afii10193" unicode="&#x45f;" 
d="M393 0v-141h-138v141h-196v499h167v-403h196v403h167v-499h-196z" />
    <glyph glyph-name="afii10146" unicode="&#x462;" horiz-adv-x="766" 
d="M728 206q0 -77 -19 -119t-52 -61.5t-77.5 -22.5t-94.5 -3h-378v499h-101v76h101v105h182v-105h163v-76h-163v-90h191q53 0 98.5 -3t78.5 -22t52 -60.5t19 -117.5zM540 204q0 34 -4.5 52t-16.5 26.5t-32.5 10t-52.5 1.5h-145v-180h148q29 0 49 1.5t32 10t17 26.5t5 52z
" />
    <glyph glyph-name="afii10194" unicode="&#x463;" horiz-adv-x="657" 
d="M627 152q0 -57 -15 -88t-42.5 -45t-66.5 -16.5t-88 -2.5h-319v411h-90v66h90v113h166v-113h145v-66h-145v-109h148q50 0 90 -2.5t68.5 -16.5t43.5 -44.5t15 -86.5zM455 150q0 24 -3.5 36.5t-12.5 18.5t-24 7t-37 1h-116v-125h119q20 0 34 1t23 7t13 18.5t4 35.5z" />
    <glyph glyph-name="afii10147" unicode="&#x472;" horiz-adv-x="777" 
d="M714 333q0 -78 -3 -133.5t-14 -94t-32 -62t-57.5 -36t-90 -16.5t-129.5 -4q-75 0 -128.5 4t-90 16.5t-57.5 36t-32 62t-14 94t-3 133.5q0 81 4.5 139.5t17.5 98.5t35.5 64t58.5 37t87.5 17t121.5 4q106 0 170.5 -10.5t99 -47.5t45.5 -108.5t11 -193.5zM526 395
q0 69 -3.5 106.5t-17 54.5t-40 20t-72.5 3h-8q-47 0 -73.5 -3t-39.5 -20t-16.5 -54.5t-3.5 -106.5h274zM252 290q0 -71 2.5 -109.5t15 -56t39.5 -20.5t76 -3h8q49 0 76 3t39.5 20.5t15 56t2.5 109.5h-274z" />
    <glyph glyph-name="afii10195" unicode="&#x473;" 
d="M600 245q0 -84 -7.5 -134.5t-35 -78t-82.5 -36.5t-151 -9t-151 9t-83 36.5t-35.5 78t-7.5 134.5q0 87 9.5 139.5t39 80.5t84 37t144.5 9t144.5 -9t83.5 -37t38.5 -80.5t9.5 -139.5zM427 293q0 49 -2.5 75.5t-12 38.5t-29.5 14t-54 2h-9q-35 0 -55 -2t-30 -14t-12.5 -38.5
t-2.5 -75.5h207zM219 211q0 -51 2 -78t11.5 -40t30 -15t57.5 -2h9q36 0 56 2t29 15t11 40t2 78h-208z" />
    <glyph glyph-name="afii10148" unicode="&#x474;" horiz-adv-x="888" 
d="M860 560q-13 2 -30 4q-15 2 -36 3.5t-47 1.5q-16 0 -27 -2t-20 -12.5t-18.5 -34.5t-23.5 -67l-147 -453h-282l-220 680h190l172 -556l105 329q26 82 44.5 130t38.5 72.5t45 31t64 6.5q45 0 80.5 -3.5t60.5 -7.5q29 -4 51 -10v-112v0z" />
    <glyph glyph-name="afii10196" unicode="&#x475;" horiz-adv-x="721" 
d="M700 408q-10 2 -22 4q-11 2 -26 3t-35 1q-12 0 -20.5 -1.5t-15 -9t-13.5 -24.5t-17 -48l-109 -333h-268l-163 499h173l125 -403l76 237q19 59 34 94t31.5 54t38 24.5t53.5 5.5q37 0 66.5 -3.5t49.5 -7.5q24 -4 42 -10v-82v0z" />
    <glyph glyph-name="afii10050" unicode="&#x490;" horiz-adv-x="658" 
d="M257 557v-557h-182v680h383v192h150v-315h-351z" />
    <glyph glyph-name="afii10098" unicode="&#x491;" horiz-adv-x="539" 
d="M226 403v-403h-167v499h305v141h139v-237h-277z" />
    <glyph glyph-name="Wgrave" unicode="&#x1e80;" horiz-adv-x="1063" 
d="M896 0h-253l-112 521l-112 -521h-254l-146 680h174l116 -556l117 556h211l117 -556l117 556h173zM490 757l-119 164h127l113 -164h-121z" />
    <glyph glyph-name="wgrave" unicode="&#x1e81;" horiz-adv-x="931" 
d="M793 0h-239l-89 376l-88 -376h-240l-117 499h159l92 -403l93 403h205l92 -403l92 403h158zM424 584l-119 164h127l113 -164h-121z" />
    <glyph glyph-name="Wacute" unicode="&#x1e82;" horiz-adv-x="1063" 
d="M896 0h-253l-112 521l-112 -521h-254l-146 680h174l116 -556l117 556h211l117 -556l117 556h173zM573 757h-121l112 164h127z" />
    <glyph glyph-name="wacute" unicode="&#x1e83;" horiz-adv-x="931" 
d="M793 0h-239l-89 376l-88 -376h-240l-117 499h159l92 -403l93 403h205l92 -403l92 403h158zM507 584h-121l112 164h127z" />
    <glyph glyph-name="Wdieresis" unicode="&#x1e84;" horiz-adv-x="1063" 
d="M896 0h-253l-112 521l-112 -521h-254l-146 680h174l116 -556l117 556h211l117 -556l117 556h173zM344 757v125h138v-125h-138zM581 757v125h138v-125h-138z" />
    <glyph glyph-name="wdieresis" unicode="&#x1e85;" horiz-adv-x="931" 
d="M793 0h-239l-89 376l-88 -376h-240l-117 499h159l92 -403l93 403h205l92 -403l92 403h158zM278 584v125h138v-125h-138zM515 584v125h138v-125h-138z" />
    <glyph glyph-name="Ygrave" unicode="&#x1ef2;" horiz-adv-x="718" 
d="M484 271h-33v-271h-183v271h-33l-226 409h195l156 -285l156 285h194zM318 757l-119 164h127l113 -164h-121z" />
    <glyph glyph-name="ygrave" unicode="&#x1ef3;" horiz-adv-x="620" 
d="M424 -69q-19 -56 -38 -90t-41.5 -52t-49.5 -23.5t-61 -5.5q-45 0 -79.5 3t-58.5 8q-28 5 -50 12v81q15 -2 34 -4q17 -2 40.5 -3t53.5 -1q22 0 36 2t24 10.5t18 27t19 51.5l17 53h-111l-162 499h174l124 -403l125 403h170zM271 584l-119 164h127l113 -164h-121z" />
    <glyph glyph-name="uni2010" unicode="&#x2010;" horiz-adv-x="443" 
d="M50 238v113h343v-113h-343z" />
    <glyph glyph-name="endash" unicode="&#x2013;" horiz-adv-x="500" 
d="M0 248v94h500v-94h-500z" />
    <glyph glyph-name="emdash" unicode="&#x2014;" horiz-adv-x="1000" 
d="M200 248v94h600v-94h-600z" />
    <glyph glyph-name="afii00208" unicode="&#x2015;" horiz-adv-x="1028" 
d="M50 248v94h929v-94h-929z" />
    <glyph glyph-name="quoteleft" unicode="&#x2018;" horiz-adv-x="272" 
d="M175 595h38v-150h-154v150l73 130h109z" />
    <glyph glyph-name="quoteright" unicode="&#x2019;" horiz-adv-x="272" 
d="M140 445h-108l65 131h-38v149h154v-149z" />
    <glyph glyph-name="quotesinglbase" unicode="&#x201a;" horiz-adv-x="272" 
d="M140 -131h-108l65 131h-38v150h154v-150z" />
    <glyph glyph-name="quotedblleft" unicode="&#x201c;" horiz-adv-x="528" 
d="M175 595h38v-150h-154v150l73 130h109zM430 595h38v-150h-154v150l73 130h109z" />
    <glyph glyph-name="quotedblright" unicode="&#x201d;" horiz-adv-x="528" 
d="M140 445h-108l65 131h-38v149h154v-149zM395 445h-108l65 131h-38v149h154v-149z" />
    <glyph glyph-name="quotedblbase" unicode="&#x201e;" horiz-adv-x="528" 
d="M140 -131h-108l65 131h-38v150h154v-150zM395 -131h-108l65 131h-38v150h154v-150z" />
    <glyph glyph-name="dagger" unicode="&#x2020;" horiz-adv-x="608" 
d="M380 385v-612h-152v612h-178v114h178v226h152v-226h177v-114h-177z" />
    <glyph glyph-name="daggerdbl" unicode="&#x2021;" horiz-adv-x="608" 
d="M380 0v-227h-152v227h-178v114h178v271h-178v114h178v226h152v-226h177v-114h-177v-271h177v-114h-177z" />
    <glyph glyph-name="bullet" unicode="&#x2022;" horiz-adv-x="390" 
d="M340 340q0 -30 -11.5 -56.5t-31 -46t-46 -31t-56.5 -11.5t-56.5 11.5t-46 31t-31 46t-11.5 56.5t11.5 56.5t31 46t46 31t56.5 11.5t56.5 -11.5t46 -31t31 -46t11.5 -56.5z" />
    <glyph glyph-name="ellipsis" unicode="&#x2026;" horiz-adv-x="1000" 
d="M416 0v160h167v-160h-167zM59 0v160h167v-160h-167zM775 0v160h167v-160h-167z" />
    <glyph glyph-name="perthousand" unicode="&#x2030;" horiz-adv-x="1527" 
d="M390 0h-92l393 680h92zM412 465q0 -72 -6 -114.5t-26 -64t-57.5 -28t-100.5 -6.5t-100 6.5t-57 28t-26 64t-6 114.5q0 75 7.5 119.5t28 67.5t57.5 29.5t96 6.5q60 0 97 -6.5t57.5 -29.5t28 -67.5t7.5 -119.5zM295 468q0 53 -1.5 82t-8.5 42.5t-21 15.5t-39 2h-6
q-24 0 -38 -2t-21 -15.5t-8.5 -42.5t-1.5 -82v-5q0 -50 1 -77.5t7.5 -40t20.5 -14.5t40 -2h6q26 0 40 2t21 14.5t8 40t1 77.5v5zM1048 205q0 -72 -6 -114t-26 -64t-57.5 -28.5t-100.5 -6.5t-100 6.5t-56.5 28.5t-25.5 64t-6 114q0 75 7 119.5t27.5 67.5t57.5 29.5t96 6.5
q60 0 97 -6.5t57.5 -29.5t28 -67.5t7.5 -119.5zM932 208q0 53 -1.5 82t-8.5 42.5t-21.5 15.5t-39.5 2h-5q-25 0 -39 -2t-21 -15.5t-8.5 -42.5t-1.5 -82v-5q0 -50 1 -77.5t8 -40t21 -14.5t40 -2h5q26 0 40.5 2t21 14.5t8 40t1.5 77.5v5zM1493 205q0 -72 -6 -114t-26 -64
t-57 -28.5t-100 -6.5t-100.5 6.5t-57 28.5t-25 64t-5.5 114q0 75 7 119.5t27.5 67.5t57.5 29.5t96 6.5t96 -6.5t57.5 -29.5t28 -67.5t7.5 -119.5zM1378 208q0 53 -2 82t-9 42.5t-21 15.5t-39 2h-6q-25 0 -39 -2t-21 -15.5t-8.5 -42.5t-1.5 -82v-5q0 -50 1 -77.5t8 -40
t21 -14.5t40 -2h6q26 0 40.5 2t21 14.5t8 40t1.5 77.5v5z" />
    <glyph glyph-name="guilsinglleft" unicode="&#x2039;" horiz-adv-x="343" 
d="M170 22l-145 228l145 227h148l-142 -227l142 -228h-148z" />
    <glyph glyph-name="guilsinglright" unicode="&#x203a;" horiz-adv-x="343" 
d="M173 22h-148l140 228l-140 227h148l145 -227z" />
    <glyph glyph-name="uni203D" unicode="&#x203d;" horiz-adv-x="896" 
d="M554 508q0 -59 -6 -93t-19.5 -52.5t-36 -27.5t-56.5 -16l-71 -16v-76h-152v161l134 30q16 3 26 8t15 14.5t6.5 25.5t1.5 42q0 33 -5 51.5t-21 26.5t-45.5 9.5t-78.5 1.5q-46 0 -82 -1.5t-62 -3.5q-30 -3 -52 -5v85q28 6 67 10q32 4 79 7.5t106 3.5q53 0 99 -4.5t80 -23.5
t53.5 -56t19.5 -101zM205 0v146h167v-146h-167zM663 227v453h152v-453h-152zM656 0v146h167v-146h-167z" />
    <glyph glyph-name="fraction" unicode="&#x2044;" horiz-adv-x="191" 
d="M-55 0h-93l393 680h93z" />
    <glyph glyph-name="uni2070" unicode="&#x2070;" horiz-adv-x="445" 
d="M412 633q0 -72 -6 -114.5t-26 -64.5t-57.5 -28.5t-100.5 -6.5t-100 6.5t-57 28.5t-26 64.5t-6 114.5q0 75 7.5 119t28 67.5t57.5 30t96 6.5q60 0 97 -6.5t57.5 -30t28 -67.5t7.5 -119zM295 635q0 53 -1.5 82t-8.5 42.5t-21 15.5t-39 2h-6q-24 0 -38 -2t-21 -15.5
t-8.5 -42.5t-1.5 -82v-5q0 -50 1 -77.5t7.5 -40t20.5 -14.5t40 -2h6q26 0 40 2t21 14.5t8 40t1 77.5v5z" />
    <glyph glyph-name="uni2074" unicode="&#x2074;" horiz-adv-x="445" 
d="M362 534v-108h-111v108h-223v71l171 242h163v-241h55v-72h-55zM251 771l-118 -165h118v165z" />
    <glyph glyph-name="uni2075" unicode="&#x2075;" horiz-adv-x="445" 
d="M395 557q0 -49 -9.5 -77t-30.5 -41.5t-53.5 -16.5t-78.5 -3q-40 0 -71.5 2t-54.5 4q-26 3 -47 7v64q16 -2 36 -3q17 -2 42 -2.5t55 -0.5q34 0 53 1t29 7.5t12.5 20t2.5 38.5q0 19 -2 29.5t-7 15t-14.5 5.5t-25.5 1h-176v239h313v-71h-202v-103h100q28 0 51.5 -2
t40.5 -12.5t27 -34.5t10 -67z" />
    <glyph glyph-name="uni2076" unicode="&#x2076;" horiz-adv-x="445" 
d="M412 557q0 -49 -13 -77t-37.5 -41.5t-59.5 -16.5t-80 -3q-63 0 -100 6.5t-57 28.5t-26 64.5t-6 114.5q0 75 7.5 119t27 67.5t54 30t87.5 6.5q40 0 72 -2.5t55 -4.5q26 -4 48 -7v-65q-19 1 -42 3q-20 1 -45 2t-51 1h-22q-23 0 -37.5 -1.5t-22.5 -11t-11 -29t-3 -55.5
q8 0 19 1q9 0 22.5 0.5t30.5 0.5q60 0 97.5 -3t58 -16t27.5 -39.5t7 -72.5zM295 557q0 24 -1.5 37t-8.5 19t-22 7t-41 1q-17 0 -30.5 -0.5t-22.5 -0.5h-19v-20q0 -41 1.5 -63.5t9 -33t21.5 -12t40 -1.5q22 0 36.5 1t22.5 7.5t11 20t3 38.5z" />
    <glyph glyph-name="uni2077" unicode="&#x2077;" horiz-adv-x="445" 
d="M228 426h-129l173 344h-220v77h341v-75z" />
    <glyph glyph-name="uni2078" unicode="&#x2078;" horiz-adv-x="445" 
d="M412 545q0 -45 -13.5 -70t-38 -37.5t-60 -15.5t-78.5 -3t-78 3t-59.5 15.5t-38 37.5t-13.5 70q0 35 7.5 54.5t16.5 28.5q11 11 24 12v2q-13 1 -23 10q-8 8 -15 24.5t-7 48.5q0 46 14 72t38.5 39t58.5 16.5t75 3.5t75 -3.5t59 -16.5t38.5 -39t13.5 -72q0 -32 -7 -48.5
t-15 -24.5q-10 -9 -22 -10v-2q13 -1 24 -12q9 -9 16.5 -28.5t7.5 -54.5zM293 722q0 23 -3.5 35.5t-12 18t-22 6.5t-33.5 1t-33 -1t-21.5 -6.5t-12 -18t-3.5 -35.5q0 -20 3 -30.5t10.5 -15t21.5 -5.5t35 -1q22 0 35.5 1t21.5 5.5t11 15t3 30.5zM295 554q0 22 -3 33.5t-11 17
t-22.5 6.5t-36.5 1t-36 -1t-22 -6.5t-11 -17t-3 -33.5q0 -24 3 -37t11 -19t22 -7t36 -1t36 1t22.5 7t11.5 19t3 37z" />
    <glyph glyph-name="uni2079" unicode="&#x2079;" horiz-adv-x="445" 
d="M412 633q0 -72 -6 -114.5t-25 -64.5t-53.5 -28.5t-91.5 -6.5q-41 0 -73 2t-55 4q-26 3 -47 7v64q19 -2 42 -3q19 -2 44 -2.5t51 -0.5h23q24 0 38.5 1.5t22.5 11t10.5 29.5t2.5 56q-8 -1 -19 -1q-9 -1 -23 -1h-31q-60 0 -97.5 3t-57.5 16t-27 38.5t-7 70.5q0 50 14 78.5
t39 42.5t59.5 17.5t76.5 3.5q60 0 97 -6.5t57.5 -30t28 -67.5t7.5 -119zM295 654q0 48 -2 74.5t-9 38.5t-22 14t-40 2q-22 0 -36 -1t-22 -7.5t-11 -20.5t-3 -40q0 -23 1.5 -35.5t9 -18.5t21.5 -7t40 -1h31t23 1q11 0 19 1z" />
    <glyph glyph-name="uni207A" unicode="&#x207a;" horiz-adv-x="388" 
d="M229 578v-138h-68v138h-130v62h130v138h68v-138h129v-62h-129z" />
    <glyph glyph-name="uni207B" unicode="&#x207b;" horiz-adv-x="388" 
d="M31 578v62h327v-62h-327z" />
    <glyph glyph-name="uni207C" unicode="&#x207c;" horiz-adv-x="388" 
d="M31 637v62h327v-62h-327zM31 518v63h327v-63h-327z" />
    <glyph glyph-name="uni207D" unicode="&#x207d;" horiz-adv-x="281" 
d="M251 294q-13 -4 -29 -7q-14 -2 -33.5 -4t-43.5 -2q-40 0 -61.5 17.5t-31.5 54t-11.5 92.5t-1.5 134q0 79 2 136.5t12.5 95t31.5 55t60 17.5q24 0 43.5 -2.5t33.5 -4.5q16 -4 29 -7v-66q-8 1 -18 2q-8 1 -20 2t-26 1t-23.5 -3.5t-14.5 -25t-7 -68t-2 -132.5
q0 -84 2 -129.5t7 -66.5t14 -24.5t24 -3.5q14 0 26 0.5t20 1.5q10 1 18 3v-66v0z" />
    <glyph glyph-name="uni207E" unicode="&#x207e;" horiz-adv-x="281" 
d="M242 579q0 -78 -1.5 -134t-11.5 -92.5t-31.5 -54t-61.5 -17.5q-24 0 -43.5 2t-33.5 4q-16 3 -28 7v66q8 -2 18 -3q8 -1 20 -1.5t26 -0.5q15 0 23.5 3.5t13.5 24.5t6.5 66.5t1.5 129.5q0 86 -1.5 132.5t-6.5 68t-14 25t-23 3.5t-26 -1t-20 -2q-10 -1 -18 -2v66l28 7
q14 2 33.5 4.5t43.5 2.5q39 0 60 -17.5t31.5 -55t12.5 -95t2 -136.5z" />
    <glyph glyph-name="uni207F" unicode="&#x207f;" horiz-adv-x="402" 
d="M258 426v206q0 18 -3 28t-10 14.5t-18 5.5t-26 1q-12 0 -22.5 -0.5t-18.5 -1.5q-10 -1 -17 -1v-252h-107v304q19 3 45 7q22 2 52 4.5t68 2.5q42 0 73 -3t51.5 -14t30.5 -33.5t10 -61.5v-206h-108z" />
    <glyph glyph-name="uni2080" unicode="&#x2080;" horiz-adv-x="445" 
d="M412 51q0 -72 -6 -114.5t-26 -64.5t-57.5 -28.5t-100.5 -6.5t-100 6.5t-57 28.5t-26 64.5t-6 114.5q0 75 7.5 119.5t28 67t57.5 29t96 6.5q60 0 97 -6.5t57.5 -29t28 -67t7.5 -119.5zM295 54q0 53 -1.5 82t-8.5 42.5t-21 15.5t-39 2h-6q-24 0 -38 -2t-21 -15.5
t-8.5 -42.5t-1.5 -82v-6q0 -50 1 -77t7.5 -39.5t20.5 -14.5t40 -2h6q26 0 40 2t21 14.5t8 39.5t1 77v6z" />
    <glyph glyph-name="uni2081" unicode="&#x2081;" horiz-adv-x="445" 
d="M202 -155v341l-129 -48v75l130 53h111v-421h-112z" />
    <glyph glyph-name="uni2082" unicode="&#x2082;" horiz-adv-x="445" 
d="M53 -155v70l189 181q19 18 22.5 25.5t3.5 21.5q0 22 -3.5 34t-13.5 17.5t-27.5 6.5t-44.5 1q-28 0 -50 -1t-38 -3q-18 -2 -33 -3v65q19 3 44 6q21 2 50.5 4.5t67.5 2.5q31 0 60.5 -3t52.5 -16t37 -39t14 -72q0 -15 -0.5 -26t-5 -21.5t-14 -23t-27.5 -28.5l-132 -128h184
v-71h-336z" />
    <glyph glyph-name="uni2083" unicode="&#x2083;" horiz-adv-x="445" 
d="M389 -36q0 -45 -13.5 -70t-36 -38t-53 -16t-63.5 -3q-38 0 -68.5 2t-52.5 4q-26 3 -45 7v65q15 -2 34 -3q33 -3 91 -3q29 0 47 1t28 7t13.5 18.5t3.5 36.5q0 20 -2.5 31t-9 16t-17.5 6t-27 1h-123v67h122q15 0 25.5 0.5t17 5t9 14t2.5 27.5q0 23 -4 35.5t-13.5 18.5
t-27 7t-44.5 1q-28 0 -50 -1t-39 -3q-19 -2 -34 -3v65q18 3 44 6q21 2 51.5 4.5t68.5 2.5q31 0 60 -3t52 -16t37 -39t14 -72q0 -32 -7 -48.5t-15 -24.5q-10 -9 -22 -10v-1q12 -1 23 -12q9 -9 16.5 -28.5t7.5 -54.5z" />
    <glyph glyph-name="uni2084" unicode="&#x2084;" horiz-adv-x="445" 
d="M362 -48v-107h-111v107h-223v71l171 243h163v-242h55v-72h-55zM251 190l-118 -166h118v166z" />
    <glyph glyph-name="uni2085" unicode="&#x2085;" horiz-adv-x="445" 
d="M395 -23q0 -50 -9.5 -78t-30.5 -41.5t-53.5 -17t-78.5 -3.5q-40 0 -71.5 2t-54.5 4q-26 3 -47 7v65q16 -2 36 -3q17 -2 42 -2.5t55 -0.5q34 0 53 1t29 7.5t12.5 20t2.5 39.5q0 18 -2 28t-7 14.5t-14.5 5.5t-25.5 1h-176v240h313v-73h-202v-100h100q28 0 51.5 -2
t40.5 -12.5t27 -34.5t10 -67z" />
    <glyph glyph-name="uni2086" unicode="&#x2086;" horiz-adv-x="445" 
d="M412 -23q0 -50 -13 -78t-37.5 -41.5t-59.5 -17t-80 -3.5q-63 0 -100 6.5t-57 28.5t-26 64.5t-6 114.5q0 75 7.5 119.5t27 67t54 29t87.5 6.5q40 0 72 -2.5t55 -4.5q26 -3 48 -6v-65q-19 1 -42 3q-20 2 -45 3t-51 1h-23q-23 0 -37 -1.5t-22 -11t-11 -29.5t-3 -56q8 0 19 1
q9 0 22.5 0.5t30.5 0.5q60 0 97.5 -3t58 -16t27.5 -39t7 -71zM295 -23q0 24 -1.5 36.5t-8.5 18.5t-22 7t-41 1q-17 0 -30.5 -0.5t-22.5 -0.5q-11 -1 -19 -1v-19q0 -41 1.5 -63.5t9 -33t21.5 -12t40 -1.5q22 0 36.5 1t22.5 7.5t11 20t3 39.5z" />
    <glyph glyph-name="uni2087" unicode="&#x2087;" horiz-adv-x="445" 
d="M228 -155h-129l173 344h-220v77h341v-76z" />
    <glyph glyph-name="uni2088" unicode="&#x2088;" horiz-adv-x="445" 
d="M412 -36q0 -45 -13.5 -70t-38 -38t-60 -16t-78.5 -3t-78 3t-59.5 16t-38 38t-13.5 70q0 35 7.5 54.5t16.5 28.5q11 11 24 12v1q-13 1 -23 10q-8 8 -15 24.5t-7 48.5q0 46 14 72t38.5 39t58.5 16t75 3t75 -3t59 -16t38.5 -39t13.5 -72q0 -32 -7 -48.5t-15 -24.5
q-10 -9 -22 -10v-1q13 -1 24 -12q9 -9 16.5 -28.5t7.5 -54.5zM293 140q0 23 -3.5 35.5t-12 18.5t-22 7t-33.5 1t-33 -1t-21.5 -7t-12 -18.5t-3.5 -35.5q0 -20 3 -30.5t10.5 -15t21.5 -5.5t35 -1q22 0 35.5 1t21.5 5.5t11 15t3 30.5zM295 -28q0 22 -3 34t-11 17.5t-22.5 6.5
t-36.5 1t-36 -1t-22 -6.5t-11 -17.5t-3 -34q0 -24 3 -36.5t11 -18.5t22 -7t36 -1t36 1t22.5 7t11.5 18.5t3 36.5z" />
    <glyph glyph-name="uni2089" unicode="&#x2089;" horiz-adv-x="445" 
d="M412 51q0 -72 -6 -114.5t-25 -64.5t-53.5 -28.5t-91.5 -6.5q-41 0 -73 2t-55 4q-26 3 -47 7v65q19 -2 42 -3q19 -2 44 -2.5t51 -0.5h22q24 0 38.5 1.5t23 11t11 29.5t2.5 56q-8 -1 -19 -1q-9 -1 -23 -1h-31q-60 0 -97.5 3t-57.5 15.5t-27 38.5t-7 71q0 50 14 78t39 42
t59.5 17t76.5 3q60 0 97 -6.5t57.5 -29t28 -67t7.5 -119.5zM295 72q0 49 -2 75.5t-9 38.5t-22 14t-40 2q-22 0 -36 -1t-22 -7.5t-11 -20.5t-3 -40q0 -23 1.5 -35.5t9 -18.5t21.5 -7t40 -1h54q11 0 19 1z" />
    <glyph glyph-name="uni208A" unicode="&#x208a;" horiz-adv-x="388" 
d="M229 -4v-137h-68v137h-130v63h130v137h68v-137h129v-63h-129z" />
    <glyph glyph-name="uni208B" unicode="&#x208b;" horiz-adv-x="388" 
d="M31 -4v63h327v-63h-327z" />
    <glyph glyph-name="uni208C" unicode="&#x208c;" horiz-adv-x="388" 
d="M31 56v62h327v-62h-327zM31 -63v62h327v-62h-327z" />
    <glyph glyph-name="uni208D" unicode="&#x208d;" horiz-adv-x="281" 
d="M251 -288q-13 -4 -29 -7q-14 -2 -33.5 -4t-43.5 -2q-40 0 -61.5 17.5t-31.5 54t-11.5 93t-1.5 134.5q0 79 2 136.5t12.5 95t31.5 55t60 17.5q24 0 43.5 -2.5t33.5 -4.5q16 -4 29 -7v-66q-8 1 -18 2q-8 1 -20 2t-26 1t-23.5 -3.5t-14.5 -25t-7 -68t-2 -132.5q0 -84 2 -130
t7 -67t14 -24.5t24 -3.5q14 0 26 0.5t20 1.5q10 1 18 3v-66v0z" />
    <glyph glyph-name="uni208E" unicode="&#x208e;" horiz-adv-x="281" 
d="M242 -2q0 -78 -1.5 -134.5t-11.5 -93t-31.5 -54t-61.5 -17.5q-24 0 -43.5 2t-33.5 4q-16 3 -28 7v66q8 -2 18 -3q8 -1 20 -1.5t26 -0.5q15 0 23.5 3.5t13.5 24.5t6.5 67t1.5 130q0 86 -1.5 132.5t-6.5 68t-14 25t-23 3.5t-26 -1t-20 -2q-10 -1 -18 -2v66l28 7
q14 2 33.5 4.5t43.5 2.5q39 0 60 -17.5t31.5 -55t12.5 -95t2 -136.5z" />
    <glyph glyph-name="Euro" unicode="&#x20ac;" horiz-adv-x="717" 
d="M649 9q-32 -7 -72 -11q-35 -5 -84 -8t-111 -3q-82 0 -133 11.5t-80 40.5t-40.5 78t-14.5 125h-70v66h69v64h-69v66h71q4 77 18 126.5t43.5 78t78.5 39.5t123 11q62 0 110.5 -3.5t83.5 -7.5q40 -4 71 -10v-98q-40 3 -80 5q-35 2 -75.5 2.5t-76.5 -0.5q-34 -1 -56.5 -3.5
t-36 -16t-19 -42.5t-5.5 -81h320v-66h-320v-64h320v-66h-320q0 -53 4.5 -81.5t17 -42t35.5 -16.5t61 -4q37 -1 79 0.5t77 3.5q41 2 81 5v-98v0z" />
    <glyph glyph-name="afii61248" unicode="&#x2105;" horiz-adv-x="1060" 
d="M373 0h-93l392 680h93zM398 333q-22 -4 -48 -8q-23 -3 -55 -5t-73 -2q-61 0 -96 7.5t-52.5 27.5t-22 56t-4.5 92q0 58 6 94.5t24.5 57.5t52.5 28.5t90 7.5q40 0 71.5 -2.5t54.5 -5.5q26 -4 47 -8v-62q-27 2 -53 4q-23 2 -49 3t-49 0q-24 -1 -38 -3.5t-21 -13.5t-9 -34.5
t-2 -67.5q0 -41 1 -62.5t8 -32t21.5 -12.5t40.5 -3q23 -1 50 0t50 3q27 2 55 4v-63zM1013 174q0 -59 -5.5 -95t-25.5 -55.5t-59 -26t-107 -6.5t-107 6.5t-59 26t-25 55.5t-5 95q0 61 6.5 98t27.5 57t59.5 26.5t102.5 6.5t103 -6.5t60 -26.5t27.5 -57t6.5 -98zM887 176
q0 43 -1.5 67t-8.5 34.5t-20.5 12.5t-37.5 2h-6q-24 0 -37.5 -2t-20 -12.5t-8.5 -34.5t-2 -67v-5q0 -41 1.5 -63t8 -32.5t20 -12t38.5 -1.5h6q25 0 38.5 1.5t20 12t8 32.5t1.5 63v5z" />
    <glyph glyph-name="afii61289" unicode="&#x2113;" horiz-adv-x="434" 
d="M413 9q-21 -7 -47 -11q-23 -5 -55.5 -8t-74.5 -3q-50 0 -83.5 9.5t-54.5 30.5t-30 55t-9 84v559h167v-559q0 -26 3 -42t11.5 -25t24.5 -12.5t42 -3.5q24 0 43.5 0.5t33.5 1.5q16 1 29 3v-79v0z" />
    <glyph glyph-name="afii61352" unicode="&#x2116;" horiz-adv-x="1249" 
d="M861 252v62h339v-62h-339zM1202 522q0 -51 -4.5 -82.5t-22 -48.5t-51.5 -22.5t-94 -5.5q-59 0 -93.5 5.5t-52 22.5t-22 48.5t-4.5 82.5q0 54 6 86.5t24.5 50.5t52 23.5t89.5 5.5t90 -5.5t52 -23.5t24 -50.5t6 -86.5zM1091 525q0 37 -1.5 57t-7 29.5t-17 11t-32.5 1.5h-6
q-20 0 -31.5 -1.5t-17.5 -11t-7.5 -29.5t-1.5 -57v-5q0 -36 1 -55t7 -28t17.5 -10.5t32.5 -1.5h6q22 0 33.5 1.5t17 10.5t6.5 28t1 55v5zM497 0l-256 521v-521h-166v680h252l256 -521v521h166v-680h-252z" />
    <glyph glyph-name="uni2117" unicode="&#x2117;" horiz-adv-x="793" 
d="M750 333q0 -76 -4 -131.5t-17 -94t-37 -62t-63 -36.5t-96 -17.5t-136 -4.5t-136 4.5t-96.5 17.5t-63 36.5t-36.5 62t-17 94t-4 131.5q0 80 5.5 137.5t20 97.5t39.5 64.5t64.5 38t94.5 18t129 4.5q111 0 180 -11.5t107.5 -49t52 -108.5t13.5 -191zM673 333q0 71 -3 120.5
t-12.5 82t-28 50.5t-49 26.5t-75.5 10.5t-108 2t-108 -2t-76 -10.5t-49 -26.5t-28 -50.5t-13 -82t-3 -120.5q0 -68 2 -114.5t10 -77.5t25.5 -48t48 -25.5t77.5 -10t114 -1.5t113.5 1.5t77.5 10t48 25.5t25 48t10 77.5t2 114.5zM576 409q0 -43 -8.5 -67.5t-26.5 -36.5
t-44.5 -14.5t-62.5 -2.5h-108v-144h-104v393h209q34 0 60.5 -3t45.5 -15.5t29 -38.5t10 -71zM469 410q0 22 -2 34t-9 17.5t-19 6.5t-32 1h-81v-114h83q20 0 32 1t18 6t8 16t2 32z" />
    <glyph glyph-name="trademark" unicode="&#x2122;" horiz-adv-x="736" 
d="M193 619v-246h-88v246h-93v61h274v-61h-93zM621 373v212l-66 -212h-83l-66 212v-212h-80v307h119l70 -222l68 222h119v-307h-81z" />
    <glyph glyph-name="uni2126" unicode="&#x2126;" horiz-adv-x="817" 
d="M451 0v114l68 102q13 19 20 34.5t10.5 36t4 48.5t0.5 73q0 64 -5 99t-20 51t-43 18.5t-74 2.5h-8q-47 0 -74.5 -2.5t-42.5 -18.5t-19.5 -51t-4.5 -99q0 -45 0.5 -73.5t3.5 -49t10 -36t19 -33.5l70 -102v-114h-291v114h109l-51 75q-22 32 -33.5 55.5t-17 49t-6.5 57.5
t-1 80q0 93 14.5 146t51.5 78.5t101.5 31.5t165.5 6q100 0 165 -6t102 -31.5t51.5 -78.5t14.5 -146q0 -48 -1 -79.5t-6.5 -56.5t-17 -49t-33.5 -57l-50 -75h108v-114h-290z" />
    <glyph glyph-name="estimated" unicode="&#x212e;" horiz-adv-x="875" 
d="M830 318h-611v-196q25 -26 58 -45q28 -17 68.5 -31t92.5 -14q51 0 91.5 14t68.5 31q33 19 58 45h91q-33 -38 -79 -68q-39 -26 -96.5 -47t-133.5 -21q-81 0 -152.5 28t-125 76t-84 112.5t-30.5 137.5t30.5 137.5t84 112.5t125 76t152.5 28t152.5 -28t124.5 -76t84 -112.5
t31 -137.5v-22zM656 558q-25 25 -58 45q-28 17 -68.5 31t-91.5 14q-52 0 -92.5 -14t-68.5 -31q-33 -20 -58 -45v-195h437v195z" />
    <glyph glyph-name="onethird" unicode="&#x2153;" horiz-adv-x="1081" 
d="M390 0h-92l393 680h92zM202 259v341l-129 -47v74l130 53h111v-421h-112zM1026 119q0 -45 -13.5 -70t-36.5 -37.5t-53.5 -15.5t-63.5 -3q-38 0 -68.5 2t-52.5 4q-26 3 -45 7v65q15 -2 34 -4q33 -3 91 -3q29 0 47 1t28 7t13.5 18.5t3.5 36.5q0 20 -2.5 31t-9 16t-17 6
t-26.5 1h-124v67h123q15 0 25.5 0.5t17 5t9 14t2.5 27.5q0 23 -4 35.5t-14 18.5t-27.5 7t-44.5 1q-28 0 -50 -1t-38 -3q-18 -2 -33 -3v65q18 3 43 6q21 2 51 4.5t68 2.5q31 0 60.5 -3t52.5 -16t37 -39t14 -72q0 -31 -7.5 -47.5t-15.5 -24.5q-10 -9 -22 -10v-2q13 -1 24 -12
q9 -9 16.5 -28.5t7.5 -54.5z" />
    <glyph glyph-name="twothirds" unicode="&#x2154;" horiz-adv-x="1081" 
d="M390 0h-92l393 680h92zM53 259v71l189 180q10 9 15 15t7.5 11t3 9.5t0.5 11.5q0 22 -3.5 34t-13.5 17.5t-27.5 6.5t-44.5 1q-28 0 -50 -1t-38 -2q-18 -2 -33 -3v64q19 3 44 7q21 2 50.5 4.5t67.5 2.5q31 0 60.5 -3t52.5 -16t37 -39.5t14 -72.5q0 -14 -0.5 -25t-5 -22
t-14 -23t-27.5 -29l-132 -127h184v-72h-336zM1026 119q0 -45 -13.5 -70t-36.5 -37.5t-53.5 -15.5t-63.5 -3q-38 0 -68.5 2t-52.5 4q-26 3 -45 7v65q15 -2 34 -4q33 -3 91 -3q29 0 47 1t28 7t13.5 18.5t3.5 36.5q0 20 -2.5 31t-9 16t-17 6t-26.5 1h-124v67h123q15 0 25.5 0.5
t17 5t9 14t2.5 27.5q0 23 -4 35.5t-14 18.5t-27.5 7t-44.5 1q-28 0 -50 -1t-38 -3q-18 -2 -33 -3v65q18 3 43 6q21 2 51 4.5t68 2.5q31 0 60.5 -3t52.5 -16t37 -39t14 -72q0 -31 -7.5 -47.5t-15.5 -24.5q-10 -9 -22 -10v-2q13 -1 24 -12q9 -9 16.5 -28.5t7.5 -54.5z" />
    <glyph glyph-name="oneeighth" unicode="&#x215b;" horiz-adv-x="1081" 
d="M390 0h-92l393 680h92zM202 259v341l-129 -47v74l130 53h111v-421h-112zM1048 119q0 -45 -13.5 -70t-38 -37.5t-60 -15.5t-78.5 -3t-78 3t-59.5 15.5t-37.5 37.5t-13 70q0 35 7 54.5t16 28.5q11 11 24 12v2q-12 1 -22 10q-8 8 -15 24.5t-7 47.5q0 46 14 72t38.5 39
t58.5 16t74 3q41 0 75.5 -3t59 -16t38.5 -39t14 -72q0 -31 -7.5 -47.5t-15.5 -24.5q-10 -9 -22 -10v-2q13 -1 24 -12q9 -9 16.5 -28.5t7.5 -54.5zM929 295q0 23 -3.5 35.5t-12 18.5t-22 7t-33.5 1t-33 -1t-21 -7t-11.5 -18.5t-3.5 -35.5q0 -20 3 -30.5t10.5 -15t21 -5.5
t34.5 -1q22 0 35.5 1t21.5 5.5t11 15t3 30.5zM932 127q0 22 -3 34t-11 17.5t-22.5 6.5t-37.5 1q-22 0 -36 -1t-22 -6.5t-11 -17.5t-3 -34q0 -24 3 -36.5t11 -18.5t22 -7t36 -1t36.5 1t23 7t11.5 18.5t3 36.5z" />
    <glyph glyph-name="threeeighths" unicode="&#x215c;" horiz-adv-x="1081" 
d="M390 0h-92l393 680h92zM389 378q0 -45 -13.5 -70t-36 -37.5t-53 -15.5t-63.5 -3q-38 0 -68.5 2t-52.5 4q-26 3 -45 7v64q15 -2 34 -3q33 -3 91 -3q29 0 47 1t28 7t13.5 18.5t3.5 36.5q0 21 -2.5 32t-9 16t-17.5 6t-27 1h-123v65h122q15 0 25.5 1t17 5.5t9 14.5t2.5 28
q0 23 -4 35.5t-13.5 18t-27 6.5t-44.5 1q-28 0 -50 -1t-39 -2q-19 -2 -34 -3v64q18 3 44 7q21 2 51.5 4.5t68.5 2.5q31 0 60 -3t52 -16t37 -39.5t14 -72.5q0 -31 -7 -47.5t-15 -24.5q-10 -9 -22 -10v-2q12 -1 23 -12q9 -9 16.5 -28.5t7.5 -54.5zM1048 119q0 -45 -13.5 -70
t-38 -37.5t-60 -15.5t-78.5 -3t-78 3t-59.5 15.5t-37.5 37.5t-13 70q0 35 7 54.5t16 28.5q11 11 24 12v2q-12 1 -22 10q-8 8 -15 24.5t-7 47.5q0 46 14 72t38.5 39t58.5 16t74 3q41 0 75.5 -3t59 -16t38.5 -39t14 -72q0 -31 -7.5 -47.5t-15.5 -24.5q-10 -9 -22 -10v-2
q13 -1 24 -12q9 -9 16.5 -28.5t7.5 -54.5zM929 295q0 23 -3.5 35.5t-12 18.5t-22 7t-33.5 1t-33 -1t-21 -7t-11.5 -18.5t-3.5 -35.5q0 -20 3 -30.5t10.5 -15t21 -5.5t34.5 -1q22 0 35.5 1t21.5 5.5t11 15t3 30.5zM932 127q0 22 -3 34t-11 17.5t-22.5 6.5t-37.5 1
q-22 0 -36 -1t-22 -6.5t-11 -17.5t-3 -34q0 -24 3 -36.5t11 -18.5t22 -7t36 -1t36.5 1t23 7t11.5 18.5t3 36.5z" />
    <glyph glyph-name="fiveeighths" unicode="&#x215d;" horiz-adv-x="1081" 
d="M390 0h-92l393 680h92zM395 390q0 -49 -9.5 -77t-30.5 -41.5t-53.5 -16.5t-78.5 -3q-40 0 -71.5 2t-54.5 4q-26 3 -47 7v64q16 -2 36 -3q17 -2 42 -2.5t55 -0.5q34 0 53 1t29 7.5t12.5 20t2.5 38.5q0 19 -2 29.5t-7 15t-14.5 5.5t-25.5 1h-176v239h313v-72h-202v-102h100
q28 0 51.5 -2t40.5 -12.5t27 -34.5t10 -67zM1048 119q0 -45 -13.5 -70t-38 -37.5t-60 -15.5t-78.5 -3t-78 3t-59.5 15.5t-37.5 37.5t-13 70q0 35 7 54.5t16 28.5q11 11 24 12v2q-12 1 -22 10q-8 8 -15 24.5t-7 47.5q0 46 14 72t38.5 39t58.5 16t74 3q41 0 75.5 -3t59 -16
t38.5 -39t14 -72q0 -31 -7.5 -47.5t-15.5 -24.5q-10 -9 -22 -10v-2q13 -1 24 -12q9 -9 16.5 -28.5t7.5 -54.5zM929 295q0 23 -3.5 35.5t-12 18.5t-22 7t-33.5 1t-33 -1t-21 -7t-11.5 -18.5t-3.5 -35.5q0 -20 3 -30.5t10.5 -15t21 -5.5t34.5 -1q22 0 35.5 1t21.5 5.5t11 15
t3 30.5zM932 127q0 22 -3 34t-11 17.5t-22.5 6.5t-37.5 1q-22 0 -36 -1t-22 -6.5t-11 -17.5t-3 -34q0 -24 3 -36.5t11 -18.5t22 -7t36 -1t36.5 1t23 7t11.5 18.5t3 36.5z" />
    <glyph glyph-name="seveneighths" unicode="&#x215e;" horiz-adv-x="1081" 
d="M346 0h-93l393 680h92zM228 259h-129l173 344h-220v77h341v-75zM1048 119q0 -45 -13.5 -70t-38 -37.5t-60 -15.5t-78.5 -3t-78 3t-59.5 15.5t-37.5 37.5t-13 70q0 35 7 54.5t16 28.5q11 11 24 12v2q-12 1 -22 10q-8 8 -15 24.5t-7 47.5q0 46 14 72t38.5 39t58.5 16t74 3
q41 0 75.5 -3t59 -16t38.5 -39t14 -72q0 -31 -7.5 -47.5t-15.5 -24.5q-10 -9 -22 -10v-2q13 -1 24 -12q9 -9 16.5 -28.5t7.5 -54.5zM929 295q0 23 -3.5 35.5t-12 18.5t-22 7t-33.5 1t-33 -1t-21 -7t-11.5 -18.5t-3.5 -35.5q0 -20 3 -30.5t10.5 -15t21 -5.5t34.5 -1
q22 0 35.5 1t21.5 5.5t11 15t3 30.5zM932 127q0 22 -3 34t-11 17.5t-22.5 6.5t-37.5 1q-22 0 -36 -1t-22 -6.5t-11 -17.5t-3 -34q0 -24 3 -36.5t11 -18.5t22 -7t36 -1t36.5 1t23 7t11.5 18.5t3 36.5z" />
    <glyph glyph-name="arrowleft" unicode="&#x2190;" horiz-adv-x="747" 
d="M268 225l202 -203h-173l-272 272l272 273h173l-202 -202h429v-140h-429z" />
    <glyph glyph-name="arrowup" unicode="&#x2191;" horiz-adv-x="747" 
d="M444 399v-428h-141v428l-202 -201v174l272 272l273 -272v-174z" />
    <glyph glyph-name="arrowright" unicode="&#x2192;" horiz-adv-x="747" 
d="M450 22h-173l201 203h-428v140h428l-201 202h173l272 -273z" />
    <glyph glyph-name="arrowdown" unicode="&#x2193;" horiz-adv-x="747" 
d="M373 -54l-272 272v174l202 -202v429h141v-429l202 202v-174z" />
    <glyph glyph-name="arrowboth" unicode="&#x2194;" horiz-adv-x="1038" 
d="M740 22h-173l202 203h-501l202 -203h-173l-272 272l272 273h173l-202 -202h501l-202 202h173l273 -273z" />
    <glyph glyph-name="arrowupdn" unicode="&#x2195;" horiz-adv-x="747" 
d="M373 -199l-272 272v174l202 -202v499l-202 -201v173l272 273l273 -273v-173l-202 201v-499l202 202v-174z" />
    <glyph glyph-name="uni2196" unicode="&#x2196;" horiz-adv-x="747" 
d="M542 42l-303 303v-286l-123 123v385h385l122 -123h-286l303 -303z" />
    <glyph glyph-name="uni2197" unicode="&#x2197;" horiz-adv-x="747" 
d="M508 59v286l-303 -303l-98 99l303 303h-286l122 123h386v-385z" />
    <glyph glyph-name="uni2198" unicode="&#x2198;" horiz-adv-x="747" 
d="M246 22l-122 124h286l-303 303l98 99l303 -303v285l124 -122v-386h-386z" />
    <glyph glyph-name="uni2199" unicode="&#x2199;" horiz-adv-x="747" 
d="M337 146h286l-122 -124h-385v386l123 122v-285l303 303l98 -99z" />
    <glyph glyph-name="partialdiff" unicode="&#x2202;" horiz-adv-x="582" 
d="M535 231q0 -78 -7.5 -126t-33 -74.5t-74 -35t-129.5 -8.5t-129.5 8.5t-74 35t-33 74.5t-7.5 126q0 82 9.5 131.5t36.5 76.5t74.5 36t123.5 9q25 0 43 -1t29 -3q13 -2 22 -3q-2 42 -13 86t-22 80q-14 42 -30 82h100q31 -52 57 -124q22 -63 40 -154.5t18 -215.5zM405 236
q0 58 -3 89t-14 45.5t-33 17t-60 2.5h-8q-38 0 -59.5 -2.5t-32.5 -17t-14 -45.5t-3 -89v-9q0 -55 2 -84.5t12.5 -43t32.5 -16t62 -2.5h8q40 0 62.5 2.5t33 16t12.5 43t2 84.5v9z" />
    <glyph glyph-name="uni2206" unicode="&#x2206;" horiz-adv-x="715" 
d="M17 0l251 680h178l252 -680h-681zM358 568l-163 -456h324z" />
    <glyph glyph-name="product" unicode="&#x220f;" horiz-adv-x="739" 
d="M534 -91v652h-329v-652h-130v771h590v-771h-131z" />
    <glyph glyph-name="summation" unicode="&#x2211;" horiz-adv-x="699" 
d="M63 -91v112l240 277l-233 270v112h560v-112h-385l233 -270l-239 -277h397v-112h-573z" />
    <glyph glyph-name="minus" unicode="&#x2212;" horiz-adv-x="626" 
d="M50 248v94h526v-94h-526z" />
    <glyph glyph-name="uni2215" unicode="&#x2215;" horiz-adv-x="396" 
d="M116 -36h-107l270 735h107z" />
    <glyph glyph-name="uni2219" unicode="&#x2219;" horiz-adv-x="294" 
d="M82 215v159h131v-159h-131z" />
    <glyph glyph-name="radical" unicode="&#x221a;" horiz-adv-x="694" 
d="M641 790l-230 -858h-174l-85 316h-102v94h197l78 -291l223 833h195v-94h-102z" />
    <glyph glyph-name="infinity" unicode="&#x221e;" horiz-adv-x="853" 
d="M803 294q0 -44 -14 -80t-39.5 -61.5t-61.5 -39.5t-80 -14q-49 0 -83 15.5t-56 35.5q-26 23 -43 52q-17 -29 -43 -52q-22 -20 -56 -35.5t-82 -15.5q-44 0 -80 14t-61.5 39.5t-39.5 61.5t-14 80t14 80.5t39.5 62t61.5 39.5t80 14q48 0 82 -16t56 -35q26 -23 43 -51
q17 28 43 51q22 19 56 35t83 16q44 0 80 -14t61.5 -39.5t39.5 -62t14 -80.5zM376 294q-12 28 -30 51q-15 19 -39 35t-57 16q-46 0 -72 -27t-26 -75q0 -47 26 -74t72 -27q33 0 57 15.5t39 34.5q18 22 30 51zM700 294q0 48 -25.5 75t-71.5 27q-34 0 -57.5 -16t-38.5 -35
q-18 -23 -30 -51q12 -29 30 -51q15 -19 38.5 -34.5t57.5 -15.5q46 0 71.5 27t25.5 74z" />
    <glyph glyph-name="integral" unicode="&#x222b;" horiz-adv-x="527" 
d="M477 660q-11 1 -23 3q-11 2 -26 3t-35 1q-19 0 -31 -2t-19.5 -10.5t-10.5 -26t-3 -47.5v-574q0 -90 -29.5 -134.5t-110.5 -44.5q-32 0 -58 3t-44 8q-21 4 -37 11v79q9 -2 22 -3q21 -3 62 -3q19 0 31.5 2t19.5 10t10 25t3 47v574q0 46 6.5 79.5t22.5 56t43 33.5t67 11
q33 0 59 -3.5t44 -7.5q21 -5 37 -11v-79v0z" />
    <glyph glyph-name="approxequal" unicode="&#x2248;" horiz-adv-x="626" 
d="M576 377q-15 -19 -35 -33q-17 -12 -41.5 -22t-55.5 -10t-64.5 10t-67 22.5t-67 22.5t-64.5 10t-55 -10.5t-41 -22.5q-20 -14 -35 -32v94q15 18 35 32q17 12 41 22.5t55 10.5t64.5 -10t67 -22.5t67 -22.5t64.5 -10t55.5 10t41.5 22q20 14 35 33v-94zM576 183
q-15 -18 -35 -32q-17 -12 -41.5 -22t-55.5 -10t-64.5 10t-67 22t-67 22t-64.5 10t-55 -10t-41 -22q-20 -14 -35 -32v94q15 18 35 32q17 12 41 22t55 10t64.5 -10t67 -22t67 -22t64.5 -10t55.5 10t41.5 22q20 14 35 32v-94z" />
    <glyph glyph-name="notequal" unicode="&#x2260;" horiz-adv-x="626" 
d="M310 151l-42 -129h-89l42 129h-171v94h202l32 100h-234v93h265l42 129h90l-43 -129h172v-93h-203l-32 -100h235v-94h-266z" />
    <glyph glyph-name="lessequal" unicode="&#x2264;" horiz-adv-x="626" 
d="M50 318v94l526 163v-100l-340 -110l340 -110v-100zM50 19v93h526v-93h-526z" />
    <glyph glyph-name="greaterequal" unicode="&#x2265;" horiz-adv-x="626" 
d="M50 155v100l340 110l-340 110v100l526 -163v-94zM50 19v93h526v-93h-526z" />
    <glyph glyph-name="lozenge" unicode="&#x25ca;" horiz-adv-x="626" 
d="M313 -123l-287 417l287 418l287 -418zM313 577l-193 -283l193 -281l192 281z" />
    <glyph glyph-name="uniF001" unicode="&#xf001;" horiz-adv-x="788" 
d="M500 634q-15 2 -33 4q-16 2 -38 3.5t-50 1.5q-34 0 -52.5 -2.5t-27.5 -11.5t-11 -25.5t-2 -44.5v-60h184v-96h-184v-403h-166v403h-100v96h100v60q0 50 10.5 84t33.5 55t58.5 30.5t86.5 9.5q45 0 80 -3.5t60 -7.5q29 -5 51 -11v-82zM563 0v499h167v-499h-167zM563 584
v141h167v-141h-167z" />
    <glyph glyph-name="uniF002" unicode="&#xf002;" horiz-adv-x="790" 
d="M500 634q-15 2 -33 4q-16 2 -38 3.5t-50 1.5q-34 0 -52.5 -2.5t-27.5 -11.5t-11 -25.5t-2 -44.5v-60h184v-96h-184v-403h-166v403h-100v96h100v60q0 50 10.5 84t33.5 55t58.5 30.5t86.5 9.5q45 0 80 -3.5t60 -7.5q29 -5 51 -11v-82zM563 0v725h167v-725h-167z" />
    <glyph glyph-name="uniF8FF" unicode="&#xf8ff;" horiz-adv-x="500" 
d="M453 46v587h-407v-587h407zM500 680v-680h-500v680h500z" />
    <glyph glyph-name="glyph360" horiz-adv-x="929" 
d="M464 -326h-88l56 112h-30v129h125v-129z" />
    <glyph glyph-name="zero.frac" horiz-adv-x="445" 
d="M412 206q0 -72 -6 -114.5t-26 -64t-57.5 -28t-100.5 -6.5t-100 6.5t-57 28t-26 64t-6 114.5q0 75 7.5 119.5t28 67t57.5 29t96 6.5q60 0 97 -6.5t57.5 -29t28 -67t7.5 -119.5zM295 209q0 53 -1.5 82t-8.5 42.5t-21 15.5t-39 2h-6q-24 0 -38 -2t-21 -15.5t-8.5 -42.5
t-1.5 -82v-6q0 -50 1 -77t7.5 -39.5t20.5 -14.5t40 -2h6q26 0 40 2t21 14.5t8 39.5t1 77v6z" />
    <glyph glyph-name="one.frac" horiz-adv-x="445" 
d="M202 0v341l-129 -47v74l130 53h111v-421h-112z" />
    <glyph glyph-name="two.frac" horiz-adv-x="445" 
d="M53 0v71l189 180q10 9 15 15t7.5 11t3 9.5t0.5 11.5q0 22 -3.5 34t-13.5 17.5t-27.5 6.5t-44.5 1q-28 0 -50 -1t-38 -3q-18 -2 -33 -3v65q19 3 44 6q21 2 50.5 4.5t67.5 2.5q31 0 60.5 -3t52.5 -16t37 -39t14 -72q0 -15 -0.5 -26t-5 -21.5t-14 -23t-27.5 -28.5l-132 -127
h184v-72h-336z" />
    <glyph glyph-name="three.frac" horiz-adv-x="445" 
d="M389 119q0 -45 -13.5 -70t-36 -37.5t-53 -15.5t-63.5 -3q-38 0 -68.5 2t-52.5 4q-26 3 -45 7v65q15 -2 34 -4q33 -3 91 -3q29 0 47 1t28 7t13.5 18.5t3.5 36.5q0 20 -2.5 31t-9 16t-17.5 6t-27 1h-123v67h122q15 0 25.5 0.5t17 5t9 14t2.5 27.5q0 23 -4 35.5t-13.5 18.5
t-27 7t-44.5 1q-28 0 -50 -1t-39 -3q-19 -2 -34 -3v65q18 3 44 6q21 2 51.5 4.5t68.5 2.5q31 0 60 -3t52 -16t37 -39t14 -72q0 -31 -7 -47.5t-15 -24.5q-10 -9 -22 -10v-2q12 -1 23 -12q9 -9 16.5 -28.5t7.5 -54.5z" />
    <glyph glyph-name="four.frac" horiz-adv-x="445" 
d="M362 107v-107h-111v107h-223v71l171 243h163v-242h55v-72h-55zM251 346l-118 -167h118v167z" />
    <glyph glyph-name="five.frac" horiz-adv-x="445" 
d="M395 132q0 -50 -9.5 -77.5t-30.5 -41.5t-53.5 -17t-78.5 -3q-40 0 -71.5 2t-54.5 4q-26 3 -47 7v65q16 -2 36 -4q17 -2 42 -2.5t55 -0.5q34 0 53 1t29 7.5t12.5 20t2.5 39.5q0 18 -2 28t-7 14.5t-14.5 5.5t-25.5 1h-176v240h313v-73h-202v-100h100q28 0 51.5 -2
t40.5 -12.5t27 -34.5t10 -67z" />
    <glyph glyph-name="six.frac" horiz-adv-x="445" 
d="M412 132q0 -50 -13 -77.5t-37.5 -41.5t-59.5 -17t-80 -3q-63 0 -100 6.5t-57 28t-26 64t-6 114.5q0 75 7.5 119.5t27 67t54 29t87.5 6.5q40 0 72 -2.5t55 -4.5q26 -3 48 -6v-65q-19 1 -42 3q-20 2 -45 3t-51 1h-23q-23 0 -37 -1.5t-22 -11t-11 -29.5t-3 -56q8 0 19 1
q9 0 22.5 0.5t30.5 0.5q60 0 97.5 -3t58 -16t27.5 -38.5t7 -71.5zM295 132q0 24 -1.5 36.5t-8.5 18.5t-22 7t-41 1q-17 0 -30.5 -0.5t-22.5 -0.5q-11 -1 -19 -1v-19q0 -41 1.5 -63.5t9 -33t21.5 -12t40 -1.5q22 0 36.5 1t22.5 7.5t11 20t3 39.5z" />
    <glyph glyph-name="seven.frac" horiz-adv-x="445" 
d="M228 0h-129l173 344h-220v77h341v-75z" />
    <glyph glyph-name="eight.frac" horiz-adv-x="445" 
d="M412 119q0 -45 -13.5 -70t-38 -37.5t-60 -15.5t-78.5 -3t-78 3t-59.5 15.5t-38 37.5t-13.5 70q0 35 7.5 54.5t16.5 28.5q11 11 24 12v2q-13 1 -23 10q-8 8 -15 24.5t-7 47.5q0 46 14 72t38.5 39t58.5 16t75 3t75 -3t59 -16t38.5 -39t13.5 -72q0 -31 -7 -47.5t-15 -24.5
q-10 -9 -22 -10v-2q13 -1 24 -12q9 -9 16.5 -28.5t7.5 -54.5zM293 295q0 23 -3.5 35.5t-12 18.5t-22 7t-33.5 1t-33 -1t-21.5 -7t-12 -18.5t-3.5 -35.5q0 -20 3 -30.5t10.5 -15t21.5 -5.5t35 -1q22 0 35.5 1t21.5 5.5t11 15t3 30.5zM295 127q0 22 -3 34t-11 17.5t-22.5 6.5
t-36.5 1t-36 -1t-22 -6.5t-11 -17.5t-3 -34q0 -24 3 -36.5t11 -18.5t22 -7t36 -1t36 1t22.5 7t11.5 18.5t3 36.5z" />
    </font>
</defs>
</svg>
