<?xml version="1.0" standalone="no"?>
<!DOCTYPE svg PUBLIC "-//W3C//DTD SVG 1.1//EN" "http://www.w3.org/Graphics/SVG/1.1/DTD/svg11.dtd" >
<svg>
<metadata>
Created by FontForge 20120731 at Sat Jul 28 01:43:37 2018
 By www-data
Copyright (c) 2009 Linotype Corp., www.linotype.com. All rights reserved. This font software may not be reproduced, modified, disclosed or transferred without the express written approval of Linotype Corp. Francker is a trademark of Linotype Corp. registered in the U.S. Patent and Trademark Office and may be registered in certain other jurisdictions in the name of Linotype Corp. or its licensee Linotype GmbH. This typeface is original artwork of Anders Francker. The design may be protected in certain jurisdictions.
</metadata>
<defs>
<font id="FranckerW01-Bold" horiz-adv-x="671" >
  <font-face 
    font-family="FranckerW01-Bold"
    font-weight="600"
    font-stretch="normal"
    units-per-em="1000"
    panose-1="2 11 8 4 5 7 4 4 2 3"
    ascent="749"
    descent="-251"
    x-height="499"
    cap-height="680"
    bbox="-54 -240 1532 948"
    underline-thickness="50"
    underline-position="-100"
    unicode-range="U+0020-2122"
  />
<missing-glyph horiz-adv-x="281" 
 />
    <glyph glyph-name=".notdef" horiz-adv-x="281" 
 />
    <glyph glyph-name=".null" horiz-adv-x="0" 
 />
    <glyph glyph-name="nonmarkingreturn" horiz-adv-x="333" 
 />
    <glyph glyph-name="space" unicode=" " horiz-adv-x="281" 
 />
    <glyph glyph-name="exclam" unicode="!" horiz-adv-x="336" 
d="M80 227v453h176v-453h-176zM72 0v151h193v-151h-193z" />
    <glyph glyph-name="quotedbl" unicode="&#x22;" horiz-adv-x="503" 
d="M56 434v291h147v-291h-147zM301 434v291h147v-291h-147z" />
    <glyph glyph-name="numbersign" unicode="#" horiz-adv-x="681" 
d="M523 407l-23 -134h93v-88h-109l-33 -185h-105l32 185h-130l-32 -185h-106l32 185h-94v88h109l24 134h-93v88h108l33 185h106l-32 -185h130l32 185h106l-32 -185h94v-88h-110zM287 407l-23 -134h130l23 134h-130z" />
    <glyph glyph-name="dollar" unicode="$" horiz-adv-x="738" 
d="M316 -140v128q-54 2 -96 5t-71 7q-34 4 -61 9v111q24 -3 57 -5q27 -2 66 -3t88 -1q51 0 81 1t46 8.5t20.5 24t4.5 46.5q0 22 -1 36t-5.5 22.5t-14 12.5t-27.5 7l-151 26q-60 10 -93 28t-48 43t-17.5 57t-2.5 72q0 62 17 100t47 59t71 29t90 10v120h107v-121
q50 -2 89 -5.5t66 -6.5q32 -4 56 -8v-112q-23 2 -52 4q-25 2 -60.5 3.5t-80.5 1.5q-46 0 -73.5 -1.5t-42.5 -8t-19.5 -21t-4.5 -40.5q0 -20 0.5 -32t5 -19.5t14.5 -12t28 -7.5l153 -26q60 -10 92 -27.5t47 -43t17.5 -59.5t2.5 -78q0 -66 -14 -106t-43 -61.5t-74 -29
t-107 -8.5v-128h-107z" />
    <glyph glyph-name="percent" unicode="%" horiz-adv-x="1105" 
d="M408 0h-103l393 680h103zM425 465q0 -72 -6 -114.5t-26.5 -64t-59.5 -28t-104 -6.5t-104 6.5t-59.5 28t-27 64t-6.5 114.5q0 75 7.5 119.5t29.5 67.5t60 29.5t100 6.5q61 0 99.5 -6.5t60 -29.5t29 -67.5t7.5 -119.5zM293 468q0 50 -1.5 77.5t-7.5 40t-18.5 14.5t-34.5 2
h-5q-22 0 -34.5 -2t-18.5 -14.5t-7.5 -40t-1.5 -77.5v-4q0 -47 1 -72.5t7 -37.5t18.5 -14t35.5 -2h5q23 0 35.5 2t18.5 14t7 37.5t1 72.5v4zM1074 206q0 -72 -6 -114.5t-26.5 -64.5t-59.5 -28.5t-105 -6.5t-105 6.5t-59.5 28.5t-26.5 64.5t-6 114.5q0 75 7.5 119.5
t29.5 67.5t60 29.5t100 6.5q61 0 99.5 -6.5t60 -29.5t29.5 -67.5t8 -119.5zM942 209q0 50 -1.5 77.5t-8 40t-19 14.5t-33.5 2h-6q-21 0 -33.5 -2t-18.5 -14.5t-7.5 -40t-1.5 -77.5v-6q0 -47 1 -72.5t7 -37t18 -13.5t35 -2h6q22 0 34.5 2t18.5 13.5t7.5 37t1.5 72.5v6z" />
    <glyph glyph-name="ampersand" unicode="&#x26;" horiz-adv-x="820" 
d="M723 288v-279q-39 -7 -90 -11q-44 -5 -105.5 -8t-139.5 -3q-83 0 -145.5 5t-104.5 25t-63 61t-21 112q0 59 12.5 90t28.5 46q18 17 41 20v2q-22 2 -39 17q-14 13 -26 39t-12 77q0 75 22.5 117.5t61.5 63.5t91.5 26t113.5 5q68 0 121 -3.5t91 -7.5q44 -4 78 -10v-117
q-24 2 -56 4q-27 2 -65.5 3t-86.5 1q-51 0 -81 -1.5t-45.5 -10t-20.5 -26.5t-5 -52q0 -25 3.5 -38.5t13 -20t27 -7.5t46.5 -1h141v66h214v-66h71v-118h-71zM509 288h-143q-29 0 -47.5 -1.5t-28.5 -9t-13.5 -24t-3.5 -46.5q0 -34 4.5 -52t17 -26.5t35.5 -10t61 -1.5
q56 0 86 3q18 1 32 3v165z" />
    <glyph glyph-name="quotesingle" unicode="'" horiz-adv-x="258" 
d="M56 434v291h147v-291h-147z" />
    <glyph glyph-name="parenleft" unicode="(" horiz-adv-x="464" 
d="M415 -217q-21 -7 -48 -12q-23 -5 -55.5 -8t-73.5 -3q-67 0 -103.5 28.5t-53 88t-19.5 151t-3 217.5q0 129 3.5 222.5t20.5 153.5t53.5 88.5t101.5 28.5q41 0 73.5 -3.5t55.5 -7.5q27 -5 48 -11v-113q-12 1 -27 2q-13 1 -31 2t-41 1q-15 0 -27 -1.5t-20 -12t-13.5 -32
t-8.5 -62t-4 -102.5t-1 -153q0 -89 1 -149.5t4 -100t8 -61t13.5 -31.5t20 -11.5t27.5 -1.5q46 0 72 3q15 1 27 3v-113v0z" />
    <glyph glyph-name="parenright" unicode=")" horiz-adv-x="464" 
d="M404 245q0 -126 -3 -217.5t-19.5 -151t-52.5 -88t-102 -28.5q-42 0 -75 3t-56 8q-27 5 -48 12v113q11 -2 27 -3q25 -3 74 -3q16 0 27.5 1.5t19.5 11.5t13 31.5t7.5 61t3.5 100t1 149.5q0 91 -1 153t-4 102.5t-8 62t-13 32t-19.5 12t-26.5 1.5q-23 0 -42 -1t-32 -2
q-16 -1 -27 -2v113q21 6 48 11q23 4 56 7.5t75 3.5q64 0 100 -28.5t53 -88.5t20.5 -153.5t3.5 -222.5z" />
    <glyph glyph-name="asterisk" unicode="*" horiz-adv-x="552" 
d="M348 476l100 -132l-78 -57l-94 137l-95 -137l-78 57l100 132l-157 47l29 92l156 -55l-3 165h96l-4 -165l157 55l29 -92z" />
    <glyph glyph-name="plus" unicode="+" horiz-adv-x="636" 
d="M375 242v-225h-114v225h-213v105h213v225h114v-225h212v-105h-212z" />
    <glyph glyph-name="comma" unicode="," horiz-adv-x="305" 
d="M166 -146h-133l74 146h-51v168h193v-168z" />
    <glyph glyph-name="hyphen" unicode="-" horiz-adv-x="452" 
d="M48 230v129h356v-129h-356z" />
    <glyph glyph-name="period" unicode="." horiz-adv-x="305" 
d="M56 0v168h193v-168h-193z" />
    <glyph glyph-name="slash" unicode="/" horiz-adv-x="444" 
d="M174 -36h-167l263 739h166z" />
    <glyph glyph-name="zero" unicode="0" horiz-adv-x="738" 
d="M686 333q0 -78 -4 -133.5t-16 -94t-33.5 -62t-56.5 -36t-86 -16.5t-121 -4t-121 4t-86.5 16.5t-57 36t-33.5 62t-16 94t-4 133.5q0 122 12.5 193.5t47.5 108.5t97 47.5t161 10.5t161 -10.5t96.5 -47.5t47 -108.5t12.5 -193.5zM477 338q0 83 -2.5 128t-13 65.5t-31.5 24
t-57 3.5h-9q-36 0 -56.5 -3.5t-31 -24t-13 -65.5t-2.5 -128v-9q0 -78 2 -120t11.5 -61.5t30.5 -22.5t59 -3h9q38 0 59 3t31 22.5t12 61.5t2 120v9z" />
    <glyph glyph-name="one" unicode="1" horiz-adv-x="738" 
d="M330 0v542l-213 -72v126l213 84h203v-680h-203z" />
    <glyph glyph-name="two" unicode="2" horiz-adv-x="738" 
d="M86 0v124l305 287q14 13 22 21.5t11.5 16t4.5 14.5t1 18q0 33 -5.5 50.5t-20.5 26t-43 10t-73 1.5q-46 0 -81.5 -1.5t-61.5 -3.5q-30 -2 -52 -4v112q32 6 73 10q35 4 86 7.5t115 3.5q50 0 99 -5t87.5 -26t62.5 -63.5t24 -117.5q0 -23 -1 -40.5t-8.5 -35.5t-23 -38
t-44.5 -48l-204 -195h291v-124h-564z" />
    <glyph glyph-name="three" unicode="3" horiz-adv-x="738" 
d="M649 190q0 -71 -23 -112t-61 -61t-89 -25t-106 -5q-66 0 -117 3t-87 8q-42 4 -75 11v111q23 -3 54 -5q26 -2 63 -3t84 -1q48 0 77 1.5t44.5 10.5t20.5 28.5t5 55.5q0 31 -3.5 48.5t-13 25t-25.5 9t-40 1.5h-203v112h200q24 0 39.5 1t24.5 8t13 22t4 42q0 35 -5.5 54
t-21 27.5t-43 10t-72.5 1.5q-46 0 -81.5 -1.5t-61.5 -3.5q-30 -2 -53 -4v112q33 6 74 10q35 4 85.5 7.5t114.5 3.5q50 0 99 -5t88 -26t63 -63.5t24 -117.5q0 -51 -12.5 -77t-27.5 -39q-18 -15 -39 -17v-2q23 -3 41 -20q16 -15 29 -46t13 -90z" />
    <glyph glyph-name="four" unicode="4" horiz-adv-x="738" 
d="M609 165v-165h-203v165h-364v124l265 391h302v-391h87v-124h-87zM406 556l-181 -267h181v267z" />
    <glyph glyph-name="five" unicode="5" horiz-adv-x="738" 
d="M660 213q0 -80 -17 -125t-52 -67.5t-90 -28t-131 -5.5q-68 0 -121.5 3t-91.5 8q-44 4 -78 11v111q25 -3 58 -5q28 -2 67.5 -3t89.5 -1q55 0 86.5 1.5t47.5 11t19.5 30.5t3.5 59q0 29 -2.5 45t-10.5 23.5t-22.5 8.5t-39.5 1h-291v389h530v-124h-326v-153h157q46 0 85 -3
t67.5 -21t45 -56.5t16.5 -109.5z" />
    <glyph glyph-name="six" unicode="6" horiz-adv-x="738" 
d="M686 213q0 -80 -21.5 -125t-62.5 -67.5t-99.5 -28t-133.5 -5.5q-70 0 -121 4t-86.5 16.5t-57 36t-33.5 62t-16 94t-4 133.5q0 122 13 193.5t46 108.5t90 47.5t146 10.5q69 0 123.5 -3.5t92.5 -7.5q45 -4 79 -10v-112q-33 2 -70 4q-32 2 -71.5 3t-81.5 1h-52t-42 -2
q-19 -3 -31 -9t-19 -21.5t-10 -43t-3 -72.5q12 1 29 2q14 1 34 1.5t45 0.5q102 0 164.5 -5t96 -26t45 -63.5t11.5 -116.5zM477 213q0 36 -2.5 56t-13 29t-32.5 10.5t-60 1.5q-26 0 -45.5 -0.5t-33.5 -1.5q-17 -1 -29 -1v-39q0 -59 3 -91t13.5 -46.5t32 -17t59.5 -2.5
q34 0 55 1.5t33 11t16 30.5t4 59z" />
    <glyph glyph-name="seven" unicode="7" horiz-adv-x="738" 
d="M391 0h-231l278 545h-353v135h569v-135z" />
    <glyph glyph-name="eight" unicode="8" horiz-adv-x="738" 
d="M686 190q0 -71 -22.5 -112t-63.5 -61t-99.5 -25t-131.5 -5t-131.5 5t-100 25t-64 61t-22.5 112q0 59 13 90t29 46q18 17 42 20v2q-22 2 -40 17q-15 13 -27 39t-12 77q0 75 23.5 117.5t65 63.5t99 26t125.5 5t125.5 -5t99 -26t65 -63.5t23.5 -117.5q0 -51 -12.5 -77
t-27.5 -39q-18 -15 -39 -17v-2q23 -3 41 -20q16 -15 29 -46t13 -90zM472 476q0 35 -5 54t-16.5 27.5t-31.5 10t-50 1.5t-50 -1.5t-31.5 -10t-16.5 -27.5t-5 -54q0 -31 4 -47.5t15 -24t31 -9t53 -1.5q32 0 52 1.5t31.5 9t15.5 24t4 47.5zM477 207q0 35 -4 54t-16 27.5t-33 10
t-55 1.5t-55 -1.5t-33 -10t-16 -27.5t-4 -54q0 -36 4.5 -55.5t16.5 -28.5t33 -10.5t54 -1.5t54 1.5t33 10.5t16.5 28.5t4.5 55.5z" />
    <glyph glyph-name="nine" unicode="9" horiz-adv-x="738" 
d="M686 333q0 -78 -4 -133.5t-15.5 -94t-32 -62t-53 -36t-79.5 -16.5t-111 -4q-69 0 -123 3t-92 8q-45 4 -79 11v111q50 -3 100 -5q43 -2 91 -3t89 1q33 1 52.5 4t30 17t14 43t3.5 83q-12 -1 -29 -2q-14 -1 -34 -1.5t-45 -0.5q-102 0 -164.5 5t-96.5 26t-45.5 62.5
t-11.5 114.5q0 81 23.5 127t66 68.5t101 28t127.5 5.5q99 0 161 -10.5t96.5 -47.5t47 -108.5t12.5 -193.5zM477 372q0 74 -3 114t-14 58.5t-32.5 21.5t-58.5 3q-33 0 -54 -1.5t-33 -11.5t-16.5 -31.5t-4.5 -60.5q0 -36 2.5 -55t13.5 -28t32.5 -10.5t59.5 -1.5h45t34 1
q17 1 29 2z" />
    <glyph glyph-name="colon" unicode=":" horiz-adv-x="305" 
d="M56 331v168h193v-168h-193zM56 0v168h193v-168h-193z" />
    <glyph glyph-name="semicolon" unicode=";" horiz-adv-x="305" 
d="M56 331v168h193v-168h-193zM166 -146h-133l74 146h-51v168h193v-168z" />
    <glyph glyph-name="less" unicode="&#x3c;" horiz-adv-x="636" 
d="M48 242v105l539 230v-113l-402 -170l402 -169v-112z" />
    <glyph glyph-name="equal" unicode="=" horiz-adv-x="636" 
d="M48 343v104h539v-104h-539zM48 142v105h539v-105h-539z" />
    <glyph glyph-name="greater" unicode="&#x3e;" horiz-adv-x="636" 
d="M48 13v112l403 169l-403 170v113l539 -230v-105z" />
    <glyph glyph-name="question" unicode="?" horiz-adv-x="622" 
d="M574 505q0 -60 -6.5 -95t-21 -54t-37.5 -27.5t-57 -15.5l-67 -15v-71h-176v170l137 28q15 3 23.5 7t13.5 12.5t6.5 22.5t1.5 38q0 30 -4 46.5t-19 24t-43.5 9t-76.5 1.5q-47 0 -84 -1.5t-63 -3.5q-31 -2 -53 -4v95q31 6 71 10q34 4 82.5 7.5t109.5 3.5q55 0 103 -5
t83.5 -23.5t56 -56t20.5 -103.5zM200 0v151h194v-151h-194z" />
    <glyph glyph-name="at" unicode="@" horiz-adv-x="939" 
d="M888 268q0 -56 -3.5 -94t-17.5 -63t-41.5 -38.5t-74.5 -19.5t-118 -7t-171 -1q-46 0 -87.5 2t-72.5 15.5t-49 43t-18 83.5q0 50 11.5 77.5t33 40t52 14.5t68.5 2h141v25q0 25 -3.5 39.5t-12 21.5t-24 9t-39.5 2q-45 1 -82.5 0t-64.5 -3q-32 -2 -57 -5v75q25 5 58 9
q28 3 67.5 6t90.5 3q52 0 92 -4t67 -20t40.5 -47t13.5 -86v-216q39 1 60 4t31 16t11.5 39.5t1.5 76.5q0 83 -3.5 140t-14.5 95t-32.5 59t-57.5 31.5t-88.5 12.5t-125.5 2t-125.5 -2t-88 -12.5t-57 -31.5t-32.5 -59t-14.5 -95t-3.5 -140q0 -79 2 -134t11.5 -91.5t29.5 -56.5
t55.5 -30t90 -12t132.5 -2q93 0 167 2t126 4q61 3 107 6v-74q-46 -7 -107 -12q-52 -5 -126 -8t-167 -3t-160.5 5t-114 20.5t-74.5 43.5t-43.5 73.5t-20.5 111.5t-5 157q0 94 6.5 162.5t24 115.5t47.5 76t76.5 45t111 21t152.5 5t153 -5t111.5 -21t76.5 -45t47.5 -76
t24 -115.5t6.5 -162.5zM541 246h-92q-18 0 -30 -1t-19 -6t-10 -17t-3 -33q0 -22 4 -34t13.5 -17.5t24 -6.5t35.5 -1h77v116z" />
    <glyph glyph-name="A" unicode="A" horiz-adv-x="815" 
d="M584 0l-54 161h-249l-54 -161h-220l246 680h308l245 -680h-222zM406 551l-87 -261h174z" />
    <glyph glyph-name="B" unicode="B" horiz-adv-x="777" 
d="M723 190q0 -71 -21 -109.5t-55.5 -56.5t-79.5 -21t-93 -3h-402v680h392q45 0 90.5 -3t81.5 -22t59 -59t23 -115q0 -51 -12.5 -77t-26.5 -39q-17 -15 -38 -17v-2q23 -3 41 -20q15 -15 28 -46t13 -90zM499 473q0 29 -4.5 45t-15 23.5t-28 8.5t-44.5 1h-123v-145h125
q28 0 46 1t27.5 7.5t13 20t3.5 38.5zM503 207q0 30 -3.5 46.5t-13 24t-27.5 9t-47 1.5h-128v-158h129q26 0 43.5 1t28 8.5t14.5 23t4 44.5z" />
    <glyph glyph-name="C" unicode="C" horiz-adv-x="684" 
d="M650 9q-34 -7 -79 -11q-38 -5 -92 -8t-123 -3q-105 0 -165 14.5t-89 52.5t-36 104.5t-7 170.5q0 75 4 131t15 96.5t31 67t52.5 42t79.5 21.5t111 6q68 0 122 -3.5t92 -7.5q44 -4 78 -10v-129q-46 2 -92 5q-39 2 -84.5 3.5t-82.5 -0.5q-36 -2 -56.5 -6.5t-31.5 -25.5
t-14 -65.5t-3 -127.5q0 -72 2 -111t12 -57t32 -22t61 -6q38 -2 83.5 -1t85.5 3q47 2 94 5v-128v0z" />
    <glyph glyph-name="D" unicode="D" horiz-adv-x="800" 
d="M740 329q0 -106 -9 -170.5t-36 -100t-76 -47t-129 -11.5h-418v680h410q76 0 125.5 -12t79 -49t41.5 -106t12 -184zM520 326q0 80 -3.5 123.5t-13.5 63.5t-29.5 23.5t-50.5 3.5h-139v-400h145q31 0 49 3t27.5 20.5t12 55t2.5 107.5z" />
    <glyph glyph-name="E" unicode="E" horiz-adv-x="699" 
d="M72 0v680h572v-129h-360v-145h329v-118h-329v-158h366v-130h-578z" />
    <glyph glyph-name="F" unicode="F" horiz-adv-x="677" 
d="M284 551v-158h329v-118h-329v-275h-212v680h572v-129h-360z" />
    <glyph glyph-name="G" unicode="G" horiz-adv-x="793" 
d="M729 9q-39 -7 -90 -11q-44 -5 -105 -8t-139 -3t-133 4.5t-92.5 17t-59.5 36t-33.5 61.5t-14.5 92.5t-3 130.5q0 120 11 192t46 110t100.5 50t174.5 12q77 0 138.5 -3.5t104.5 -7.5q50 -4 89 -10v-117q-59 3 -116 5q-49 2 -104 3t-98 -1q-45 -2 -70 -6t-37.5 -26.5
t-15 -69.5t-2.5 -134q0 -78 2 -120.5t13.5 -62t35 -23t67.5 -3.5q54 0 86 3q18 1 32 3v165h-116v118h329v-397v0z" />
    <glyph glyph-name="H" unicode="H" horiz-adv-x="800" 
d="M516 0v277h-232v-277h-212v680h212v-263h232v263h213v-680h-213z" />
    <glyph glyph-name="I" unicode="I" horiz-adv-x="356" 
d="M72 0v680h212v-680h-212z" />
    <glyph glyph-name="J" unicode="J" horiz-adv-x="590" 
d="M518 227q0 -60 -5.5 -105t-29.5 -75t-73.5 -45t-137.5 -15q-57 0 -102.5 3t-77.5 8q-38 4 -66 11v127q18 -2 43 -4q21 -2 50.5 -3t67.5 -1q37 0 60.5 2.5t36.5 12t17.5 29.5t4.5 55v453h212v-453v0z" />
    <glyph glyph-name="K" unicode="K" horiz-adv-x="803" 
d="M537 0l-171 277h-82v-277h-212v680h212v-263h82l165 263h240l-217 -333l229 -347h-246z" />
    <glyph glyph-name="L" unicode="L" horiz-adv-x="649" 
d="M72 0v680h212v-540h339v-140h-551z" />
    <glyph glyph-name="M" unicode="M" horiz-adv-x="1025" 
d="M758 0v496l-147 -496h-201l-146 496v-496h-192v680h293l147 -495l147 495h293v-680h-194z" />
    <glyph glyph-name="N" unicode="N" horiz-adv-x="854" 
d="M490 0l-226 496v-496h-192v680h292l227 -495v495h191v-680h-292z" />
    <glyph glyph-name="O" unicode="O" horiz-adv-x="800" 
d="M740 333q0 -78 -3 -133.5t-14.5 -94t-34 -62t-60 -36t-93.5 -16.5t-135 -4t-135 4t-94 16.5t-60 36t-33.5 62t-15 94t-3.5 133.5q0 81 5 139.5t18 98.5t37 64t62 37t91.5 17t127.5 4q73 0 127 -4t92 -17t61.5 -37t36.5 -64t18 -98.5t5 -139.5zM520 338q0 81 -3 124.5
t-14 63.5t-34.5 23.5t-63.5 3.5h-9q-41 0 -64 -3.5t-34.5 -23.5t-14.5 -63.5t-3 -124.5v-9q0 -75 2 -116t13 -60t34.5 -22t66.5 -3h9q42 0 65.5 3t34.5 22t13 60t2 116v9z" />
    <glyph glyph-name="P" unicode="P" horiz-adv-x="760" 
d="M723 452q0 -75 -15 -118t-46 -64t-78.5 -26.5t-113.5 -5.5h-186v-238h-212v680h392q61 0 109 -5.5t81.5 -28t51 -68.5t17.5 -126zM503 455q0 36 -3.5 55.5t-13.5 28.5t-28.5 10.5t-48.5 1.5h-125v-183h128q30 0 47.5 1.5t27.5 9.5t13 25.5t3 50.5z" />
    <glyph glyph-name="Q" unicode="Q" horiz-adv-x="800" 
d="M740 333q0 -95 -5.5 -158t-25 -101.5t-58.5 -56.5t-106 -24l95 -185h-212l-81 180q-66 1 -113.5 7t-79.5 20t-51 38t-28.5 62t-12.5 91.5t-3 126.5q0 81 5 139.5t18 98.5t37 64t62 37t91.5 17t127.5 4q73 0 127 -4t92 -17t61.5 -37t36.5 -64t18 -98.5t5 -139.5zM520 338
q0 81 -3 124.5t-14 63.5t-34.5 23.5t-63.5 3.5h-9q-41 0 -64 -3.5t-34.5 -23.5t-14.5 -63.5t-3 -124.5v-9q0 -75 2 -116t13 -60t34.5 -22t66.5 -3h9q42 0 65.5 3t34.5 22t13 60t2 116v9z" />
    <glyph glyph-name="R" unicode="R" horiz-adv-x="788" 
d="M518 0l-84 253h-150v-253h-212v680h392q61 0 109 -5.5t81.5 -27.5t51 -66t17.5 -121q0 -86 -21 -129.5t-66 -60.5l114 -270h-232zM503 463q0 33 -3.5 51t-13.5 26t-28.5 9.5t-48.5 1.5h-125v-168h128q30 0 47.5 1t27.5 8.5t13 24t3 46.5z" />
    <glyph glyph-name="S" unicode="S" horiz-adv-x="692" 
d="M653 193q0 -72 -17.5 -113.5t-54.5 -62t-95 -25.5t-138 -5q-71 0 -126.5 3t-95.5 8q-47 4 -82 11v116q26 -2 60 -4q29 -2 70.5 -3t94.5 -1q55 0 87.5 1t49.5 8t22 22t5 43q0 22 -1 35t-6 20.5t-16 11.5t-32 8l-160 27q-65 10 -99.5 28t-51 43.5t-19 58t-2.5 72.5
q0 69 23 109t62 59.5t92 24.5t113 5q67 0 120.5 -3.5t91.5 -7.5q44 -4 77 -10v-117q-24 2 -56 4q-27 2 -65.5 3t-86.5 1q-50 0 -80 -1t-45.5 -7t-20 -19.5t-4.5 -37.5q0 -19 1 -30.5t6 -18.5t15.5 -11t30.5 -7l160 -27q65 -11 100 -29t51.5 -43.5t19 -60t2.5 -78.5z" />
    <glyph glyph-name="T" unicode="T" horiz-adv-x="678" 
d="M446 540v-540h-214v540h-206v140h627v-140h-207z" />
    <glyph glyph-name="U" unicode="U" horiz-adv-x="800" 
d="M729 227q0 -74 -8.5 -120.5t-41.5 -73t-99 -36.5t-180 -10q-76 0 -130 4t-90.5 14.5t-58 28t-32.5 44t-14 63.5t-3 86v453h212v-453q0 -37 3.5 -57t15.5 -29.5t35 -11t62 -1.5t62 1.5t35 11t15.5 29.5t3.5 57v453h213v-453v0z" />
    <glyph glyph-name="V" unicode="V" horiz-adv-x="767" 
d="M549 0h-331l-211 680h222l156 -540l157 540h218z" />
    <glyph glyph-name="W" unicode="W" horiz-adv-x="1096" 
d="M941 0h-294l-99 496l-98 -496h-295l-138 680h203l105 -540l104 540h241l104 -540l105 540h200z" />
    <glyph glyph-name="X" unicode="X" horiz-adv-x="791" 
d="M541 0l-147 277l-146 -277h-228l194 347l-185 333h227l141 -263l141 263h224l-184 -333l194 -347h-231z" />
    <glyph glyph-name="Y" unicode="Y" horiz-adv-x="748" 
d="M521 263h-41v-263h-212v263h-41l-220 417h227l141 -276l141 276h223z" />
    <glyph glyph-name="Z" unicode="Z" horiz-adv-x="684" 
d="M44 0v140l331 400h-325v140h577v-140l-331 -400h348v-140h-600z" />
    <glyph glyph-name="bracketleft" unicode="[" horiz-adv-x="464" 
d="M72 -227v952h343v-129h-168v-693h168v-130h-343z" />
    <glyph glyph-name="backslash" unicode="\" horiz-adv-x="444" 
d="M270 -36l-263 739h167l262 -739h-166z" />
    <glyph glyph-name="bracketright" unicode="]" horiz-adv-x="464" 
d="M48 -227v130h168v693h-168v129h345v-952h-345z" />
    <glyph glyph-name="asciicircum" unicode="^" horiz-adv-x="636" 
d="M448 311l-130 255l-129 -255h-115l184 369h120l184 -369h-114z" />
    <glyph glyph-name="underscore" unicode="_" horiz-adv-x="499" 
d="M0 -149v90h499v-90h-499z" />
    <glyph glyph-name="grave" unicode="`" horiz-adv-x="929" 
d="M414 580l-123 168h144l116 -168h-137z" />
    <glyph glyph-name="a" unicode="a" 
d="M615 9q-34 -7 -77 -11q-37 -5 -89.5 -8t-118.5 -3q-58 0 -110 2.5t-91 18t-62 49t-23 95.5q0 58 14.5 89t41 45.5t64 17t84.5 2.5h174v27q0 27 -4 43t-14 23.5t-28 10t-46 2.5q-57 1 -104 -0.5t-81 -3.5q-40 -3 -72 -6v88q32 6 73 11q35 4 85 7.5t114 3.5
q66 0 116.5 -4.5t84.5 -22.5t51.5 -54t17.5 -98v-324zM422 215h-108q-20 0 -33 -1t-21.5 -7t-12 -18.5t-3.5 -36.5q0 -25 5 -38.5t15.5 -20t27.5 -7.5t41 -1q20 0 36.5 0.5t28.5 1.5q13 1 24 3v125z" />
    <glyph glyph-name="b" unicode="b" 
d="M626 245q0 -84 -7.5 -134.5t-36.5 -78t-86 -36.5t-155 -9q-67 0 -119.5 3t-89.5 8q-43 4 -76 11v716h193v-218q11 1 25 2q12 1 28.5 2t38.5 1q92 0 148 -9t86.5 -37.5t40.5 -81t10 -139.5zM425 250q0 58 -2 89.5t-11 46t-27 17t-50 2.5q-20 0 -36 -0.5t-27 -1.5
q-13 -1 -23 -1v-304q10 -1 23 -2q11 -1 27 -1.5t36 -0.5q34 0 52 2.5t26.5 16t10 43.5t1.5 85v9z" />
    <glyph glyph-name="c" unicode="c" horiz-adv-x="591" 
d="M561 9q-30 -7 -69 -11q-33 -5 -81 -8t-108 -3q-90 0 -141.5 10.5t-77.5 39t-33 78.5t-7 130q0 83 9 135t36 81.5t77.5 40t133.5 10.5q60 0 107 -3.5t80 -7.5q39 -5 68 -11v-93q-41 2 -81 4q-35 2 -73.5 3t-69.5 -1q-30 -2 -47.5 -5t-26.5 -18t-11 -47t-2 -91
q0 -54 1.5 -83t10 -42.5t26.5 -16.5t51 -4q32 -2 71.5 -1.5t74.5 2.5q40 2 82 5v-93v0z" />
    <glyph glyph-name="d" unicode="d" 
d="M615 9q-34 -7 -77 -11q-37 -5 -89.5 -8t-118.5 -3q-98 0 -155 9t-86 36.5t-37 78t-8 134.5q0 87 10 139.5t40.5 81t87 37.5t148.5 9q21 0 38 -1t29 -2q14 -1 25 -2v218h193v-716zM422 402q-11 0 -24 1q-11 1 -27.5 1.5t-36.5 0.5q-32 0 -50 -2.5t-27 -17t-11 -46
t-2 -89.5v-9q0 -55 1.5 -85t10.5 -43.5t27 -16t51 -2.5q20 0 36.5 0.5t27.5 1.5q13 1 24 2v304z" />
    <glyph glyph-name="e" unicode="e" 
d="M244 204q0 -42 2 -65.5t11 -35t28.5 -14t54.5 -3.5q60 -1 109 1t84 4q41 3 75 6v-88q-32 -7 -75 -11q-37 -5 -89 -8t-118 -3q-96 0 -152.5 9t-85 36.5t-36.5 78t-8 134.5q0 87 10 139.5t41 81t88 37.5t152 9q94 0 151.5 -9t88.5 -37.5t41 -81t10 -139.5v-41h-382z
M425 294q0 44 -2 68t-11 35t-27 13t-50 2t-50 -2t-27 -13t-11.5 -35t-2.5 -68h181z" />
    <glyph glyph-name="f" unicode="f" horiz-adv-x="524" 
d="M518 624q-14 2 -32 4q-16 2 -38 3t-50 1q-32 0 -50 -2t-26.5 -9.5t-10.5 -22t-2 -39.5v-60h181v-107h-181v-392h-193v392h-96v107h96v60q0 53 12.5 87.5t38 55t63.5 28.5t88 8q46 0 83 -3.5t63 -7.5q31 -5 54 -11v-92v0z" />
    <glyph glyph-name="g" unicode="g" 
d="M615 -60q0 -63 -16 -99t-49 -54t-84 -22.5t-121 -4.5q-64 0 -114 3t-85 8q-41 5 -73 12v94q32 -3 72 -5q34 -2 81 -3.5t104 -0.5q30 0 48 2.5t27.5 10t13 21.5t3.5 38v79q-11 -1 -25 -2q-12 -1 -29 -1.5t-38 -0.5q-92 0 -148 6.5t-87 31.5t-41 73.5t-10 131.5
q0 87 13 137.5t45.5 76.5t87.5 33t140 7q66 0 118.5 -3.5t89.5 -7.5q43 -5 77 -11v-550zM422 400q-11 1 -24 2q-11 1 -27.5 2t-36.5 1q-31 0 -49 -2t-27 -15.5t-11.5 -42.5t-2.5 -82v-9q0 -50 2 -77t10.5 -39.5t26.5 -14.5t51 -2q20 0 36.5 0.5t27.5 1.5q13 1 24 2v275z" />
    <glyph glyph-name="h" unicode="h" 
d="M422 0v333q0 27 -5 41.5t-15.5 21.5t-27 8t-39.5 1q-20 0 -36 -1t-27 -2q-13 -1 -23 -2v-400h-193v725h193v-218q10 1 23 2q11 1 27 2t36 1q72 0 124.5 -4.5t87 -22.5t51.5 -54t17 -98v-333h-193z" />
    <glyph glyph-name="i" unicode="i" horiz-adv-x="305" 
d="M56 0v499h193v-499h-193zM56 580v145h193v-145h-193z" />
    <glyph glyph-name="j" unicode="j" horiz-adv-x="398" 
d="M343 -60q0 -53 -11 -88t-34 -55.5t-58 -28.5t-84 -8q-44 0 -79 3t-59 8q-29 5 -50 12v89q12 -2 28 -3q14 -1 33 -1.5t43 -0.5t39 2.5t24 10.5t12 22.5t3 37.5v559h193v-559zM150 580v145h193v-145h-193z" />
    <glyph glyph-name="k" unicode="k" 
d="M433 0l-124 201h-60v-201h-193v725h193v-418h60l120 192h216l-160 -245l169 -254h-221z" />
    <glyph glyph-name="l" unicode="l" horiz-adv-x="305" 
d="M56 0v725h193v-725h-193z" />
    <glyph glyph-name="m" unicode="m" horiz-adv-x="1004" 
d="M755 0v333q0 27 -4.5 41.5t-14.5 21.5t-24.5 8t-34.5 1q-18 0 -34 -1t-28 -3q-14 -2 -25 -3q2 -6 4 -15q2 -8 3.5 -20.5t1.5 -29.5v-333h-193v333q0 27 -5 41.5t-14.5 21.5t-24.5 8t-35 1q-18 0 -32.5 -1t-24.5 -2q-12 -1 -21 -2v-400h-193v490q31 6 72 11q35 4 85.5 7.5
t113.5 3.5q64 0 99.5 -5t57.5 -9q24 2 73 8t120 6q68 0 119 -4.5t84.5 -22.5t50.5 -54t17 -98v-333h-193z" />
    <glyph glyph-name="n" unicode="n" 
d="M422 0v333q0 27 -5 41.5t-15.5 21.5t-27 8t-39.5 1q-20 0 -36 -1t-27 -2q-13 -1 -23 -2v-400h-193v490q33 6 75 11q36 4 87.5 7.5t116.5 3.5q72 0 124.5 -4.5t87 -22.5t51.5 -54t17 -98v-333h-193z" />
    <glyph glyph-name="o" unicode="o" 
d="M626 245q0 -84 -7.5 -134.5t-37 -78t-87.5 -36.5t-159 -9q-67 0 -114.5 3.5t-80 13.5t-51.5 28t-29 47t-13 69.5t-3 96.5q0 87 10 139.5t41 81t88 37.5t152 9q94 0 151.5 -9t88.5 -37.5t41 -81t10 -139.5zM425 250q0 58 -2 89.5t-10.5 46t-25.5 17t-47 2.5h-9
q-30 0 -47.5 -2.5t-26 -17t-11 -46t-2.5 -89.5v-9q0 -55 1.5 -85t10 -43.5t26 -16t49.5 -2.5h9q32 0 49 2.5t25 16t9.5 43.5t1.5 85v9z" />
    <glyph glyph-name="p" unicode="p" 
d="M626 245q0 -84 -7.5 -134.5t-36.5 -78t-86 -36.5t-155 -9q-22 0 -38.5 0.5t-28.5 1.5q-14 1 -25 3v-219h-193v717q33 6 76 11q37 4 89.5 7.5t119.5 3.5q92 0 148 -9t86.5 -37.5t40.5 -81t10 -139.5zM425 250q0 58 -2 89.5t-11 46t-27 17t-50 2.5q-20 0 -36 -1t-27 -2
q-13 -1 -23 -2v-303q10 -1 23 -2q11 -1 27 -1h36q34 0 52 2.5t26.5 16t10 43.5t1.5 85v9z" />
    <glyph glyph-name="q" unicode="q" 
d="M422 -227v219q-11 -2 -25 -3q-12 -1 -29 -1.5t-38 -0.5q-98 0 -155 9t-86 36.5t-37 78t-8 134.5q0 87 10 139.5t40.5 81t87 37.5t148.5 9q66 0 118.5 -3.5t89.5 -7.5q43 -5 77 -11v-717h-193zM422 400q-11 1 -24 2q-11 1 -27.5 2t-36.5 1q-32 0 -50 -2.5t-27 -17t-11 -46
t-2 -89.5v-9q0 -55 1.5 -85t10.5 -43.5t27 -16t51 -2.5h36.5t27.5 1q13 1 24 2v303z" />
    <glyph glyph-name="r" unicode="r" horiz-adv-x="489" 
d="M473 398q-16 1 -35 3q-17 2 -40.5 3t-53.5 1q-23 0 -40.5 -1t-29.5 -2q-14 -1 -25 -2v-400h-193v490q24 6 56 11q27 4 65.5 7.5t87.5 3.5q48 0 86.5 -3.5t65.5 -7.5q32 -5 56 -11v-92v0z" />
    <glyph glyph-name="s" unicode="s" horiz-adv-x="605" 
d="M569 141q0 -53 -14.5 -83.5t-46 -46.5t-81.5 -20t-122 -4q-62 0 -110.5 3t-83.5 8q-40 4 -71 11v86q22 -3 51 -5q25 -2 60 -3.5t80 -1.5q46 0 73.5 1t41.5 6t18.5 15.5t4.5 30.5q0 16 -0.5 25.5t-4.5 15.5t-13 8.5t-25 4.5l-136 17q-55 7 -85 20.5t-43.5 33t-16 44.5
t-2.5 55q0 51 19.5 81t53.5 45.5t79.5 19.5t96.5 4q58 0 104.5 -3.5t78.5 -7.5q38 -5 67 -11v-85q-21 1 -47 3q-23 2 -54.5 3t-72.5 1t-66 -0.5t-38.5 -5t-17.5 -14t-4 -26.5q0 -14 0.5 -22.5t5 -13.5t13 -7.5t25.5 -4.5l136 -18q55 -7 85 -19.5t43.5 -31.5t16 -45.5
t2.5 -62.5z" />
    <glyph glyph-name="t" unicode="t" horiz-adv-x="542" 
d="M518 9q-23 -7 -54 -11q-26 -5 -63 -8t-83 -3q-54 0 -92.5 8t-63 28t-35.5 54.5t-11 88.5v226h-96v107h96v170h193v-170h181v-107h-181v-226q0 -24 2 -38.5t10.5 -22t26.5 -9.5t50 -2q56 0 88 3q18 2 32 4v-92v0z" />
    <glyph glyph-name="u" unicode="u" 
d="M615 9q-33 -7 -75 -11q-36 -5 -88 -8t-117 -3q-84 0 -138.5 5.5t-85.5 24.5t-43 54t-12 95v333h193v-333q0 -27 4.5 -41.5t14.5 -21.5t26.5 -8t40.5 -1q20 0 36 0.5t27 1.5q13 1 24 2v401h193v-490v0z" />
    <glyph glyph-name="v" unicode="v" horiz-adv-x="646" 
d="M480 0h-315l-156 499h202l113 -392l114 392h197z" />
    <glyph glyph-name="w" unicode="w" horiz-adv-x="965" 
d="M837 0h-278l-77 359l-76 -359h-278l-110 499h185l81 -392l82 392h236l81 -392l81 392h183z" />
    <glyph glyph-name="x" unicode="x" horiz-adv-x="658" 
d="M434 0l-106 201l-107 -201h-204l144 254l-137 245h204l102 -192l102 192h202l-137 -245l143 -254h-206z" />
    <glyph glyph-name="y" unicode="y" horiz-adv-x="648" 
d="M462 -67q-19 -59 -39.5 -93.5t-44.5 -52t-52.5 -22.5t-63.5 -5q-47 0 -84 3t-63 8q-31 5 -53 12v92q15 -2 35 -4q17 -2 41 -3t54 -1q22 0 36 1.5t23.5 9.5t17.5 25t17 48l15 49h-133l-155 499h201l113 -392l113 392h198z" />
    <glyph glyph-name="z" unicode="z" horiz-adv-x="600" 
d="M40 0v107l268 285h-262v107h501v-107l-267 -285h284v-107h-524z" />
    <glyph glyph-name="braceleft" unicode="{" horiz-adv-x="549" 
d="M501 -217q-21 -7 -48 -12q-23 -5 -55.5 -8t-74.5 -3q-45 0 -78 13.5t-54.5 50t-32.5 100.5t-11 165q0 36 -6.5 55.5t-18 28.5t-28 10.5t-35.5 1.5h-35v129h35q19 0 35.5 1.5t28 10.5t18 28.5t6.5 55.5q0 101 11.5 165t34 100t55.5 49.5t75 13.5t74.5 -3.5t55.5 -7.5
q27 -5 48 -11v-113q-12 1 -27 2q-13 1 -31.5 2t-41.5 1q-20 0 -34 -4t-22.5 -28t-12 -76.5t-3.5 -149.5q0 -37 -10 -57t-21 -29q-14 -11 -31 -12v-4q17 -1 31 -12q11 -9 21 -29.5t10 -57.5q0 -97 3.5 -149.5t11.5 -77t22 -28.5t35 -4q47 0 73 3q15 1 27 3v-113v0z" />
    <glyph glyph-name="bar" unicode="|" horiz-adv-x="319" 
d="M72 -227v952h175v-952h-175z" />
    <glyph glyph-name="braceright" unicode="}" horiz-adv-x="549" 
d="M490 185q-20 0 -36 -1.5t-27 -10.5t-17.5 -28.5t-6.5 -55.5q0 -101 -11 -165t-32.5 -100.5t-55 -50t-78.5 -13.5q-42 0 -74.5 3t-55.5 8q-27 5 -48 12v113q11 -2 27 -3q25 -3 74 -3q21 0 35 4t22 28.5t11.5 77t3.5 149.5q0 37 9.5 57.5t21.5 29.5q13 11 31 12v4
q-18 1 -31 12q-12 9 -21.5 29t-9.5 57q0 97 -4 149.5t-12.5 76.5t-22 28t-33.5 4q-23 0 -42 -1t-32 -2q-16 -1 -27 -2v113q21 6 48 11q23 4 55.5 7.5t74.5 3.5t75 -13.5t55.5 -49.5t34.5 -100t12 -165q0 -36 6.5 -55.5t17.5 -28.5t27 -10.5t36 -1.5h35v-129h-35z" />
    <glyph glyph-name="asciitilde" unicode="~" horiz-adv-x="636" 
d="M587 275q-16 -19 -36 -33q-17 -12 -42 -22t-57 -10q-31 0 -65 10t-68.5 22.5t-69 22.5t-65.5 10q-32 0 -57.5 -10.5t-42.5 -22.5q-21 -14 -36 -32v104q15 18 36 33q17 12 42.5 22.5t57.5 10.5q31 0 65.5 -10.5t69 -22.5t68.5 -22.5t65 -10.5q32 0 57 10t42 23
q20 14 36 33v-105v0z" />
    <glyph glyph-name="uni00A0" unicode="&#xa0;" horiz-adv-x="281" 
 />
    <glyph glyph-name="exclamdown" unicode="&#xa1;" horiz-adv-x="336" 
d="M72 347v152h193v-152h-193zM80 -181v453h176v-453h-176z" />
    <glyph glyph-name="cent" unicode="&#xa2;" horiz-adv-x="738" 
d="M316 -138v126q-72 3 -114 15.5t-63.5 41t-27 77t-5.5 123.5q0 77 7.5 127t30 80t63.5 43t109 16v122h107v-123q45 -2 80.5 -5.5t61.5 -6.5q29 -4 52 -8v-93q-41 2 -81 4q-35 2 -73.5 3t-69.5 -1t-48 -5t-25.5 -18t-10.5 -47t-2 -91q0 -54 1.5 -83t9.5 -42.5t26 -16.5
t51 -4q32 -2 71 -1.5t74 2.5q40 2 83 5v-93q-23 -5 -53 -9q-26 -4 -63 -7t-84 -5v-126h-107z" />
    <glyph glyph-name="sterling" unicode="&#xa3;" horiz-adv-x="738" 
d="M73 0v135h69v158h-69v104h69v56q0 60 8.5 105t33.5 75t70.5 45t119.5 15q54 0 97 -3.5t73 -7.5q35 -4 63 -10v-120q-18 1 -41 3q-20 2 -47.5 3t-62.5 1q-37 0 -59 -2.5t-33 -13t-14.5 -32t-3.5 -58.5v-56h232v-104h-232v-158h318v-135h-591z" />
    <glyph glyph-name="currency" unicode="&#xa4;" horiz-adv-x="738" 
d="M557 455q16 -25 24.5 -54t8.5 -61q0 -64 -33 -114l90 -89l-75 -75l-89 89q-25 -15 -53.5 -23.5t-60.5 -8.5t-60.5 8.5t-54.5 23.5l-89 -89l-74 75l89 89q-15 24 -23.5 53t-8.5 61t8.5 61t23.5 54l-89 88l74 75l89 -89q26 15 54.5 23.5t60.5 8.5t60.5 -8.5t53.5 -23.5
l89 89l75 -75zM485 340q0 24 -9 45t-25 37t-37 25t-45 9t-45 -9t-37 -25t-25 -37t-9 -45t9 -45t25 -37t37 -25t45 -9t45 9t37 25t25 37t9 45z" />
    <glyph glyph-name="yen" unicode="&#xa5;" horiz-adv-x="738" 
d="M470 118v-118h-202v118h-183v71h183v61h-183v70h117l-181 360h213l136 -280l135 280h211l-180 -360h116v-70h-182v-61h182v-71h-182z" />
    <glyph glyph-name="brokenbar" unicode="&#xa6;" horiz-adv-x="319" 
d="M72 327v398h175v-398h-175zM72 -227v400h175v-400h-175z" />
    <glyph glyph-name="section" unicode="&#xa7;" horiz-adv-x="738" 
d="M637 -56q0 -64 -18.5 -101t-53 -55.5t-82.5 -23t-108 -4.5q-61 0 -109 3t-82 8q-40 5 -70 12v94q22 -3 51 -5q25 -2 59 -3.5t79 -1.5q42 0 68.5 1t41 8.5t19.5 23t5 44.5q0 23 -1 37t-5.5 22t-14 12t-27.5 7l-149 27q-33 6 -62.5 16.5t-51.5 32.5t-35 59.5t-13 96.5
q0 53 14.5 93.5t40.5 66.5q-20 20 -26.5 53t-6.5 88q0 64 23.5 100.5t60 55t81.5 23t88 4.5q59 0 105.5 -3.5t79.5 -7.5q39 -5 68 -11v-95q-21 2 -48 5q-23 2 -56 4t-75 2q-40 0 -65 -1t-38.5 -8.5t-18 -23t-4.5 -44.5q0 -23 1 -37t5.5 -22t14 -12t26.5 -7l151 -27
q33 -6 62 -16.5t51 -32.5t35 -59.5t13 -96.5q0 -54 -15 -94t-41 -66q20 -20 26.5 -53.5t6.5 -87.5zM282 363q-2 -23 -3 -50t-1 -59q0 -30 2 -48t8.5 -28t17.5 -14.5t29 -7.5l119 -21q6 45 6 110q0 30 -2 48t-8.5 28t-18 14.5t-29.5 7.5z" />
    <glyph glyph-name="dieresis" unicode="&#xa8;" horiz-adv-x="929" 
d="M258 580v127h159v-127h-159zM512 580v127h159v-127h-159z" />
    <glyph glyph-name="copyright" unicode="&#xa9;" horiz-adv-x="792" 
d="M750 334q0 -115 -11 -183.5t-47.5 -105t-107 -47.5t-188.5 -11q-79 0 -136 4.5t-96 17.5t-63 36.5t-37 62t-17 94t-4 132.5q0 80 5.5 137.5t20 97.5t40 64.5t64.5 37.5t94 17.5t129 4.5t129 -4.5t94.5 -17.5t64.5 -37.5t40 -64.5t20.5 -97.5t5.5 -137.5zM666 334
q0 70 -3 118t-12 80t-27 49.5t-48 26t-74 10.5t-106 2t-106 -2t-74 -10.5t-47.5 -26t-27 -49.5t-12.5 -80t-3 -118q0 -67 1.5 -113t9.5 -76.5t25 -47t47 -25t75.5 -10t111.5 -1.5t111.5 1.5t75.5 10t47 25t25 47t9.5 76.5t1.5 113zM552 153q-19 -4 -45 -7q-22 -2 -52.5 -4
t-68.5 -2q-59 0 -92 8t-49.5 29.5t-20.5 59t-4 96.5q0 64 5.5 104t22.5 63t50 31.5t87 8.5q38 0 68 -2.5t51 -4.5q25 -3 44 -6v-73l-52 4q-22 2 -47.5 2t-45.5 -1q-21 -1 -33 -3t-18 -14t-7.5 -37.5t-1.5 -72.5q0 -41 1 -62.5t7 -32t18 -13t34 -3.5q21 -1 47 -0.5t49 2.5
q26 1 53 3v-73z" />
    <glyph glyph-name="ordfeminine" unicode="&#xaa;" horiz-adv-x="429" 
d="M36 247v68h357v-68h-357zM388 376q-22 -4 -48 -7q-23 -2 -55 -4t-73 -2q-36 0 -68.5 1.5t-56.5 11.5t-38.5 30.5t-14.5 59.5q0 36 9 55t25.5 28t40 10.5t52.5 1.5h105v16q0 16 -2.5 25.5t-8.5 14t-16.5 5.5t-26.5 1q-35 0 -64.5 -1t-50.5 -2q-26 -1 -45 -2v56q19 3 45 7
q22 2 53 4.5t70 2.5q42 0 73.5 -3t52.5 -14t31.5 -33t10.5 -61v-201zM266 503h-64q-23 0 -32 -4.5t-9 -32.5q0 -15 3 -22.5t9 -11.5t16 -4.5t24 -0.5h20t17 1q9 0 16 1v74z" />
    <glyph glyph-name="guillemotleft" unicode="&#xab;" horiz-adv-x="655" 
d="M167 22l-143 228l143 227h168l-136 -227l136 -228h-168zM461 22l-143 228l143 227h168l-136 -227l136 -228h-168z" />
    <glyph glyph-name="logicalnot" unicode="&#xac;" horiz-adv-x="636" 
d="M473 142v201h-425v104h539v-305h-114z" />
    <glyph glyph-name="uni00AD" unicode="&#xad;" horiz-adv-x="452" 
d="M48 230v129h356v-129h-356z" />
    <glyph glyph-name="registered" unicode="&#xae;" horiz-adv-x="490" 
d="M463 471q0 -71 -6.5 -113.5t-29 -65t-66 -29.5t-116.5 -7t-116.5 7t-66 29.5t-29 65t-6.5 113.5q0 74 8.5 118t32 67t66 30t111.5 7q68 0 110.5 -7t66.5 -30t32.5 -67t8.5 -118zM406 471q0 64 -4 98.5t-20 50.5t-48 19t-89 3t-89 -3t-48.5 -19t-20.5 -50.5t-4 -98.5
q0 -61 3 -94.5t18 -49t48 -18t93 -2.5t93 2.5t48 18t17.5 49t2.5 94.5zM284 354l-30 88h-48v-88h-77v241h137q21 0 38 -2t29 -9.5t18.5 -23.5t6.5 -44q0 -30 -7.5 -45.5t-22.5 -21.5l40 -95h-84zM278 517q0 21 -5.5 24.5t-24.5 3.5h-42v-53h43q19 0 24 3t5 22z" />
    <glyph glyph-name="macron" unicode="&#xaf;" horiz-adv-x="929" 
d="M286 580v90h356v-90h-356z" />
    <glyph glyph-name="degree" unicode="&#xb0;" horiz-adv-x="416" 
d="M368 530q0 -33 -12.5 -62t-34.5 -50.5t-51 -34t-62 -12.5t-62 12.5t-51 34t-34.5 50.5t-12.5 62t12.5 62t34.5 50.5t51 34t62 12.5t62 -12.5t51 -34t34.5 -50.5t12.5 -62zM283 530q0 31 -21.5 53.5t-53.5 22.5t-53.5 -22.5t-21.5 -53.5t21.5 -53.5t53.5 -22.5t53.5 22.5
t21.5 53.5z" />
    <glyph glyph-name="plusminus" unicode="&#xb1;" horiz-adv-x="636" 
d="M375 318v-154h-114v154h-213v105h213v153h114v-153h212v-105h-212zM48 14v104h539v-104h-539z" />
    <glyph glyph-name="uni00B2" unicode="&#xb2;" horiz-adv-x="458" 
d="M53 426v79l188 177q17 15 20 22t3 20q0 19 -3 29.5t-12 15.5t-26 6t-45 1t-49.5 -1t-37.5 -2q-18 -2 -33 -3v72q19 3 45 7q22 2 53.5 4.5t70.5 2.5q31 0 61.5 -3.5t54.5 -16.5t39 -39.5t15 -72.5q0 -14 -1 -25.5t-5.5 -22.5t-14 -24t-27.5 -30l-121 -116h175v-80h-350z
" />
    <glyph glyph-name="uni00B3" unicode="&#xb3;" horiz-adv-x="458" 
d="M403 545q0 -45 -14.5 -70t-38.5 -37.5t-55.5 -15.5t-65.5 -3q-40 0 -71.5 2t-54.5 5q-26 3 -46 7v71q14 -2 33 -3q16 -2 39 -2.5t52 -0.5t46.5 1t27 6t12.5 17t3 33q0 19 -2 29t-7.5 14.5t-15 5.5t-24.5 1h-126v72h124q28 0 38.5 5.5t10.5 37.5q0 21 -3.5 32.5t-13 16.5
t-26.5 6t-44 1q-28 0 -50 -1t-38 -2q-18 -2 -34 -3v72q20 3 46 7q23 2 54 4.5t71 2.5q31 0 61.5 -3.5t54.5 -16.5t38.5 -39.5t14.5 -72.5q0 -31 -7.5 -47.5t-15.5 -24.5q-10 -9 -22 -10v-2q13 -1 24 -12q9 -9 17 -28.5t8 -54.5z" />
    <glyph glyph-name="acute" unicode="&#xb4;" horiz-adv-x="929" 
d="M515 580h-137l116 168h144z" />
    <glyph glyph-name="mu" unicode="&#xb5;" 
d="M615 9q-33 -7 -75 -11q-36 -5 -88 -8t-117 -3q-20 0 -36 0.5t-27 1.5q-13 1 -23 3v-219h-193v726h193v-401q10 -1 23 -2q11 -1 27 -1.5t36 -0.5t36 0.5t27 1.5q13 1 24 2v401h193v-490v0z" />
    <glyph glyph-name="paragraph" unicode="&#xb6;" horiz-adv-x="792" 
d="M617 -227v848h-152v-848h-127v499h-78q-57 0 -97 3.5t-65.5 25t-37.5 67.5t-12 131t14 131t41 67t66.5 24.5t90.5 3.5h484v-952h-127zM338 621h-75q-29 0 -45 -2t-24 -13.5t-10 -36t-2 -70.5t2 -70.5t10 -36t24 -13.5t45 -2h75v244z" />
    <glyph glyph-name="periodcentered" unicode="&#xb7;" horiz-adv-x="281" 
d="M65 211v168h150v-168h-150z" />
    <glyph glyph-name="cedilla" unicode="&#xb8;" horiz-adv-x="929" 
d="M613 -142q0 -27 -6 -44.5t-20.5 -27.5t-39 -14t-61.5 -4q-30 0 -53 3t-40 7q-19 4 -34 11v48q11 -2 25 -3q12 -1 28.5 -1.5t38.5 -0.5q20 0 31 0.5t16.5 3t6.5 7.5t1 15q0 19 -3 22t-20 3h-84v120h98v-55h27q23 0 40 -3.5t28 -13t16 -27.5t5 -46z" />
    <glyph glyph-name="uni00B9" unicode="&#xb9;" horiz-adv-x="458" 
d="M203 426v333l-131 -46v82l132 52h127v-421h-128z" />
    <glyph glyph-name="ordmasculine" unicode="&#xba;" horiz-adv-x="429" 
d="M36 247v68h357v-68h-357zM395 523q0 -52 -4.5 -83.5t-22.5 -48.5t-54 -22.5t-99 -5.5t-99 5.5t-54 22.5t-23 48.5t-5 83.5q0 54 6 86.5t25.5 50t55 23t94.5 5.5t94.5 -5.5t54.5 -23t25 -50t6 -86.5zM268 526q0 35 -1 54t-6.5 28t-15.5 10.5t-28 1.5h-5q-18 0 -28 -1.5
t-15.5 -10.5t-6.5 -28t-1 -54v-6q0 -33 1 -51t6 -26t15 -9.5t29 -1.5h5q19 0 29.5 1.5t15 9.5t5.5 26t1 51v6z" />
    <glyph glyph-name="guillemotright" unicode="&#xbb;" horiz-adv-x="655" 
d="M193 22h-169l138 228l-138 227h169l142 -227zM487 22h-169l138 228l-138 227h169l142 -227z" />
    <glyph glyph-name="onequarter" unicode="&#xbc;" horiz-adv-x="1105" 
d="M408 0h-103l393 680h103zM203 259v333l-131 -46v82l132 52h127v-421h-128zM1026 100v-100h-128v100h-224v80l163 241h189v-240h53v-81h-53zM898 338l-105 -157h105v157z" />
    <glyph glyph-name="onehalf" unicode="&#xbd;" horiz-adv-x="1105" 
d="M408 0h-103l393 680h103zM203 259v333l-131 -46v82l132 52h127v-421h-128zM701 0v78l188 177q16 16 19.5 23t3.5 19q0 19 -3 29.5t-12 15t-25.5 5.5t-43.5 1q-29 0 -51.5 -0.5t-38.5 -1.5q-18 -1 -33 -2v71q20 3 46 7q22 2 53.5 4.5t70.5 2.5q31 0 61.5 -3t54.5 -16.5
t39 -40t15 -72.5q0 -15 -0.5 -26t-5 -22.5t-14 -24t-27.5 -29.5l-122 -115h176v-80h-351z" />
    <glyph glyph-name="threequarters" unicode="&#xbe;" horiz-adv-x="1105" 
d="M408 0h-103l393 680h103zM403 378q0 -45 -14.5 -70t-38.5 -37.5t-55.5 -15.5t-65.5 -3q-40 0 -71.5 2t-54.5 5q-26 3 -46 7v71q14 -2 33 -3q16 -2 39 -2.5t52 -0.5t46.5 1t27 6t12.5 17t3 33q0 19 -2 29t-7.5 14.5t-15 5.5t-24.5 1h-126v72h124q28 0 38.5 5.5t10.5 37.5
q0 21 -3.5 32t-13 16t-26.5 6t-44 1q-28 0 -50 -1t-38 -2q-18 -1 -34 -2v71q20 3 46 7q23 2 54 4.5t71 2.5q31 0 61.5 -3t54.5 -16.5t38.5 -40t14.5 -72.5q0 -31 -7.5 -47t-15.5 -24q-10 -9 -22 -10v-2q13 -1 24 -12q9 -9 17 -28.5t8 -54.5zM1026 100v-100h-128v100h-224v80
l163 241h189v-240h53v-81h-53zM898 338l-105 -157h105v157z" />
    <glyph glyph-name="questiondown" unicode="&#xbf;" horiz-adv-x="622" 
d="M229 347v152h194v-152h-194zM574 -173q-30 -7 -70 -11q-34 -4 -83 -7t-110 -3q-55 0 -103 4.5t-83.5 23.5t-56 56.5t-20.5 102.5q0 61 6.5 96t21 54t37.5 27t57 16l68 15v71h175v-170l-136 -28q-15 -3 -24 -7t-14 -12t-6.5 -23t-1.5 -39q0 -30 4 -46.5t19 -24t43.5 -8.5
t77.5 -1q46 0 83 1.5t63 3.5q30 2 53 5v-96z" />
    <glyph glyph-name="Agrave" unicode="&#xc0;" horiz-adv-x="815" 
d="M357 753l-123 169h144l116 -169h-137zM584 0l-54 161h-249l-54 -161h-220l246 680h308l245 -680h-222zM406 551l-87 -261h174z" />
    <glyph glyph-name="Aacute" unicode="&#xc1;" horiz-adv-x="815" 
d="M458 753h-137l116 169h144zM584 0l-54 161h-249l-54 -161h-220l246 680h308l245 -680h-222zM406 551l-87 -261h174z" />
    <glyph glyph-name="Acircumflex" unicode="&#xc2;" horiz-adv-x="815" 
d="M484 753l-77 105l-77 -105h-124l116 169h170l117 -169h-125zM584 0l-54 161h-249l-54 -161h-220l246 680h308l245 -680h-222zM406 551l-87 -261h174z" />
    <glyph glyph-name="Atilde" unicode="&#xc3;" horiz-adv-x="815" 
d="M629 913q0 -86 -32.5 -125.5t-98.5 -39.5q-33 0 -58.5 12.5t-46.5 28t-39 28t-37 12.5q-6 0 -13 -2t-13 -9.5t-10.5 -23t-4.5 -42.5h-91q0 87 33 126.5t99 39.5q33 0 58.5 -12.5t46.5 -27.5t39 -27.5t37 -12.5q6 0 13 2t13 9.5t10 22.5t4 41h91v0zM584 0l-54 161h-249
l-54 -161h-220l246 680h308l245 -680h-222zM406 551l-87 -261h174z" />
    <glyph glyph-name="Adieresis" unicode="&#xc4;" horiz-adv-x="815" 
d="M201 753v128h159v-128h-159zM455 753v128h159v-128h-159zM584 0l-54 161h-249l-54 -161h-220l246 680h308l245 -680h-222zM406 551l-87 -261h174z" />
    <glyph glyph-name="Aring" unicode="&#xc5;" horiz-adv-x="815" 
d="M584 0l-54 161h-249l-54 -161h-220l246 680h308l245 -680h-222zM406 551l-87 -261h174zM549 846q0 -32 -4.5 -51t-19.5 -29.5t-43 -14t-75 -3.5t-75 3.5t-42.5 14t-19 29.5t-4.5 51q0 33 6 53t21.5 31t43 14.5t70.5 3.5t71 -3.5t43.5 -14.5t21.5 -31t6 -53zM457 846
q0 15 -1 22.5t-5.5 11.5t-15 4.5t-28.5 0.5t-28 -0.5t-14.5 -4.5t-5.5 -11.5t-1 -22.5q0 -13 1 -20t5.5 -10.5t14.5 -4t28 -0.5t28.5 0.5t15 4t5.5 10.5t1 20z" />
    <glyph glyph-name="AE" unicode="&#xc6;" horiz-adv-x="1098" 
d="M497 0v161h-204l-63 -161h-223l278 680h758v-129h-333v-145h302v-118h-302v-158h339v-130h-552zM497 551h-59l-101 -261h160v261z" />
    <glyph glyph-name="Ccedilla" unicode="&#xc7;" horiz-adv-x="684" 
d="M507 -142q0 -27 -6 -44.5t-20 -27.5t-38.5 -14t-61.5 -4q-30 0 -53 3t-40 7q-19 4 -34 11v48q11 -2 25 -3q12 -1 28.5 -1.5t38.5 -0.5q20 0 31 0.5t16.5 3t6.5 7.5t1 15q0 19 -3 22t-21 3h-83v106q-83 4 -130 21.5t-70.5 56t-29 102.5t-5.5 160q0 75 4 131t15 96.5t31 67
t52.5 42t79.5 21.5t111 6q68 0 122 -3.5t92 -7.5q44 -4 78 -10v-129q-46 2 -92 5q-39 2 -84.5 3.5t-82.5 -0.5q-36 -2 -56.5 -6.5t-31.5 -25.5t-14 -65.5t-3 -127.5q0 -72 2 -111t12 -57t32 -22t61 -6q38 -2 83.5 -1t85.5 3q47 2 94 5v-128q-30 -5 -69 -9q-34 -4 -81.5 -7.5
t-108.5 -4.5v-40h28q23 0 40 -3.5t27.5 -13t15.5 -27.5t5 -46z" />
    <glyph glyph-name="Egrave" unicode="&#xc8;" horiz-adv-x="699" 
d="M309 753l-123 169h144l116 -169h-137zM72 0v680h572v-129h-360v-145h329v-118h-329v-158h366v-130h-578z" />
    <glyph glyph-name="Eacute" unicode="&#xc9;" horiz-adv-x="699" 
d="M410 753h-137l116 169h144zM72 0v680h572v-129h-360v-145h329v-118h-329v-158h366v-130h-578z" />
    <glyph glyph-name="Ecircumflex" unicode="&#xca;" horiz-adv-x="699" 
d="M436 753l-77 105l-77 -105h-124l116 169h170l117 -169h-125zM72 0v680h572v-129h-360v-145h329v-118h-329v-158h366v-130h-578z" />
    <glyph glyph-name="Edieresis" unicode="&#xcb;" horiz-adv-x="699" 
d="M153 753v128h159v-128h-159zM407 753v128h159v-128h-159zM72 0v680h572v-129h-360v-145h329v-118h-329v-158h366v-130h-578z" />
    <glyph glyph-name="Igrave" unicode="&#xcc;" horiz-adv-x="356" 
d="M128 753l-123 169h144l116 -169h-137zM72 0v680h212v-680h-212z" />
    <glyph glyph-name="Iacute" unicode="&#xcd;" horiz-adv-x="356" 
d="M228 753h-137l116 169h144zM72 0v680h212v-680h-212z" />
    <glyph glyph-name="Icircumflex" unicode="&#xce;" horiz-adv-x="356" 
d="M254 753l-77 105l-77 -105h-124l116 169h170l117 -169h-125zM72 0v680h212v-680h-212z" />
    <glyph glyph-name="Idieresis" unicode="&#xcf;" horiz-adv-x="356" 
d="M-29 753v128h159v-128h-159zM225 753v128h159v-128h-159zM72 0v680h212v-680h-212z" />
    <glyph glyph-name="Eth" unicode="&#xd0;" horiz-adv-x="817" 
d="M756 329q0 -106 -9 -170.5t-36 -100t-76 -47t-128 -11.5h-420v301h-81v83h81v296h411q76 0 125.5 -12t79 -49t41.5 -106t12 -184zM537 326q0 80 -3.5 123.5t-14 63.5t-29.5 23.5t-51 3.5h-138v-156h124v-83h-124v-161h144q31 0 49 3t27.5 20.5t12.5 55t3 107.5z" />
    <glyph glyph-name="Ntilde" unicode="&#xd1;" horiz-adv-x="854" 
d="M648 913q0 -86 -32.5 -125.5t-98.5 -39.5q-33 0 -58.5 12.5t-46.5 28t-39 28t-37 12.5q-6 0 -13 -2t-13 -9.5t-10.5 -23t-4.5 -42.5h-91q0 87 33 126.5t99 39.5q33 0 58.5 -12.5t46.5 -27.5t39 -27.5t37 -12.5q6 0 13 2t13 9.5t10 22.5t4 41h91v0zM490 0l-226 496v-496
h-192v680h292l227 -495v495h191v-680h-292z" />
    <glyph glyph-name="Ograve" unicode="&#xd2;" horiz-adv-x="800" 
d="M350 753l-123 169h144l116 -169h-137zM740 333q0 -78 -3 -133.5t-14.5 -94t-34 -62t-60 -36t-93.5 -16.5t-135 -4t-135 4t-94 16.5t-60 36t-33.5 62t-15 94t-3.5 133.5q0 81 5 139.5t18 98.5t37 64t62 37t91.5 17t127.5 4q73 0 127 -4t92 -17t61.5 -37t36.5 -64t18 -98.5
t5 -139.5zM520 338q0 81 -3 124.5t-14 63.5t-34.5 23.5t-63.5 3.5h-9q-41 0 -64 -3.5t-34.5 -23.5t-14.5 -63.5t-3 -124.5v-9q0 -75 2 -116t13 -60t34.5 -22t66.5 -3h9q42 0 65.5 3t34.5 22t13 60t2 116v9z" />
    <glyph glyph-name="Oacute" unicode="&#xd3;" horiz-adv-x="800" 
d="M451 753h-137l116 169h144zM740 333q0 -78 -3 -133.5t-14.5 -94t-34 -62t-60 -36t-93.5 -16.5t-135 -4t-135 4t-94 16.5t-60 36t-33.5 62t-15 94t-3.5 133.5q0 81 5 139.5t18 98.5t37 64t62 37t91.5 17t127.5 4q73 0 127 -4t92 -17t61.5 -37t36.5 -64t18 -98.5t5 -139.5z
M520 338q0 81 -3 124.5t-14 63.5t-34.5 23.5t-63.5 3.5h-9q-41 0 -64 -3.5t-34.5 -23.5t-14.5 -63.5t-3 -124.5v-9q0 -75 2 -116t13 -60t34.5 -22t66.5 -3h9q42 0 65.5 3t34.5 22t13 60t2 116v9z" />
    <glyph glyph-name="Ocircumflex" unicode="&#xd4;" horiz-adv-x="800" 
d="M477 753l-77 105l-77 -105h-124l116 169h170l117 -169h-125zM740 333q0 -78 -3 -133.5t-14.5 -94t-34 -62t-60 -36t-93.5 -16.5t-135 -4t-135 4t-94 16.5t-60 36t-33.5 62t-15 94t-3.5 133.5q0 81 5 139.5t18 98.5t37 64t62 37t91.5 17t127.5 4q73 0 127 -4t92 -17
t61.5 -37t36.5 -64t18 -98.5t5 -139.5zM520 338q0 81 -3 124.5t-14 63.5t-34.5 23.5t-63.5 3.5h-9q-41 0 -64 -3.5t-34.5 -23.5t-14.5 -63.5t-3 -124.5v-9q0 -75 2 -116t13 -60t34.5 -22t66.5 -3h9q42 0 65.5 3t34.5 22t13 60t2 116v9z" />
    <glyph glyph-name="Otilde" unicode="&#xd5;" horiz-adv-x="800" 
d="M622 913q0 -86 -32.5 -125.5t-98.5 -39.5q-33 0 -58.5 12.5t-46.5 28t-39 28t-37 12.5q-6 0 -13 -2t-13 -9.5t-10.5 -23t-4.5 -42.5h-91q0 87 33 126.5t99 39.5q33 0 58.5 -12.5t46.5 -27.5t39 -27.5t37 -12.5q6 0 13 2t13 9.5t10 22.5t4 41h91v0zM740 333
q0 -78 -3 -133.5t-14.5 -94t-34 -62t-60 -36t-93.5 -16.5t-135 -4t-135 4t-94 16.5t-60 36t-33.5 62t-15 94t-3.5 133.5q0 81 5 139.5t18 98.5t37 64t62 37t91.5 17t127.5 4q73 0 127 -4t92 -17t61.5 -37t36.5 -64t18 -98.5t5 -139.5zM520 338q0 81 -3 124.5t-14 63.5
t-34.5 23.5t-63.5 3.5h-9q-41 0 -64 -3.5t-34.5 -23.5t-14.5 -63.5t-3 -124.5v-9q0 -75 2 -116t13 -60t34.5 -22t66.5 -3h9q42 0 65.5 3t34.5 22t13 60t2 116v9z" />
    <glyph glyph-name="Odieresis" unicode="&#xd6;" horiz-adv-x="800" 
d="M194 753v128h159v-128h-159zM448 753v128h159v-128h-159zM740 333q0 -78 -3 -133.5t-14.5 -94t-34 -62t-60 -36t-93.5 -16.5t-135 -4t-135 4t-94 16.5t-60 36t-33.5 62t-15 94t-3.5 133.5q0 81 5 139.5t18 98.5t37 64t62 37t91.5 17t127.5 4q73 0 127 -4t92 -17t61.5 -37
t36.5 -64t18 -98.5t5 -139.5zM520 338q0 81 -3 124.5t-14 63.5t-34.5 23.5t-63.5 3.5h-9q-41 0 -64 -3.5t-34.5 -23.5t-14.5 -63.5t-3 -124.5v-9q0 -75 2 -116t13 -60t34.5 -22t66.5 -3h9q42 0 65.5 3t34.5 22t13 60t2 116v9z" />
    <glyph glyph-name="multiply" unicode="&#xd7;" horiz-adv-x="636" 
d="M473 62l-155 155l-155 -155l-78 77l156 155l-156 156l78 77l155 -155l155 155l77 -77l-154 -156l154 -155z" />
    <glyph glyph-name="Oslash" unicode="&#xd8;" horiz-adv-x="800" 
d="M740 333q0 -78 -3 -133.5t-14.5 -94t-34 -62t-60 -36t-93.5 -16.5t-135 -4q-49 0 -88.5 1.5t-71.5 5.5l-49 -80h-99l62 101q-32 14 -50.5 38t-28.5 62t-13 91.5t-3 126.5q0 81 5 139.5t18 98.5t37 64t62 37t91.5 17t127.5 4q50 0 90.5 -1.5t73.5 -6.5l45 73h99l-61 -98
q29 -16 47 -41.5t28.5 -65t14 -93.5t3.5 -127zM280 329v-60t1 -46l198 322q-12 6 -30.5 7t-43.5 1h-9q-41 0 -64 -3.5t-34.5 -23.5t-14.5 -63.5t-3 -124.5v-9zM520 338v62t-2 48l-193 -316q12 -3 29.5 -3.5t41.5 -0.5h9q42 0 65.5 3t34.5 22t13 60t2 116v9z" />
    <glyph glyph-name="Ugrave" unicode="&#xd9;" horiz-adv-x="800" 
d="M350 753l-123 169h144l116 -169h-137zM729 227q0 -74 -8.5 -120.5t-41.5 -73t-99 -36.5t-180 -10q-76 0 -130 4t-90.5 14.5t-58 28t-32.5 44t-14 63.5t-3 86v453h212v-453q0 -37 3.5 -57t15.5 -29.5t35 -11t62 -1.5t62 1.5t35 11t15.5 29.5t3.5 57v453h213v-453v0z" />
    <glyph glyph-name="Uacute" unicode="&#xda;" horiz-adv-x="800" 
d="M451 753h-137l116 169h144zM729 227q0 -74 -8.5 -120.5t-41.5 -73t-99 -36.5t-180 -10q-76 0 -130 4t-90.5 14.5t-58 28t-32.5 44t-14 63.5t-3 86v453h212v-453q0 -37 3.5 -57t15.5 -29.5t35 -11t62 -1.5t62 1.5t35 11t15.5 29.5t3.5 57v453h213v-453v0z" />
    <glyph glyph-name="Ucircumflex" unicode="&#xdb;" horiz-adv-x="800" 
d="M477 753l-77 105l-77 -105h-124l116 169h170l117 -169h-125zM729 227q0 -74 -8.5 -120.5t-41.5 -73t-99 -36.5t-180 -10q-76 0 -130 4t-90.5 14.5t-58 28t-32.5 44t-14 63.5t-3 86v453h212v-453q0 -37 3.5 -57t15.5 -29.5t35 -11t62 -1.5t62 1.5t35 11t15.5 29.5t3.5 57
v453h213v-453v0z" />
    <glyph glyph-name="Udieresis" unicode="&#xdc;" horiz-adv-x="800" 
d="M194 753v128h159v-128h-159zM448 753v128h159v-128h-159zM729 227q0 -74 -8.5 -120.5t-41.5 -73t-99 -36.5t-180 -10q-76 0 -130 4t-90.5 14.5t-58 28t-32.5 44t-14 63.5t-3 86v453h212v-453q0 -37 3.5 -57t15.5 -29.5t35 -11t62 -1.5t62 1.5t35 11t15.5 29.5t3.5 57v453
h213v-453v0z" />
    <glyph glyph-name="Yacute" unicode="&#xdd;" horiz-adv-x="748" 
d="M425 753h-137l116 169h144zM521 263h-41v-263h-212v263h-41l-220 417h227l141 -276l141 276h223z" />
    <glyph glyph-name="Thorn" unicode="&#xde;" horiz-adv-x="760" 
d="M723 341q0 -75 -15 -118.5t-46 -65t-78.5 -27t-113.5 -5.5h-186v-125h-212v680h212v-112h180q61 0 109 -5.5t81.5 -28t51 -68t17.5 -125.5zM503 344q0 35 -3.5 54t-13.5 28t-28.5 10.5t-48.5 1.5h-125v-183h128q30 0 48 1.5t27.5 9.5t12.5 26.5t3 51.5z" />
    <glyph glyph-name="germandbls" unicode="&#xdf;" horiz-adv-x="684" 
d="M639 200q0 -75 -14 -117.5t-37.5 -64t-55 -26.5t-66.5 -5q-41 0 -72.5 3t-54.5 8q-26 4 -46 11v83q10 -2 22 -4q21 -3 59 -3q21 0 33.5 3t19.5 15.5t9.5 37.5t2.5 70q0 47 -2 72.5t-9 37t-19.5 13.5t-34.5 2h-71v99h63q21 0 33 1.5t18 10t7 27t1 52.5q0 42 -4 65
t-14 33.5t-27.5 12.5t-44.5 2q-24 0 -40.5 -1t-26.5 -8t-14.5 -22t-4.5 -43v-565h-193v559q0 62 16 98t50 54t88 22.5t131 4.5q63 0 115 -5t90 -25.5t59 -62t21 -114.5q0 -54 -9 -83t-20 -43q-13 -16 -29 -18v-3q19 -3 35 -23q14 -17 25 -54.5t11 -106.5z" />
    <glyph glyph-name="agrave" unicode="&#xe0;" 
d="M615 9q-34 -7 -77 -11q-37 -5 -89.5 -8t-118.5 -3q-58 0 -110 2.5t-91 18t-62 49t-23 95.5q0 58 14.5 89t41 45.5t64 17t84.5 2.5h174v27q0 27 -4 43t-14 23.5t-28 10t-46 2.5q-57 1 -104 -0.5t-81 -3.5q-40 -3 -72 -6v88q32 6 73 11q35 4 85 7.5t114 3.5
q66 0 116.5 -4.5t84.5 -22.5t51.5 -54t17.5 -98v-324zM422 215h-108q-20 0 -33 -1t-21.5 -7t-12 -18.5t-3.5 -36.5q0 -25 5 -38.5t15.5 -20t27.5 -7.5t41 -1q20 0 36.5 0.5t28.5 1.5q13 1 24 3v125zM286 580l-123 168h144l116 -168h-137z" />
    <glyph glyph-name="aacute" unicode="&#xe1;" 
d="M615 9q-34 -7 -77 -11q-37 -5 -89.5 -8t-118.5 -3q-58 0 -110 2.5t-91 18t-62 49t-23 95.5q0 58 14.5 89t41 45.5t64 17t84.5 2.5h174v27q0 27 -4 43t-14 23.5t-28 10t-46 2.5q-57 1 -104 -0.5t-81 -3.5q-40 -3 -72 -6v88q32 6 73 11q35 4 85 7.5t114 3.5
q66 0 116.5 -4.5t84.5 -22.5t51.5 -54t17.5 -98v-324zM422 215h-108q-20 0 -33 -1t-21.5 -7t-12 -18.5t-3.5 -36.5q0 -25 5 -38.5t15.5 -20t27.5 -7.5t41 -1q20 0 36.5 0.5t28.5 1.5q13 1 24 3v125zM387 580h-137l116 168h144z" />
    <glyph glyph-name="acircumflex" unicode="&#xe2;" 
d="M615 9q-34 -7 -77 -11q-37 -5 -89.5 -8t-118.5 -3q-58 0 -110 2.5t-91 18t-62 49t-23 95.5q0 58 14.5 89t41 45.5t64 17t84.5 2.5h174v27q0 27 -4 43t-14 23.5t-28 10t-46 2.5q-57 1 -104 -0.5t-81 -3.5q-40 -3 -72 -6v88q32 6 73 11q35 4 85 7.5t114 3.5
q66 0 116.5 -4.5t84.5 -22.5t51.5 -54t17.5 -98v-324zM422 215h-108q-20 0 -33 -1t-21.5 -7t-12 -18.5t-3.5 -36.5q0 -25 5 -38.5t15.5 -20t27.5 -7.5t41 -1q20 0 36.5 0.5t28.5 1.5q13 1 24 3v125zM413 580l-77 105l-77 -105h-124l116 168h170l117 -168h-125z" />
    <glyph glyph-name="atilde" unicode="&#xe3;" 
d="M615 9q-34 -7 -77 -11q-37 -5 -89.5 -8t-118.5 -3q-58 0 -110 2.5t-91 18t-62 49t-23 95.5q0 58 14.5 89t41 45.5t64 17t84.5 2.5h174v27q0 27 -4 43t-14 23.5t-28 10t-46 2.5q-57 1 -104 -0.5t-81 -3.5q-40 -3 -72 -6v88q32 6 73 11q35 4 85 7.5t114 3.5
q66 0 116.5 -4.5t84.5 -22.5t51.5 -54t17.5 -98v-324zM422 215h-108q-20 0 -33 -1t-21.5 -7t-12 -18.5t-3.5 -36.5q0 -25 5 -38.5t15.5 -20t27.5 -7.5t41 -1q20 0 36.5 0.5t28.5 1.5q13 1 24 3v125zM558 740q0 -86 -32.5 -125.5t-98.5 -39.5q-33 0 -58.5 12.5t-46.5 28
t-39 28t-37 12.5q-6 0 -13 -2t-13 -9.5t-10.5 -22.5t-4.5 -42h-91q0 86 33 125.5t99 39.5q33 0 58.5 -12.5t46.5 -27.5t39 -27.5t37 -12.5q6 0 13 2t13 9.5t10 22.5t4 41h91v0z" />
    <glyph glyph-name="adieresis" unicode="&#xe4;" 
d="M615 9q-34 -7 -77 -11q-37 -5 -89.5 -8t-118.5 -3q-58 0 -110 2.5t-91 18t-62 49t-23 95.5q0 58 14.5 89t41 45.5t64 17t84.5 2.5h174v27q0 27 -4 43t-14 23.5t-28 10t-46 2.5q-57 1 -104 -0.5t-81 -3.5q-40 -3 -72 -6v88q32 6 73 11q35 4 85 7.5t114 3.5
q66 0 116.5 -4.5t84.5 -22.5t51.5 -54t17.5 -98v-324zM422 215h-108q-20 0 -33 -1t-21.5 -7t-12 -18.5t-3.5 -36.5q0 -25 5 -38.5t15.5 -20t27.5 -7.5t41 -1q20 0 36.5 0.5t28.5 1.5q13 1 24 3v125zM130 580v127h159v-127h-159zM384 580v127h159v-127h-159z" />
    <glyph glyph-name="aring" unicode="&#xe5;" 
d="M477 673q0 -32 -4.5 -51t-19.5 -29.5t-43 -14t-75 -3.5t-75 3.5t-42.5 14t-19 29.5t-4.5 51q0 33 6 53t21.5 31t43 14.5t70.5 3.5t71 -3.5t43.5 -14.5t21.5 -31t6 -53zM385 673q0 15 -1 22.5t-5.5 11.5t-15 4.5t-28.5 0.5t-28 -0.5t-14.5 -4.5t-5.5 -11.5t-1 -22.5
q0 -13 1 -20t5.5 -10.5t14.5 -4t28 -0.5t28.5 0.5t15 4t5.5 10.5t1 20zM615 9q-34 -7 -77 -11q-37 -5 -89.5 -8t-118.5 -3q-58 0 -110 2.5t-91 18t-62 49t-23 95.5q0 58 14.5 89t41 45.5t64 17t84.5 2.5h174v27q0 27 -4 43t-14 23.5t-28 10t-46 2.5q-57 1 -104 -0.5
t-81 -3.5q-40 -3 -72 -6v88q32 6 73 11q35 4 85 7.5t114 3.5q66 0 116.5 -4.5t84.5 -22.5t51.5 -54t17.5 -98v-324zM422 215h-108q-20 0 -33 -1t-21.5 -7t-12 -18.5t-3.5 -36.5q0 -25 5 -38.5t15.5 -20t27.5 -7.5t41 -1q20 0 36.5 0.5t28.5 1.5q13 1 24 3v125z" />
    <glyph glyph-name="ae" unicode="&#xe6;" horiz-adv-x="1028" 
d="M608 204q0 -42 1.5 -65.5t10.5 -35t27.5 -14t51.5 -3.5q59 -1 107.5 1t83.5 4q41 3 74 6v-88q-33 -7 -75 -11q-36 -5 -87.5 -8t-115.5 -3q-59 0 -100 4.5t-70 18.5q-31 -15 -78 -19t-112 -4q-56 0 -107 2.5t-90 18t-62 49t-23 95.5q0 58 14.5 89t40.5 45.5t63 17t82 2.5
h170v27q0 27 -3.5 43t-13.5 23.5t-26.5 10t-43.5 2.5q-56 2 -102.5 0t-80.5 -4q-40 -3 -71 -6v88q32 6 72 11q35 4 84 7.5t112 3.5q54 0 98 -4.5t76 -22.5q30 16 73.5 21.5t106.5 5.5q93 0 149.5 -9t87.5 -37.5t41 -81t10 -139.5v-41h-375zM414 215h-104q-18 0 -30.5 -1
t-20.5 -7t-11.5 -18.5t-3.5 -36.5q0 -25 5 -38.5t15 -20t26 -7.5t39 -1q27 0 43.5 1.5t25.5 9t12.5 24t3.5 46.5v49zM782 294q0 44 -2.5 68t-11 35t-26 13t-47.5 2t-47.5 -2t-26 -13t-11 -35t-2.5 -68h174z" />
    <glyph glyph-name="ccedilla" unicode="&#xe7;" horiz-adv-x="591" 
d="M456 -142q0 -27 -6 -44.5t-20.5 -27.5t-39 -14t-61.5 -4q-30 0 -53 3t-40 7q-19 4 -34 11v48q11 -2 25 -3q12 -1 28.5 -1.5t38.5 -0.5q20 0 31 0.5t16.5 3t6.5 7.5t1 15q0 19 -3 22t-20 3h-84v106q-68 3 -107.5 16t-59.5 42t-25.5 77t-5.5 121q0 83 9 135t36 81.5
t77.5 40t133.5 10.5q60 0 107 -3.5t80 -7.5q39 -5 68 -11v-93q-41 2 -81 4q-35 2 -73.5 3t-69.5 -1q-30 -2 -47.5 -5t-26.5 -18t-11 -47t-2 -91q0 -54 1.5 -83t10 -42.5t26.5 -16.5t51 -4q32 -2 71.5 -1.5t74.5 2.5q40 2 82 5v-93q-26 -5 -59 -9q-29 -4 -70 -7.5t-92 -4.5
v-40h27q23 0 40 -3.5t28 -13t16 -27.5t5 -46z" />
    <glyph glyph-name="egrave" unicode="&#xe8;" 
d="M244 204q0 -42 2 -65.5t11 -35t28.5 -14t54.5 -3.5q60 -1 109 1t84 4q41 3 75 6v-88q-32 -7 -75 -11q-37 -5 -89 -8t-118 -3q-96 0 -152.5 9t-85 36.5t-36.5 78t-8 134.5q0 87 10 139.5t41 81t88 37.5t152 9q94 0 151.5 -9t88.5 -37.5t41 -81t10 -139.5v-41h-382z
M425 294q0 44 -2 68t-11 35t-27 13t-50 2t-50 -2t-27 -13t-11.5 -35t-2.5 -68h181zM286 580l-123 168h144l116 -168h-137z" />
    <glyph glyph-name="eacute" unicode="&#xe9;" 
d="M244 204q0 -42 2 -65.5t11 -35t28.5 -14t54.5 -3.5q60 -1 109 1t84 4q41 3 75 6v-88q-32 -7 -75 -11q-37 -5 -89 -8t-118 -3q-96 0 -152.5 9t-85 36.5t-36.5 78t-8 134.5q0 87 10 139.5t41 81t88 37.5t152 9q94 0 151.5 -9t88.5 -37.5t41 -81t10 -139.5v-41h-382z
M425 294q0 44 -2 68t-11 35t-27 13t-50 2t-50 -2t-27 -13t-11.5 -35t-2.5 -68h181zM387 580h-137l116 168h144z" />
    <glyph glyph-name="ecircumflex" unicode="&#xea;" 
d="M244 204q0 -42 2 -65.5t11 -35t28.5 -14t54.5 -3.5q60 -1 109 1t84 4q41 3 75 6v-88q-32 -7 -75 -11q-37 -5 -89 -8t-118 -3q-96 0 -152.5 9t-85 36.5t-36.5 78t-8 134.5q0 87 10 139.5t41 81t88 37.5t152 9q94 0 151.5 -9t88.5 -37.5t41 -81t10 -139.5v-41h-382z
M425 294q0 44 -2 68t-11 35t-27 13t-50 2t-50 -2t-27 -13t-11.5 -35t-2.5 -68h181zM413 580l-77 105l-77 -105h-124l116 168h170l117 -168h-125z" />
    <glyph glyph-name="edieresis" unicode="&#xeb;" 
d="M244 204q0 -42 2 -65.5t11 -35t28.5 -14t54.5 -3.5q60 -1 109 1t84 4q41 3 75 6v-88q-32 -7 -75 -11q-37 -5 -89 -8t-118 -3q-96 0 -152.5 9t-85 36.5t-36.5 78t-8 134.5q0 87 10 139.5t41 81t88 37.5t152 9q94 0 151.5 -9t88.5 -37.5t41 -81t10 -139.5v-41h-382z
M425 294q0 44 -2 68t-11 35t-27 13t-50 2t-50 -2t-27 -13t-11.5 -35t-2.5 -68h181zM130 580v127h159v-127h-159zM384 580v127h159v-127h-159z" />
    <glyph glyph-name="igrave" unicode="&#xec;" horiz-adv-x="305" 
d="M56 0v499h193v-499h-193zM102 580l-123 168h144l116 -168h-137z" />
    <glyph glyph-name="iacute" unicode="&#xed;" horiz-adv-x="305" 
d="M56 0v499h193v-499h-193zM203 580h-137l116 168h144z" />
    <glyph glyph-name="icircumflex" unicode="&#xee;" horiz-adv-x="305" 
d="M56 0v499h193v-499h-193zM229 580l-77 105l-77 -105h-124l116 168h170l117 -168h-125z" />
    <glyph glyph-name="idieresis" unicode="&#xef;" horiz-adv-x="305" 
d="M56 0v499h193v-499h-193zM-54 580v127h159v-127h-159zM200 580v127h159v-127h-159z" />
    <glyph glyph-name="eth" unicode="&#xf0;" horiz-adv-x="681" 
d="M575 582q20 -62 35.5 -149.5t15.5 -201.5q0 -78 -8.5 -126t-38.5 -74.5t-87.5 -35t-156.5 -8.5t-156.5 8.5t-87.5 35t-38.5 74.5t-8.5 126q0 82 10.5 131.5t42 76.5t88.5 36t150 9q20 0 34 -1t24 -2q11 -1 19 -2q0 20 -3 41t-8 41l-114 -14v71l98 12q-7 20 -12.5 37.5
t-10.5 30.5q-5 15 -10 27h161q5 -8 11 -19q5 -10 11.5 -24t14.5 -32l125 16v-71zM425 231q0 55 -2 84.5t-10.5 43t-25.5 16t-47 2.5h-9q-30 0 -47.5 -2.5t-26 -16t-11 -43t-2.5 -84.5q0 -51 1.5 -79t10 -41t26 -15t49.5 -2h9q32 0 49 2t25 15t9.5 41t1.5 79z" />
    <glyph glyph-name="ntilde" unicode="&#xf1;" 
d="M422 0v333q0 27 -5 41.5t-15.5 21.5t-27 8t-39.5 1q-20 0 -36 -1t-27 -2q-13 -1 -23 -2v-400h-193v490q33 6 75 11q36 4 87.5 7.5t116.5 3.5q72 0 124.5 -4.5t87 -22.5t51.5 -54t17 -98v-333h-193zM558 740q0 -86 -32.5 -125.5t-98.5 -39.5q-33 0 -58.5 12.5t-46.5 28
t-39 28t-37 12.5q-6 0 -13 -2t-13 -9.5t-10.5 -22.5t-4.5 -42h-91q0 86 33 125.5t99 39.5q33 0 58.5 -12.5t46.5 -27.5t39 -27.5t37 -12.5q6 0 13 2t13 9.5t10 22.5t4 41h91v0z" />
    <glyph glyph-name="ograve" unicode="&#xf2;" 
d="M626 245q0 -84 -7.5 -134.5t-37 -78t-87.5 -36.5t-159 -9q-67 0 -114.5 3.5t-80 13.5t-51.5 28t-29 47t-13 69.5t-3 96.5q0 87 10 139.5t41 81t88 37.5t152 9q94 0 151.5 -9t88.5 -37.5t41 -81t10 -139.5zM425 250q0 58 -2 89.5t-10.5 46t-25.5 17t-47 2.5h-9
q-30 0 -47.5 -2.5t-26 -17t-11 -46t-2.5 -89.5v-9q0 -55 1.5 -85t10 -43.5t26 -16t49.5 -2.5h9q32 0 49 2.5t25 16t9.5 43.5t1.5 85v9zM286 580l-123 168h144l116 -168h-137z" />
    <glyph glyph-name="oacute" unicode="&#xf3;" 
d="M626 245q0 -84 -7.5 -134.5t-37 -78t-87.5 -36.5t-159 -9q-67 0 -114.5 3.5t-80 13.5t-51.5 28t-29 47t-13 69.5t-3 96.5q0 87 10 139.5t41 81t88 37.5t152 9q94 0 151.5 -9t88.5 -37.5t41 -81t10 -139.5zM425 250q0 58 -2 89.5t-10.5 46t-25.5 17t-47 2.5h-9
q-30 0 -47.5 -2.5t-26 -17t-11 -46t-2.5 -89.5v-9q0 -55 1.5 -85t10 -43.5t26 -16t49.5 -2.5h9q32 0 49 2.5t25 16t9.5 43.5t1.5 85v9zM387 580h-137l116 168h144z" />
    <glyph glyph-name="ocircumflex" unicode="&#xf4;" 
d="M626 245q0 -84 -7.5 -134.5t-37 -78t-87.5 -36.5t-159 -9q-67 0 -114.5 3.5t-80 13.5t-51.5 28t-29 47t-13 69.5t-3 96.5q0 87 10 139.5t41 81t88 37.5t152 9q94 0 151.5 -9t88.5 -37.5t41 -81t10 -139.5zM425 250q0 58 -2 89.5t-10.5 46t-25.5 17t-47 2.5h-9
q-30 0 -47.5 -2.5t-26 -17t-11 -46t-2.5 -89.5v-9q0 -55 1.5 -85t10 -43.5t26 -16t49.5 -2.5h9q32 0 49 2.5t25 16t9.5 43.5t1.5 85v9zM413 580l-77 105l-77 -105h-124l116 168h170l117 -168h-125z" />
    <glyph glyph-name="otilde" unicode="&#xf5;" 
d="M626 245q0 -84 -7.5 -134.5t-37 -78t-87.5 -36.5t-159 -9q-67 0 -114.5 3.5t-80 13.5t-51.5 28t-29 47t-13 69.5t-3 96.5q0 87 10 139.5t41 81t88 37.5t152 9q94 0 151.5 -9t88.5 -37.5t41 -81t10 -139.5zM425 250q0 58 -2 89.5t-10.5 46t-25.5 17t-47 2.5h-9
q-30 0 -47.5 -2.5t-26 -17t-11 -46t-2.5 -89.5v-9q0 -55 1.5 -85t10 -43.5t26 -16t49.5 -2.5h9q32 0 49 2.5t25 16t9.5 43.5t1.5 85v9zM558 740q0 -86 -32.5 -125.5t-98.5 -39.5q-33 0 -58.5 12.5t-46.5 28t-39 28t-37 12.5q-6 0 -13 -2t-13 -9.5t-10.5 -22.5t-4.5 -42h-91
q0 86 33 125.5t99 39.5q33 0 58.5 -12.5t46.5 -27.5t39 -27.5t37 -12.5q6 0 13 2t13 9.5t10 22.5t4 41h91v0z" />
    <glyph glyph-name="odieresis" unicode="&#xf6;" 
d="M626 245q0 -84 -7.5 -134.5t-37 -78t-87.5 -36.5t-159 -9q-67 0 -114.5 3.5t-80 13.5t-51.5 28t-29 47t-13 69.5t-3 96.5q0 87 10 139.5t41 81t88 37.5t152 9q94 0 151.5 -9t88.5 -37.5t41 -81t10 -139.5zM425 250q0 58 -2 89.5t-10.5 46t-25.5 17t-47 2.5h-9
q-30 0 -47.5 -2.5t-26 -17t-11 -46t-2.5 -89.5v-9q0 -55 1.5 -85t10 -43.5t26 -16t49.5 -2.5h9q32 0 49 2.5t25 16t9.5 43.5t1.5 85v9zM130 580v127h159v-127h-159zM384 580v127h159v-127h-159z" />
    <glyph glyph-name="divide" unicode="&#xf7;" horiz-adv-x="636" 
d="M48 242v105h539v-105h-539zM251 419v153h134v-153h-134zM251 17v154h134v-154h-134z" />
    <glyph glyph-name="oslash" unicode="&#xf8;" 
d="M626 245q0 -84 -7.5 -134.5t-37 -78t-87.5 -36.5t-159 -9q-37 0 -67.5 1.5t-55.5 3.5l-51 -77h-85l60 91q-31 10 -49 28.5t-27.5 47t-12.5 68.5t-3 95q0 87 10 139.5t41 81t88 37.5t152 9q74 0 128 -6l46 73h85l-58 -90q28 -11 45.5 -30.5t27.5 -48.5t13.5 -70t3.5 -95z
M244 241v-37.5t1 -29.5l148 226q-9 4 -22.5 4.5t-30.5 0.5h-9q-30 0 -47.5 -2.5t-26 -17t-11 -46t-2.5 -89.5v-9zM425 319l-145 -222q9 -2 21.5 -2.5t29.5 -0.5h9q32 0 49 2.5t25 16t9.5 43.5t1.5 85v78z" />
    <glyph glyph-name="ugrave" unicode="&#xf9;" 
d="M615 9q-33 -7 -75 -11q-36 -5 -88 -8t-117 -3q-84 0 -138.5 5.5t-85.5 24.5t-43 54t-12 95v333h193v-333q0 -27 4.5 -41.5t14.5 -21.5t26.5 -8t40.5 -1q20 0 36 0.5t27 1.5q13 1 24 2v401h193v-490v0zM286 580l-123 168h144l116 -168h-137z" />
    <glyph glyph-name="uacute" unicode="&#xfa;" 
d="M615 9q-33 -7 -75 -11q-36 -5 -88 -8t-117 -3q-84 0 -138.5 5.5t-85.5 24.5t-43 54t-12 95v333h193v-333q0 -27 4.5 -41.5t14.5 -21.5t26.5 -8t40.5 -1q20 0 36 0.5t27 1.5q13 1 24 2v401h193v-490v0zM387 580h-137l116 168h144z" />
    <glyph glyph-name="ucircumflex" unicode="&#xfb;" 
d="M615 9q-33 -7 -75 -11q-36 -5 -88 -8t-117 -3q-84 0 -138.5 5.5t-85.5 24.5t-43 54t-12 95v333h193v-333q0 -27 4.5 -41.5t14.5 -21.5t26.5 -8t40.5 -1q20 0 36 0.5t27 1.5q13 1 24 2v401h193v-490v0zM413 580l-77 105l-77 -105h-124l116 168h170l117 -168h-125z" />
    <glyph glyph-name="udieresis" unicode="&#xfc;" 
d="M615 9q-33 -7 -75 -11q-36 -5 -88 -8t-117 -3q-84 0 -138.5 5.5t-85.5 24.5t-43 54t-12 95v333h193v-333q0 -27 4.5 -41.5t14.5 -21.5t26.5 -8t40.5 -1q20 0 36 0.5t27 1.5q13 1 24 2v401h193v-490v0zM130 580v127h159v-127h-159zM384 580v127h159v-127h-159z" />
    <glyph glyph-name="yacute" unicode="&#xfd;" horiz-adv-x="648" 
d="M462 -67q-19 -59 -39.5 -93.5t-44.5 -52t-52.5 -22.5t-63.5 -5q-47 0 -84 3t-63 8q-31 5 -53 12v92q15 -2 35 -4q17 -2 41 -3t54 -1q22 0 36 1.5t23.5 9.5t17.5 25t17 48l15 49h-133l-155 499h201l113 -392l113 392h198zM378 580h-137l116 168h144z" />
    <glyph glyph-name="thorn" unicode="&#xfe;" 
d="M626 245q0 -84 -7.5 -134.5t-36.5 -78t-86 -36.5t-155 -9q-22 0 -38.5 0.5t-28.5 1.5q-14 1 -25 3v-219h-193v952h193v-218q11 1 25 2q12 1 28.5 2t38.5 1q92 0 148 -9t86.5 -37.5t40.5 -81t10 -139.5zM425 250q0 58 -2 89.5t-11 46t-27 17t-50 2.5q-20 0 -36 -0.5
t-27 -1.5q-13 -1 -23 -1v-305q10 -1 23 -2q11 -1 27 -1h36q34 0 52 2.5t26.5 16t10 43.5t1.5 85v9z" />
    <glyph glyph-name="ydieresis" unicode="&#xff;" horiz-adv-x="648" 
d="M462 -67q-19 -59 -39.5 -93.5t-44.5 -52t-52.5 -22.5t-63.5 -5q-47 0 -84 3t-63 8q-31 5 -53 12v92q15 -2 35 -4q17 -2 41 -3t54 -1q22 0 36 1.5t23.5 9.5t17.5 25t17 48l15 49h-133l-155 499h201l113 -392l113 392h198zM121 580v127h159v-127h-159zM375 580v127h159
v-127h-159z" />
    <glyph glyph-name="OE" unicode="&#x152;" horiz-adv-x="1083" 
d="M309 0q-53 0 -92 4.5t-67 17.5t-45.5 36t-27.5 59.5t-14 88.5t-4 123q0 115 12 184t42 106t80 49t126 12h708v-129h-332v-145h302v-118h-302v-158h339v-130h-725zM482 540h-105q-32 0 -51 -3.5t-29 -23.5t-13.5 -63.5t-3.5 -123.5q0 -70 3 -107.5t12.5 -55t27.5 -20.5
t49 -3h110v400z" />
    <glyph glyph-name="oe" unicode="&#x153;" horiz-adv-x="1031" 
d="M612 204q0 -42 1.5 -65.5t10.5 -35t27.5 -14t51.5 -3.5q59 -1 107.5 1t83.5 4q41 3 74 6v-88q-33 -7 -75 -11q-36 -5 -87 -8t-116 -3q-62 0 -104 5.5t-71 19.5q-30 -14 -74 -19.5t-109 -5.5q-99 0 -156.5 9t-86.5 36.5t-37 78t-8 134.5q0 87 10 139.5t41 81t87.5 37.5
t149.5 9q64 0 109 -5.5t75 -22.5q29 17 73.5 22.5t109.5 5.5q93 0 149.5 -9t87 -37.5t40.5 -81t10 -139.5v-41h-374zM419 250q0 58 -2.5 89.5t-10.5 46t-25 17t-45 2.5h-9q-28 0 -44.5 -2.5t-25 -17t-11 -46t-2.5 -89.5v-9q0 -55 1.5 -85t10 -43.5t25 -16t46.5 -2.5h9
q30 0 46.5 2.5t25 16t10 43.5t1.5 85v9zM786 294q0 44 -2.5 68t-11.5 35t-26 13t-47 2t-47.5 -2t-26 -13t-11 -35t-2.5 -68h174z" />
    <glyph glyph-name="Scaron" unicode="&#x160;" horiz-adv-x="692" 
d="M427 753h-170l-116 169h124l77 -105l77 105h125zM653 193q0 -72 -17.5 -113.5t-54.5 -62t-95 -25.5t-138 -5q-71 0 -126.5 3t-95.5 8q-47 4 -82 11v116q26 -2 60 -4q29 -2 70.5 -3t94.5 -1q55 0 87.5 1t49.5 8t22 22t5 43q0 22 -1 35t-6 20.5t-16 11.5t-32 8l-160 27
q-65 10 -99.5 28t-51 43.5t-19 58t-2.5 72.5q0 69 23 109t62 59.5t92 24.5t113 5q67 0 120.5 -3.5t91.5 -7.5q44 -4 77 -10v-117q-24 2 -56 4q-27 2 -65.5 3t-86.5 1q-50 0 -80 -1t-45.5 -7t-20 -19.5t-4.5 -37.5q0 -19 1 -30.5t6 -18.5t15.5 -11t30.5 -7l160 -27
q65 -11 100 -29t51.5 -43.5t19 -60t2.5 -78.5z" />
    <glyph glyph-name="scaron" unicode="&#x161;" horiz-adv-x="605" 
d="M384 580h-170l-116 168h124l77 -105l77 105h125zM569 141q0 -53 -14.5 -83.5t-46 -46.5t-81.5 -20t-122 -4q-62 0 -110.5 3t-83.5 8q-40 4 -71 11v86q22 -3 51 -5q25 -2 60 -3.5t80 -1.5q46 0 73.5 1t41.5 6t18.5 15.5t4.5 30.5q0 16 -0.5 25.5t-4.5 15.5t-13 8.5
t-25 4.5l-136 17q-55 7 -85 20.5t-43.5 33t-16 44.5t-2.5 55q0 51 19.5 81t53.5 45.5t79.5 19.5t96.5 4q58 0 104.5 -3.5t78.5 -7.5q38 -5 67 -11v-85q-21 1 -47 3q-23 2 -54.5 3t-72.5 1t-66 -0.5t-38.5 -5t-17.5 -14t-4 -26.5q0 -14 0.5 -22.5t5 -13.5t13 -7.5t25.5 -4.5
l136 -18q55 -7 85 -19.5t43.5 -31.5t16 -45.5t2.5 -62.5z" />
    <glyph glyph-name="Ydieresis" unicode="&#x178;" horiz-adv-x="748" 
d="M168 753v128h159v-128h-159zM422 753v128h159v-128h-159zM521 263h-41v-263h-212v263h-41l-220 417h227l141 -276l141 276h223z" />
    <glyph glyph-name="Zcaron" unicode="&#x17d;" horiz-adv-x="684" 
d="M426 753h-170l-116 169h124l77 -105l77 105h125zM44 0v140l331 400h-325v140h577v-140l-331 -400h348v-140h-600z" />
    <glyph glyph-name="zcaron" unicode="&#x17e;" horiz-adv-x="600" 
d="M384 580h-170l-116 168h124l77 -105l77 105h125zM40 0v107l268 285h-262v107h501v-107l-267 -285h284v-107h-524z" />
    <glyph glyph-name="florin" unicode="&#x192;" horiz-adv-x="738" 
d="M709 625q-13 1 -30 3q-14 2 -35 3t-47 1q-22 0 -35.5 -2.5t-22.5 -10.5t-14 -22.5t-9 -37.5l-29 -162h161v-104h-180l-62 -353q-9 -53 -24.5 -88t-38 -55.5t-54 -28.5t-72.5 -8q-44 0 -78.5 3t-58.5 8q-28 5 -50 12v91q12 -2 28 -4q27 -3 76 -3q19 0 32 2.5t21 10.5
t13.5 22.5t9.5 37.5l62 353h-140v104h159l29 162q9 53 26 87.5t41 55t55.5 28.5t71.5 8q45 0 80.5 -3.5t61.5 -7.5q30 -5 53 -11v-91v0z" />
    <glyph glyph-name="circumflex" unicode="&#x2c6;" horiz-adv-x="929" 
d="M541 580l-77 105l-77 -105h-124l116 168h170l117 -168h-125z" />
    <glyph glyph-name="tilde" unicode="&#x2dc;" horiz-adv-x="929" 
d="M686 740q0 -86 -32.5 -125.5t-98.5 -39.5q-33 0 -58.5 12.5t-46.5 28t-39 28t-37 12.5q-6 0 -13 -2t-13 -9.5t-10.5 -22.5t-4.5 -42h-91q0 86 33 125.5t99 39.5q33 0 58.5 -12.5t46.5 -27.5t39 -27.5t37 -12.5q6 0 13 2t13 9.5t10 22.5t4 41h91v0z" />
    <glyph glyph-name="endash" unicode="&#x2013;" horiz-adv-x="500" 
d="M0 242v105h500v-105h-500z" />
    <glyph glyph-name="emdash" unicode="&#x2014;" horiz-adv-x="1000" 
d="M200 242v105h600v-105h-600z" />
    <glyph glyph-name="quoteleft" unicode="&#x2018;" horiz-adv-x="290" 
d="M187 590h46v-156h-177v156l77 135h123z" />
    <glyph glyph-name="quoteright" unicode="&#x2019;" horiz-adv-x="290" 
d="M156 434h-123l69 135h-46v156h177v-156z" />
    <glyph glyph-name="quotesinglbase" unicode="&#x201a;" horiz-adv-x="290" 
d="M156 -136h-123l69 136h-46v156h177v-156z" />
    <glyph glyph-name="quotedblleft" unicode="&#x201c;" horiz-adv-x="563" 
d="M187 590h46v-156h-177v156l77 135h123zM460 590h46v-156h-177v156l77 135h123z" />
    <glyph glyph-name="quotedblright" unicode="&#x201d;" horiz-adv-x="563" 
d="M156 434h-123l69 135h-46v156h177v-156zM429 434h-123l69 135h-46v156h177v-156z" />
    <glyph glyph-name="quotedblbase" unicode="&#x201e;" horiz-adv-x="563" 
d="M156 -136h-123l69 136h-46v156h177v-156zM429 -136h-123l69 136h-46v156h177v-156z" />
    <glyph glyph-name="dagger" unicode="&#x2020;" horiz-adv-x="625" 
d="M400 369v-596h-175v596h-177v130h177v226h175v-226h177v-130h-177z" />
    <glyph glyph-name="daggerdbl" unicode="&#x2021;" horiz-adv-x="625" 
d="M400 0v-227h-175v227h-177v129h177v240h-177v130h177v226h175v-226h177v-130h-177v-240h177v-129h-177z" />
    <glyph glyph-name="bullet" unicode="&#x2022;" horiz-adv-x="399" 
d="M350 340q0 -31 -12 -58.5t-32.5 -48t-47.5 -32.5t-58 -12q-32 0 -59.5 12t-48 32.5t-32.5 48t-12 58.5t12 58.5t32.5 48t48 32t59.5 11.5q31 0 58 -11.5t47.5 -32t32.5 -48t12 -58.5z" />
    <glyph glyph-name="ellipsis" unicode="&#x2026;" horiz-adv-x="1000" 
d="M403 0v168h193v-168h-193zM56 0v168h193v-168h-193zM751 0v168h193v-168h-193z" />
    <glyph glyph-name="perthousand" unicode="&#x2030;" horiz-adv-x="1563" 
d="M408 0h-103l393 680h103zM425 465q0 -72 -6 -114.5t-26.5 -64t-59.5 -28t-104 -6.5t-104 6.5t-59.5 28t-27 64t-6.5 114.5q0 75 7.5 119.5t29.5 67.5t60 29.5t100 6.5q61 0 99.5 -6.5t60 -29.5t29 -67.5t7.5 -119.5zM293 468q0 50 -1.5 77.5t-7.5 40t-18.5 14.5t-34.5 2
h-5q-22 0 -34.5 -2t-18.5 -14.5t-7.5 -40t-1.5 -77.5v-4q0 -47 1 -72.5t7 -37.5t18.5 -14t35.5 -2h5q23 0 35.5 2t18.5 14t7 37.5t1 72.5v4zM1074 206q0 -72 -6 -114.5t-26.5 -64.5t-59.5 -28.5t-105 -6.5t-105 6.5t-59.5 28.5t-26.5 64.5t-6 114.5q0 75 7.5 119t29.5 67
t60 29.5t100 6.5q61 0 99.5 -6.5t60 -29.5t29.5 -67t8 -119zM942 209q0 50 -1.5 77t-8 39.5t-19 14.5t-33.5 2h-6q-21 0 -33.5 -2t-18.5 -14.5t-7.5 -39.5t-1.5 -77v-6q0 -47 1 -72.5t7 -37t18 -13.5t35 -2h6q22 0 34.5 2t18.5 13.5t7.5 37t1.5 72.5v6zM1532 206
q0 -72 -6.5 -114.5t-27 -64.5t-59.5 -28.5t-104 -6.5q-66 0 -105 6.5t-59.5 28.5t-26.5 64.5t-6 114.5q0 75 7.5 119t29.5 67t60 29.5t100 6.5q61 0 99.5 -6.5t60 -29.5t29.5 -67t8 -119zM1399 209q0 50 -1.5 77t-7.5 39.5t-18.5 14.5t-34.5 2h-5q-22 0 -34 -2t-18 -14.5
t-7.5 -39.5t-1.5 -77v-6q0 -47 1 -72.5t7 -37t18 -13.5t35 -2h5q23 0 35.5 2t18.5 13.5t7 37t1 72.5v6z" />
    <glyph glyph-name="guilsinglleft" unicode="&#x2039;" horiz-adv-x="360" 
d="M167 22l-143 228l143 227h168l-136 -227l136 -228h-168z" />
    <glyph glyph-name="guilsinglright" unicode="&#x203a;" horiz-adv-x="360" 
d="M193 22h-169l138 228l-138 227h169l142 -227z" />
    <glyph glyph-name="Euro" unicode="&#x20ac;" horiz-adv-x="738" 
d="M672 9q-33 -7 -75 -11q-36 -5 -87.5 -8t-116.5 -3q-84 0 -137 11t-83 39.5t-42.5 77.5t-15.5 124h-70v70h68v62h-68v70h71q5 76 20 124.5t46 77t81 39.5t126 11q64 0 115 -3.5t87 -7.5q42 -4 74 -10v-112q-44 3 -87 5q-37 2 -78.5 3t-74.5 0q-30 -2 -49 -4.5t-30.5 -14.5
t-16 -37t-5.5 -71h312v-70h-313v-62h313v-70h-312q1 -46 4.5 -70.5t14.5 -36.5t30.5 -15t52.5 -4q34 -2 76.5 -1t80.5 3q44 2 89 5v-111v0z" />
    <glyph glyph-name="trademark" unicode="&#x2122;" horiz-adv-x="760" 
d="M203 612v-239h-100v239h-92v68h283v-68h-91zM635 373v208l-59 -208h-93l-60 208v-208h-91v307h135l62 -214l64 214h135v-307h-93z" />
    </font>
</defs>
</svg>
